<?xml version="1.0" encoding="UTF-8" standalone="no"?>
<!DOCTYPE svg PUBLIC "-//W3C//DTD SVG 1.1//EN"
 "http://www.w3.org/Graphics/SVG/1.1/DTD/svg11.dtd">
<!-- Generated by graphviz version 2.39.20160104.1625 (20160104.1625)
 -->
<!-- Title: %3 Pages: 1 -->
<svg width="374pt" height="134pt"
 viewBox="0.00 0.00 373.88 134.12" xmlns="http://www.w3.org/2000/svg" xmlns:xlink="http://www.w3.org/1999/xlink">
<g id="graph0" class="graph" transform="scale(1 1) rotate(0) translate(4 130.125)">
<title>%3</title>
<polygon fill="white" stroke="transparent" points="-4,4 -4,-130.125 369.885,-130.125 369.885,4 -4,4"/>
<!-- stress -->
<g id="node1" class="node">
<title>stress</title>
<polygon fill="lightgrey" stroke="black" points="37,-126.125 0,-126.125 0,-108.125 37,-108.125 37,-126.125"/>
<text text-anchor="middle" x="18.5" y="-114.025" font-family="Times,serif" font-size="9.00">stress</text>
</g>
<!-- a0t0 -->
<g id="node2" class="node">
<title>a0t0</title>
<polygon fill="lightgrey" stroke="black" points="87.5,-126.125 55.5,-126.125 55.5,-108.125 87.5,-108.125 87.5,-126.125"/>
<text text-anchor="middle" x="71.5" y="-114.025" font-family="Times,serif" font-size="9.00">a0t0</text>
</g>
<!-- a0t1 -->
<g id="node3" class="node">
<title>a0t1</title>
<polygon fill="lightgrey" stroke="black" points="137.5,-126.125 105.5,-126.125 105.5,-108.125 137.5,-108.125 137.5,-126.125"/>
<text text-anchor="middle" x="121.5" y="-114.025" font-family="Times,serif" font-size="9.00">a0t1</text>
</g>
<!-- a0 -->
<g id="node8" class="node">
<title>a0</title>
<ellipse fill="lightblue" stroke="lightblue" cx="121.5" cy="-36.0624" rx="17.8571" ry="17.8571"/>
<text text-anchor="middle" x="121.5" y="-32.9624" font-family="Times,serif" font-size="9.00">a0</text>
</g>
<!-- a0t1&#45;&gt;a0 -->
<g id="edge3" class="edge">
<title>a0t1&#45;&gt;a0</title>
<path fill="none" stroke="red" stroke-width="0.198922" stroke-dasharray="1,5" d="M121.5,-107.826C121.5,-97.1486 121.5,-79.1337 121.5,-63.8253"/>
<polygon fill="red" stroke="red" stroke-width="0.198922" points="125,-63.783 121.5,-53.7831 118,-63.7831 125,-63.783"/>
</g>
<!-- a0t2 -->
<g id="node4" class="node">
<title>a0t2</title>
<polygon fill="lightgrey" stroke="black" points="252.5,-126.125 220.5,-126.125 220.5,-108.125 252.5,-108.125 252.5,-126.125"/>
<text text-anchor="middle" x="236.5" y="-114.025" font-family="Times,serif" font-size="9.00">a0t2</text>
</g>
<!-- apoptosis -->
<g id="node6" class="node">
<title>apoptosis</title>
<ellipse fill="lightblue" stroke="lightblue" cx="193.5" cy="-36.0624" rx="36.125" ry="36.125"/>
<text text-anchor="middle" x="193.5" y="-32.9624" font-family="Times,serif" font-size="9.00">apoptosis</text>
</g>
<!-- a0t2&#45;&gt;apoptosis -->
<g id="edge5" class="edge">
<title>a0t2&#45;&gt;apoptosis</title>
<path fill="none" stroke="green" stroke-width="0.101663" d="M231.567,-107.826C227.454,-100.071 221.287,-88.4465 215.109,-76.799"/>
<polygon fill="green" stroke="green" stroke-width="0.101663" points="218.194,-75.1453 210.416,-67.9514 212.01,-78.4256 218.194,-75.1453"/>
</g>
<!-- division -->
<g id="node7" class="node">
<title>division</title>
<ellipse fill="lightblue" stroke="lightblue" cx="279.5" cy="-36.0624" rx="31.6406" ry="31.6406"/>
<text text-anchor="middle" x="279.5" y="-32.9624" font-family="Times,serif" font-size="9.00">division</text>
</g>
<!-- a0t2&#45;&gt;division -->
<g id="edge4" class="edge">
<title>a0t2&#45;&gt;division</title>
<path fill="none" stroke="green" stroke-width="0.19861" d="M241.433,-107.826C245.941,-99.326 252.917,-86.1761 259.671,-73.4434"/>
<polygon fill="green" stroke="green" stroke-width="0.19861" points="262.917,-74.7924 264.512,-64.3181 256.734,-71.5121 262.917,-74.7924"/>
</g>
<!-- a0t2&#45;&gt;a0 -->
<g id="edge2" class="edge">
<title>a0t2&#45;&gt;a0</title>
<path fill="none" stroke="red" stroke-width="0.107743" d="M220.267,-111.415C201.552,-104.279 170.541,-90.7054 148.5,-72.1249 144.273,-68.5615 140.322,-64.2165 136.816,-59.7931"/>
<polygon fill="red" stroke="red" stroke-width="0.107743" points="139.393,-57.3872 130.669,-51.3753 133.74,-61.5154 139.393,-57.3872"/>
</g>
<!-- h0 -->
<g id="node9" class="node">
<title>h0</title>
<ellipse fill="lightblue" stroke="lightblue" cx="347.5" cy="-36.0624" rx="18.2703" ry="18.2703"/>
<text text-anchor="middle" x="347.5" y="-32.9624" font-family="Times,serif" font-size="9.00">h0</text>
</g>
<!-- a0t2&#45;&gt;h0 -->
<g id="edge1" class="edge">
<title>a0t2&#45;&gt;h0</title>
<path fill="none" stroke="red" stroke-width="0.153676" d="M252.624,-110.987C270.536,-103.633 299.672,-90.0257 320.5,-72.1249 324.548,-68.6456 328.357,-64.4582 331.766,-60.1877"/>
<polygon fill="red" stroke="red" stroke-width="0.153676" points="334.661,-62.16 337.788,-52.0372 329.031,-58.0005 334.661,-62.16"/>
</g>
<!-- a0t3 -->
<g id="node5" class="node">
<title>a0t3</title>
<polygon fill="lightgrey" stroke="black" points="302.5,-126.125 270.5,-126.125 270.5,-108.125 302.5,-108.125 302.5,-126.125"/>
<text text-anchor="middle" x="286.5" y="-114.025" font-family="Times,serif" font-size="9.00">a0t3</text>
</g>
</g>
</svg>
