<?xml version="1.0" encoding="UTF-8" standalone="no"?>
<!DOCTYPE svg PUBLIC "-//W3C//DTD SVG 1.1//EN"
 "http://www.w3.org/Graphics/SVG/1.1/DTD/svg11.dtd">
<!-- Generated by graphviz version 2.39.20160104.1625 (20160104.1625)
 -->
<!-- Title: %3 Pages: 1 -->
<svg width="439pt" height="237pt"
 viewBox="0.00 0.00 439.35 237.24" xmlns="http://www.w3.org/2000/svg" xmlns:xlink="http://www.w3.org/1999/xlink">
<g id="graph0" class="graph" transform="scale(1 1) rotate(0) translate(4 233.238)">
<title>%3</title>
<polygon fill="white" stroke="transparent" points="-4,4 -4,-233.238 435.349,-233.238 435.349,4 -4,4"/>
<!-- 0 -->
<g id="node1" class="node">
<title>0</title>
<polygon fill="lightgrey" stroke="black" points="21,-229.238 0,-229.238 0,-211.238 21,-211.238 21,-229.238"/>
<text text-anchor="middle" x="10.5" y="-217.138" font-family="Times,serif" font-size="9.00">0</text>
</g>
<!-- 1 -->
<g id="node2" class="node">
<title>1</title>
<polygon fill="lightgrey" stroke="black" points="60,-229.238 39,-229.238 39,-211.238 60,-211.238 60,-229.238"/>
<text text-anchor="middle" x="49.5" y="-217.138" font-family="Times,serif" font-size="9.00">1</text>
</g>
<!-- 7 -->
<g id="node8" class="node">
<title>7</title>
<ellipse fill="lightblue" stroke="lightblue" cx="59.5" cy="-156.853" rx="15.6129" ry="15.6129"/>
<text text-anchor="middle" x="59.5" y="-153.753" font-family="Times,serif" font-size="9.00">7</text>
</g>
<!-- 1&#45;&gt;7 -->
<g id="edge15" class="edge">
<title>1&#45;&gt;7</title>
<path fill="none" stroke="red" stroke-width="0.589273" stroke-dasharray="1,5" d="M50.9328,-211.156C52.1192,-203.636 53.8648,-192.572 55.4712,-182.389"/>
<polygon fill="red" stroke="red" stroke-width="0.589273" points="58.9645,-182.706 57.0657,-172.282 52.05,-181.615 58.9645,-182.706"/>
</g>
<!-- 2 -->
<g id="node3" class="node">
<title>2</title>
<polygon fill="lightgrey" stroke="black" points="184,-229.238 163,-229.238 163,-211.238 184,-211.238 184,-229.238"/>
<text text-anchor="middle" x="173.5" y="-217.138" font-family="Times,serif" font-size="9.00">2</text>
</g>
<!-- 10 -->
<g id="node11" class="node">
<title>10</title>
<ellipse fill="lightblue" stroke="lightblue" cx="125.5" cy="-156.853" rx="18.2703" ry="18.2703"/>
<text text-anchor="middle" x="125.5" y="-153.753" font-family="Times,serif" font-size="9.00">10</text>
</g>
<!-- 2&#45;&gt;10 -->
<g id="edge11" class="edge">
<title>2&#45;&gt;10</title>
<path fill="none" stroke="red" stroke-width="0.634697" d="M166.623,-211.156C160.486,-203.053 151.234,-190.835 143.058,-180.039"/>
<polygon fill="red" stroke="red" stroke-width="0.634697" points="145.64,-177.65 136.813,-171.791 140.06,-181.876 145.64,-177.65"/>
</g>
<!-- 12 -->
<g id="node15" class="node">
<title>12</title>
<ellipse fill="none" stroke="black" cx="180.5" cy="-156.853" rx="18.2703" ry="18.2703"/>
<text text-anchor="middle" x="180.5" y="-153.753" font-family="Times,serif" font-size="9.00">12</text>
</g>
<!-- 2&#45;&gt;12 -->
<g id="edge13" class="edge">
<title>2&#45;&gt;12</title>
<path fill="none" stroke="red" stroke-width="0.294764" stroke-dasharray="1,5" d="M174.503,-211.156C175.25,-204.391 176.314,-194.758 177.339,-185.479"/>
<polygon fill="red" stroke="red" stroke-width="0.294764" points="180.841,-185.649 178.46,-175.325 173.883,-184.88 180.841,-185.649"/>
</g>
<!-- 3 -->
<g id="node4" class="node">
<title>3</title>
<polygon fill="lightgrey" stroke="black" points="140.5,-229.238 118.5,-229.238 118.5,-211.238 140.5,-211.238 140.5,-229.238"/>
<text text-anchor="middle" x="129.5" y="-217.138" font-family="Times,serif" font-size="9.00">3</text>
</g>
<!-- 3&#45;&gt;10 -->
<g id="edge8" class="edge">
<title>3&#45;&gt;10</title>
<path fill="none" stroke="green" stroke-width="0.207303" stroke-dasharray="1,5" d="M128.927,-211.156C128.5,-204.391 127.892,-194.758 127.307,-185.479"/>
<polygon fill="green" stroke="green" stroke-width="0.207303" points="130.789,-185.084 126.666,-175.325 123.803,-185.525 130.789,-185.084"/>
</g>
<!-- 4 -->
<g id="node5" class="node">
<title>4</title>
<polygon fill="lightgrey" stroke="black" points="100.5,-229.238 78.5,-229.238 78.5,-211.238 100.5,-211.238 100.5,-229.238"/>
<text text-anchor="middle" x="89.5" y="-217.138" font-family="Times,serif" font-size="9.00">4</text>
</g>
<!-- 4&#45;&gt;7 -->
<g id="edge2" class="edge">
<title>4&#45;&gt;7</title>
<path fill="none" stroke="green" stroke-width="0.154415" stroke-dasharray="1,5" d="M85.2017,-211.156C81.4308,-203.189 75.777,-191.243 70.7315,-180.583"/>
<polygon fill="green" stroke="green" stroke-width="0.154415" points="73.7819,-178.847 66.3403,-171.305 67.4548,-181.841 73.7819,-178.847"/>
</g>
<!-- 4&#45;&gt;10 -->
<g id="edge1" class="edge">
<title>4&#45;&gt;10</title>
<path fill="none" stroke="green" stroke-width="0.738176" d="M94.6579,-211.156C98.9449,-203.608 105.26,-192.49 111.061,-182.276"/>
<polygon fill="green" stroke="green" stroke-width="0.738176" points="114.275,-183.703 116.171,-173.279 108.188,-180.246 114.275,-183.703"/>
</g>
<!-- 5 -->
<g id="node6" class="node">
<title>5</title>
<polygon fill="lightgrey" stroke="black" points="246,-229.238 225,-229.238 225,-211.238 246,-211.238 246,-229.238"/>
<text text-anchor="middle" x="235.5" y="-217.138" font-family="Times,serif" font-size="9.00">5</text>
</g>
<!-- 8 -->
<g id="node9" class="node">
<title>8</title>
<ellipse fill="lightblue" stroke="lightblue" cx="243.5" cy="-14.8492" rx="14.7" ry="14.7"/>
<text text-anchor="middle" x="243.5" y="-11.7492" font-family="Times,serif" font-size="9.00">8</text>
</g>
<!-- 5&#45;&gt;8 -->
<g id="edge18" class="edge">
<title>5&#45;&gt;8</title>
<path fill="none" stroke="green" stroke-width="0.579321" stroke-dasharray="1,5" d="M243.16,-210.939C249.745,-202.297 258.755,-188.759 262.5,-175.238 275.613,-127.895 261.88,-70.2342 251.903,-38.5502"/>
<polygon fill="green" stroke="green" stroke-width="0.579321" points="255.162,-37.2558 248.708,-28.8534 248.514,-39.4465 255.162,-37.2558"/>
</g>
<!-- 5&#45;&gt;10 -->
<g id="edge3" class="edge">
<title>5&#45;&gt;10</title>
<path fill="none" stroke="green" stroke-width="0.239984" stroke-dasharray="1,5" d="M224.995,-214.814C209.25,-206.609 178.688,-190.386 153.5,-175.238 152.192,-174.451 150.858,-173.632 149.516,-172.796"/>
<polygon fill="green" stroke="green" stroke-width="0.239984" points="151.073,-169.637 140.765,-167.189 147.297,-175.531 151.073,-169.637"/>
</g>
<!-- 11 -->
<g id="node12" class="node">
<title>11</title>
<ellipse fill="lightblue" stroke="lightblue" cx="327.5" cy="-156.853" rx="18.2703" ry="18.2703"/>
<text text-anchor="middle" x="327.5" y="-153.753" font-family="Times,serif" font-size="9.00">11</text>
</g>
<!-- 5&#45;&gt;11 -->
<g id="edge5" class="edge">
<title>5&#45;&gt;11</title>
<path fill="none" stroke="red" stroke-width="0.280839" stroke-dasharray="1,5" d="M246.054,-212.967C260.07,-203.31 285.227,-185.977 303.886,-173.122"/>
<polygon fill="red" stroke="red" stroke-width="0.280839" points="305.943,-175.955 312.192,-167.4 301.971,-170.191 305.943,-175.955"/>
</g>
<!-- 13 -->
<g id="node13" class="node">
<title>13</title>
<ellipse fill="none" stroke="black" cx="235.5" cy="-156.853" rx="18.2703" ry="18.2703"/>
<text text-anchor="middle" x="235.5" y="-153.753" font-family="Times,serif" font-size="9.00">13</text>
</g>
<!-- 5&#45;&gt;13 -->
<g id="edge10" class="edge">
<title>5&#45;&gt;13</title>
<path fill="none" stroke="green" stroke-width="0.404298" d="M235.5,-211.156C235.5,-204.391 235.5,-194.758 235.5,-185.479"/>
<polygon fill="green" stroke="green" stroke-width="0.404298" points="239,-185.325 235.5,-175.325 232,-185.325 239,-185.325"/>
</g>
<!-- 5&#45;&gt;12 -->
<g id="edge7" class="edge">
<title>5&#45;&gt;12</title>
<path fill="none" stroke="red" stroke-width="0.215861" d="M227.62,-211.156C220.258,-202.672 208.982,-189.677 199.307,-178.527"/>
<polygon fill="red" stroke="red" stroke-width="0.215861" points="201.821,-176.083 192.623,-170.824 196.533,-180.671 201.821,-176.083"/>
</g>
<!-- 6 -->
<g id="node7" class="node">
<title>6</title>
<polygon fill="lightgrey" stroke="black" points="361,-229.238 340,-229.238 340,-211.238 361,-211.238 361,-229.238"/>
<text text-anchor="middle" x="350.5" y="-217.138" font-family="Times,serif" font-size="9.00">6</text>
</g>
<!-- 6&#45;&gt;8 -->
<g id="edge4" class="edge">
<title>6&#45;&gt;8</title>
<path fill="none" stroke="green" stroke-width="0.420065" d="M353.355,-210.777C357.56,-195.134 363.957,-163.155 354.5,-138.468 336.423,-91.279 291.102,-50.7821 264.293,-29.9184"/>
<polygon fill="green" stroke="green" stroke-width="0.420065" points="266.06,-26.8662 255.976,-23.6143 261.831,-32.4445 266.06,-26.8662"/>
</g>
<!-- 9 -->
<g id="node10" class="node">
<title>9</title>
<ellipse fill="lightblue" stroke="lightblue" cx="416.5" cy="-156.853" rx="14.7" ry="14.7"/>
<text text-anchor="middle" x="416.5" y="-153.753" font-family="Times,serif" font-size="9.00">9</text>
</g>
<!-- 6&#45;&gt;9 -->
<g id="edge16" class="edge">
<title>6&#45;&gt;9</title>
<path fill="none" stroke="red" stroke-width="0.127547" stroke-dasharray="1,5" d="M359.956,-211.156C369.897,-201.609 385.787,-186.349 398.194,-174.434"/>
<polygon fill="red" stroke="red" stroke-width="0.127547" points="400.959,-176.631 405.747,-167.18 396.11,-171.582 400.959,-176.631"/>
</g>
<!-- 6&#45;&gt;10 -->
<g id="edge9" class="edge">
<title>6&#45;&gt;10</title>
<path fill="none" stroke="red" stroke-width="0.373158" stroke-dasharray="1,5" d="M339.839,-219.15C309.573,-215.784 220.954,-203.979 153.5,-175.238 152.096,-174.639 150.685,-173.97 149.284,-173.251"/>
<polygon fill="red" stroke="red" stroke-width="0.373158" points="150.744,-170.05 140.348,-168.005 147.2,-176.087 150.744,-170.05"/>
</g>
<!-- 6&#45;&gt;11 -->
<g id="edge12" class="edge">
<title>6&#45;&gt;11</title>
<path fill="none" stroke="red" stroke-width="0.575769" stroke-dasharray="1,5" d="M347.205,-211.156C344.596,-203.968 340.813,-193.54 337.257,-183.741"/>
<polygon fill="red" stroke="red" stroke-width="0.575769" points="340.53,-182.5 333.829,-174.294 333.95,-184.888 340.53,-182.5"/>
</g>
<!-- 13&#45;&gt;8 -->
<g id="edge14" class="edge">
<title>13&#45;&gt;8</title>
<path fill="none" stroke="green" stroke-width="0.488095" stroke-dasharray="1,5" d="M236.546,-138.288C237.959,-113.201 240.484,-68.3791 242.072,-40.2044"/>
<polygon fill="green" stroke="green" stroke-width="0.488095" points="245.581,-40.1305 242.649,-29.9494 238.592,-39.7367 245.581,-40.1305"/>
</g>
<!-- 14 -->
<g id="node14" class="node">
<title>14</title>
<ellipse fill="none" stroke="black" cx="197.5" cy="-84.0833" rx="18.2703" ry="18.2703"/>
<text text-anchor="middle" x="197.5" y="-80.9833" font-family="Times,serif" font-size="9.00">14</text>
</g>
<!-- 13&#45;&gt;14 -->
<g id="edge6" class="edge">
<title>13&#45;&gt;14</title>
<path fill="none" stroke="green" stroke-width="0.339743" d="M226.877,-140.34C222.116,-131.222 216.1,-119.703 210.755,-109.466"/>
<polygon fill="green" stroke="green" stroke-width="0.339743" points="213.82,-107.775 206.089,-100.53 207.615,-111.015 213.82,-107.775"/>
</g>
<!-- 14&#45;&gt;8 -->
<g id="edge17" class="edge">
<title>14&#45;&gt;8</title>
<path fill="none" stroke="green" stroke-width="0.629312" d="M207.709,-68.718C214.096,-59.1047 222.413,-46.5869 229.422,-36.038"/>
<polygon fill="green" stroke="green" stroke-width="0.629312" points="232.544,-37.6631 235.163,-27.397 226.714,-33.7893 232.544,-37.6631"/>
</g>
<!-- 12&#45;&gt;8 -->
<g id="edge19" class="edge">
<title>12&#45;&gt;8</title>
<path fill="none" stroke="red" stroke-width="0.162407" d="M173.126,-139.662C166.104,-120.498 158.268,-89.1253 170.5,-65.6985 180.838,-45.8985 202.792,-32.2417 219.939,-24.1061"/>
<polygon fill="red" stroke="red" stroke-width="0.162407" points="221.62,-27.1898 229.355,-19.9493 218.793,-20.786 221.62,-27.1898"/>
</g>
</g>
</svg>
