<?xml version="1.0" encoding="UTF-8" standalone="no"?>
<!DOCTYPE svg PUBLIC "-//W3C//DTD SVG 1.1//EN"
 "http://www.w3.org/Graphics/SVG/1.1/DTD/svg11.dtd">
<!-- Generated by graphviz version 2.39.20160104.1625 (20160104.1625)
 -->
<!-- Title: %3 Pages: 1 -->
<svg width="1159pt" height="470pt"
 viewBox="0.00 0.00 1159.00 469.69" xmlns="http://www.w3.org/2000/svg" xmlns:xlink="http://www.w3.org/1999/xlink">
<g id="graph0" class="graph" transform="scale(1 1) rotate(0) translate(4 465.688)">
<title>%3</title>
<polygon fill="white" stroke="transparent" points="-4,4 -4,-465.688 1155,-465.688 1155,4 -4,4"/>
<!-- 0 -->
<g id="node1" class="node">
<title>0</title>
<polygon fill="lightgrey" stroke="black" points="504.5,-323.413 483.5,-323.413 483.5,-305.413 504.5,-305.413 504.5,-323.413"/>
<text text-anchor="middle" x="494" y="-311.313" font-family="Times,serif" font-size="9.00">0</text>
</g>
<!-- 44 -->
<g id="node39" class="node">
<title>44</title>
<ellipse fill="none" stroke="black" cx="435" cy="-240.229" rx="19.1842" ry="19.1842"/>
<text text-anchor="middle" x="435" y="-237.129" font-family="Times,serif" font-size="9.00">44</text>
</g>
<!-- 0&#45;&gt;44 -->
<g id="edge20" class="edge">
<title>0&#45;&gt;44</title>
<path fill="none" stroke="red" stroke-width="0.452402" d="M486.765,-305.316C478.483,-294.902 464.602,-277.449 453.298,-263.236"/>
<polygon fill="red" stroke="red" stroke-width="0.452402" points="455.966,-260.967 447.002,-255.319 450.487,-265.325 455.966,-260.967"/>
</g>
<!-- 1 -->
<g id="node2" class="node">
<title>1</title>
<polygon fill="lightgrey" stroke="black" points="549.5,-397.597 528.5,-397.597 528.5,-379.597 549.5,-379.597 549.5,-397.597"/>
<text text-anchor="middle" x="539" y="-385.497" font-family="Times,serif" font-size="9.00">1</text>
</g>
<!-- 28 -->
<g id="node29" class="node">
<title>28</title>
<ellipse fill="lightblue" stroke="lightblue" cx="615" cy="-240.229" rx="18.2703" ry="18.2703"/>
<text text-anchor="middle" x="615" y="-237.129" font-family="Times,serif" font-size="9.00">28</text>
</g>
<!-- 1&#45;&gt;28 -->
<g id="edge23" class="edge">
<title>1&#45;&gt;28</title>
<path fill="none" stroke="green" stroke-width="1.60996" d="M543.754,-379.315C555.171,-357.028 584.465,-299.84 601.727,-266.141"/>
<polygon fill="green" stroke="green" stroke-width="1.60996" points="605.014,-267.4 606.458,-256.904 598.784,-264.209 605.014,-267.4"/>
</g>
<!-- 35 -->
<g id="node35" class="node">
<title>35</title>
<ellipse fill="none" stroke="black" cx="390" cy="-314.413" rx="19.1842" ry="19.1842"/>
<text text-anchor="middle" x="390" y="-311.313" font-family="Times,serif" font-size="9.00">35</text>
</g>
<!-- 1&#45;&gt;35 -->
<g id="edge47" class="edge">
<title>1&#45;&gt;35</title>
<path fill="none" stroke="red" stroke-width="0.211571" d="M528.344,-384.465C506.896,-375.994 457.219,-355.589 418,-333.505 416.718,-332.783 415.42,-332.02 414.12,-331.231"/>
<polygon fill="red" stroke="red" stroke-width="0.211571" points="415.993,-328.274 405.69,-325.802 412.202,-334.159 415.993,-328.274"/>
</g>
<!-- 2 -->
<g id="node3" class="node">
<title>2</title>
<polygon fill="lightgrey" stroke="black" points="938.5,-397.597 917.5,-397.597 917.5,-379.597 938.5,-379.597 938.5,-397.597"/>
<text text-anchor="middle" x="928" y="-385.497" font-family="Times,serif" font-size="9.00">2</text>
</g>
<!-- 33 -->
<g id="node38" class="node">
<title>33</title>
<ellipse fill="none" stroke="black" cx="948" cy="-314.413" rx="19.1842" ry="19.1842"/>
<text text-anchor="middle" x="948" y="-311.313" font-family="Times,serif" font-size="9.00">33</text>
</g>
<!-- 2&#45;&gt;33 -->
<g id="edge54" class="edge">
<title>2&#45;&gt;33</title>
<path fill="none" stroke="red" stroke-width="0.359728" stroke-dasharray="1,5" d="M930.452,-379.5C932.905,-370.403 936.806,-355.933 940.308,-342.945"/>
<polygon fill="red" stroke="red" stroke-width="0.359728" points="943.771,-343.543 942.995,-332.977 937.013,-341.721 943.771,-343.543"/>
</g>
<!-- 3 -->
<g id="node4" class="node">
<title>3</title>
<polygon fill="lightgrey" stroke="black" points="306,-461.688 284,-461.688 284,-443.688 306,-443.688 306,-461.688"/>
<text text-anchor="middle" x="295" y="-449.588" font-family="Times,serif" font-size="9.00">3</text>
</g>
<!-- 3&#45;&gt;28 -->
<g id="edge7" class="edge">
<title>3&#45;&gt;28</title>
<path fill="none" stroke="green" stroke-width="0.298508" d="M306.138,-452.157C350.948,-449.816 517.589,-439.107 558,-407.688 600.883,-374.348 611.719,-307.141 614.32,-268.78"/>
<polygon fill="green" stroke="green" stroke-width="0.298508" points="617.816,-268.95 614.856,-258.777 610.826,-268.576 617.816,-268.95"/>
</g>
<!-- 30 -->
<g id="node31" class="node">
<title>30</title>
<ellipse fill="lightblue" stroke="lightblue" cx="204" cy="-388.597" rx="19.1842" ry="19.1842"/>
<text text-anchor="middle" x="204" y="-385.497" font-family="Times,serif" font-size="9.00">30</text>
</g>
<!-- 3&#45;&gt;30 -->
<g id="edge36" class="edge">
<title>3&#45;&gt;30</title>
<path fill="none" stroke="green" stroke-width="0.636559" d="M283.842,-444.829C270.056,-435.12 246.215,-418.329 228.164,-405.616"/>
<polygon fill="green" stroke="green" stroke-width="0.636559" points="230.029,-402.648 219.838,-399.751 225.998,-408.371 230.029,-402.648"/>
</g>
<!-- 40 -->
<g id="node44" class="node">
<title>40</title>
<ellipse fill="none" stroke="black" cx="242" cy="-314.413" rx="19.1842" ry="19.1842"/>
<text text-anchor="middle" x="242" y="-311.313" font-family="Times,serif" font-size="9.00">40</text>
</g>
<!-- 3&#45;&gt;40 -->
<g id="edge34" class="edge">
<title>3&#45;&gt;40</title>
<path fill="none" stroke="green" stroke-width="0.118906" d="M293.925,-443.654C291.855,-428.057 286.556,-395.276 276,-369.505 271.609,-358.785 265.243,-347.768 259.204,-338.43"/>
<polygon fill="green" stroke="green" stroke-width="0.118906" points="262.065,-336.412 253.589,-330.055 256.251,-340.31 262.065,-336.412"/>
</g>
<!-- 4 -->
<g id="node5" class="node">
<title>4</title>
<polygon fill="lightgrey" stroke="black" points="66,-397.597 44,-397.597 44,-379.597 66,-379.597 66,-397.597"/>
<text text-anchor="middle" x="55" y="-385.497" font-family="Times,serif" font-size="9.00">4</text>
</g>
<!-- 31 -->
<g id="node32" class="node">
<title>31</title>
<ellipse fill="lightblue" stroke="lightblue" cx="34" cy="-314.413" rx="19.1842" ry="19.1842"/>
<text text-anchor="middle" x="34" y="-311.313" font-family="Times,serif" font-size="9.00">31</text>
</g>
<!-- 4&#45;&gt;31 -->
<g id="edge9" class="edge">
<title>4&#45;&gt;31</title>
<path fill="none" stroke="red" stroke-width="0.420941" d="M52.425,-379.5C49.8496,-370.403 45.7536,-355.933 42.0769,-342.945"/>
<polygon fill="red" stroke="red" stroke-width="0.420941" points="45.3467,-341.645 39.2552,-332.977 38.6113,-343.552 45.3467,-341.645"/>
</g>
<!-- 5 -->
<g id="node6" class="node">
<title>5</title>
<polygon fill="lightgrey" stroke="black" points="778.5,-323.413 757.5,-323.413 757.5,-305.413 778.5,-305.413 778.5,-323.413"/>
<text text-anchor="middle" x="768" y="-311.313" font-family="Times,serif" font-size="9.00">5</text>
</g>
<!-- 24 -->
<g id="node25" class="node">
<title>24</title>
<ellipse fill="lightblue" stroke="lightblue" cx="243" cy="-18.3848" rx="18.2703" ry="18.2703"/>
<text text-anchor="middle" x="243" y="-15.2848" font-family="Times,serif" font-size="9.00">24</text>
</g>
<!-- 5&#45;&gt;24 -->
<g id="edge32" class="edge">
<title>5&#45;&gt;24</title>
<path fill="none" stroke="green" stroke-width="1.36685" d="M764.361,-305.346C756.928,-287.632 738.602,-247.829 714,-221.137 633.32,-133.604 600.994,-118.295 491,-72.7696 415.241,-41.4139 318.643,-26.9119 271.487,-21.326"/>
<polygon fill="green" stroke="green" stroke-width="1.36685" points="271.732,-17.8314 261.4,-20.1792 270.941,-24.7866 271.732,-17.8314"/>
</g>
<!-- 5&#45;&gt;28 -->
<g id="edge40" class="edge">
<title>5&#45;&gt;28</title>
<path fill="none" stroke="red" stroke-width="1.06257" d="M757.484,-309.314C733.765,-297.813 675.51,-269.568 641.283,-252.972"/>
<polygon fill="red" stroke="red" stroke-width="1.06257" points="642.431,-249.639 631.905,-248.426 639.376,-255.938 642.431,-249.639"/>
</g>
<!-- 45 -->
<g id="node36" class="node">
<title>45</title>
<ellipse fill="none" stroke="black" cx="440" cy="-91.8614" rx="19.1842" ry="19.1842"/>
<text text-anchor="middle" x="440" y="-88.7614" font-family="Times,serif" font-size="9.00">45</text>
</g>
<!-- 5&#45;&gt;45 -->
<g id="edge4" class="edge">
<title>5&#45;&gt;45</title>
<path fill="none" stroke="green" stroke-width="0.311014" d="M760.94,-305.288C746.825,-287.471 713.506,-247.497 679,-221.137 608.801,-167.512 513.419,-123.167 467.258,-103.219"/>
<polygon fill="green" stroke="green" stroke-width="0.311014" points="468.492,-99.9403 457.921,-99.2281 465.741,-106.377 468.492,-99.9403"/>
</g>
<!-- 6 -->
<g id="node7" class="node">
<title>6</title>
<polygon fill="lightgrey" stroke="black" points="130.5,-249.229 109.5,-249.229 109.5,-231.229 130.5,-231.229 130.5,-249.229"/>
<text text-anchor="middle" x="120" y="-237.129" font-family="Times,serif" font-size="9.00">6</text>
</g>
<!-- 6&#45;&gt;24 -->
<g id="edge8" class="edge">
<title>6&#45;&gt;24</title>
<path fill="none" stroke="green" stroke-width="0.22525" stroke-dasharray="1,5" d="M120.562,-230.989C122.601,-204.146 131.55,-124.78 168,-72.7696 180.5,-54.9327 200.763,-40.7484 217.078,-31.3435"/>
<polygon fill="green" stroke="green" stroke-width="0.22525" points="219.058,-34.2488 226.139,-26.3669 215.689,-28.1133 219.058,-34.2488"/>
</g>
<!-- 41 -->
<g id="node37" class="node">
<title>41</title>
<ellipse fill="none" stroke="black" cx="196" cy="-166.045" rx="19.1842" ry="19.1842"/>
<text text-anchor="middle" x="196" y="-162.945" font-family="Times,serif" font-size="9.00">41</text>
</g>
<!-- 6&#45;&gt;41 -->
<g id="edge46" class="edge">
<title>6&#45;&gt;41</title>
<path fill="none" stroke="red" stroke-width="0.818504" d="M129.319,-231.133C140.593,-220.128 159.918,-201.265 174.871,-186.669"/>
<polygon fill="red" stroke="red" stroke-width="0.818504" points="177.515,-188.98 182.226,-179.49 172.625,-183.971 177.515,-188.98"/>
</g>
<!-- 7 -->
<g id="node8" class="node">
<title>7</title>
<polygon fill="lightgrey" stroke="black" points="935,-461.688 913,-461.688 913,-443.688 935,-443.688 935,-461.688"/>
<text text-anchor="middle" x="924" y="-449.588" font-family="Times,serif" font-size="9.00">7</text>
</g>
<!-- 8 -->
<g id="node9" class="node">
<title>8</title>
<polygon fill="lightgrey" stroke="black" points="214.5,-461.688 193.5,-461.688 193.5,-443.688 214.5,-443.688 214.5,-461.688"/>
<text text-anchor="middle" x="204" y="-449.588" font-family="Times,serif" font-size="9.00">8</text>
</g>
<!-- 26 -->
<g id="node27" class="node">
<title>26</title>
<ellipse fill="lightblue" stroke="lightblue" cx="266" cy="-240.229" rx="18.2703" ry="18.2703"/>
<text text-anchor="middle" x="266" y="-237.129" font-family="Times,serif" font-size="9.00">26</text>
</g>
<!-- 8&#45;&gt;26 -->
<g id="edge43" class="edge">
<title>8&#45;&gt;26</title>
<path fill="none" stroke="red" stroke-width="0.632452" d="M196.061,-443.439C189.235,-434.83 179.893,-421.313 176,-407.688 171.338,-391.371 172.759,-386.163 176,-369.505 182.792,-334.595 185.738,-324.549 206,-295.321 216.081,-280.778 230.641,-267.291 242.894,-257.301"/>
<polygon fill="red" stroke="red" stroke-width="0.632452" points="245.235,-259.911 250.924,-250.973 240.903,-254.413 245.235,-259.911"/>
</g>
<!-- 8&#45;&gt;30 -->
<g id="edge49" class="edge">
<title>8&#45;&gt;30</title>
<path fill="none" stroke="green" stroke-width="0.139271" stroke-dasharray="1,5" d="M204,-443.506C204,-436.766 204,-427.211 204,-417.956"/>
<polygon fill="green" stroke="green" stroke-width="0.139271" points="207.5,-417.802 204,-407.802 200.5,-417.802 207.5,-417.802"/>
</g>
<!-- 38 -->
<g id="node40" class="node">
<title>38</title>
<ellipse fill="none" stroke="black" cx="854" cy="-314.413" rx="19.1842" ry="19.1842"/>
<text text-anchor="middle" x="854" y="-311.313" font-family="Times,serif" font-size="9.00">38</text>
</g>
<!-- 8&#45;&gt;38 -->
<g id="edge39" class="edge">
<title>8&#45;&gt;38</title>
<path fill="none" stroke="green" stroke-width="0.515656" d="M214.563,-451.145C228.413,-449.169 253.479,-445.753 275,-443.688 336.072,-437.828 777.995,-445.894 826,-407.688 845.013,-392.557 851.503,-365.017 853.538,-343.77"/>
<polygon fill="green" stroke="green" stroke-width="0.515656" points="857.041,-343.845 854.228,-333.63 850.057,-343.37 857.041,-343.845"/>
</g>
<!-- 9 -->
<g id="node10" class="node">
<title>9</title>
<polygon fill="lightgrey" stroke="black" points="974.5,-461.688 953.5,-461.688 953.5,-443.688 974.5,-443.688 974.5,-461.688"/>
<text text-anchor="middle" x="964" y="-449.588" font-family="Times,serif" font-size="9.00">9</text>
</g>
<!-- 10 -->
<g id="node11" class="node">
<title>10</title>
<polygon fill="lightgrey" stroke="black" points="1019,-461.688 993,-461.688 993,-443.688 1019,-443.688 1019,-461.688"/>
<text text-anchor="middle" x="1006" y="-449.588" font-family="Times,serif" font-size="9.00">10</text>
</g>
<!-- 11 -->
<g id="node12" class="node">
<title>11</title>
<polygon fill="lightgrey" stroke="black" points="1063,-461.688 1037,-461.688 1037,-443.688 1063,-443.688 1063,-461.688"/>
<text text-anchor="middle" x="1050" y="-449.588" font-family="Times,serif" font-size="9.00">11</text>
</g>
<!-- 12 -->
<g id="node13" class="node">
<title>12</title>
<polygon fill="lightgrey" stroke="black" points="26,-397.597 0,-397.597 0,-379.597 26,-379.597 26,-397.597"/>
<text text-anchor="middle" x="13" y="-385.497" font-family="Times,serif" font-size="9.00">12</text>
</g>
<!-- 12&#45;&gt;31 -->
<g id="edge6" class="edge">
<title>12&#45;&gt;31</title>
<path fill="none" stroke="red" stroke-width="0.118828" d="M15.575,-379.5C18.1504,-370.403 22.2464,-355.933 25.9231,-342.945"/>
<polygon fill="red" stroke="red" stroke-width="0.118828" points="29.3887,-343.552 28.7448,-332.977 22.6533,-341.645 29.3887,-343.552"/>
</g>
<!-- 13 -->
<g id="node14" class="node">
<title>13</title>
<polygon fill="lightgrey" stroke="black" points="1107,-461.688 1081,-461.688 1081,-443.688 1107,-443.688 1107,-461.688"/>
<text text-anchor="middle" x="1094" y="-449.588" font-family="Times,serif" font-size="9.00">13</text>
</g>
<!-- 14 -->
<g id="node15" class="node">
<title>14</title>
<polygon fill="lightgrey" stroke="black" points="767,-461.688 741,-461.688 741,-443.688 767,-443.688 767,-461.688"/>
<text text-anchor="middle" x="754" y="-449.588" font-family="Times,serif" font-size="9.00">14</text>
</g>
<!-- 32 -->
<g id="node33" class="node">
<title>32</title>
<ellipse fill="lightblue" stroke="lightblue" cx="754" cy="-388.597" rx="19.1842" ry="19.1842"/>
<text text-anchor="middle" x="754" y="-385.497" font-family="Times,serif" font-size="9.00">32</text>
</g>
<!-- 14&#45;&gt;32 -->
<g id="edge61" class="edge">
<title>14&#45;&gt;32</title>
<path fill="none" stroke="red" stroke-width="3.72597" d="M754,-443.506C754,-436.766 754,-427.211 754,-417.956"/>
<polygon fill="red" stroke="red" stroke-width="3.72597" points="757.5,-417.802 754,-407.802 750.5,-417.802 757.5,-417.802"/>
</g>
<!-- 15 -->
<g id="node16" class="node">
<title>15</title>
<polygon fill="lightgrey" stroke="black" points="267,-397.597 241,-397.597 241,-379.597 267,-379.597 267,-397.597"/>
<text text-anchor="middle" x="254" y="-385.497" font-family="Times,serif" font-size="9.00">15</text>
</g>
<!-- 15&#45;&gt;26 -->
<g id="edge12" class="edge">
<title>15&#45;&gt;26</title>
<path fill="none" stroke="red" stroke-width="0.333472" d="M244.535,-379.508C234.719,-369.366 219.987,-351.941 214,-333.505 208.758,-317.364 207.733,-311.092 214,-295.321 219.941,-280.371 232.075,-267.131 243.129,-257.379"/>
<polygon fill="red" stroke="red" stroke-width="0.333472" points="245.439,-260.01 250.882,-250.92 240.959,-254.631 245.439,-260.01"/>
</g>
<!-- 15&#45;&gt;41 -->
<g id="edge37" class="edge">
<title>15&#45;&gt;41</title>
<path fill="none" stroke="green" stroke-width="0.220355" d="M243.994,-379.284C233.372,-368.949 216.675,-351.361 206,-333.505 187.917,-303.257 184.325,-293.99 178,-259.321 174.954,-242.626 175.332,-237.897 178,-221.137 179.456,-211.995 182.19,-202.309 185.095,-193.65"/>
<polygon fill="green" stroke="green" stroke-width="0.220355" points="188.456,-194.646 188.519,-184.052 181.863,-192.295 188.456,-194.646"/>
</g>
<!-- 42 -->
<g id="node42" class="node">
<title>42</title>
<ellipse fill="none" stroke="black" cx="446" cy="-314.413" rx="19.1842" ry="19.1842"/>
<text text-anchor="middle" x="446" y="-311.313" font-family="Times,serif" font-size="9.00">42</text>
</g>
<!-- 15&#45;&gt;42 -->
<g id="edge19" class="edge">
<title>15&#45;&gt;42</title>
<path fill="none" stroke="green" stroke-width="0.61778" d="M267.133,-384.414C303.531,-372.789 403.946,-340.49 418,-333.505 419.317,-332.85 420.644,-332.141 421.966,-331.395"/>
<polygon fill="green" stroke="green" stroke-width="0.61778" points="423.827,-334.359 430.471,-326.106 420.131,-328.415 423.827,-334.359"/>
</g>
<!-- 15&#45;&gt;40 -->
<g id="edge57" class="edge">
<title>15&#45;&gt;40</title>
<path fill="none" stroke="red" stroke-width="0.182953" d="M252.529,-379.5C251.067,-370.464 248.748,-356.127 246.658,-343.207"/>
<polygon fill="red" stroke="red" stroke-width="0.182953" points="250.103,-342.589 245.051,-333.276 243.193,-343.707 250.103,-342.589"/>
</g>
<!-- 16 -->
<g id="node17" class="node">
<title>16</title>
<polygon fill="lightgrey" stroke="black" points="817,-397.597 791,-397.597 791,-379.597 817,-379.597 817,-397.597"/>
<text text-anchor="middle" x="804" y="-385.497" font-family="Times,serif" font-size="9.00">16</text>
</g>
<!-- 16&#45;&gt;24 -->
<g id="edge10" class="edge">
<title>16&#45;&gt;24</title>
<path fill="none" stroke="red" stroke-width="1.2786" stroke-dasharray="1,5" d="M804.31,-379.566C805.076,-356.413 807,-293.044 807,-240.229 807,-240.229 807,-240.229 807,-166.045 807,-54.1413 386.231,-25.3876 271.562,-19.6293"/>
<polygon fill="red" stroke="red" stroke-width="1.2786" points="271.602,-16.1273 261.445,-19.1418 271.265,-23.1191 271.602,-16.1273"/>
</g>
<!-- 16&#45;&gt;26 -->
<g id="edge63" class="edge">
<title>16&#45;&gt;26</title>
<path fill="none" stroke="green" stroke-width="0.787689" d="M795.9,-379.364C792.08,-375.641 787.217,-371.711 782,-369.505 609.447,-296.525 531.772,-412.738 362,-333.505 340.304,-323.379 341.126,-312.052 324,-295.321 311.85,-283.45 298.07,-270.347 286.991,-259.898"/>
<polygon fill="green" stroke="green" stroke-width="0.787689" points="289.144,-257.118 279.463,-252.814 284.347,-262.216 289.144,-257.118"/>
</g>
<!-- 29 -->
<g id="node30" class="node">
<title>29</title>
<ellipse fill="lightblue" stroke="lightblue" cx="297" cy="-314.413" rx="18.2703" ry="18.2703"/>
<text text-anchor="middle" x="297" y="-311.313" font-family="Times,serif" font-size="9.00">29</text>
</g>
<!-- 16&#45;&gt;29 -->
<g id="edge17" class="edge">
<title>16&#45;&gt;29</title>
<path fill="none" stroke="green" stroke-width="1.19466" d="M795.906,-379.349C792.087,-375.623 787.223,-371.695 782,-369.505 595.742,-291.408 521.426,-394.851 329,-333.505 326.226,-332.62 323.439,-331.457 320.729,-330.14"/>
<polygon fill="green" stroke="green" stroke-width="1.19466" points="322.382,-327.055 311.941,-325.253 318.979,-333.172 322.382,-327.055"/>
</g>
<!-- 34 -->
<g id="node34" class="node">
<title>34</title>
<ellipse fill="none" stroke="black" cx="487" cy="-166.045" rx="19.1842" ry="19.1842"/>
<text text-anchor="middle" x="487" y="-162.945" font-family="Times,serif" font-size="9.00">34</text>
</g>
<!-- 16&#45;&gt;34 -->
<g id="edge52" class="edge">
<title>16&#45;&gt;34</title>
<path fill="none" stroke="red" stroke-width="0.228654" d="M794.38,-379.346C783.138,-368.485 764.031,-349.875 748,-333.505 699.965,-284.451 699.502,-258.649 642,-221.137 602.071,-195.089 548.308,-179.586 515.731,-171.952"/>
<polygon fill="red" stroke="red" stroke-width="0.228654" points="516.468,-168.53 505.943,-169.746 514.929,-175.359 516.468,-168.53"/>
</g>
<!-- 16&#45;&gt;33 -->
<g id="edge45" class="edge">
<title>16&#45;&gt;33</title>
<path fill="none" stroke="red" stroke-width="0.282767" stroke-dasharray="1,5" d="M817.033,-381.882C840.624,-369.729 890.823,-343.868 921.764,-327.929"/>
<polygon fill="red" stroke="red" stroke-width="0.282767" points="923.411,-331.018 930.697,-323.326 920.205,-324.795 923.411,-331.018"/>
</g>
<!-- 17 -->
<g id="node18" class="node">
<title>17</title>
<polygon fill="lightgrey" stroke="black" points="549,-323.413 523,-323.413 523,-305.413 549,-305.413 549,-323.413"/>
<text text-anchor="middle" x="536" y="-311.313" font-family="Times,serif" font-size="9.00">17</text>
</g>
<!-- 17&#45;&gt;28 -->
<g id="edge15" class="edge">
<title>17&#45;&gt;28</title>
<path fill="none" stroke="red" stroke-width="0.193508" d="M545.687,-305.316C557.616,-294.114 578.219,-274.768 593.87,-260.071"/>
<polygon fill="red" stroke="red" stroke-width="0.193508" points="596.638,-262.273 601.532,-252.876 591.846,-257.17 596.638,-262.273"/>
</g>
<!-- 17&#45;&gt;34 -->
<g id="edge5" class="edge">
<title>17&#45;&gt;34</title>
<path fill="none" stroke="red" stroke-width="0.164691" d="M535.394,-305.398C534.029,-288.431 529.933,-250.79 519,-221.137 515.097,-210.552 509.224,-199.655 503.571,-190.377"/>
<polygon fill="red" stroke="red" stroke-width="0.164691" points="506.384,-188.278 498.072,-181.708 500.473,-192.027 506.384,-188.278"/>
</g>
<!-- 18 -->
<g id="node19" class="node">
<title>18</title>
<polygon fill="lightgrey" stroke="black" points="869,-249.229 843,-249.229 843,-231.229 869,-231.229 869,-249.229"/>
<text text-anchor="middle" x="856" y="-237.129" font-family="Times,serif" font-size="9.00">18</text>
</g>
<!-- 25 -->
<g id="node26" class="node">
<title>25</title>
<ellipse fill="lightblue" stroke="lightblue" cx="856" cy="-166.045" rx="18.2703" ry="18.2703"/>
<text text-anchor="middle" x="856" y="-162.945" font-family="Times,serif" font-size="9.00">25</text>
</g>
<!-- 18&#45;&gt;25 -->
<g id="edge48" class="edge">
<title>18&#45;&gt;25</title>
<path fill="none" stroke="green" stroke-width="0.267138" d="M856,-231.133C856,-222.125 856,-207.852 856,-194.963"/>
<polygon fill="green" stroke="green" stroke-width="0.267138" points="859.5,-194.609 856,-184.609 852.5,-194.609 859.5,-194.609"/>
</g>
<!-- 19 -->
<g id="node20" class="node">
<title>19</title>
<polygon fill="lightgrey" stroke="black" points="895,-461.688 869,-461.688 869,-443.688 895,-443.688 895,-461.688"/>
<text text-anchor="middle" x="882" y="-449.588" font-family="Times,serif" font-size="9.00">19</text>
</g>
<!-- 19&#45;&gt;32 -->
<g id="edge35" class="edge">
<title>19&#45;&gt;32</title>
<path fill="none" stroke="green" stroke-width="0.295531" d="M868.697,-447.573C849.19,-439.88 811.897,-424.437 782,-407.688 780.717,-406.969 779.417,-406.209 778.116,-405.422"/>
<polygon fill="green" stroke="green" stroke-width="0.295531" points="779.987,-402.463 769.683,-399.998 776.201,-408.351 779.987,-402.463"/>
</g>
<!-- 19&#45;&gt;33 -->
<g id="edge13" class="edge">
<title>19&#45;&gt;33</title>
<path fill="none" stroke="red" stroke-width="1.48054" d="M895.123,-445.542C912.412,-435.822 941.305,-418.417 947,-407.688 957.442,-388.015 956.954,-362.559 954.265,-343.212"/>
<polygon fill="red" stroke="red" stroke-width="1.48054" points="957.688,-342.46 952.6,-333.167 950.782,-343.605 957.688,-342.46"/>
</g>
<!-- 20 -->
<g id="node21" class="node">
<title>20</title>
<polygon fill="lightgrey" stroke="black" points="1151,-461.688 1125,-461.688 1125,-443.688 1151,-443.688 1151,-461.688"/>
<text text-anchor="middle" x="1138" y="-449.588" font-family="Times,serif" font-size="9.00">20</text>
</g>
<!-- 21 -->
<g id="node22" class="node">
<title>21</title>
<polygon fill="lightgrey" stroke="black" points="349,-397.597 323,-397.597 323,-379.597 349,-379.597 349,-397.597"/>
<text text-anchor="middle" x="336" y="-385.497" font-family="Times,serif" font-size="9.00">21</text>
</g>
<!-- 21&#45;&gt;29 -->
<g id="edge3" class="edge">
<title>21&#45;&gt;29</title>
<path fill="none" stroke="green" stroke-width="0.608755" stroke-dasharray="1,5" d="M331.218,-379.5C326.062,-369.692 317.623,-353.641 310.416,-339.933"/>
<polygon fill="green" stroke="green" stroke-width="0.608755" points="313.431,-338.145 305.68,-330.923 307.235,-341.403 313.431,-338.145"/>
</g>
<!-- 22 -->
<g id="node23" class="node">
<title>22</title>
<polygon fill="lightgrey" stroke="black" points="899,-397.597 873,-397.597 873,-379.597 899,-379.597 899,-397.597"/>
<text text-anchor="middle" x="886" y="-385.497" font-family="Times,serif" font-size="9.00">22</text>
</g>
<!-- 22&#45;&gt;25 -->
<g id="edge31" class="edge">
<title>22&#45;&gt;25</title>
<path fill="none" stroke="red" stroke-width="3.14727" d="M886.636,-379.378C888.167,-353.857 891.028,-280.259 878,-221.137 875.852,-211.387 872.176,-201.122 868.437,-192.13"/>
<polygon fill="red" stroke="red" stroke-width="3.14727" points="871.639,-190.716 864.425,-182.956 865.225,-193.52 871.639,-190.716"/>
</g>
<!-- 22&#45;&gt;38 -->
<g id="edge58" class="edge">
<title>22&#45;&gt;38</title>
<path fill="none" stroke="red" stroke-width="0.902669" d="M882.076,-379.5C877.994,-370.036 871.403,-354.757 865.633,-341.381"/>
<polygon fill="red" stroke="red" stroke-width="0.902669" points="868.799,-339.883 861.624,-332.087 862.371,-342.656 868.799,-339.883"/>
</g>
<!-- 22&#45;&gt;42 -->
<g id="edge41" class="edge">
<title>22&#45;&gt;42</title>
<path fill="none" stroke="green" stroke-width="0.207546" stroke-dasharray="1,5" d="M872.864,-383.551C860.847,-379.144 842.482,-372.931 826,-369.505 672.032,-337.493 621.716,-387.456 474,-333.505 472.584,-332.987 471.171,-332.382 469.774,-331.712"/>
<polygon fill="green" stroke="green" stroke-width="0.207546" points="471.348,-328.579 460.941,-326.589 467.835,-334.634 471.348,-328.579"/>
</g>
<!-- 23 -->
<g id="node24" class="node">
<title>23</title>
<polygon fill="lightgrey" stroke="black" points="689,-461.688 663,-461.688 663,-443.688 689,-443.688 689,-461.688"/>
<text text-anchor="middle" x="676" y="-449.588" font-family="Times,serif" font-size="9.00">23</text>
</g>
<!-- 27 -->
<g id="node28" class="node">
<title>27</title>
<ellipse fill="lightblue" stroke="lightblue" cx="699" cy="-388.597" rx="18.2703" ry="18.2703"/>
<text text-anchor="middle" x="699" y="-385.497" font-family="Times,serif" font-size="9.00">27</text>
</g>
<!-- 23&#45;&gt;27 -->
<g id="edge44" class="edge">
<title>23&#45;&gt;27</title>
<path fill="none" stroke="green" stroke-width="1.37181" d="M679.295,-443.506C681.922,-436.185 685.742,-425.543 689.319,-415.572"/>
<polygon fill="green" stroke="green" stroke-width="1.37181" points="692.681,-416.568 692.764,-405.974 686.092,-414.204 692.681,-416.568"/>
</g>
<!-- 23&#45;&gt;28 -->
<g id="edge50" class="edge">
<title>23&#45;&gt;28</title>
<path fill="none" stroke="green" stroke-width="1.17255" d="M673.379,-443.559C664.711,-413.369 636.737,-315.938 622.9,-267.745"/>
<polygon fill="green" stroke="green" stroke-width="1.17255" points="626.22,-266.623 620.096,-257.978 619.492,-268.555 626.22,-266.623"/>
</g>
<!-- 23&#45;&gt;32 -->
<g id="edge60" class="edge">
<title>23&#45;&gt;32</title>
<path fill="none" stroke="red" stroke-width="0.642078" stroke-dasharray="1,5" d="M687.175,-443.506C698.585,-434.131 716.623,-419.309 731.084,-407.427"/>
<polygon fill="red" stroke="red" stroke-width="0.642078" points="733.604,-409.886 739.108,-400.833 729.159,-404.478 733.604,-409.886"/>
</g>
<!-- 23&#45;&gt;35 -->
<g id="edge21" class="edge">
<title>23&#45;&gt;35</title>
<path fill="none" stroke="green" stroke-width="0.882529" stroke-dasharray="1,5" d="M662.831,-450.512C635.127,-445.596 569.234,-432.115 519,-407.688 478.136,-387.818 436.552,-354.997 412.028,-334.056"/>
<polygon fill="green" stroke="green" stroke-width="0.882529" points="414.242,-331.344 404.391,-327.446 409.661,-336.637 414.242,-331.344"/>
</g>
<!-- 26&#45;&gt;34 -->
<g id="edge55" class="edge">
<title>26&#45;&gt;34</title>
<path fill="none" stroke="red" stroke-width="0.506423" stroke-dasharray="1,5" d="M282.492,-231.672C289.615,-228.157 298.11,-224.201 306,-221.137 358.811,-200.63 422.619,-182.748 458.635,-173.263"/>
<polygon fill="red" stroke="red" stroke-width="0.506423" points="459.657,-176.614 468.451,-170.705 457.891,-169.84 459.657,-176.614"/>
</g>
<!-- 47 -->
<g id="node41" class="node">
<title>47</title>
<ellipse fill="none" stroke="black" cx="206" cy="-240.229" rx="19.1842" ry="19.1842"/>
<text text-anchor="middle" x="206" y="-237.129" font-family="Times,serif" font-size="9.00">47</text>
</g>
<!-- 29&#45;&gt;47 -->
<g id="edge26" class="edge">
<title>29&#45;&gt;47</title>
<path fill="none" stroke="red" stroke-width="0.107144" d="M282.379,-302.494C268.004,-290.775 245.842,-272.709 229.086,-259.049"/>
<polygon fill="red" stroke="red" stroke-width="0.107144" points="230.849,-255.971 220.887,-252.365 226.426,-261.396 230.849,-255.971"/>
</g>
<!-- 30&#45;&gt;24 -->
<g id="edge28" class="edge">
<title>30&#45;&gt;24</title>
<path fill="none" stroke="green" stroke-width="0.512404" stroke-dasharray="1,5" d="M187.412,-379.09C153.838,-358.471 81,-306.143 81,-240.229 81,-240.229 81,-240.229 81,-166.045 81,-93.7196 170.288,-47.3988 216.289,-28.3337"/>
<polygon fill="green" stroke="green" stroke-width="0.512404" points="217.682,-31.5459 225.663,-24.5777 215.079,-25.0481 217.682,-31.5459"/>
</g>
<!-- 30&#45;&gt;40 -->
<g id="edge53" class="edge">
<title>30&#45;&gt;40</title>
<path fill="none" stroke="green" stroke-width="0.259374" d="M212.813,-371.391C217.514,-362.215 223.395,-350.734 228.644,-340.487"/>
<polygon fill="green" stroke="green" stroke-width="0.259374" points="231.79,-342.021 233.234,-331.525 225.56,-338.83 231.79,-342.021"/>
</g>
<!-- 31&#45;&gt;47 -->
<g id="edge18" class="edge">
<title>31&#45;&gt;47</title>
<path fill="none" stroke="red" stroke-width="0.684206" d="M51.7592,-306.753C81.9645,-293.726 143.515,-267.179 179.052,-251.852"/>
<polygon fill="red" stroke="red" stroke-width="0.684206" points="180.541,-255.021 188.337,-247.847 177.769,-248.593 180.541,-255.021"/>
</g>
<!-- 32&#45;&gt;28 -->
<g id="edge29" class="edge">
<title>32&#45;&gt;28</title>
<path fill="none" stroke="green" stroke-width="0.124378" d="M740.761,-374.35C723.729,-356.034 693.213,-323.258 667,-295.321 656.386,-284.009 644.516,-271.427 634.799,-261.146"/>
<polygon fill="green" stroke="green" stroke-width="0.124378" points="637.258,-258.653 627.844,-253.792 632.172,-263.463 637.258,-258.653"/>
</g>
<!-- 32&#45;&gt;29 -->
<g id="edge42" class="edge">
<title>32&#45;&gt;29</title>
<path fill="none" stroke="green" stroke-width="0.685464" d="M739.072,-376.384C735.046,-373.678 730.541,-371.134 726,-369.505 559.238,-309.681 497.496,-388.257 329,-333.505 326.231,-332.605 323.447,-331.432 320.739,-330.109"/>
<polygon fill="green" stroke="green" stroke-width="0.685464" points="322.393,-327.024 311.953,-325.215 318.986,-333.139 322.393,-327.024"/>
</g>
<!-- 32&#45;&gt;38 -->
<g id="edge16" class="edge">
<title>32&#45;&gt;38</title>
<path fill="none" stroke="green" stroke-width="0.864403" stroke-dasharray="1,5" d="M769.625,-377.005C785.917,-364.92 811.645,-345.833 830.411,-331.912"/>
<polygon fill="green" stroke="green" stroke-width="0.864403" points="832.539,-334.692 838.485,-325.923 828.368,-329.07 832.539,-334.692"/>
</g>
<!-- 34&#45;&gt;24 -->
<g id="edge1" class="edge">
<title>34&#45;&gt;24</title>
<path fill="none" stroke="green" stroke-width="0.197216" d="M488.668,-146.887C489.379,-125.874 487.044,-92.516 468,-72.7696 440.931,-44.7017 325.605,-27.9357 271.385,-21.4658"/>
<polygon fill="green" stroke="green" stroke-width="0.197216" points="271.737,-17.9832 261.4,-20.3088 270.931,-24.9367 271.737,-17.9832"/>
</g>
<!-- 34&#45;&gt;45 -->
<g id="edge56" class="edge">
<title>34&#45;&gt;45</title>
<path fill="none" stroke="green" stroke-width="0.324121" d="M476.569,-149.581C470.442,-139.91 462.577,-127.496 455.712,-116.66"/>
<polygon fill="green" stroke="green" stroke-width="0.324121" points="458.548,-114.598 450.24,-108.024 452.635,-118.344 458.548,-114.598"/>
</g>
<!-- 35&#45;&gt;45 -->
<g id="edge2" class="edge">
<title>35&#45;&gt;45</title>
<path fill="none" stroke="red" stroke-width="1.51978" d="M393.066,-295.399C396.209,-276.495 401.414,-246.706 407,-221.137 414.605,-186.331 424.984,-146.683 432.058,-120.576"/>
<polygon fill="red" stroke="red" stroke-width="1.51978" points="435.523,-121.173 434.778,-110.604 428.77,-119.33 435.523,-121.173"/>
</g>
<!-- 35&#45;&gt;44 -->
<g id="edge14" class="edge">
<title>35&#45;&gt;44</title>
<path fill="none" stroke="red" stroke-width="0.497703" d="M399.987,-297.949C405.813,-288.345 413.28,-276.035 419.821,-265.252"/>
<polygon fill="red" stroke="red" stroke-width="0.497703" points="422.847,-267.012 425.041,-256.647 416.862,-263.381 422.847,-267.012"/>
</g>
<!-- 36 -->
<g id="node45" class="node">
<title>36</title>
<ellipse fill="none" stroke="black" cx="334" cy="-240.229" rx="19.1842" ry="19.1842"/>
<text text-anchor="middle" x="334" y="-237.129" font-family="Times,serif" font-size="9.00">36</text>
</g>
<!-- 35&#45;&gt;36 -->
<g id="edge27" class="edge">
<title>35&#45;&gt;36</title>
<path fill="none" stroke="red" stroke-width="0.434404" d="M378.397,-299.042C370.663,-288.797 360.352,-275.138 351.614,-263.562"/>
<polygon fill="red" stroke="red" stroke-width="0.434404" points="354.407,-261.453 345.588,-255.58 348.82,-265.67 354.407,-261.453"/>
</g>
<!-- 41&#45;&gt;24 -->
<g id="edge11" class="edge">
<title>41&#45;&gt;24</title>
<path fill="none" stroke="green" stroke-width="0.384687" stroke-dasharray="1,5" d="M206.054,-149.2C212.028,-138.552 219.326,-124.322 224,-110.953 231.321,-90.0129 236.209,-65.3687 239.192,-46.7752"/>
<polygon fill="green" stroke="green" stroke-width="0.384687" points="242.655,-47.2774 240.694,-36.8657 235.734,-46.2282 242.655,-47.2774"/>
</g>
<!-- 43 -->
<g id="node43" class="node">
<title>43</title>
<ellipse fill="none" stroke="black" cx="196" cy="-91.8614" rx="19.1842" ry="19.1842"/>
<text text-anchor="middle" x="196" y="-88.7614" font-family="Times,serif" font-size="9.00">43</text>
</g>
<!-- 41&#45;&gt;43 -->
<g id="edge22" class="edge">
<title>41&#45;&gt;43</title>
<path fill="none" stroke="green" stroke-width="0.125437" d="M196,-146.941C196,-139.128 196,-129.91 196,-121.272"/>
<polygon fill="green" stroke="green" stroke-width="0.125437" points="199.5,-121.159 196,-111.159 192.5,-121.159 199.5,-121.159"/>
</g>
<!-- 47&#45;&gt;41 -->
<g id="edge30" class="edge">
<title>47&#45;&gt;41</title>
<path fill="none" stroke="red" stroke-width="0.14032" d="M203.425,-221.125C202.363,-213.251 201.109,-203.949 199.937,-195.254"/>
<polygon fill="red" stroke="red" stroke-width="0.14032" points="203.371,-194.527 198.567,-185.085 196.434,-195.463 203.371,-194.527"/>
</g>
<!-- 42&#45;&gt;26 -->
<g id="edge51" class="edge">
<title>42&#45;&gt;26</title>
<path fill="none" stroke="green" stroke-width="0.507819" stroke-dasharray="1,5" d="M430.785,-302.879C426.765,-300.16 422.334,-297.44 418,-295.321 371.027,-272.356 354.592,-278.625 306,-259.321 301.329,-257.465 296.438,-255.314 291.743,-253.138"/>
<polygon fill="green" stroke="green" stroke-width="0.507819" points="293.047,-249.882 282.515,-248.726 290.027,-256.197 293.047,-249.882"/>
</g>
<!-- 48 -->
<g id="node46" class="node">
<title>48</title>
<ellipse fill="none" stroke="black" cx="491" cy="-240.229" rx="19.1842" ry="19.1842"/>
<text text-anchor="middle" x="491" y="-237.129" font-family="Times,serif" font-size="9.00">48</text>
</g>
<!-- 42&#45;&gt;48 -->
<g id="edge59" class="edge">
<title>42&#45;&gt;48</title>
<path fill="none" stroke="red" stroke-width="0.613762" stroke-dasharray="1,5" d="M455.987,-297.949C461.813,-288.345 469.28,-276.035 475.821,-265.252"/>
<polygon fill="red" stroke="red" stroke-width="0.613762" points="478.847,-267.012 481.041,-256.647 472.862,-263.381 478.847,-267.012"/>
</g>
<!-- 43&#45;&gt;24 -->
<g id="edge25" class="edge">
<title>43&#45;&gt;24</title>
<path fill="none" stroke="red" stroke-width="0.400924" stroke-dasharray="1,5" d="M206.431,-75.5546C212.6,-65.9097 220.532,-53.5101 227.43,-42.7253"/>
<polygon fill="red" stroke="red" stroke-width="0.400924" points="230.481,-44.4517 232.921,-34.1417 224.584,-40.6798 230.481,-44.4517"/>
</g>
<!-- 40&#45;&gt;26 -->
<g id="edge62" class="edge">
<title>40&#45;&gt;26</title>
<path fill="none" stroke="red" stroke-width="0.700903" d="M247.933,-296.075C250.705,-287.505 254.065,-277.121 257.131,-267.644"/>
<polygon fill="red" stroke="red" stroke-width="0.700903" points="260.553,-268.437 260.301,-257.845 253.893,-266.282 260.553,-268.437"/>
</g>
<!-- 40&#45;&gt;28 -->
<g id="edge24" class="edge">
<title>40&#45;&gt;28</title>
<path fill="none" stroke="red" stroke-width="1.26957" stroke-dasharray="1,5" d="M256.99,-302.367C261.015,-299.657 265.504,-297.07 270,-295.321 374.209,-254.78 408.794,-278.233 519,-259.321 542.034,-255.368 568.026,-250.152 587.15,-246.171"/>
<polygon fill="red" stroke="red" stroke-width="1.26957" points="587.938,-249.582 597.005,-244.102 586.5,-242.731 587.938,-249.582"/>
</g>
<!-- 40&#45;&gt;36 -->
<g id="edge33" class="edge">
<title>40&#45;&gt;36</title>
<path fill="none" stroke="green" stroke-width="0.206656" d="M257.192,-302.163C271.795,-290.388 294.063,-272.432 310.87,-258.88"/>
<polygon fill="green" stroke="green" stroke-width="0.206656" points="313.503,-261.253 319.091,-252.251 309.109,-255.803 313.503,-261.253"/>
</g>
<!-- 48&#45;&gt;25 -->
<g id="edge38" class="edge">
<title>48&#45;&gt;25</title>
<path fill="none" stroke="red" stroke-width="0.485437" d="M509.855,-236.397C569.84,-224.205 756.491,-186.27 827.86,-171.764"/>
<polygon fill="red" stroke="red" stroke-width="0.485437" points="828.805,-175.144 837.907,-169.722 827.411,-168.284 828.805,-175.144"/>
</g>
</g>
</svg>
