<?xml version="1.0" encoding="utf-8" standalone="no"?>
<!DOCTYPE svg PUBLIC "-//W3C//DTD SVG 1.1//EN"
  "http://www.w3.org/Graphics/SVG/1.1/DTD/svg11.dtd">
<!-- Created with matplotlib (http://matplotlib.org/) -->
<svg height="432pt" version="1.1" viewBox="0 0 576 432" width="576pt" xmlns="http://www.w3.org/2000/svg" xmlns:xlink="http://www.w3.org/1999/xlink">
 <defs>
  <style type="text/css">
*{stroke-linecap:butt;stroke-linejoin:round;stroke-miterlimit:100000;}
  </style>
 </defs>
 <g id="figure_1">
  <g id="patch_1">
   <path d="M 0 432 
L 576 432 
L 576 0 
L 0 0 
z
" style="fill:#ffffff;"/>
  </g>
  <g id="axes_1">
   <g id="patch_2">
    <path d="M 72 388.8 
L 518.4 388.8 
L 518.4 43.2 
L 72 43.2 
z
" style="fill:#ffffff;"/>
   </g>
   <g id="PolyCollection_1">
    <defs>
     <path d="M 72 -338.112 
L 72 -43.2 
L 74.79 -43.2 
L 77.58 -43.2 
L 80.37 -43.2 
L 83.16 -43.2 
L 85.95 -43.2 
L 88.74 -43.2 
L 91.53 -43.2 
L 94.32 -43.2 
L 97.11 -43.2 
L 99.9 -43.2 
L 102.69 -43.2 
L 105.48 -43.2 
L 108.27 -43.2 
L 111.06 -43.2 
L 113.85 -43.2 
L 116.64 -43.2 
L 119.43 -43.2 
L 122.22 -43.2 
L 125.01 -43.2 
L 127.8 -43.2 
L 130.59 -43.2 
L 133.38 -43.2 
L 136.17 -43.2 
L 138.96 -43.2 
L 141.75 -43.2 
L 144.54 -43.2 
L 147.33 -43.2 
L 150.12 -43.2 
L 152.91 -43.2 
L 155.7 -43.2 
L 158.49 -43.2 
L 161.28 -43.2 
L 164.07 -43.2 
L 166.86 -43.2 
L 169.65 -43.2 
L 172.44 -43.2 
L 175.23 -43.2 
L 178.02 -43.2 
L 180.81 -43.2 
L 183.6 -43.2 
L 186.39 -43.2 
L 189.18 -43.2 
L 191.97 -43.2 
L 194.76 -43.2 
L 197.55 -43.2 
L 200.34 -43.2 
L 203.13 -43.2 
L 205.92 -43.2 
L 208.71 -43.2 
L 211.5 -43.2 
L 214.29 -43.2 
L 217.08 -43.2 
L 219.87 -43.2 
L 222.66 -43.2 
L 225.45 -43.2 
L 228.24 -43.2 
L 231.03 -43.2 
L 233.82 -43.2 
L 236.61 -43.2 
L 239.4 -43.2 
L 242.19 -43.2 
L 244.98 -43.2 
L 247.77 -43.2 
L 250.56 -43.2 
L 253.35 -43.2 
L 256.14 -43.2 
L 258.93 -43.2 
L 261.72 -43.2 
L 264.51 -43.2 
L 267.3 -43.2 
L 270.09 -43.2 
L 272.88 -43.2 
L 275.67 -43.2 
L 278.46 -43.2 
L 281.25 -43.2 
L 284.04 -43.2 
L 286.83 -43.2 
L 289.62 -43.2 
L 292.41 -43.2 
L 295.2 -43.2 
L 297.99 -43.2 
L 300.78 -43.2 
L 303.57 -43.2 
L 306.36 -43.2 
L 309.15 -43.2 
L 311.94 -43.2 
L 314.73 -43.2 
L 317.52 -43.2 
L 320.31 -43.2 
L 323.1 -43.2 
L 325.89 -43.2 
L 328.68 -43.2 
L 331.47 -43.2 
L 334.26 -43.2 
L 337.05 -43.2 
L 339.84 -43.2 
L 342.63 -43.2 
L 345.42 -43.2 
L 348.21 -43.2 
L 351 -43.2 
L 353.79 -43.2 
L 356.58 -43.2 
L 359.37 -43.2 
L 362.16 -43.2 
L 364.95 -43.2 
L 367.74 -43.2 
L 370.53 -43.2 
L 373.32 -43.2 
L 376.11 -43.2 
L 378.9 -43.2 
L 381.69 -43.2 
L 384.48 -43.2 
L 387.27 -43.2 
L 390.06 -43.2 
L 392.85 -43.2 
L 395.64 -43.2 
L 398.43 -43.2 
L 401.22 -43.2 
L 404.01 -43.2 
L 406.8 -43.2 
L 409.59 -43.2 
L 412.38 -43.2 
L 415.17 -43.2 
L 417.96 -43.2 
L 420.75 -43.2 
L 423.54 -43.2 
L 426.33 -43.2 
L 429.12 -43.2 
L 431.91 -43.2 
L 434.7 -43.2 
L 437.49 -43.2 
L 440.28 -43.2 
L 443.07 -43.2 
L 445.86 -43.2 
L 448.65 -43.2 
L 451.44 -43.2 
L 454.23 -43.2 
L 457.02 -43.2 
L 459.81 -43.2 
L 462.6 -43.2 
L 465.39 -43.2 
L 468.18 -43.2 
L 470.97 -43.2 
L 473.76 -43.2 
L 476.55 -43.2 
L 479.34 -43.2 
L 482.13 -43.2 
L 484.92 -43.2 
L 487.71 -43.2 
L 490.5 -43.2 
L 490.5 -43.2 
L 490.5 -43.2 
L 487.71 -43.2 
L 484.92 -43.2 
L 482.13 -43.2 
L 479.34 -43.2 
L 476.55 -43.2 
L 473.76 -43.2 
L 470.97 -43.2 
L 468.18 -43.2 
L 465.39 -43.2 
L 462.6 -43.2 
L 459.81 -43.2 
L 457.02 -43.2 
L 454.23 -43.2 
L 451.44 -43.2 
L 448.65 -43.2 
L 445.86 -43.2 
L 443.07 -43.2 
L 440.28 -43.2 
L 437.49 -43.2 
L 434.7 -43.2 
L 431.91 -43.2 
L 429.12 -43.2 
L 426.33 -43.2 
L 423.54 -43.2 
L 420.75 -43.2 
L 417.96 -43.2 
L 415.17 -43.2 
L 412.38 -43.2 
L 409.59 -43.2 
L 406.8 -43.2 
L 404.01 -43.2 
L 401.22 -43.2 
L 398.43 -43.2 
L 395.64 -43.2 
L 392.85 -43.2 
L 390.06 -43.2 
L 387.27 -43.2 
L 384.48 -43.2 
L 381.69 -43.2 
L 378.9 -43.2 
L 376.11 -43.2 
L 373.32 -43.2 
L 370.53 -43.2 
L 367.74 -43.2 
L 364.95 -43.2 
L 362.16 -43.2 
L 359.37 -43.2 
L 356.58 -43.2 
L 353.79 -43.2 
L 351 -43.2 
L 348.21 -43.2 
L 345.42 -43.2 
L 342.63 -43.2 
L 339.84 -43.2 
L 337.05 -43.2 
L 334.26 -43.2 
L 331.47 -43.2 
L 328.68 -43.2 
L 325.89 -43.2 
L 323.1 -43.2 
L 320.31 -43.2 
L 317.52 -43.2 
L 314.73 -43.2 
L 311.94 -43.2 
L 309.15 -43.2 
L 306.36 -43.2 
L 303.57 -43.2 
L 300.78 -43.2 
L 297.99 -43.2 
L 295.2 -43.2 
L 292.41 -43.2 
L 289.62 -43.2 
L 286.83 -43.2 
L 284.04 -43.2 
L 281.25 -43.2 
L 278.46 -43.2 
L 275.67 -43.2 
L 272.88 -43.2 
L 270.09 -43.2 
L 267.3 -43.2 
L 264.51 -43.2 
L 261.72 -43.2 
L 258.93 -43.2 
L 256.14 -43.2 
L 253.35 -243.648 
L 250.56 -210.24 
L 247.77 -225.216 
L 244.98 -226.368 
L 242.19 -282.816 
L 239.4 -333.504 
L 236.61 -310.464 
L 233.82 -196.416 
L 231.03 -190.656 
L 228.24 -188.352 
L 225.45 -131.904 
L 222.66 -118.08 
L 219.87 -120.384 
L 217.08 -120.384 
L 214.29 -119.232 
L 211.5 -116.928 
L 208.71 -120.384 
L 205.92 -119.232 
L 203.13 -119.232 
L 200.34 -118.08 
L 197.55 -122.688 
L 194.76 -119.232 
L 191.97 -121.536 
L 189.18 -115.776 
L 186.39 -122.688 
L 183.6 -115.776 
L 180.81 -126.144 
L 178.02 -122.688 
L 175.23 -115.776 
L 172.44 -127.296 
L 169.65 -103.104 
L 166.86 -72 
L 164.07 -146.88 
L 161.28 -144.576 
L 158.49 -135.36 
L 155.7 -154.944 
L 152.91 -150.336 
L 150.12 -122.688 
L 147.33 -189.504 
L 144.54 -85.824 
L 141.75 -123.84 
L 138.96 -156.096 
L 136.17 -121.536 
L 133.38 -172.224 
L 130.59 -137.664 
L 127.8 -160.704 
L 125.01 -130.752 
L 122.22 -137.664 
L 119.43 -176.832 
L 116.64 -127.296 
L 113.85 -137.664 
L 111.06 -115.776 
L 108.27 -229.824 
L 105.48 -163.008 
L 102.69 -98.496 
L 99.9 -133.056 
L 97.11 -131.904 
L 94.32 -189.504 
L 91.53 -78.912 
L 88.74 -204.48 
L 85.95 -166.464 
L 83.16 -268.992 
L 80.37 -338.112 
L 77.58 -338.112 
L 74.79 -338.112 
L 72 -338.112 
z
" id="mf91f81f368" style="stroke:#000000;"/>
    </defs>
    <g clip-path="url(#p06f5f9e312)">
     <use style="fill:#0000ff;stroke:#000000;" x="0.0" xlink:href="#mf91f81f368" y="432.0"/>
    </g>
   </g>
   <g id="PolyCollection_2">
    <defs>
     <path d="M 72 -338.112 
L 72 -338.112 
L 74.79 -338.112 
L 77.58 -338.112 
L 80.37 -338.112 
L 83.16 -268.992 
L 85.95 -166.464 
L 88.74 -204.48 
L 91.53 -78.912 
L 94.32 -189.504 
L 97.11 -131.904 
L 99.9 -133.056 
L 102.69 -98.496 
L 105.48 -163.008 
L 108.27 -229.824 
L 111.06 -115.776 
L 113.85 -137.664 
L 116.64 -127.296 
L 119.43 -176.832 
L 122.22 -137.664 
L 125.01 -130.752 
L 127.8 -160.704 
L 130.59 -137.664 
L 133.38 -172.224 
L 136.17 -121.536 
L 138.96 -156.096 
L 141.75 -123.84 
L 144.54 -85.824 
L 147.33 -189.504 
L 150.12 -122.688 
L 152.91 -150.336 
L 155.7 -154.944 
L 158.49 -135.36 
L 161.28 -144.576 
L 164.07 -146.88 
L 166.86 -72 
L 169.65 -103.104 
L 172.44 -127.296 
L 175.23 -115.776 
L 178.02 -122.688 
L 180.81 -126.144 
L 183.6 -115.776 
L 186.39 -122.688 
L 189.18 -115.776 
L 191.97 -121.536 
L 194.76 -119.232 
L 197.55 -122.688 
L 200.34 -118.08 
L 203.13 -119.232 
L 205.92 -119.232 
L 208.71 -120.384 
L 211.5 -116.928 
L 214.29 -119.232 
L 217.08 -120.384 
L 219.87 -120.384 
L 222.66 -118.08 
L 225.45 -131.904 
L 228.24 -188.352 
L 231.03 -190.656 
L 233.82 -196.416 
L 236.61 -310.464 
L 239.4 -333.504 
L 242.19 -282.816 
L 244.98 -226.368 
L 247.77 -225.216 
L 250.56 -210.24 
L 253.35 -243.648 
L 256.14 -43.2 
L 258.93 -43.2 
L 261.72 -43.2 
L 264.51 -43.2 
L 267.3 -43.2 
L 270.09 -43.2 
L 272.88 -43.2 
L 275.67 -43.2 
L 278.46 -43.2 
L 281.25 -43.2 
L 284.04 -43.2 
L 286.83 -43.2 
L 289.62 -43.2 
L 292.41 -43.2 
L 295.2 -43.2 
L 297.99 -43.2 
L 300.78 -43.2 
L 303.57 -43.2 
L 306.36 -43.2 
L 309.15 -43.2 
L 311.94 -43.2 
L 314.73 -43.2 
L 317.52 -43.2 
L 320.31 -43.2 
L 323.1 -43.2 
L 325.89 -43.2 
L 328.68 -43.2 
L 331.47 -43.2 
L 334.26 -43.2 
L 337.05 -43.2 
L 339.84 -43.2 
L 342.63 -43.2 
L 345.42 -43.2 
L 348.21 -43.2 
L 351 -43.2 
L 353.79 -43.2 
L 356.58 -43.2 
L 359.37 -43.2 
L 362.16 -43.2 
L 364.95 -43.2 
L 367.74 -43.2 
L 370.53 -43.2 
L 373.32 -43.2 
L 376.11 -43.2 
L 378.9 -43.2 
L 381.69 -43.2 
L 384.48 -43.2 
L 387.27 -43.2 
L 390.06 -43.2 
L 392.85 -43.2 
L 395.64 -43.2 
L 398.43 -43.2 
L 401.22 -43.2 
L 404.01 -43.2 
L 406.8 -43.2 
L 409.59 -43.2 
L 412.38 -43.2 
L 415.17 -43.2 
L 417.96 -43.2 
L 420.75 -43.2 
L 423.54 -43.2 
L 426.33 -43.2 
L 429.12 -43.2 
L 431.91 -43.2 
L 434.7 -43.2 
L 437.49 -43.2 
L 440.28 -43.2 
L 443.07 -43.2 
L 445.86 -43.2 
L 448.65 -43.2 
L 451.44 -43.2 
L 454.23 -43.2 
L 457.02 -43.2 
L 459.81 -43.2 
L 462.6 -43.2 
L 465.39 -43.2 
L 468.18 -43.2 
L 470.97 -43.2 
L 473.76 -43.2 
L 476.55 -43.2 
L 479.34 -43.2 
L 482.13 -43.2 
L 484.92 -43.2 
L 487.71 -43.2 
L 490.5 -43.2 
L 490.5 -43.2 
L 490.5 -43.2 
L 487.71 -43.2 
L 484.92 -43.2 
L 482.13 -43.2 
L 479.34 -43.2 
L 476.55 -43.2 
L 473.76 -43.2 
L 470.97 -43.2 
L 468.18 -43.2 
L 465.39 -43.2 
L 462.6 -43.2 
L 459.81 -43.2 
L 457.02 -43.2 
L 454.23 -43.2 
L 451.44 -43.2 
L 448.65 -43.2 
L 445.86 -43.2 
L 443.07 -43.2 
L 440.28 -43.2 
L 437.49 -43.2 
L 434.7 -43.2 
L 431.91 -43.2 
L 429.12 -43.2 
L 426.33 -43.2 
L 423.54 -43.2 
L 420.75 -43.2 
L 417.96 -43.2 
L 415.17 -43.2 
L 412.38 -43.2 
L 409.59 -43.2 
L 406.8 -43.2 
L 404.01 -43.2 
L 401.22 -43.2 
L 398.43 -43.2 
L 395.64 -43.2 
L 392.85 -43.2 
L 390.06 -43.2 
L 387.27 -43.2 
L 384.48 -43.2 
L 381.69 -43.2 
L 378.9 -43.2 
L 376.11 -43.2 
L 373.32 -43.2 
L 370.53 -43.2 
L 367.74 -43.2 
L 364.95 -43.2 
L 362.16 -43.2 
L 359.37 -43.2 
L 356.58 -43.2 
L 353.79 -43.2 
L 351 -43.2 
L 348.21 -43.2 
L 345.42 -43.2 
L 342.63 -43.2 
L 339.84 -43.2 
L 337.05 -43.2 
L 334.26 -43.2 
L 331.47 -43.2 
L 328.68 -43.2 
L 325.89 -43.2 
L 323.1 -43.2 
L 320.31 -43.2 
L 317.52 -43.2 
L 314.73 -43.2 
L 311.94 -43.2 
L 309.15 -43.2 
L 306.36 -43.2 
L 303.57 -43.2 
L 300.78 -43.2 
L 297.99 -43.2 
L 295.2 -43.2 
L 292.41 -43.2 
L 289.62 -43.2 
L 286.83 -43.2 
L 284.04 -43.2 
L 281.25 -43.2 
L 278.46 -43.2 
L 275.67 -43.2 
L 272.88 -43.2 
L 270.09 -43.2 
L 267.3 -43.2 
L 264.51 -43.2 
L 261.72 -43.2 
L 258.93 -43.2 
L 256.14 -43.2 
L 253.35 -243.648 
L 250.56 -210.24 
L 247.77 -225.216 
L 244.98 -226.368 
L 242.19 -282.816 
L 239.4 -333.504 
L 236.61 -310.464 
L 233.82 -196.416 
L 231.03 -190.656 
L 228.24 -188.352 
L 225.45 -230.976 
L 222.66 -195.264 
L 219.87 -198.72 
L 217.08 -195.264 
L 214.29 -194.112 
L 211.5 -194.112 
L 208.71 -196.416 
L 205.92 -195.264 
L 203.13 -196.416 
L 200.34 -194.112 
L 197.55 -197.568 
L 194.76 -194.112 
L 191.97 -196.416 
L 189.18 -192.96 
L 186.39 -199.872 
L 183.6 -189.504 
L 180.81 -203.328 
L 178.02 -197.568 
L 175.23 -189.504 
L 172.44 -202.176 
L 169.65 -169.92 
L 166.86 -100.8 
L 164.07 -248.256 
L 161.28 -244.8 
L 158.49 -240.192 
L 155.7 -270.144 
L 152.91 -236.736 
L 150.12 -244.8 
L 147.33 -259.776 
L 144.54 -252.864 
L 141.75 -277.056 
L 138.96 -234.432 
L 136.17 -252.864 
L 133.38 -243.648 
L 130.59 -249.408 
L 127.8 -243.648 
L 125.01 -247.104 
L 122.22 -241.344 
L 119.43 -254.016 
L 116.64 -210.24 
L 113.85 -271.296 
L 111.06 -175.68 
L 108.27 -323.136 
L 105.48 -244.8 
L 102.69 -228.672 
L 99.9 -282.816 
L 97.11 -278.208 
L 94.32 -311.616 
L 91.53 -245.952 
L 88.74 -312.768 
L 85.95 -339.264 
L 83.16 -338.112 
L 80.37 -338.112 
L 77.58 -338.112 
L 74.79 -338.112 
L 72 -338.112 
z
" id="m25c1bfbdc3" style="stroke:#000000;"/>
    </defs>
    <g clip-path="url(#p06f5f9e312)">
     <use style="fill:#008000;stroke:#000000;" x="0.0" xlink:href="#m25c1bfbdc3" y="432.0"/>
    </g>
   </g>
   <g id="PolyCollection_3">
    <defs>
     <path d="M 72 -338.112 
L 72 -338.112 
L 74.79 -338.112 
L 77.58 -338.112 
L 80.37 -338.112 
L 83.16 -338.112 
L 85.95 -339.264 
L 88.74 -312.768 
L 91.53 -245.952 
L 94.32 -311.616 
L 97.11 -278.208 
L 99.9 -282.816 
L 102.69 -228.672 
L 105.48 -244.8 
L 108.27 -323.136 
L 111.06 -175.68 
L 113.85 -271.296 
L 116.64 -210.24 
L 119.43 -254.016 
L 122.22 -241.344 
L 125.01 -247.104 
L 127.8 -243.648 
L 130.59 -249.408 
L 133.38 -243.648 
L 136.17 -252.864 
L 138.96 -234.432 
L 141.75 -277.056 
L 144.54 -252.864 
L 147.33 -259.776 
L 150.12 -244.8 
L 152.91 -236.736 
L 155.7 -270.144 
L 158.49 -240.192 
L 161.28 -244.8 
L 164.07 -248.256 
L 166.86 -100.8 
L 169.65 -169.92 
L 172.44 -202.176 
L 175.23 -189.504 
L 178.02 -197.568 
L 180.81 -203.328 
L 183.6 -189.504 
L 186.39 -199.872 
L 189.18 -192.96 
L 191.97 -196.416 
L 194.76 -194.112 
L 197.55 -197.568 
L 200.34 -194.112 
L 203.13 -196.416 
L 205.92 -195.264 
L 208.71 -196.416 
L 211.5 -194.112 
L 214.29 -194.112 
L 217.08 -195.264 
L 219.87 -198.72 
L 222.66 -195.264 
L 225.45 -230.976 
L 228.24 -188.352 
L 231.03 -190.656 
L 233.82 -196.416 
L 236.61 -310.464 
L 239.4 -333.504 
L 242.19 -282.816 
L 244.98 -226.368 
L 247.77 -225.216 
L 250.56 -210.24 
L 253.35 -243.648 
L 256.14 -43.2 
L 258.93 -43.2 
L 261.72 -43.2 
L 264.51 -43.2 
L 267.3 -43.2 
L 270.09 -43.2 
L 272.88 -43.2 
L 275.67 -43.2 
L 278.46 -43.2 
L 281.25 -43.2 
L 284.04 -43.2 
L 286.83 -43.2 
L 289.62 -43.2 
L 292.41 -43.2 
L 295.2 -43.2 
L 297.99 -43.2 
L 300.78 -43.2 
L 303.57 -43.2 
L 306.36 -43.2 
L 309.15 -43.2 
L 311.94 -43.2 
L 314.73 -43.2 
L 317.52 -43.2 
L 320.31 -43.2 
L 323.1 -43.2 
L 325.89 -43.2 
L 328.68 -43.2 
L 331.47 -43.2 
L 334.26 -43.2 
L 337.05 -43.2 
L 339.84 -43.2 
L 342.63 -43.2 
L 345.42 -43.2 
L 348.21 -43.2 
L 351 -43.2 
L 353.79 -43.2 
L 356.58 -43.2 
L 359.37 -43.2 
L 362.16 -43.2 
L 364.95 -43.2 
L 367.74 -43.2 
L 370.53 -43.2 
L 373.32 -43.2 
L 376.11 -43.2 
L 378.9 -43.2 
L 381.69 -43.2 
L 384.48 -43.2 
L 387.27 -43.2 
L 390.06 -43.2 
L 392.85 -43.2 
L 395.64 -43.2 
L 398.43 -43.2 
L 401.22 -43.2 
L 404.01 -43.2 
L 406.8 -43.2 
L 409.59 -43.2 
L 412.38 -43.2 
L 415.17 -43.2 
L 417.96 -43.2 
L 420.75 -43.2 
L 423.54 -43.2 
L 426.33 -43.2 
L 429.12 -43.2 
L 431.91 -43.2 
L 434.7 -43.2 
L 437.49 -43.2 
L 440.28 -43.2 
L 443.07 -43.2 
L 445.86 -43.2 
L 448.65 -43.2 
L 451.44 -43.2 
L 454.23 -43.2 
L 457.02 -43.2 
L 459.81 -43.2 
L 462.6 -43.2 
L 465.39 -43.2 
L 468.18 -43.2 
L 470.97 -43.2 
L 473.76 -43.2 
L 476.55 -43.2 
L 479.34 -43.2 
L 482.13 -43.2 
L 484.92 -43.2 
L 487.71 -43.2 
L 490.5 -43.2 
L 490.5 -43.2 
L 490.5 -43.2 
L 487.71 -43.2 
L 484.92 -43.2 
L 482.13 -43.2 
L 479.34 -43.2 
L 476.55 -43.2 
L 473.76 -43.2 
L 470.97 -43.2 
L 468.18 -43.2 
L 465.39 -43.2 
L 462.6 -43.2 
L 459.81 -43.2 
L 457.02 -43.2 
L 454.23 -43.2 
L 451.44 -43.2 
L 448.65 -43.2 
L 445.86 -43.2 
L 443.07 -43.2 
L 440.28 -43.2 
L 437.49 -43.2 
L 434.7 -43.2 
L 431.91 -43.2 
L 429.12 -43.2 
L 426.33 -43.2 
L 423.54 -43.2 
L 420.75 -43.2 
L 417.96 -43.2 
L 415.17 -43.2 
L 412.38 -43.2 
L 409.59 -43.2 
L 406.8 -43.2 
L 404.01 -43.2 
L 401.22 -43.2 
L 398.43 -43.2 
L 395.64 -43.2 
L 392.85 -43.2 
L 390.06 -43.2 
L 387.27 -43.2 
L 384.48 -43.2 
L 381.69 -43.2 
L 378.9 -43.2 
L 376.11 -43.2 
L 373.32 -43.2 
L 370.53 -43.2 
L 367.74 -43.2 
L 364.95 -43.2 
L 362.16 -43.2 
L 359.37 -43.2 
L 356.58 -43.2 
L 353.79 -43.2 
L 351 -43.2 
L 348.21 -43.2 
L 345.42 -43.2 
L 342.63 -43.2 
L 339.84 -43.2 
L 337.05 -43.2 
L 334.26 -43.2 
L 331.47 -43.2 
L 328.68 -43.2 
L 325.89 -43.2 
L 323.1 -43.2 
L 320.31 -43.2 
L 317.52 -43.2 
L 314.73 -43.2 
L 311.94 -43.2 
L 309.15 -43.2 
L 306.36 -43.2 
L 303.57 -43.2 
L 300.78 -43.2 
L 297.99 -43.2 
L 295.2 -43.2 
L 292.41 -43.2 
L 289.62 -43.2 
L 286.83 -43.2 
L 284.04 -43.2 
L 281.25 -43.2 
L 278.46 -43.2 
L 275.67 -43.2 
L 272.88 -43.2 
L 270.09 -43.2 
L 267.3 -43.2 
L 264.51 -43.2 
L 261.72 -43.2 
L 258.93 -43.2 
L 256.14 -43.2 
L 253.35 -243.648 
L 250.56 -210.24 
L 247.77 -225.216 
L 244.98 -226.368 
L 242.19 -282.816 
L 239.4 -333.504 
L 236.61 -310.464 
L 233.82 -339.264 
L 231.03 -335.808 
L 228.24 -317.376 
L 225.45 -325.44 
L 222.66 -264.384 
L 219.87 -273.6 
L 217.08 -264.384 
L 214.29 -271.296 
L 211.5 -263.232 
L 208.71 -272.448 
L 205.92 -264.384 
L 203.13 -272.448 
L 200.34 -267.84 
L 197.55 -272.448 
L 194.76 -264.384 
L 191.97 -275.904 
L 189.18 -260.928 
L 186.39 -270.144 
L 183.6 -267.84 
L 180.81 -270.144 
L 178.02 -263.232 
L 175.23 -275.904 
L 172.44 -258.624 
L 169.65 -288.576 
L 166.86 -114.624 
L 164.07 -336.96 
L 161.28 -340.416 
L 158.49 -340.416 
L 155.7 -340.416 
L 152.91 -339.264 
L 150.12 -340.416 
L 147.33 -340.416 
L 144.54 -340.416 
L 141.75 -340.416 
L 138.96 -339.264 
L 136.17 -340.416 
L 133.38 -340.416 
L 130.59 -340.416 
L 127.8 -340.416 
L 125.01 -340.416 
L 122.22 -340.416 
L 119.43 -340.416 
L 116.64 -341.568 
L 113.85 -340.416 
L 111.06 -339.264 
L 108.27 -340.416 
L 105.48 -340.416 
L 102.69 -339.264 
L 99.9 -340.416 
L 97.11 -340.416 
L 94.32 -340.416 
L 91.53 -340.416 
L 88.74 -339.264 
L 85.95 -339.264 
L 83.16 -338.112 
L 80.37 -338.112 
L 77.58 -338.112 
L 74.79 -338.112 
L 72 -338.112 
z
" id="me7c2d1c481" style="stroke:#000000;"/>
    </defs>
    <g clip-path="url(#p06f5f9e312)">
     <use style="fill:#ff0000;stroke:#000000;" x="0.0" xlink:href="#me7c2d1c481" y="432.0"/>
    </g>
   </g>
   <g id="PolyCollection_4">
    <defs>
     <path d="M 72 -338.112 
L 72 -338.112 
L 74.79 -338.112 
L 77.58 -338.112 
L 80.37 -338.112 
L 83.16 -338.112 
L 85.95 -339.264 
L 88.74 -339.264 
L 91.53 -340.416 
L 94.32 -340.416 
L 97.11 -340.416 
L 99.9 -340.416 
L 102.69 -339.264 
L 105.48 -340.416 
L 108.27 -340.416 
L 111.06 -339.264 
L 113.85 -340.416 
L 116.64 -341.568 
L 119.43 -340.416 
L 122.22 -340.416 
L 125.01 -340.416 
L 127.8 -340.416 
L 130.59 -340.416 
L 133.38 -340.416 
L 136.17 -340.416 
L 138.96 -339.264 
L 141.75 -340.416 
L 144.54 -340.416 
L 147.33 -340.416 
L 150.12 -340.416 
L 152.91 -339.264 
L 155.7 -340.416 
L 158.49 -340.416 
L 161.28 -340.416 
L 164.07 -336.96 
L 166.86 -114.624 
L 169.65 -288.576 
L 172.44 -258.624 
L 175.23 -275.904 
L 178.02 -263.232 
L 180.81 -270.144 
L 183.6 -267.84 
L 186.39 -270.144 
L 189.18 -260.928 
L 191.97 -275.904 
L 194.76 -264.384 
L 197.55 -272.448 
L 200.34 -267.84 
L 203.13 -272.448 
L 205.92 -264.384 
L 208.71 -272.448 
L 211.5 -263.232 
L 214.29 -271.296 
L 217.08 -264.384 
L 219.87 -273.6 
L 222.66 -264.384 
L 225.45 -325.44 
L 228.24 -317.376 
L 231.03 -335.808 
L 233.82 -339.264 
L 236.61 -310.464 
L 239.4 -333.504 
L 242.19 -282.816 
L 244.98 -226.368 
L 247.77 -225.216 
L 250.56 -210.24 
L 253.35 -243.648 
L 256.14 -43.2 
L 258.93 -43.2 
L 261.72 -43.2 
L 264.51 -43.2 
L 267.3 -43.2 
L 270.09 -43.2 
L 272.88 -43.2 
L 275.67 -43.2 
L 278.46 -43.2 
L 281.25 -43.2 
L 284.04 -43.2 
L 286.83 -43.2 
L 289.62 -43.2 
L 292.41 -43.2 
L 295.2 -43.2 
L 297.99 -43.2 
L 300.78 -43.2 
L 303.57 -43.2 
L 306.36 -43.2 
L 309.15 -43.2 
L 311.94 -43.2 
L 314.73 -43.2 
L 317.52 -43.2 
L 320.31 -43.2 
L 323.1 -43.2 
L 325.89 -43.2 
L 328.68 -43.2 
L 331.47 -43.2 
L 334.26 -43.2 
L 337.05 -43.2 
L 339.84 -43.2 
L 342.63 -43.2 
L 345.42 -43.2 
L 348.21 -43.2 
L 351 -43.2 
L 353.79 -43.2 
L 356.58 -43.2 
L 359.37 -43.2 
L 362.16 -43.2 
L 364.95 -43.2 
L 367.74 -43.2 
L 370.53 -43.2 
L 373.32 -43.2 
L 376.11 -43.2 
L 378.9 -43.2 
L 381.69 -43.2 
L 384.48 -43.2 
L 387.27 -43.2 
L 390.06 -43.2 
L 392.85 -43.2 
L 395.64 -43.2 
L 398.43 -43.2 
L 401.22 -43.2 
L 404.01 -43.2 
L 406.8 -43.2 
L 409.59 -43.2 
L 412.38 -43.2 
L 415.17 -43.2 
L 417.96 -43.2 
L 420.75 -43.2 
L 423.54 -43.2 
L 426.33 -43.2 
L 429.12 -43.2 
L 431.91 -43.2 
L 434.7 -43.2 
L 437.49 -43.2 
L 440.28 -43.2 
L 443.07 -43.2 
L 445.86 -43.2 
L 448.65 -43.2 
L 451.44 -43.2 
L 454.23 -43.2 
L 457.02 -43.2 
L 459.81 -43.2 
L 462.6 -43.2 
L 465.39 -43.2 
L 468.18 -43.2 
L 470.97 -43.2 
L 473.76 -43.2 
L 476.55 -43.2 
L 479.34 -43.2 
L 482.13 -43.2 
L 484.92 -43.2 
L 487.71 -43.2 
L 490.5 -43.2 
L 490.5 -43.2 
L 490.5 -43.2 
L 487.71 -43.2 
L 484.92 -43.2 
L 482.13 -43.2 
L 479.34 -43.2 
L 476.55 -43.2 
L 473.76 -43.2 
L 470.97 -43.2 
L 468.18 -43.2 
L 465.39 -43.2 
L 462.6 -43.2 
L 459.81 -43.2 
L 457.02 -43.2 
L 454.23 -43.2 
L 451.44 -43.2 
L 448.65 -43.2 
L 445.86 -43.2 
L 443.07 -43.2 
L 440.28 -43.2 
L 437.49 -43.2 
L 434.7 -43.2 
L 431.91 -43.2 
L 429.12 -43.2 
L 426.33 -43.2 
L 423.54 -43.2 
L 420.75 -43.2 
L 417.96 -43.2 
L 415.17 -43.2 
L 412.38 -43.2 
L 409.59 -43.2 
L 406.8 -43.2 
L 404.01 -43.2 
L 401.22 -43.2 
L 398.43 -43.2 
L 395.64 -43.2 
L 392.85 -43.2 
L 390.06 -43.2 
L 387.27 -43.2 
L 384.48 -43.2 
L 381.69 -43.2 
L 378.9 -43.2 
L 376.11 -43.2 
L 373.32 -43.2 
L 370.53 -43.2 
L 367.74 -43.2 
L 364.95 -43.2 
L 362.16 -43.2 
L 359.37 -43.2 
L 356.58 -43.2 
L 353.79 -43.2 
L 351 -43.2 
L 348.21 -43.2 
L 345.42 -43.2 
L 342.63 -43.2 
L 339.84 -43.2 
L 337.05 -43.2 
L 334.26 -43.2 
L 331.47 -43.2 
L 328.68 -43.2 
L 325.89 -43.2 
L 323.1 -43.2 
L 320.31 -43.2 
L 317.52 -43.2 
L 314.73 -43.2 
L 311.94 -43.2 
L 309.15 -43.2 
L 306.36 -43.2 
L 303.57 -43.2 
L 300.78 -43.2 
L 297.99 -43.2 
L 295.2 -43.2 
L 292.41 -43.2 
L 289.62 -43.2 
L 286.83 -43.2 
L 284.04 -43.2 
L 281.25 -43.2 
L 278.46 -43.2 
L 275.67 -43.2 
L 272.88 -43.2 
L 270.09 -43.2 
L 267.3 -43.2 
L 264.51 -43.2 
L 261.72 -43.2 
L 258.93 -43.2 
L 256.14 -43.2 
L 253.35 -243.648 
L 250.56 -210.24 
L 247.77 -225.216 
L 244.98 -226.368 
L 242.19 -282.816 
L 239.4 -333.504 
L 236.61 -310.464 
L 233.82 -339.264 
L 231.03 -335.808 
L 228.24 -317.376 
L 225.45 -325.44 
L 222.66 -340.416 
L 219.87 -341.568 
L 217.08 -341.568 
L 214.29 -340.416 
L 211.5 -340.416 
L 208.71 -341.568 
L 205.92 -341.568 
L 203.13 -341.568 
L 200.34 -341.568 
L 197.55 -341.568 
L 194.76 -341.568 
L 191.97 -340.416 
L 189.18 -340.416 
L 186.39 -341.568 
L 183.6 -340.416 
L 180.81 -340.416 
L 178.02 -341.568 
L 175.23 -341.568 
L 172.44 -341.568 
L 169.65 -341.568 
L 166.86 -341.568 
L 164.07 -340.416 
L 161.28 -340.416 
L 158.49 -340.416 
L 155.7 -340.416 
L 152.91 -339.264 
L 150.12 -340.416 
L 147.33 -340.416 
L 144.54 -340.416 
L 141.75 -340.416 
L 138.96 -339.264 
L 136.17 -340.416 
L 133.38 -340.416 
L 130.59 -340.416 
L 127.8 -340.416 
L 125.01 -340.416 
L 122.22 -340.416 
L 119.43 -340.416 
L 116.64 -341.568 
L 113.85 -340.416 
L 111.06 -339.264 
L 108.27 -340.416 
L 105.48 -340.416 
L 102.69 -339.264 
L 99.9 -340.416 
L 97.11 -340.416 
L 94.32 -340.416 
L 91.53 -340.416 
L 88.74 -339.264 
L 85.95 -339.264 
L 83.16 -338.112 
L 80.37 -338.112 
L 77.58 -338.112 
L 74.79 -338.112 
L 72 -338.112 
z
" id="m629dce1035" style="stroke:#000000;"/>
    </defs>
    <g clip-path="url(#p06f5f9e312)">
     <use style="fill:#00bfbf;stroke:#000000;" x="0.0" xlink:href="#m629dce1035" y="432.0"/>
    </g>
   </g>
   <g id="PolyCollection_5">
    <defs>
     <path d="M 72 -338.112 
L 72 -338.112 
L 74.79 -338.112 
L 77.58 -338.112 
L 80.37 -338.112 
L 83.16 -338.112 
L 85.95 -339.264 
L 88.74 -339.264 
L 91.53 -340.416 
L 94.32 -340.416 
L 97.11 -340.416 
L 99.9 -340.416 
L 102.69 -339.264 
L 105.48 -340.416 
L 108.27 -340.416 
L 111.06 -339.264 
L 113.85 -340.416 
L 116.64 -341.568 
L 119.43 -340.416 
L 122.22 -340.416 
L 125.01 -340.416 
L 127.8 -340.416 
L 130.59 -340.416 
L 133.38 -340.416 
L 136.17 -340.416 
L 138.96 -339.264 
L 141.75 -340.416 
L 144.54 -340.416 
L 147.33 -340.416 
L 150.12 -340.416 
L 152.91 -339.264 
L 155.7 -340.416 
L 158.49 -340.416 
L 161.28 -340.416 
L 164.07 -340.416 
L 166.86 -341.568 
L 169.65 -341.568 
L 172.44 -341.568 
L 175.23 -341.568 
L 178.02 -341.568 
L 180.81 -340.416 
L 183.6 -340.416 
L 186.39 -341.568 
L 189.18 -340.416 
L 191.97 -340.416 
L 194.76 -341.568 
L 197.55 -341.568 
L 200.34 -341.568 
L 203.13 -341.568 
L 205.92 -341.568 
L 208.71 -341.568 
L 211.5 -340.416 
L 214.29 -340.416 
L 217.08 -341.568 
L 219.87 -341.568 
L 222.66 -340.416 
L 225.45 -325.44 
L 228.24 -317.376 
L 231.03 -335.808 
L 233.82 -339.264 
L 236.61 -310.464 
L 239.4 -333.504 
L 242.19 -282.816 
L 244.98 -226.368 
L 247.77 -225.216 
L 250.56 -210.24 
L 253.35 -243.648 
L 256.14 -43.2 
L 258.93 -43.2 
L 261.72 -43.2 
L 264.51 -43.2 
L 267.3 -43.2 
L 270.09 -43.2 
L 272.88 -43.2 
L 275.67 -43.2 
L 278.46 -43.2 
L 281.25 -43.2 
L 284.04 -43.2 
L 286.83 -43.2 
L 289.62 -43.2 
L 292.41 -43.2 
L 295.2 -43.2 
L 297.99 -43.2 
L 300.78 -43.2 
L 303.57 -43.2 
L 306.36 -43.2 
L 309.15 -43.2 
L 311.94 -43.2 
L 314.73 -43.2 
L 317.52 -43.2 
L 320.31 -43.2 
L 323.1 -43.2 
L 325.89 -43.2 
L 328.68 -43.2 
L 331.47 -43.2 
L 334.26 -43.2 
L 337.05 -43.2 
L 339.84 -43.2 
L 342.63 -43.2 
L 345.42 -43.2 
L 348.21 -43.2 
L 351 -43.2 
L 353.79 -43.2 
L 356.58 -43.2 
L 359.37 -43.2 
L 362.16 -43.2 
L 364.95 -43.2 
L 367.74 -43.2 
L 370.53 -43.2 
L 373.32 -43.2 
L 376.11 -43.2 
L 378.9 -43.2 
L 381.69 -43.2 
L 384.48 -43.2 
L 387.27 -43.2 
L 390.06 -43.2 
L 392.85 -43.2 
L 395.64 -43.2 
L 398.43 -43.2 
L 401.22 -43.2 
L 404.01 -43.2 
L 406.8 -43.2 
L 409.59 -43.2 
L 412.38 -43.2 
L 415.17 -43.2 
L 417.96 -43.2 
L 420.75 -43.2 
L 423.54 -43.2 
L 426.33 -43.2 
L 429.12 -43.2 
L 431.91 -43.2 
L 434.7 -43.2 
L 437.49 -43.2 
L 440.28 -43.2 
L 443.07 -43.2 
L 445.86 -43.2 
L 448.65 -43.2 
L 451.44 -43.2 
L 454.23 -43.2 
L 457.02 -43.2 
L 459.81 -43.2 
L 462.6 -43.2 
L 465.39 -43.2 
L 468.18 -43.2 
L 470.97 -43.2 
L 473.76 -43.2 
L 476.55 -43.2 
L 479.34 -43.2 
L 482.13 -43.2 
L 484.92 -43.2 
L 487.71 -43.2 
L 490.5 -43.2 
L 490.5 -43.2 
L 490.5 -43.2 
L 487.71 -43.2 
L 484.92 -43.2 
L 482.13 -43.2 
L 479.34 -43.2 
L 476.55 -43.2 
L 473.76 -43.2 
L 470.97 -43.2 
L 468.18 -43.2 
L 465.39 -43.2 
L 462.6 -43.2 
L 459.81 -43.2 
L 457.02 -43.2 
L 454.23 -43.2 
L 451.44 -43.2 
L 448.65 -43.2 
L 445.86 -43.2 
L 443.07 -43.2 
L 440.28 -43.2 
L 437.49 -43.2 
L 434.7 -43.2 
L 431.91 -43.2 
L 429.12 -43.2 
L 426.33 -43.2 
L 423.54 -43.2 
L 420.75 -43.2 
L 417.96 -43.2 
L 415.17 -43.2 
L 412.38 -43.2 
L 409.59 -43.2 
L 406.8 -43.2 
L 404.01 -43.2 
L 401.22 -43.2 
L 398.43 -43.2 
L 395.64 -43.2 
L 392.85 -43.2 
L 390.06 -43.2 
L 387.27 -43.2 
L 384.48 -43.2 
L 381.69 -43.2 
L 378.9 -43.2 
L 376.11 -43.2 
L 373.32 -43.2 
L 370.53 -43.2 
L 367.74 -43.2 
L 364.95 -43.2 
L 362.16 -43.2 
L 359.37 -43.2 
L 356.58 -43.2 
L 353.79 -43.2 
L 351 -43.2 
L 348.21 -43.2 
L 345.42 -43.2 
L 342.63 -43.2 
L 339.84 -43.2 
L 337.05 -43.2 
L 334.26 -43.2 
L 331.47 -43.2 
L 328.68 -43.2 
L 325.89 -43.2 
L 323.1 -43.2 
L 320.31 -43.2 
L 317.52 -43.2 
L 314.73 -43.2 
L 311.94 -43.2 
L 309.15 -43.2 
L 306.36 -43.2 
L 303.57 -167.616 
L 300.78 -221.76 
L 297.99 -158.4 
L 295.2 -201.024 
L 292.41 -188.352 
L 289.62 -198.72 
L 286.83 -183.744 
L 284.04 -217.152 
L 281.25 -156.096 
L 278.46 -233.28 
L 275.67 -149.184 
L 272.88 -265.536 
L 270.09 -161.856 
L 267.3 -222.912 
L 264.51 -118.08 
L 261.72 -267.84 
L 258.93 -331.2 
L 256.14 -298.944 
L 253.35 -339.264 
L 250.56 -339.264 
L 247.77 -339.264 
L 244.98 -339.264 
L 242.19 -338.112 
L 239.4 -333.504 
L 236.61 -310.464 
L 233.82 -339.264 
L 231.03 -335.808 
L 228.24 -317.376 
L 225.45 -325.44 
L 222.66 -340.416 
L 219.87 -341.568 
L 217.08 -341.568 
L 214.29 -340.416 
L 211.5 -340.416 
L 208.71 -341.568 
L 205.92 -341.568 
L 203.13 -341.568 
L 200.34 -341.568 
L 197.55 -341.568 
L 194.76 -341.568 
L 191.97 -340.416 
L 189.18 -340.416 
L 186.39 -341.568 
L 183.6 -340.416 
L 180.81 -340.416 
L 178.02 -341.568 
L 175.23 -341.568 
L 172.44 -341.568 
L 169.65 -341.568 
L 166.86 -341.568 
L 164.07 -340.416 
L 161.28 -340.416 
L 158.49 -340.416 
L 155.7 -340.416 
L 152.91 -339.264 
L 150.12 -340.416 
L 147.33 -340.416 
L 144.54 -340.416 
L 141.75 -340.416 
L 138.96 -339.264 
L 136.17 -340.416 
L 133.38 -340.416 
L 130.59 -340.416 
L 127.8 -340.416 
L 125.01 -340.416 
L 122.22 -340.416 
L 119.43 -340.416 
L 116.64 -341.568 
L 113.85 -340.416 
L 111.06 -339.264 
L 108.27 -340.416 
L 105.48 -340.416 
L 102.69 -339.264 
L 99.9 -340.416 
L 97.11 -340.416 
L 94.32 -340.416 
L 91.53 -340.416 
L 88.74 -339.264 
L 85.95 -339.264 
L 83.16 -338.112 
L 80.37 -338.112 
L 77.58 -338.112 
L 74.79 -338.112 
L 72 -338.112 
z
" id="md63b57cf39" style="stroke:#000000;"/>
    </defs>
    <g clip-path="url(#p06f5f9e312)">
     <use style="fill:#bf00bf;stroke:#000000;" x="0.0" xlink:href="#md63b57cf39" y="432.0"/>
    </g>
   </g>
   <g id="PolyCollection_6">
    <defs>
     <path d="M 72 -338.112 
L 72 -338.112 
L 74.79 -338.112 
L 77.58 -338.112 
L 80.37 -338.112 
L 83.16 -338.112 
L 85.95 -339.264 
L 88.74 -339.264 
L 91.53 -340.416 
L 94.32 -340.416 
L 97.11 -340.416 
L 99.9 -340.416 
L 102.69 -339.264 
L 105.48 -340.416 
L 108.27 -340.416 
L 111.06 -339.264 
L 113.85 -340.416 
L 116.64 -341.568 
L 119.43 -340.416 
L 122.22 -340.416 
L 125.01 -340.416 
L 127.8 -340.416 
L 130.59 -340.416 
L 133.38 -340.416 
L 136.17 -340.416 
L 138.96 -339.264 
L 141.75 -340.416 
L 144.54 -340.416 
L 147.33 -340.416 
L 150.12 -340.416 
L 152.91 -339.264 
L 155.7 -340.416 
L 158.49 -340.416 
L 161.28 -340.416 
L 164.07 -340.416 
L 166.86 -341.568 
L 169.65 -341.568 
L 172.44 -341.568 
L 175.23 -341.568 
L 178.02 -341.568 
L 180.81 -340.416 
L 183.6 -340.416 
L 186.39 -341.568 
L 189.18 -340.416 
L 191.97 -340.416 
L 194.76 -341.568 
L 197.55 -341.568 
L 200.34 -341.568 
L 203.13 -341.568 
L 205.92 -341.568 
L 208.71 -341.568 
L 211.5 -340.416 
L 214.29 -340.416 
L 217.08 -341.568 
L 219.87 -341.568 
L 222.66 -340.416 
L 225.45 -325.44 
L 228.24 -317.376 
L 231.03 -335.808 
L 233.82 -339.264 
L 236.61 -310.464 
L 239.4 -333.504 
L 242.19 -338.112 
L 244.98 -339.264 
L 247.77 -339.264 
L 250.56 -339.264 
L 253.35 -339.264 
L 256.14 -298.944 
L 258.93 -331.2 
L 261.72 -267.84 
L 264.51 -118.08 
L 267.3 -222.912 
L 270.09 -161.856 
L 272.88 -265.536 
L 275.67 -149.184 
L 278.46 -233.28 
L 281.25 -156.096 
L 284.04 -217.152 
L 286.83 -183.744 
L 289.62 -198.72 
L 292.41 -188.352 
L 295.2 -201.024 
L 297.99 -158.4 
L 300.78 -221.76 
L 303.57 -167.616 
L 306.36 -43.2 
L 309.15 -43.2 
L 311.94 -43.2 
L 314.73 -43.2 
L 317.52 -43.2 
L 320.31 -43.2 
L 323.1 -43.2 
L 325.89 -43.2 
L 328.68 -43.2 
L 331.47 -43.2 
L 334.26 -43.2 
L 337.05 -43.2 
L 339.84 -43.2 
L 342.63 -43.2 
L 345.42 -43.2 
L 348.21 -43.2 
L 351 -43.2 
L 353.79 -43.2 
L 356.58 -43.2 
L 359.37 -43.2 
L 362.16 -43.2 
L 364.95 -43.2 
L 367.74 -43.2 
L 370.53 -43.2 
L 373.32 -43.2 
L 376.11 -43.2 
L 378.9 -43.2 
L 381.69 -43.2 
L 384.48 -43.2 
L 387.27 -43.2 
L 390.06 -43.2 
L 392.85 -43.2 
L 395.64 -43.2 
L 398.43 -43.2 
L 401.22 -43.2 
L 404.01 -43.2 
L 406.8 -43.2 
L 409.59 -43.2 
L 412.38 -43.2 
L 415.17 -43.2 
L 417.96 -43.2 
L 420.75 -43.2 
L 423.54 -43.2 
L 426.33 -43.2 
L 429.12 -43.2 
L 431.91 -43.2 
L 434.7 -43.2 
L 437.49 -43.2 
L 440.28 -43.2 
L 443.07 -43.2 
L 445.86 -43.2 
L 448.65 -43.2 
L 451.44 -43.2 
L 454.23 -43.2 
L 457.02 -43.2 
L 459.81 -43.2 
L 462.6 -43.2 
L 465.39 -43.2 
L 468.18 -43.2 
L 470.97 -43.2 
L 473.76 -43.2 
L 476.55 -43.2 
L 479.34 -43.2 
L 482.13 -43.2 
L 484.92 -43.2 
L 487.71 -43.2 
L 490.5 -43.2 
L 490.5 -43.2 
L 490.5 -43.2 
L 487.71 -43.2 
L 484.92 -43.2 
L 482.13 -43.2 
L 479.34 -43.2 
L 476.55 -43.2 
L 473.76 -43.2 
L 470.97 -43.2 
L 468.18 -43.2 
L 465.39 -43.2 
L 462.6 -43.2 
L 459.81 -43.2 
L 457.02 -43.2 
L 454.23 -43.2 
L 451.44 -43.2 
L 448.65 -43.2 
L 445.86 -43.2 
L 443.07 -43.2 
L 440.28 -43.2 
L 437.49 -43.2 
L 434.7 -43.2 
L 431.91 -43.2 
L 429.12 -209.088 
L 426.33 -181.44 
L 423.54 -225.216 
L 420.75 -245.952 
L 417.96 -172.224 
L 415.17 -179.136 
L 412.38 -225.216 
L 409.59 -277.056 
L 406.8 -153.792 
L 404.01 -195.264 
L 401.22 -154.944 
L 398.43 -135.36 
L 395.64 -227.52 
L 392.85 -148.032 
L 390.06 -181.44 
L 387.27 -249.408 
L 384.48 -197.568 
L 381.69 -145.728 
L 378.9 -179.136 
L 376.11 -158.4 
L 373.32 -130.752 
L 370.53 -141.12 
L 367.74 -154.944 
L 364.95 -149.184 
L 362.16 -127.296 
L 359.37 -176.832 
L 356.58 -121.536 
L 353.79 -161.856 
L 351 -115.776 
L 348.21 -130.752 
L 345.42 -124.992 
L 342.63 -165.312 
L 339.84 -148.032 
L 337.05 -137.664 
L 334.26 -130.752 
L 331.47 -137.664 
L 328.68 -148.032 
L 325.89 -124.992 
L 323.1 -112.32 
L 320.31 -159.552 
L 317.52 -123.84 
L 314.73 -319.68 
L 311.94 -338.112 
L 309.15 -333.504 
L 306.36 -313.92 
L 303.57 -339.264 
L 300.78 -339.264 
L 297.99 -340.416 
L 295.2 -340.416 
L 292.41 -339.264 
L 289.62 -339.264 
L 286.83 -339.264 
L 284.04 -340.416 
L 281.25 -340.416 
L 278.46 -339.264 
L 275.67 -339.264 
L 272.88 -339.264 
L 270.09 -339.264 
L 267.3 -339.264 
L 264.51 -338.112 
L 261.72 -336.96 
L 258.93 -331.2 
L 256.14 -298.944 
L 253.35 -339.264 
L 250.56 -339.264 
L 247.77 -339.264 
L 244.98 -339.264 
L 242.19 -338.112 
L 239.4 -333.504 
L 236.61 -310.464 
L 233.82 -339.264 
L 231.03 -335.808 
L 228.24 -317.376 
L 225.45 -325.44 
L 222.66 -340.416 
L 219.87 -341.568 
L 217.08 -341.568 
L 214.29 -340.416 
L 211.5 -340.416 
L 208.71 -341.568 
L 205.92 -341.568 
L 203.13 -341.568 
L 200.34 -341.568 
L 197.55 -341.568 
L 194.76 -341.568 
L 191.97 -340.416 
L 189.18 -340.416 
L 186.39 -341.568 
L 183.6 -340.416 
L 180.81 -340.416 
L 178.02 -341.568 
L 175.23 -341.568 
L 172.44 -341.568 
L 169.65 -341.568 
L 166.86 -341.568 
L 164.07 -340.416 
L 161.28 -340.416 
L 158.49 -340.416 
L 155.7 -340.416 
L 152.91 -339.264 
L 150.12 -340.416 
L 147.33 -340.416 
L 144.54 -340.416 
L 141.75 -340.416 
L 138.96 -339.264 
L 136.17 -340.416 
L 133.38 -340.416 
L 130.59 -340.416 
L 127.8 -340.416 
L 125.01 -340.416 
L 122.22 -340.416 
L 119.43 -340.416 
L 116.64 -341.568 
L 113.85 -340.416 
L 111.06 -339.264 
L 108.27 -340.416 
L 105.48 -340.416 
L 102.69 -339.264 
L 99.9 -340.416 
L 97.11 -340.416 
L 94.32 -340.416 
L 91.53 -340.416 
L 88.74 -339.264 
L 85.95 -339.264 
L 83.16 -338.112 
L 80.37 -338.112 
L 77.58 -338.112 
L 74.79 -338.112 
L 72 -338.112 
z
" id="m7b20d95dd8" style="stroke:#000000;"/>
    </defs>
    <g clip-path="url(#p06f5f9e312)">
     <use style="fill:#bfbf00;stroke:#000000;" x="0.0" xlink:href="#m7b20d95dd8" y="432.0"/>
    </g>
   </g>
   <g id="PolyCollection_7">
    <defs>
     <path d="M 72 -338.112 
L 72 -338.112 
L 74.79 -338.112 
L 77.58 -338.112 
L 80.37 -338.112 
L 83.16 -338.112 
L 85.95 -339.264 
L 88.74 -339.264 
L 91.53 -340.416 
L 94.32 -340.416 
L 97.11 -340.416 
L 99.9 -340.416 
L 102.69 -339.264 
L 105.48 -340.416 
L 108.27 -340.416 
L 111.06 -339.264 
L 113.85 -340.416 
L 116.64 -341.568 
L 119.43 -340.416 
L 122.22 -340.416 
L 125.01 -340.416 
L 127.8 -340.416 
L 130.59 -340.416 
L 133.38 -340.416 
L 136.17 -340.416 
L 138.96 -339.264 
L 141.75 -340.416 
L 144.54 -340.416 
L 147.33 -340.416 
L 150.12 -340.416 
L 152.91 -339.264 
L 155.7 -340.416 
L 158.49 -340.416 
L 161.28 -340.416 
L 164.07 -340.416 
L 166.86 -341.568 
L 169.65 -341.568 
L 172.44 -341.568 
L 175.23 -341.568 
L 178.02 -341.568 
L 180.81 -340.416 
L 183.6 -340.416 
L 186.39 -341.568 
L 189.18 -340.416 
L 191.97 -340.416 
L 194.76 -341.568 
L 197.55 -341.568 
L 200.34 -341.568 
L 203.13 -341.568 
L 205.92 -341.568 
L 208.71 -341.568 
L 211.5 -340.416 
L 214.29 -340.416 
L 217.08 -341.568 
L 219.87 -341.568 
L 222.66 -340.416 
L 225.45 -325.44 
L 228.24 -317.376 
L 231.03 -335.808 
L 233.82 -339.264 
L 236.61 -310.464 
L 239.4 -333.504 
L 242.19 -338.112 
L 244.98 -339.264 
L 247.77 -339.264 
L 250.56 -339.264 
L 253.35 -339.264 
L 256.14 -298.944 
L 258.93 -331.2 
L 261.72 -336.96 
L 264.51 -338.112 
L 267.3 -339.264 
L 270.09 -339.264 
L 272.88 -339.264 
L 275.67 -339.264 
L 278.46 -339.264 
L 281.25 -340.416 
L 284.04 -340.416 
L 286.83 -339.264 
L 289.62 -339.264 
L 292.41 -339.264 
L 295.2 -340.416 
L 297.99 -340.416 
L 300.78 -339.264 
L 303.57 -339.264 
L 306.36 -313.92 
L 309.15 -333.504 
L 311.94 -338.112 
L 314.73 -319.68 
L 317.52 -123.84 
L 320.31 -159.552 
L 323.1 -112.32 
L 325.89 -124.992 
L 328.68 -148.032 
L 331.47 -137.664 
L 334.26 -130.752 
L 337.05 -137.664 
L 339.84 -148.032 
L 342.63 -165.312 
L 345.42 -124.992 
L 348.21 -130.752 
L 351 -115.776 
L 353.79 -161.856 
L 356.58 -121.536 
L 359.37 -176.832 
L 362.16 -127.296 
L 364.95 -149.184 
L 367.74 -154.944 
L 370.53 -141.12 
L 373.32 -130.752 
L 376.11 -158.4 
L 378.9 -179.136 
L 381.69 -145.728 
L 384.48 -197.568 
L 387.27 -249.408 
L 390.06 -181.44 
L 392.85 -148.032 
L 395.64 -227.52 
L 398.43 -135.36 
L 401.22 -154.944 
L 404.01 -195.264 
L 406.8 -153.792 
L 409.59 -277.056 
L 412.38 -225.216 
L 415.17 -179.136 
L 417.96 -172.224 
L 420.75 -245.952 
L 423.54 -225.216 
L 426.33 -181.44 
L 429.12 -209.088 
L 431.91 -43.2 
L 434.7 -43.2 
L 437.49 -43.2 
L 440.28 -43.2 
L 443.07 -43.2 
L 445.86 -43.2 
L 448.65 -43.2 
L 451.44 -43.2 
L 454.23 -43.2 
L 457.02 -43.2 
L 459.81 -43.2 
L 462.6 -43.2 
L 465.39 -43.2 
L 468.18 -43.2 
L 470.97 -43.2 
L 473.76 -43.2 
L 476.55 -43.2 
L 479.34 -43.2 
L 482.13 -43.2 
L 484.92 -43.2 
L 487.71 -43.2 
L 490.5 -43.2 
L 490.5 -43.2 
L 490.5 -43.2 
L 487.71 -43.2 
L 484.92 -43.2 
L 482.13 -43.2 
L 479.34 -43.2 
L 476.55 -43.2 
L 473.76 -43.2 
L 470.97 -43.2 
L 468.18 -43.2 
L 465.39 -43.2 
L 462.6 -43.2 
L 459.81 -43.2 
L 457.02 -43.2 
L 454.23 -43.2 
L 451.44 -43.2 
L 448.65 -43.2 
L 445.86 -43.2 
L 443.07 -43.2 
L 440.28 -43.2 
L 437.49 -43.2 
L 434.7 -43.2 
L 431.91 -43.2 
L 429.12 -209.088 
L 426.33 -181.44 
L 423.54 -225.216 
L 420.75 -245.952 
L 417.96 -172.224 
L 415.17 -179.136 
L 412.38 -225.216 
L 409.59 -277.056 
L 406.8 -153.792 
L 404.01 -195.264 
L 401.22 -154.944 
L 398.43 -135.36 
L 395.64 -227.52 
L 392.85 -148.032 
L 390.06 -181.44 
L 387.27 -249.408 
L 384.48 -197.568 
L 381.69 -145.728 
L 378.9 -179.136 
L 376.11 -239.04 
L 373.32 -247.104 
L 370.53 -235.584 
L 367.74 -254.016 
L 364.95 -237.888 
L 362.16 -244.8 
L 359.37 -241.344 
L 356.58 -245.952 
L 353.79 -236.736 
L 351 -257.472 
L 348.21 -220.608 
L 345.42 -250.56 
L 342.63 -240.192 
L 339.84 -256.32 
L 337.05 -217.152 
L 334.26 -245.952 
L 331.47 -221.76 
L 328.68 -278.208 
L 325.89 -195.264 
L 323.1 -286.272 
L 320.31 -194.112 
L 317.52 -245.952 
L 314.73 -338.112 
L 311.94 -338.112 
L 309.15 -333.504 
L 306.36 -313.92 
L 303.57 -339.264 
L 300.78 -339.264 
L 297.99 -340.416 
L 295.2 -340.416 
L 292.41 -339.264 
L 289.62 -339.264 
L 286.83 -339.264 
L 284.04 -340.416 
L 281.25 -340.416 
L 278.46 -339.264 
L 275.67 -339.264 
L 272.88 -339.264 
L 270.09 -339.264 
L 267.3 -339.264 
L 264.51 -338.112 
L 261.72 -336.96 
L 258.93 -331.2 
L 256.14 -298.944 
L 253.35 -339.264 
L 250.56 -339.264 
L 247.77 -339.264 
L 244.98 -339.264 
L 242.19 -338.112 
L 239.4 -333.504 
L 236.61 -310.464 
L 233.82 -339.264 
L 231.03 -335.808 
L 228.24 -317.376 
L 225.45 -325.44 
L 222.66 -340.416 
L 219.87 -341.568 
L 217.08 -341.568 
L 214.29 -340.416 
L 211.5 -340.416 
L 208.71 -341.568 
L 205.92 -341.568 
L 203.13 -341.568 
L 200.34 -341.568 
L 197.55 -341.568 
L 194.76 -341.568 
L 191.97 -340.416 
L 189.18 -340.416 
L 186.39 -341.568 
L 183.6 -340.416 
L 180.81 -340.416 
L 178.02 -341.568 
L 175.23 -341.568 
L 172.44 -341.568 
L 169.65 -341.568 
L 166.86 -341.568 
L 164.07 -340.416 
L 161.28 -340.416 
L 158.49 -340.416 
L 155.7 -340.416 
L 152.91 -339.264 
L 150.12 -340.416 
L 147.33 -340.416 
L 144.54 -340.416 
L 141.75 -340.416 
L 138.96 -339.264 
L 136.17 -340.416 
L 133.38 -340.416 
L 130.59 -340.416 
L 127.8 -340.416 
L 125.01 -340.416 
L 122.22 -340.416 
L 119.43 -340.416 
L 116.64 -341.568 
L 113.85 -340.416 
L 111.06 -339.264 
L 108.27 -340.416 
L 105.48 -340.416 
L 102.69 -339.264 
L 99.9 -340.416 
L 97.11 -340.416 
L 94.32 -340.416 
L 91.53 -340.416 
L 88.74 -339.264 
L 85.95 -339.264 
L 83.16 -338.112 
L 80.37 -338.112 
L 77.58 -338.112 
L 74.79 -338.112 
L 72 -338.112 
z
" id="m3200ec2bfa" style="stroke:#000000;"/>
    </defs>
    <g clip-path="url(#p06f5f9e312)">
     <use style="stroke:#000000;" x="0.0" xlink:href="#m3200ec2bfa" y="432.0"/>
    </g>
   </g>
   <g id="PolyCollection_8">
    <defs>
     <path d="M 72 -338.112 
L 72 -338.112 
L 74.79 -338.112 
L 77.58 -338.112 
L 80.37 -338.112 
L 83.16 -338.112 
L 85.95 -339.264 
L 88.74 -339.264 
L 91.53 -340.416 
L 94.32 -340.416 
L 97.11 -340.416 
L 99.9 -340.416 
L 102.69 -339.264 
L 105.48 -340.416 
L 108.27 -340.416 
L 111.06 -339.264 
L 113.85 -340.416 
L 116.64 -341.568 
L 119.43 -340.416 
L 122.22 -340.416 
L 125.01 -340.416 
L 127.8 -340.416 
L 130.59 -340.416 
L 133.38 -340.416 
L 136.17 -340.416 
L 138.96 -339.264 
L 141.75 -340.416 
L 144.54 -340.416 
L 147.33 -340.416 
L 150.12 -340.416 
L 152.91 -339.264 
L 155.7 -340.416 
L 158.49 -340.416 
L 161.28 -340.416 
L 164.07 -340.416 
L 166.86 -341.568 
L 169.65 -341.568 
L 172.44 -341.568 
L 175.23 -341.568 
L 178.02 -341.568 
L 180.81 -340.416 
L 183.6 -340.416 
L 186.39 -341.568 
L 189.18 -340.416 
L 191.97 -340.416 
L 194.76 -341.568 
L 197.55 -341.568 
L 200.34 -341.568 
L 203.13 -341.568 
L 205.92 -341.568 
L 208.71 -341.568 
L 211.5 -340.416 
L 214.29 -340.416 
L 217.08 -341.568 
L 219.87 -341.568 
L 222.66 -340.416 
L 225.45 -325.44 
L 228.24 -317.376 
L 231.03 -335.808 
L 233.82 -339.264 
L 236.61 -310.464 
L 239.4 -333.504 
L 242.19 -338.112 
L 244.98 -339.264 
L 247.77 -339.264 
L 250.56 -339.264 
L 253.35 -339.264 
L 256.14 -298.944 
L 258.93 -331.2 
L 261.72 -336.96 
L 264.51 -338.112 
L 267.3 -339.264 
L 270.09 -339.264 
L 272.88 -339.264 
L 275.67 -339.264 
L 278.46 -339.264 
L 281.25 -340.416 
L 284.04 -340.416 
L 286.83 -339.264 
L 289.62 -339.264 
L 292.41 -339.264 
L 295.2 -340.416 
L 297.99 -340.416 
L 300.78 -339.264 
L 303.57 -339.264 
L 306.36 -313.92 
L 309.15 -333.504 
L 311.94 -338.112 
L 314.73 -338.112 
L 317.52 -245.952 
L 320.31 -194.112 
L 323.1 -286.272 
L 325.89 -195.264 
L 328.68 -278.208 
L 331.47 -221.76 
L 334.26 -245.952 
L 337.05 -217.152 
L 339.84 -256.32 
L 342.63 -240.192 
L 345.42 -250.56 
L 348.21 -220.608 
L 351 -257.472 
L 353.79 -236.736 
L 356.58 -245.952 
L 359.37 -241.344 
L 362.16 -244.8 
L 364.95 -237.888 
L 367.74 -254.016 
L 370.53 -235.584 
L 373.32 -247.104 
L 376.11 -239.04 
L 378.9 -179.136 
L 381.69 -145.728 
L 384.48 -197.568 
L 387.27 -249.408 
L 390.06 -181.44 
L 392.85 -148.032 
L 395.64 -227.52 
L 398.43 -135.36 
L 401.22 -154.944 
L 404.01 -195.264 
L 406.8 -153.792 
L 409.59 -277.056 
L 412.38 -225.216 
L 415.17 -179.136 
L 417.96 -172.224 
L 420.75 -245.952 
L 423.54 -225.216 
L 426.33 -181.44 
L 429.12 -209.088 
L 431.91 -43.2 
L 434.7 -43.2 
L 437.49 -43.2 
L 440.28 -43.2 
L 443.07 -43.2 
L 445.86 -43.2 
L 448.65 -43.2 
L 451.44 -43.2 
L 454.23 -43.2 
L 457.02 -43.2 
L 459.81 -43.2 
L 462.6 -43.2 
L 465.39 -43.2 
L 468.18 -43.2 
L 470.97 -43.2 
L 473.76 -43.2 
L 476.55 -43.2 
L 479.34 -43.2 
L 482.13 -43.2 
L 484.92 -43.2 
L 487.71 -43.2 
L 490.5 -43.2 
L 490.5 -43.2 
L 490.5 -43.2 
L 487.71 -43.2 
L 484.92 -43.2 
L 482.13 -43.2 
L 479.34 -43.2 
L 476.55 -43.2 
L 473.76 -43.2 
L 470.97 -43.2 
L 468.18 -43.2 
L 465.39 -43.2 
L 462.6 -43.2 
L 459.81 -43.2 
L 457.02 -43.2 
L 454.23 -43.2 
L 451.44 -43.2 
L 448.65 -43.2 
L 445.86 -43.2 
L 443.07 -43.2 
L 440.28 -43.2 
L 437.49 -43.2 
L 434.7 -43.2 
L 431.91 -43.2 
L 429.12 -209.088 
L 426.33 -181.44 
L 423.54 -225.216 
L 420.75 -245.952 
L 417.96 -172.224 
L 415.17 -179.136 
L 412.38 -225.216 
L 409.59 -277.056 
L 406.8 -153.792 
L 404.01 -195.264 
L 401.22 -154.944 
L 398.43 -135.36 
L 395.64 -227.52 
L 392.85 -148.032 
L 390.06 -181.44 
L 387.27 -249.408 
L 384.48 -197.568 
L 381.69 -292.032 
L 378.9 -323.136 
L 376.11 -340.416 
L 373.32 -339.264 
L 370.53 -340.416 
L 367.74 -340.416 
L 364.95 -339.264 
L 362.16 -339.264 
L 359.37 -340.416 
L 356.58 -340.416 
L 353.79 -340.416 
L 351 -340.416 
L 348.21 -339.264 
L 345.42 -339.264 
L 342.63 -340.416 
L 339.84 -340.416 
L 337.05 -340.416 
L 334.26 -339.264 
L 331.47 -339.264 
L 328.68 -339.264 
L 325.89 -339.264 
L 323.1 -339.264 
L 320.31 -340.416 
L 317.52 -339.264 
L 314.73 -338.112 
L 311.94 -338.112 
L 309.15 -333.504 
L 306.36 -313.92 
L 303.57 -339.264 
L 300.78 -339.264 
L 297.99 -340.416 
L 295.2 -340.416 
L 292.41 -339.264 
L 289.62 -339.264 
L 286.83 -339.264 
L 284.04 -340.416 
L 281.25 -340.416 
L 278.46 -339.264 
L 275.67 -339.264 
L 272.88 -339.264 
L 270.09 -339.264 
L 267.3 -339.264 
L 264.51 -338.112 
L 261.72 -336.96 
L 258.93 -331.2 
L 256.14 -298.944 
L 253.35 -339.264 
L 250.56 -339.264 
L 247.77 -339.264 
L 244.98 -339.264 
L 242.19 -338.112 
L 239.4 -333.504 
L 236.61 -310.464 
L 233.82 -339.264 
L 231.03 -335.808 
L 228.24 -317.376 
L 225.45 -325.44 
L 222.66 -340.416 
L 219.87 -341.568 
L 217.08 -341.568 
L 214.29 -340.416 
L 211.5 -340.416 
L 208.71 -341.568 
L 205.92 -341.568 
L 203.13 -341.568 
L 200.34 -341.568 
L 197.55 -341.568 
L 194.76 -341.568 
L 191.97 -340.416 
L 189.18 -340.416 
L 186.39 -341.568 
L 183.6 -340.416 
L 180.81 -340.416 
L 178.02 -341.568 
L 175.23 -341.568 
L 172.44 -341.568 
L 169.65 -341.568 
L 166.86 -341.568 
L 164.07 -340.416 
L 161.28 -340.416 
L 158.49 -340.416 
L 155.7 -340.416 
L 152.91 -339.264 
L 150.12 -340.416 
L 147.33 -340.416 
L 144.54 -340.416 
L 141.75 -340.416 
L 138.96 -339.264 
L 136.17 -340.416 
L 133.38 -340.416 
L 130.59 -340.416 
L 127.8 -340.416 
L 125.01 -340.416 
L 122.22 -340.416 
L 119.43 -340.416 
L 116.64 -341.568 
L 113.85 -340.416 
L 111.06 -339.264 
L 108.27 -340.416 
L 105.48 -340.416 
L 102.69 -339.264 
L 99.9 -340.416 
L 97.11 -340.416 
L 94.32 -340.416 
L 91.53 -340.416 
L 88.74 -339.264 
L 85.95 -339.264 
L 83.16 -338.112 
L 80.37 -338.112 
L 77.58 -338.112 
L 74.79 -338.112 
L 72 -338.112 
z
" id="mc6d98369ec" style="stroke:#000000;"/>
    </defs>
    <g clip-path="url(#p06f5f9e312)">
     <use style="fill:#0000ff;stroke:#000000;" x="0.0" xlink:href="#mc6d98369ec" y="432.0"/>
    </g>
   </g>
   <g id="PolyCollection_9">
    <defs>
     <path d="M 72 -338.112 
L 72 -338.112 
L 74.79 -338.112 
L 77.58 -338.112 
L 80.37 -338.112 
L 83.16 -338.112 
L 85.95 -339.264 
L 88.74 -339.264 
L 91.53 -340.416 
L 94.32 -340.416 
L 97.11 -340.416 
L 99.9 -340.416 
L 102.69 -339.264 
L 105.48 -340.416 
L 108.27 -340.416 
L 111.06 -339.264 
L 113.85 -340.416 
L 116.64 -341.568 
L 119.43 -340.416 
L 122.22 -340.416 
L 125.01 -340.416 
L 127.8 -340.416 
L 130.59 -340.416 
L 133.38 -340.416 
L 136.17 -340.416 
L 138.96 -339.264 
L 141.75 -340.416 
L 144.54 -340.416 
L 147.33 -340.416 
L 150.12 -340.416 
L 152.91 -339.264 
L 155.7 -340.416 
L 158.49 -340.416 
L 161.28 -340.416 
L 164.07 -340.416 
L 166.86 -341.568 
L 169.65 -341.568 
L 172.44 -341.568 
L 175.23 -341.568 
L 178.02 -341.568 
L 180.81 -340.416 
L 183.6 -340.416 
L 186.39 -341.568 
L 189.18 -340.416 
L 191.97 -340.416 
L 194.76 -341.568 
L 197.55 -341.568 
L 200.34 -341.568 
L 203.13 -341.568 
L 205.92 -341.568 
L 208.71 -341.568 
L 211.5 -340.416 
L 214.29 -340.416 
L 217.08 -341.568 
L 219.87 -341.568 
L 222.66 -340.416 
L 225.45 -325.44 
L 228.24 -317.376 
L 231.03 -335.808 
L 233.82 -339.264 
L 236.61 -310.464 
L 239.4 -333.504 
L 242.19 -338.112 
L 244.98 -339.264 
L 247.77 -339.264 
L 250.56 -339.264 
L 253.35 -339.264 
L 256.14 -298.944 
L 258.93 -331.2 
L 261.72 -336.96 
L 264.51 -338.112 
L 267.3 -339.264 
L 270.09 -339.264 
L 272.88 -339.264 
L 275.67 -339.264 
L 278.46 -339.264 
L 281.25 -340.416 
L 284.04 -340.416 
L 286.83 -339.264 
L 289.62 -339.264 
L 292.41 -339.264 
L 295.2 -340.416 
L 297.99 -340.416 
L 300.78 -339.264 
L 303.57 -339.264 
L 306.36 -313.92 
L 309.15 -333.504 
L 311.94 -338.112 
L 314.73 -338.112 
L 317.52 -339.264 
L 320.31 -340.416 
L 323.1 -339.264 
L 325.89 -339.264 
L 328.68 -339.264 
L 331.47 -339.264 
L 334.26 -339.264 
L 337.05 -340.416 
L 339.84 -340.416 
L 342.63 -340.416 
L 345.42 -339.264 
L 348.21 -339.264 
L 351 -340.416 
L 353.79 -340.416 
L 356.58 -340.416 
L 359.37 -340.416 
L 362.16 -339.264 
L 364.95 -339.264 
L 367.74 -340.416 
L 370.53 -340.416 
L 373.32 -339.264 
L 376.11 -340.416 
L 378.9 -323.136 
L 381.69 -292.032 
L 384.48 -197.568 
L 387.27 -249.408 
L 390.06 -181.44 
L 392.85 -148.032 
L 395.64 -227.52 
L 398.43 -135.36 
L 401.22 -154.944 
L 404.01 -195.264 
L 406.8 -153.792 
L 409.59 -277.056 
L 412.38 -225.216 
L 415.17 -179.136 
L 417.96 -172.224 
L 420.75 -245.952 
L 423.54 -225.216 
L 426.33 -181.44 
L 429.12 -209.088 
L 431.91 -43.2 
L 434.7 -43.2 
L 437.49 -43.2 
L 440.28 -43.2 
L 443.07 -43.2 
L 445.86 -43.2 
L 448.65 -43.2 
L 451.44 -43.2 
L 454.23 -43.2 
L 457.02 -43.2 
L 459.81 -43.2 
L 462.6 -43.2 
L 465.39 -43.2 
L 468.18 -43.2 
L 470.97 -43.2 
L 473.76 -43.2 
L 476.55 -43.2 
L 479.34 -43.2 
L 482.13 -43.2 
L 484.92 -43.2 
L 487.71 -43.2 
L 490.5 -43.2 
L 490.5 -43.2 
L 490.5 -43.2 
L 487.71 -43.2 
L 484.92 -43.2 
L 482.13 -43.2 
L 479.34 -43.2 
L 476.55 -43.2 
L 473.76 -43.2 
L 470.97 -43.2 
L 468.18 -43.2 
L 465.39 -43.2 
L 462.6 -43.2 
L 459.81 -43.2 
L 457.02 -43.2 
L 454.23 -43.2 
L 451.44 -43.2 
L 448.65 -43.2 
L 445.86 -219.456 
L 443.07 -156.096 
L 440.28 -205.632 
L 437.49 -146.88 
L 434.7 -266.688 
L 431.91 -305.856 
L 429.12 -339.264 
L 426.33 -339.264 
L 423.54 -339.264 
L 420.75 -339.264 
L 417.96 -339.264 
L 415.17 -340.416 
L 412.38 -339.264 
L 409.59 -340.416 
L 406.8 -339.264 
L 404.01 -339.264 
L 401.22 -340.416 
L 398.43 -340.416 
L 395.64 -339.264 
L 392.85 -339.264 
L 390.06 -338.112 
L 387.27 -333.504 
L 384.48 -309.312 
L 381.69 -335.808 
L 378.9 -323.136 
L 376.11 -340.416 
L 373.32 -339.264 
L 370.53 -340.416 
L 367.74 -340.416 
L 364.95 -339.264 
L 362.16 -339.264 
L 359.37 -340.416 
L 356.58 -340.416 
L 353.79 -340.416 
L 351 -340.416 
L 348.21 -339.264 
L 345.42 -339.264 
L 342.63 -340.416 
L 339.84 -340.416 
L 337.05 -340.416 
L 334.26 -339.264 
L 331.47 -339.264 
L 328.68 -339.264 
L 325.89 -339.264 
L 323.1 -339.264 
L 320.31 -340.416 
L 317.52 -339.264 
L 314.73 -338.112 
L 311.94 -338.112 
L 309.15 -333.504 
L 306.36 -313.92 
L 303.57 -339.264 
L 300.78 -339.264 
L 297.99 -340.416 
L 295.2 -340.416 
L 292.41 -339.264 
L 289.62 -339.264 
L 286.83 -339.264 
L 284.04 -340.416 
L 281.25 -340.416 
L 278.46 -339.264 
L 275.67 -339.264 
L 272.88 -339.264 
L 270.09 -339.264 
L 267.3 -339.264 
L 264.51 -338.112 
L 261.72 -336.96 
L 258.93 -331.2 
L 256.14 -298.944 
L 253.35 -339.264 
L 250.56 -339.264 
L 247.77 -339.264 
L 244.98 -339.264 
L 242.19 -338.112 
L 239.4 -333.504 
L 236.61 -310.464 
L 233.82 -339.264 
L 231.03 -335.808 
L 228.24 -317.376 
L 225.45 -325.44 
L 222.66 -340.416 
L 219.87 -341.568 
L 217.08 -341.568 
L 214.29 -340.416 
L 211.5 -340.416 
L 208.71 -341.568 
L 205.92 -341.568 
L 203.13 -341.568 
L 200.34 -341.568 
L 197.55 -341.568 
L 194.76 -341.568 
L 191.97 -340.416 
L 189.18 -340.416 
L 186.39 -341.568 
L 183.6 -340.416 
L 180.81 -340.416 
L 178.02 -341.568 
L 175.23 -341.568 
L 172.44 -341.568 
L 169.65 -341.568 
L 166.86 -341.568 
L 164.07 -340.416 
L 161.28 -340.416 
L 158.49 -340.416 
L 155.7 -340.416 
L 152.91 -339.264 
L 150.12 -340.416 
L 147.33 -340.416 
L 144.54 -340.416 
L 141.75 -340.416 
L 138.96 -339.264 
L 136.17 -340.416 
L 133.38 -340.416 
L 130.59 -340.416 
L 127.8 -340.416 
L 125.01 -340.416 
L 122.22 -340.416 
L 119.43 -340.416 
L 116.64 -341.568 
L 113.85 -340.416 
L 111.06 -339.264 
L 108.27 -340.416 
L 105.48 -340.416 
L 102.69 -339.264 
L 99.9 -340.416 
L 97.11 -340.416 
L 94.32 -340.416 
L 91.53 -340.416 
L 88.74 -339.264 
L 85.95 -339.264 
L 83.16 -338.112 
L 80.37 -338.112 
L 77.58 -338.112 
L 74.79 -338.112 
L 72 -338.112 
z
" id="mfddd0f0fc5" style="stroke:#000000;"/>
    </defs>
    <g clip-path="url(#p06f5f9e312)">
     <use style="fill:#008000;stroke:#000000;" x="0.0" xlink:href="#mfddd0f0fc5" y="432.0"/>
    </g>
   </g>
   <g id="PolyCollection_10">
    <defs>
     <path d="M 72 -338.112 
L 72 -338.112 
L 74.79 -338.112 
L 77.58 -338.112 
L 80.37 -338.112 
L 83.16 -338.112 
L 85.95 -339.264 
L 88.74 -339.264 
L 91.53 -340.416 
L 94.32 -340.416 
L 97.11 -340.416 
L 99.9 -340.416 
L 102.69 -339.264 
L 105.48 -340.416 
L 108.27 -340.416 
L 111.06 -339.264 
L 113.85 -340.416 
L 116.64 -341.568 
L 119.43 -340.416 
L 122.22 -340.416 
L 125.01 -340.416 
L 127.8 -340.416 
L 130.59 -340.416 
L 133.38 -340.416 
L 136.17 -340.416 
L 138.96 -339.264 
L 141.75 -340.416 
L 144.54 -340.416 
L 147.33 -340.416 
L 150.12 -340.416 
L 152.91 -339.264 
L 155.7 -340.416 
L 158.49 -340.416 
L 161.28 -340.416 
L 164.07 -340.416 
L 166.86 -341.568 
L 169.65 -341.568 
L 172.44 -341.568 
L 175.23 -341.568 
L 178.02 -341.568 
L 180.81 -340.416 
L 183.6 -340.416 
L 186.39 -341.568 
L 189.18 -340.416 
L 191.97 -340.416 
L 194.76 -341.568 
L 197.55 -341.568 
L 200.34 -341.568 
L 203.13 -341.568 
L 205.92 -341.568 
L 208.71 -341.568 
L 211.5 -340.416 
L 214.29 -340.416 
L 217.08 -341.568 
L 219.87 -341.568 
L 222.66 -340.416 
L 225.45 -325.44 
L 228.24 -317.376 
L 231.03 -335.808 
L 233.82 -339.264 
L 236.61 -310.464 
L 239.4 -333.504 
L 242.19 -338.112 
L 244.98 -339.264 
L 247.77 -339.264 
L 250.56 -339.264 
L 253.35 -339.264 
L 256.14 -298.944 
L 258.93 -331.2 
L 261.72 -336.96 
L 264.51 -338.112 
L 267.3 -339.264 
L 270.09 -339.264 
L 272.88 -339.264 
L 275.67 -339.264 
L 278.46 -339.264 
L 281.25 -340.416 
L 284.04 -340.416 
L 286.83 -339.264 
L 289.62 -339.264 
L 292.41 -339.264 
L 295.2 -340.416 
L 297.99 -340.416 
L 300.78 -339.264 
L 303.57 -339.264 
L 306.36 -313.92 
L 309.15 -333.504 
L 311.94 -338.112 
L 314.73 -338.112 
L 317.52 -339.264 
L 320.31 -340.416 
L 323.1 -339.264 
L 325.89 -339.264 
L 328.68 -339.264 
L 331.47 -339.264 
L 334.26 -339.264 
L 337.05 -340.416 
L 339.84 -340.416 
L 342.63 -340.416 
L 345.42 -339.264 
L 348.21 -339.264 
L 351 -340.416 
L 353.79 -340.416 
L 356.58 -340.416 
L 359.37 -340.416 
L 362.16 -339.264 
L 364.95 -339.264 
L 367.74 -340.416 
L 370.53 -340.416 
L 373.32 -339.264 
L 376.11 -340.416 
L 378.9 -323.136 
L 381.69 -335.808 
L 384.48 -309.312 
L 387.27 -333.504 
L 390.06 -338.112 
L 392.85 -339.264 
L 395.64 -339.264 
L 398.43 -340.416 
L 401.22 -340.416 
L 404.01 -339.264 
L 406.8 -339.264 
L 409.59 -340.416 
L 412.38 -339.264 
L 415.17 -340.416 
L 417.96 -339.264 
L 420.75 -339.264 
L 423.54 -339.264 
L 426.33 -339.264 
L 429.12 -339.264 
L 431.91 -305.856 
L 434.7 -266.688 
L 437.49 -146.88 
L 440.28 -205.632 
L 443.07 -156.096 
L 445.86 -219.456 
L 448.65 -43.2 
L 451.44 -43.2 
L 454.23 -43.2 
L 457.02 -43.2 
L 459.81 -43.2 
L 462.6 -43.2 
L 465.39 -43.2 
L 468.18 -43.2 
L 470.97 -43.2 
L 473.76 -43.2 
L 476.55 -43.2 
L 479.34 -43.2 
L 482.13 -43.2 
L 484.92 -43.2 
L 487.71 -43.2 
L 490.5 -43.2 
L 490.5 -207.936 
L 490.5 -207.936 
L 487.71 -112.32 
L 484.92 -112.32 
L 482.13 -191.808 
L 479.34 -85.824 
L 476.55 -119.232 
L 473.76 -283.968 
L 470.97 -169.92 
L 468.18 -211.392 
L 465.39 -197.568 
L 462.6 -149.184 
L 459.81 -202.176 
L 457.02 -196.416 
L 454.23 -201.024 
L 451.44 -153.792 
L 448.65 -210.24 
L 445.86 -339.264 
L 443.07 -339.264 
L 440.28 -339.264 
L 437.49 -338.112 
L 434.7 -332.352 
L 431.91 -305.856 
L 429.12 -339.264 
L 426.33 -339.264 
L 423.54 -339.264 
L 420.75 -339.264 
L 417.96 -339.264 
L 415.17 -340.416 
L 412.38 -339.264 
L 409.59 -340.416 
L 406.8 -339.264 
L 404.01 -339.264 
L 401.22 -340.416 
L 398.43 -340.416 
L 395.64 -339.264 
L 392.85 -339.264 
L 390.06 -338.112 
L 387.27 -333.504 
L 384.48 -309.312 
L 381.69 -335.808 
L 378.9 -323.136 
L 376.11 -340.416 
L 373.32 -339.264 
L 370.53 -340.416 
L 367.74 -340.416 
L 364.95 -339.264 
L 362.16 -339.264 
L 359.37 -340.416 
L 356.58 -340.416 
L 353.79 -340.416 
L 351 -340.416 
L 348.21 -339.264 
L 345.42 -339.264 
L 342.63 -340.416 
L 339.84 -340.416 
L 337.05 -340.416 
L 334.26 -339.264 
L 331.47 -339.264 
L 328.68 -339.264 
L 325.89 -339.264 
L 323.1 -339.264 
L 320.31 -340.416 
L 317.52 -339.264 
L 314.73 -338.112 
L 311.94 -338.112 
L 309.15 -333.504 
L 306.36 -313.92 
L 303.57 -339.264 
L 300.78 -339.264 
L 297.99 -340.416 
L 295.2 -340.416 
L 292.41 -339.264 
L 289.62 -339.264 
L 286.83 -339.264 
L 284.04 -340.416 
L 281.25 -340.416 
L 278.46 -339.264 
L 275.67 -339.264 
L 272.88 -339.264 
L 270.09 -339.264 
L 267.3 -339.264 
L 264.51 -338.112 
L 261.72 -336.96 
L 258.93 -331.2 
L 256.14 -298.944 
L 253.35 -339.264 
L 250.56 -339.264 
L 247.77 -339.264 
L 244.98 -339.264 
L 242.19 -338.112 
L 239.4 -333.504 
L 236.61 -310.464 
L 233.82 -339.264 
L 231.03 -335.808 
L 228.24 -317.376 
L 225.45 -325.44 
L 222.66 -340.416 
L 219.87 -341.568 
L 217.08 -341.568 
L 214.29 -340.416 
L 211.5 -340.416 
L 208.71 -341.568 
L 205.92 -341.568 
L 203.13 -341.568 
L 200.34 -341.568 
L 197.55 -341.568 
L 194.76 -341.568 
L 191.97 -340.416 
L 189.18 -340.416 
L 186.39 -341.568 
L 183.6 -340.416 
L 180.81 -340.416 
L 178.02 -341.568 
L 175.23 -341.568 
L 172.44 -341.568 
L 169.65 -341.568 
L 166.86 -341.568 
L 164.07 -340.416 
L 161.28 -340.416 
L 158.49 -340.416 
L 155.7 -340.416 
L 152.91 -339.264 
L 150.12 -340.416 
L 147.33 -340.416 
L 144.54 -340.416 
L 141.75 -340.416 
L 138.96 -339.264 
L 136.17 -340.416 
L 133.38 -340.416 
L 130.59 -340.416 
L 127.8 -340.416 
L 125.01 -340.416 
L 122.22 -340.416 
L 119.43 -340.416 
L 116.64 -341.568 
L 113.85 -340.416 
L 111.06 -339.264 
L 108.27 -340.416 
L 105.48 -340.416 
L 102.69 -339.264 
L 99.9 -340.416 
L 97.11 -340.416 
L 94.32 -340.416 
L 91.53 -340.416 
L 88.74 -339.264 
L 85.95 -339.264 
L 83.16 -338.112 
L 80.37 -338.112 
L 77.58 -338.112 
L 74.79 -338.112 
L 72 -338.112 
z
" id="md67938c60c" style="stroke:#000000;"/>
    </defs>
    <g clip-path="url(#p06f5f9e312)">
     <use style="fill:#ff0000;stroke:#000000;" x="0.0" xlink:href="#md67938c60c" y="432.0"/>
    </g>
   </g>
   <g id="PolyCollection_11">
    <defs>
     <path d="M 72 -338.112 
L 72 -338.112 
L 74.79 -338.112 
L 77.58 -338.112 
L 80.37 -338.112 
L 83.16 -338.112 
L 85.95 -339.264 
L 88.74 -339.264 
L 91.53 -340.416 
L 94.32 -340.416 
L 97.11 -340.416 
L 99.9 -340.416 
L 102.69 -339.264 
L 105.48 -340.416 
L 108.27 -340.416 
L 111.06 -339.264 
L 113.85 -340.416 
L 116.64 -341.568 
L 119.43 -340.416 
L 122.22 -340.416 
L 125.01 -340.416 
L 127.8 -340.416 
L 130.59 -340.416 
L 133.38 -340.416 
L 136.17 -340.416 
L 138.96 -339.264 
L 141.75 -340.416 
L 144.54 -340.416 
L 147.33 -340.416 
L 150.12 -340.416 
L 152.91 -339.264 
L 155.7 -340.416 
L 158.49 -340.416 
L 161.28 -340.416 
L 164.07 -340.416 
L 166.86 -341.568 
L 169.65 -341.568 
L 172.44 -341.568 
L 175.23 -341.568 
L 178.02 -341.568 
L 180.81 -340.416 
L 183.6 -340.416 
L 186.39 -341.568 
L 189.18 -340.416 
L 191.97 -340.416 
L 194.76 -341.568 
L 197.55 -341.568 
L 200.34 -341.568 
L 203.13 -341.568 
L 205.92 -341.568 
L 208.71 -341.568 
L 211.5 -340.416 
L 214.29 -340.416 
L 217.08 -341.568 
L 219.87 -341.568 
L 222.66 -340.416 
L 225.45 -325.44 
L 228.24 -317.376 
L 231.03 -335.808 
L 233.82 -339.264 
L 236.61 -310.464 
L 239.4 -333.504 
L 242.19 -338.112 
L 244.98 -339.264 
L 247.77 -339.264 
L 250.56 -339.264 
L 253.35 -339.264 
L 256.14 -298.944 
L 258.93 -331.2 
L 261.72 -336.96 
L 264.51 -338.112 
L 267.3 -339.264 
L 270.09 -339.264 
L 272.88 -339.264 
L 275.67 -339.264 
L 278.46 -339.264 
L 281.25 -340.416 
L 284.04 -340.416 
L 286.83 -339.264 
L 289.62 -339.264 
L 292.41 -339.264 
L 295.2 -340.416 
L 297.99 -340.416 
L 300.78 -339.264 
L 303.57 -339.264 
L 306.36 -313.92 
L 309.15 -333.504 
L 311.94 -338.112 
L 314.73 -338.112 
L 317.52 -339.264 
L 320.31 -340.416 
L 323.1 -339.264 
L 325.89 -339.264 
L 328.68 -339.264 
L 331.47 -339.264 
L 334.26 -339.264 
L 337.05 -340.416 
L 339.84 -340.416 
L 342.63 -340.416 
L 345.42 -339.264 
L 348.21 -339.264 
L 351 -340.416 
L 353.79 -340.416 
L 356.58 -340.416 
L 359.37 -340.416 
L 362.16 -339.264 
L 364.95 -339.264 
L 367.74 -340.416 
L 370.53 -340.416 
L 373.32 -339.264 
L 376.11 -340.416 
L 378.9 -323.136 
L 381.69 -335.808 
L 384.48 -309.312 
L 387.27 -333.504 
L 390.06 -338.112 
L 392.85 -339.264 
L 395.64 -339.264 
L 398.43 -340.416 
L 401.22 -340.416 
L 404.01 -339.264 
L 406.8 -339.264 
L 409.59 -340.416 
L 412.38 -339.264 
L 415.17 -340.416 
L 417.96 -339.264 
L 420.75 -339.264 
L 423.54 -339.264 
L 426.33 -339.264 
L 429.12 -339.264 
L 431.91 -305.856 
L 434.7 -332.352 
L 437.49 -338.112 
L 440.28 -339.264 
L 443.07 -339.264 
L 445.86 -339.264 
L 448.65 -210.24 
L 451.44 -153.792 
L 454.23 -201.024 
L 457.02 -196.416 
L 459.81 -202.176 
L 462.6 -149.184 
L 465.39 -197.568 
L 468.18 -211.392 
L 470.97 -169.92 
L 473.76 -283.968 
L 476.55 -119.232 
L 479.34 -85.824 
L 482.13 -191.808 
L 484.92 -112.32 
L 487.71 -112.32 
L 490.5 -207.936 
L 490.5 -289.728 
L 490.5 -289.728 
L 487.71 -239.04 
L 484.92 -268.992 
L 482.13 -241.344 
L 479.34 -187.2 
L 476.55 -333.504 
L 473.76 -339.264 
L 470.97 -340.416 
L 468.18 -339.264 
L 465.39 -339.264 
L 462.6 -339.264 
L 459.81 -340.416 
L 457.02 -339.264 
L 454.23 -338.112 
L 451.44 -332.352 
L 448.65 -303.552 
L 445.86 -339.264 
L 443.07 -339.264 
L 440.28 -339.264 
L 437.49 -338.112 
L 434.7 -332.352 
L 431.91 -305.856 
L 429.12 -339.264 
L 426.33 -339.264 
L 423.54 -339.264 
L 420.75 -339.264 
L 417.96 -339.264 
L 415.17 -340.416 
L 412.38 -339.264 
L 409.59 -340.416 
L 406.8 -339.264 
L 404.01 -339.264 
L 401.22 -340.416 
L 398.43 -340.416 
L 395.64 -339.264 
L 392.85 -339.264 
L 390.06 -338.112 
L 387.27 -333.504 
L 384.48 -309.312 
L 381.69 -335.808 
L 378.9 -323.136 
L 376.11 -340.416 
L 373.32 -339.264 
L 370.53 -340.416 
L 367.74 -340.416 
L 364.95 -339.264 
L 362.16 -339.264 
L 359.37 -340.416 
L 356.58 -340.416 
L 353.79 -340.416 
L 351 -340.416 
L 348.21 -339.264 
L 345.42 -339.264 
L 342.63 -340.416 
L 339.84 -340.416 
L 337.05 -340.416 
L 334.26 -339.264 
L 331.47 -339.264 
L 328.68 -339.264 
L 325.89 -339.264 
L 323.1 -339.264 
L 320.31 -340.416 
L 317.52 -339.264 
L 314.73 -338.112 
L 311.94 -338.112 
L 309.15 -333.504 
L 306.36 -313.92 
L 303.57 -339.264 
L 300.78 -339.264 
L 297.99 -340.416 
L 295.2 -340.416 
L 292.41 -339.264 
L 289.62 -339.264 
L 286.83 -339.264 
L 284.04 -340.416 
L 281.25 -340.416 
L 278.46 -339.264 
L 275.67 -339.264 
L 272.88 -339.264 
L 270.09 -339.264 
L 267.3 -339.264 
L 264.51 -338.112 
L 261.72 -336.96 
L 258.93 -331.2 
L 256.14 -298.944 
L 253.35 -339.264 
L 250.56 -339.264 
L 247.77 -339.264 
L 244.98 -339.264 
L 242.19 -338.112 
L 239.4 -333.504 
L 236.61 -310.464 
L 233.82 -339.264 
L 231.03 -335.808 
L 228.24 -317.376 
L 225.45 -325.44 
L 222.66 -340.416 
L 219.87 -341.568 
L 217.08 -341.568 
L 214.29 -340.416 
L 211.5 -340.416 
L 208.71 -341.568 
L 205.92 -341.568 
L 203.13 -341.568 
L 200.34 -341.568 
L 197.55 -341.568 
L 194.76 -341.568 
L 191.97 -340.416 
L 189.18 -340.416 
L 186.39 -341.568 
L 183.6 -340.416 
L 180.81 -340.416 
L 178.02 -341.568 
L 175.23 -341.568 
L 172.44 -341.568 
L 169.65 -341.568 
L 166.86 -341.568 
L 164.07 -340.416 
L 161.28 -340.416 
L 158.49 -340.416 
L 155.7 -340.416 
L 152.91 -339.264 
L 150.12 -340.416 
L 147.33 -340.416 
L 144.54 -340.416 
L 141.75 -340.416 
L 138.96 -339.264 
L 136.17 -340.416 
L 133.38 -340.416 
L 130.59 -340.416 
L 127.8 -340.416 
L 125.01 -340.416 
L 122.22 -340.416 
L 119.43 -340.416 
L 116.64 -341.568 
L 113.85 -340.416 
L 111.06 -339.264 
L 108.27 -340.416 
L 105.48 -340.416 
L 102.69 -339.264 
L 99.9 -340.416 
L 97.11 -340.416 
L 94.32 -340.416 
L 91.53 -340.416 
L 88.74 -339.264 
L 85.95 -339.264 
L 83.16 -338.112 
L 80.37 -338.112 
L 77.58 -338.112 
L 74.79 -338.112 
L 72 -338.112 
z
" id="m771dd7b920" style="stroke:#000000;"/>
    </defs>
    <g clip-path="url(#p06f5f9e312)">
     <use style="fill:#00bfbf;stroke:#000000;" x="0.0" xlink:href="#m771dd7b920" y="432.0"/>
    </g>
   </g>
   <g id="PolyCollection_12">
    <defs>
     <path d="M 72 -338.112 
L 72 -338.112 
L 74.79 -338.112 
L 77.58 -338.112 
L 80.37 -338.112 
L 83.16 -338.112 
L 85.95 -339.264 
L 88.74 -339.264 
L 91.53 -340.416 
L 94.32 -340.416 
L 97.11 -340.416 
L 99.9 -340.416 
L 102.69 -339.264 
L 105.48 -340.416 
L 108.27 -340.416 
L 111.06 -339.264 
L 113.85 -340.416 
L 116.64 -341.568 
L 119.43 -340.416 
L 122.22 -340.416 
L 125.01 -340.416 
L 127.8 -340.416 
L 130.59 -340.416 
L 133.38 -340.416 
L 136.17 -340.416 
L 138.96 -339.264 
L 141.75 -340.416 
L 144.54 -340.416 
L 147.33 -340.416 
L 150.12 -340.416 
L 152.91 -339.264 
L 155.7 -340.416 
L 158.49 -340.416 
L 161.28 -340.416 
L 164.07 -340.416 
L 166.86 -341.568 
L 169.65 -341.568 
L 172.44 -341.568 
L 175.23 -341.568 
L 178.02 -341.568 
L 180.81 -340.416 
L 183.6 -340.416 
L 186.39 -341.568 
L 189.18 -340.416 
L 191.97 -340.416 
L 194.76 -341.568 
L 197.55 -341.568 
L 200.34 -341.568 
L 203.13 -341.568 
L 205.92 -341.568 
L 208.71 -341.568 
L 211.5 -340.416 
L 214.29 -340.416 
L 217.08 -341.568 
L 219.87 -341.568 
L 222.66 -340.416 
L 225.45 -325.44 
L 228.24 -317.376 
L 231.03 -335.808 
L 233.82 -339.264 
L 236.61 -310.464 
L 239.4 -333.504 
L 242.19 -338.112 
L 244.98 -339.264 
L 247.77 -339.264 
L 250.56 -339.264 
L 253.35 -339.264 
L 256.14 -298.944 
L 258.93 -331.2 
L 261.72 -336.96 
L 264.51 -338.112 
L 267.3 -339.264 
L 270.09 -339.264 
L 272.88 -339.264 
L 275.67 -339.264 
L 278.46 -339.264 
L 281.25 -340.416 
L 284.04 -340.416 
L 286.83 -339.264 
L 289.62 -339.264 
L 292.41 -339.264 
L 295.2 -340.416 
L 297.99 -340.416 
L 300.78 -339.264 
L 303.57 -339.264 
L 306.36 -313.92 
L 309.15 -333.504 
L 311.94 -338.112 
L 314.73 -338.112 
L 317.52 -339.264 
L 320.31 -340.416 
L 323.1 -339.264 
L 325.89 -339.264 
L 328.68 -339.264 
L 331.47 -339.264 
L 334.26 -339.264 
L 337.05 -340.416 
L 339.84 -340.416 
L 342.63 -340.416 
L 345.42 -339.264 
L 348.21 -339.264 
L 351 -340.416 
L 353.79 -340.416 
L 356.58 -340.416 
L 359.37 -340.416 
L 362.16 -339.264 
L 364.95 -339.264 
L 367.74 -340.416 
L 370.53 -340.416 
L 373.32 -339.264 
L 376.11 -340.416 
L 378.9 -323.136 
L 381.69 -335.808 
L 384.48 -309.312 
L 387.27 -333.504 
L 390.06 -338.112 
L 392.85 -339.264 
L 395.64 -339.264 
L 398.43 -340.416 
L 401.22 -340.416 
L 404.01 -339.264 
L 406.8 -339.264 
L 409.59 -340.416 
L 412.38 -339.264 
L 415.17 -340.416 
L 417.96 -339.264 
L 420.75 -339.264 
L 423.54 -339.264 
L 426.33 -339.264 
L 429.12 -339.264 
L 431.91 -305.856 
L 434.7 -332.352 
L 437.49 -338.112 
L 440.28 -339.264 
L 443.07 -339.264 
L 445.86 -339.264 
L 448.65 -303.552 
L 451.44 -332.352 
L 454.23 -338.112 
L 457.02 -339.264 
L 459.81 -340.416 
L 462.6 -339.264 
L 465.39 -339.264 
L 468.18 -339.264 
L 470.97 -340.416 
L 473.76 -339.264 
L 476.55 -333.504 
L 479.34 -187.2 
L 482.13 -241.344 
L 484.92 -268.992 
L 487.71 -239.04 
L 490.5 -289.728 
L 490.5 -340.416 
L 490.5 -340.416 
L 487.71 -339.264 
L 484.92 -339.264 
L 482.13 -339.264 
L 479.34 -340.416 
L 476.55 -340.416 
L 473.76 -339.264 
L 470.97 -340.416 
L 468.18 -339.264 
L 465.39 -339.264 
L 462.6 -339.264 
L 459.81 -340.416 
L 457.02 -339.264 
L 454.23 -338.112 
L 451.44 -332.352 
L 448.65 -303.552 
L 445.86 -339.264 
L 443.07 -339.264 
L 440.28 -339.264 
L 437.49 -338.112 
L 434.7 -332.352 
L 431.91 -305.856 
L 429.12 -339.264 
L 426.33 -339.264 
L 423.54 -339.264 
L 420.75 -339.264 
L 417.96 -339.264 
L 415.17 -340.416 
L 412.38 -339.264 
L 409.59 -340.416 
L 406.8 -339.264 
L 404.01 -339.264 
L 401.22 -340.416 
L 398.43 -340.416 
L 395.64 -339.264 
L 392.85 -339.264 
L 390.06 -338.112 
L 387.27 -333.504 
L 384.48 -309.312 
L 381.69 -335.808 
L 378.9 -323.136 
L 376.11 -340.416 
L 373.32 -339.264 
L 370.53 -340.416 
L 367.74 -340.416 
L 364.95 -339.264 
L 362.16 -339.264 
L 359.37 -340.416 
L 356.58 -340.416 
L 353.79 -340.416 
L 351 -340.416 
L 348.21 -339.264 
L 345.42 -339.264 
L 342.63 -340.416 
L 339.84 -340.416 
L 337.05 -340.416 
L 334.26 -339.264 
L 331.47 -339.264 
L 328.68 -339.264 
L 325.89 -339.264 
L 323.1 -339.264 
L 320.31 -340.416 
L 317.52 -339.264 
L 314.73 -338.112 
L 311.94 -338.112 
L 309.15 -333.504 
L 306.36 -313.92 
L 303.57 -339.264 
L 300.78 -339.264 
L 297.99 -340.416 
L 295.2 -340.416 
L 292.41 -339.264 
L 289.62 -339.264 
L 286.83 -339.264 
L 284.04 -340.416 
L 281.25 -340.416 
L 278.46 -339.264 
L 275.67 -339.264 
L 272.88 -339.264 
L 270.09 -339.264 
L 267.3 -339.264 
L 264.51 -338.112 
L 261.72 -336.96 
L 258.93 -331.2 
L 256.14 -298.944 
L 253.35 -339.264 
L 250.56 -339.264 
L 247.77 -339.264 
L 244.98 -339.264 
L 242.19 -338.112 
L 239.4 -333.504 
L 236.61 -310.464 
L 233.82 -339.264 
L 231.03 -335.808 
L 228.24 -317.376 
L 225.45 -325.44 
L 222.66 -340.416 
L 219.87 -341.568 
L 217.08 -341.568 
L 214.29 -340.416 
L 211.5 -340.416 
L 208.71 -341.568 
L 205.92 -341.568 
L 203.13 -341.568 
L 200.34 -341.568 
L 197.55 -341.568 
L 194.76 -341.568 
L 191.97 -340.416 
L 189.18 -340.416 
L 186.39 -341.568 
L 183.6 -340.416 
L 180.81 -340.416 
L 178.02 -341.568 
L 175.23 -341.568 
L 172.44 -341.568 
L 169.65 -341.568 
L 166.86 -341.568 
L 164.07 -340.416 
L 161.28 -340.416 
L 158.49 -340.416 
L 155.7 -340.416 
L 152.91 -339.264 
L 150.12 -340.416 
L 147.33 -340.416 
L 144.54 -340.416 
L 141.75 -340.416 
L 138.96 -339.264 
L 136.17 -340.416 
L 133.38 -340.416 
L 130.59 -340.416 
L 127.8 -340.416 
L 125.01 -340.416 
L 122.22 -340.416 
L 119.43 -340.416 
L 116.64 -341.568 
L 113.85 -340.416 
L 111.06 -339.264 
L 108.27 -340.416 
L 105.48 -340.416 
L 102.69 -339.264 
L 99.9 -340.416 
L 97.11 -340.416 
L 94.32 -340.416 
L 91.53 -340.416 
L 88.74 -339.264 
L 85.95 -339.264 
L 83.16 -338.112 
L 80.37 -338.112 
L 77.58 -338.112 
L 74.79 -338.112 
L 72 -338.112 
z
" id="mefa2ecd70a" style="stroke:#000000;"/>
    </defs>
    <g clip-path="url(#p06f5f9e312)">
     <use style="fill:#bf00bf;stroke:#000000;" x="0.0" xlink:href="#mefa2ecd70a" y="432.0"/>
    </g>
   </g>
   <g id="patch_3">
    <path d="M 72 388.8 
L 72 43.2 
" style="fill:none;stroke:#000000;stroke-linecap:square;stroke-linejoin:miter;"/>
   </g>
   <g id="patch_4">
    <path d="M 518.4 388.8 
L 518.4 43.2 
" style="fill:none;stroke:#000000;stroke-linecap:square;stroke-linejoin:miter;"/>
   </g>
   <g id="patch_5">
    <path d="M 72 43.2 
L 518.4 43.2 
" style="fill:none;stroke:#000000;stroke-linecap:square;stroke-linejoin:miter;"/>
   </g>
   <g id="patch_6">
    <path d="M 72 388.8 
L 518.4 388.8 
" style="fill:none;stroke:#000000;stroke-linecap:square;stroke-linejoin:miter;"/>
   </g>
   <g id="matplotlib.axis_1">
    <g id="xtick_1">
     <g id="line2d_1">
      <defs>
       <path d="M 0 0 
L 0 -4 
" id="mfcecad3ca1" style="stroke:#000000;stroke-width:0.5;"/>
      </defs>
      <g>
       <use style="stroke:#000000;stroke-width:0.5;" x="72.0" xlink:href="#mfcecad3ca1" y="388.8"/>
      </g>
     </g>
     <g id="line2d_2">
      <defs>
       <path d="M 0 0 
L 0 4 
" id="m5ff3fdf5ba" style="stroke:#000000;stroke-width:0.5;"/>
      </defs>
      <g>
       <use style="stroke:#000000;stroke-width:0.5;" x="72.0" xlink:href="#m5ff3fdf5ba" y="43.2"/>
      </g>
     </g>
     <g id="text_1">
      <!-- 0 -->
      <defs>
       <path d="M 31.78125 66.40625 
Q 24.171875 66.40625 20.328125 58.90625 
Q 16.5 51.421875 16.5 36.375 
Q 16.5 21.390625 20.328125 13.890625 
Q 24.171875 6.390625 31.78125 6.390625 
Q 39.453125 6.390625 43.28125 13.890625 
Q 47.125 21.390625 47.125 36.375 
Q 47.125 51.421875 43.28125 58.90625 
Q 39.453125 66.40625 31.78125 66.40625 
M 31.78125 74.21875 
Q 44.046875 74.21875 50.515625 64.515625 
Q 56.984375 54.828125 56.984375 36.375 
Q 56.984375 17.96875 50.515625 8.265625 
Q 44.046875 -1.421875 31.78125 -1.421875 
Q 19.53125 -1.421875 13.0625 8.265625 
Q 6.59375 17.96875 6.59375 36.375 
Q 6.59375 54.828125 13.0625 64.515625 
Q 19.53125 74.21875 31.78125 74.21875 
" id="BitstreamVeraSans-Roman-30"/>
      </defs>
      <g transform="translate(68.1825 401.918125)scale(0.12 -0.12)">
       <use xlink:href="#BitstreamVeraSans-Roman-30"/>
      </g>
     </g>
    </g>
    <g id="xtick_2">
     <g id="line2d_3">
      <g>
       <use style="stroke:#000000;stroke-width:0.5;" x="127.8" xlink:href="#mfcecad3ca1" y="388.8"/>
      </g>
     </g>
     <g id="line2d_4">
      <g>
       <use style="stroke:#000000;stroke-width:0.5;" x="127.8" xlink:href="#m5ff3fdf5ba" y="43.2"/>
      </g>
     </g>
     <g id="text_2">
      <!-- 20 -->
      <defs>
       <path d="M 19.1875 8.296875 
L 53.609375 8.296875 
L 53.609375 0 
L 7.328125 0 
L 7.328125 8.296875 
Q 12.9375 14.109375 22.625 23.890625 
Q 32.328125 33.6875 34.8125 36.53125 
Q 39.546875 41.84375 41.421875 45.53125 
Q 43.3125 49.21875 43.3125 52.78125 
Q 43.3125 58.59375 39.234375 62.25 
Q 35.15625 65.921875 28.609375 65.921875 
Q 23.96875 65.921875 18.8125 64.3125 
Q 13.671875 62.703125 7.8125 59.421875 
L 7.8125 69.390625 
Q 13.765625 71.78125 18.9375 73 
Q 24.125 74.21875 28.421875 74.21875 
Q 39.75 74.21875 46.484375 68.546875 
Q 53.21875 62.890625 53.21875 53.421875 
Q 53.21875 48.921875 51.53125 44.890625 
Q 49.859375 40.875 45.40625 35.40625 
Q 44.1875 33.984375 37.640625 27.21875 
Q 31.109375 20.453125 19.1875 8.296875 
" id="BitstreamVeraSans-Roman-32"/>
      </defs>
      <g transform="translate(120.165 401.918125)scale(0.12 -0.12)">
       <use xlink:href="#BitstreamVeraSans-Roman-32"/>
       <use x="63.623046875" xlink:href="#BitstreamVeraSans-Roman-30"/>
      </g>
     </g>
    </g>
    <g id="xtick_3">
     <g id="line2d_5">
      <g>
       <use style="stroke:#000000;stroke-width:0.5;" x="183.6" xlink:href="#mfcecad3ca1" y="388.8"/>
      </g>
     </g>
     <g id="line2d_6">
      <g>
       <use style="stroke:#000000;stroke-width:0.5;" x="183.6" xlink:href="#m5ff3fdf5ba" y="43.2"/>
      </g>
     </g>
     <g id="text_3">
      <!-- 40 -->
      <defs>
       <path d="M 37.796875 64.3125 
L 12.890625 25.390625 
L 37.796875 25.390625 
z
M 35.203125 72.90625 
L 47.609375 72.90625 
L 47.609375 25.390625 
L 58.015625 25.390625 
L 58.015625 17.1875 
L 47.609375 17.1875 
L 47.609375 0 
L 37.796875 0 
L 37.796875 17.1875 
L 4.890625 17.1875 
L 4.890625 26.703125 
z
" id="BitstreamVeraSans-Roman-34"/>
      </defs>
      <g transform="translate(175.965 401.918125)scale(0.12 -0.12)">
       <use xlink:href="#BitstreamVeraSans-Roman-34"/>
       <use x="63.623046875" xlink:href="#BitstreamVeraSans-Roman-30"/>
      </g>
     </g>
    </g>
    <g id="xtick_4">
     <g id="line2d_7">
      <g>
       <use style="stroke:#000000;stroke-width:0.5;" x="239.4" xlink:href="#mfcecad3ca1" y="388.8"/>
      </g>
     </g>
     <g id="line2d_8">
      <g>
       <use style="stroke:#000000;stroke-width:0.5;" x="239.4" xlink:href="#m5ff3fdf5ba" y="43.2"/>
      </g>
     </g>
     <g id="text_4">
      <!-- 60 -->
      <defs>
       <path d="M 33.015625 40.375 
Q 26.375 40.375 22.484375 35.828125 
Q 18.609375 31.296875 18.609375 23.390625 
Q 18.609375 15.53125 22.484375 10.953125 
Q 26.375 6.390625 33.015625 6.390625 
Q 39.65625 6.390625 43.53125 10.953125 
Q 47.40625 15.53125 47.40625 23.390625 
Q 47.40625 31.296875 43.53125 35.828125 
Q 39.65625 40.375 33.015625 40.375 
M 52.59375 71.296875 
L 52.59375 62.3125 
Q 48.875 64.0625 45.09375 64.984375 
Q 41.3125 65.921875 37.59375 65.921875 
Q 27.828125 65.921875 22.671875 59.328125 
Q 17.53125 52.734375 16.796875 39.40625 
Q 19.671875 43.65625 24.015625 45.921875 
Q 28.375 48.1875 33.59375 48.1875 
Q 44.578125 48.1875 50.953125 41.515625 
Q 57.328125 34.859375 57.328125 23.390625 
Q 57.328125 12.15625 50.6875 5.359375 
Q 44.046875 -1.421875 33.015625 -1.421875 
Q 20.359375 -1.421875 13.671875 8.265625 
Q 6.984375 17.96875 6.984375 36.375 
Q 6.984375 53.65625 15.1875 63.9375 
Q 23.390625 74.21875 37.203125 74.21875 
Q 40.921875 74.21875 44.703125 73.484375 
Q 48.484375 72.75 52.59375 71.296875 
" id="BitstreamVeraSans-Roman-36"/>
      </defs>
      <g transform="translate(231.765 401.918125)scale(0.12 -0.12)">
       <use xlink:href="#BitstreamVeraSans-Roman-36"/>
       <use x="63.623046875" xlink:href="#BitstreamVeraSans-Roman-30"/>
      </g>
     </g>
    </g>
    <g id="xtick_5">
     <g id="line2d_9">
      <g>
       <use style="stroke:#000000;stroke-width:0.5;" x="295.2" xlink:href="#mfcecad3ca1" y="388.8"/>
      </g>
     </g>
     <g id="line2d_10">
      <g>
       <use style="stroke:#000000;stroke-width:0.5;" x="295.2" xlink:href="#m5ff3fdf5ba" y="43.2"/>
      </g>
     </g>
     <g id="text_5">
      <!-- 80 -->
      <defs>
       <path d="M 31.78125 34.625 
Q 24.75 34.625 20.71875 30.859375 
Q 16.703125 27.09375 16.703125 20.515625 
Q 16.703125 13.921875 20.71875 10.15625 
Q 24.75 6.390625 31.78125 6.390625 
Q 38.8125 6.390625 42.859375 10.171875 
Q 46.921875 13.96875 46.921875 20.515625 
Q 46.921875 27.09375 42.890625 30.859375 
Q 38.875 34.625 31.78125 34.625 
M 21.921875 38.8125 
Q 15.578125 40.375 12.03125 44.71875 
Q 8.5 49.078125 8.5 55.328125 
Q 8.5 64.0625 14.71875 69.140625 
Q 20.953125 74.21875 31.78125 74.21875 
Q 42.671875 74.21875 48.875 69.140625 
Q 55.078125 64.0625 55.078125 55.328125 
Q 55.078125 49.078125 51.53125 44.71875 
Q 48 40.375 41.703125 38.8125 
Q 48.828125 37.15625 52.796875 32.3125 
Q 56.78125 27.484375 56.78125 20.515625 
Q 56.78125 9.90625 50.3125 4.234375 
Q 43.84375 -1.421875 31.78125 -1.421875 
Q 19.734375 -1.421875 13.25 4.234375 
Q 6.78125 9.90625 6.78125 20.515625 
Q 6.78125 27.484375 10.78125 32.3125 
Q 14.796875 37.15625 21.921875 38.8125 
M 18.3125 54.390625 
Q 18.3125 48.734375 21.84375 45.5625 
Q 25.390625 42.390625 31.78125 42.390625 
Q 38.140625 42.390625 41.71875 45.5625 
Q 45.3125 48.734375 45.3125 54.390625 
Q 45.3125 60.0625 41.71875 63.234375 
Q 38.140625 66.40625 31.78125 66.40625 
Q 25.390625 66.40625 21.84375 63.234375 
Q 18.3125 60.0625 18.3125 54.390625 
" id="BitstreamVeraSans-Roman-38"/>
      </defs>
      <g transform="translate(287.565 401.918125)scale(0.12 -0.12)">
       <use xlink:href="#BitstreamVeraSans-Roman-38"/>
       <use x="63.623046875" xlink:href="#BitstreamVeraSans-Roman-30"/>
      </g>
     </g>
    </g>
    <g id="xtick_6">
     <g id="line2d_11">
      <g>
       <use style="stroke:#000000;stroke-width:0.5;" x="351.0" xlink:href="#mfcecad3ca1" y="388.8"/>
      </g>
     </g>
     <g id="line2d_12">
      <g>
       <use style="stroke:#000000;stroke-width:0.5;" x="351.0" xlink:href="#m5ff3fdf5ba" y="43.2"/>
      </g>
     </g>
     <g id="text_6">
      <!-- 100 -->
      <defs>
       <path d="M 12.40625 8.296875 
L 28.515625 8.296875 
L 28.515625 63.921875 
L 10.984375 60.40625 
L 10.984375 69.390625 
L 28.421875 72.90625 
L 38.28125 72.90625 
L 38.28125 8.296875 
L 54.390625 8.296875 
L 54.390625 0 
L 12.40625 0 
z
" id="BitstreamVeraSans-Roman-31"/>
      </defs>
      <g transform="translate(339.5475 401.918125)scale(0.12 -0.12)">
       <use xlink:href="#BitstreamVeraSans-Roman-31"/>
       <use x="63.623046875" xlink:href="#BitstreamVeraSans-Roman-30"/>
       <use x="127.24609375" xlink:href="#BitstreamVeraSans-Roman-30"/>
      </g>
     </g>
    </g>
    <g id="xtick_7">
     <g id="line2d_13">
      <g>
       <use style="stroke:#000000;stroke-width:0.5;" x="406.8" xlink:href="#mfcecad3ca1" y="388.8"/>
      </g>
     </g>
     <g id="line2d_14">
      <g>
       <use style="stroke:#000000;stroke-width:0.5;" x="406.8" xlink:href="#m5ff3fdf5ba" y="43.2"/>
      </g>
     </g>
     <g id="text_7">
      <!-- 120 -->
      <g transform="translate(395.3475 401.918125)scale(0.12 -0.12)">
       <use xlink:href="#BitstreamVeraSans-Roman-31"/>
       <use x="63.623046875" xlink:href="#BitstreamVeraSans-Roman-32"/>
       <use x="127.24609375" xlink:href="#BitstreamVeraSans-Roman-30"/>
      </g>
     </g>
    </g>
    <g id="xtick_8">
     <g id="line2d_15">
      <g>
       <use style="stroke:#000000;stroke-width:0.5;" x="462.6" xlink:href="#mfcecad3ca1" y="388.8"/>
      </g>
     </g>
     <g id="line2d_16">
      <g>
       <use style="stroke:#000000;stroke-width:0.5;" x="462.6" xlink:href="#m5ff3fdf5ba" y="43.2"/>
      </g>
     </g>
     <g id="text_8">
      <!-- 140 -->
      <g transform="translate(451.1475 401.918125)scale(0.12 -0.12)">
       <use xlink:href="#BitstreamVeraSans-Roman-31"/>
       <use x="63.623046875" xlink:href="#BitstreamVeraSans-Roman-34"/>
       <use x="127.24609375" xlink:href="#BitstreamVeraSans-Roman-30"/>
      </g>
     </g>
    </g>
    <g id="xtick_9">
     <g id="line2d_17">
      <g>
       <use style="stroke:#000000;stroke-width:0.5;" x="518.4" xlink:href="#mfcecad3ca1" y="388.8"/>
      </g>
     </g>
     <g id="line2d_18">
      <g>
       <use style="stroke:#000000;stroke-width:0.5;" x="518.4" xlink:href="#m5ff3fdf5ba" y="43.2"/>
      </g>
     </g>
     <g id="text_9">
      <!-- 160 -->
      <g transform="translate(506.9475 401.918125)scale(0.12 -0.12)">
       <use xlink:href="#BitstreamVeraSans-Roman-31"/>
       <use x="63.623046875" xlink:href="#BitstreamVeraSans-Roman-36"/>
       <use x="127.24609375" xlink:href="#BitstreamVeraSans-Roman-30"/>
      </g>
     </g>
    </g>
    <g id="text_10">
     <!-- Generations -->
     <defs>
      <path d="M 56.203125 29.59375 
L 56.203125 25.203125 
L 14.890625 25.203125 
Q 15.484375 15.921875 20.484375 11.0625 
Q 25.484375 6.203125 34.421875 6.203125 
Q 39.59375 6.203125 44.453125 7.46875 
Q 49.3125 8.734375 54.109375 11.28125 
L 54.109375 2.78125 
Q 49.265625 0.734375 44.1875 -0.34375 
Q 39.109375 -1.421875 33.890625 -1.421875 
Q 20.796875 -1.421875 13.15625 6.1875 
Q 5.515625 13.8125 5.515625 26.8125 
Q 5.515625 40.234375 12.765625 48.109375 
Q 20.015625 56 32.328125 56 
Q 43.359375 56 49.78125 48.890625 
Q 56.203125 41.796875 56.203125 29.59375 
M 47.21875 32.234375 
Q 47.125 39.59375 43.09375 43.984375 
Q 39.0625 48.390625 32.421875 48.390625 
Q 24.90625 48.390625 20.390625 44.140625 
Q 15.875 39.890625 15.1875 32.171875 
z
" id="BitstreamVeraSans-Roman-65"/>
      <path d="M 41.109375 46.296875 
Q 39.59375 47.171875 37.8125 47.578125 
Q 36.03125 48 33.890625 48 
Q 26.265625 48 22.1875 43.046875 
Q 18.109375 38.09375 18.109375 28.8125 
L 18.109375 0 
L 9.078125 0 
L 9.078125 54.6875 
L 18.109375 54.6875 
L 18.109375 46.1875 
Q 20.953125 51.171875 25.484375 53.578125 
Q 30.03125 56 36.53125 56 
Q 37.453125 56 38.578125 55.875 
Q 39.703125 55.765625 41.0625 55.515625 
z
" id="BitstreamVeraSans-Roman-72"/>
      <path d="M 9.421875 54.6875 
L 18.40625 54.6875 
L 18.40625 0 
L 9.421875 0 
z
M 9.421875 75.984375 
L 18.40625 75.984375 
L 18.40625 64.59375 
L 9.421875 64.59375 
z
" id="BitstreamVeraSans-Roman-69"/>
      <path d="M 59.515625 10.40625 
L 59.515625 29.984375 
L 43.40625 29.984375 
L 43.40625 38.09375 
L 69.28125 38.09375 
L 69.28125 6.78125 
Q 63.578125 2.734375 56.6875 0.65625 
Q 49.8125 -1.421875 42 -1.421875 
Q 24.90625 -1.421875 15.25 8.5625 
Q 5.609375 18.5625 5.609375 36.375 
Q 5.609375 54.25 15.25 64.234375 
Q 24.90625 74.21875 42 74.21875 
Q 49.125 74.21875 55.546875 72.453125 
Q 61.96875 70.703125 67.390625 67.28125 
L 67.390625 56.78125 
Q 61.921875 61.421875 55.765625 63.765625 
Q 49.609375 66.109375 42.828125 66.109375 
Q 29.4375 66.109375 22.71875 58.640625 
Q 16.015625 51.171875 16.015625 36.375 
Q 16.015625 21.625 22.71875 14.15625 
Q 29.4375 6.6875 42.828125 6.6875 
Q 48.046875 6.6875 52.140625 7.59375 
Q 56.25 8.5 59.515625 10.40625 
" id="BitstreamVeraSans-Roman-47"/>
      <path d="M 34.28125 27.484375 
Q 23.390625 27.484375 19.1875 25 
Q 14.984375 22.515625 14.984375 16.5 
Q 14.984375 11.71875 18.140625 8.90625 
Q 21.296875 6.109375 26.703125 6.109375 
Q 34.1875 6.109375 38.703125 11.40625 
Q 43.21875 16.703125 43.21875 25.484375 
L 43.21875 27.484375 
z
M 52.203125 31.203125 
L 52.203125 0 
L 43.21875 0 
L 43.21875 8.296875 
Q 40.140625 3.328125 35.546875 0.953125 
Q 30.953125 -1.421875 24.3125 -1.421875 
Q 15.921875 -1.421875 10.953125 3.296875 
Q 6 8.015625 6 15.921875 
Q 6 25.140625 12.171875 29.828125 
Q 18.359375 34.515625 30.609375 34.515625 
L 43.21875 34.515625 
L 43.21875 35.40625 
Q 43.21875 41.609375 39.140625 45 
Q 35.0625 48.390625 27.6875 48.390625 
Q 23 48.390625 18.546875 47.265625 
Q 14.109375 46.140625 10.015625 43.890625 
L 10.015625 52.203125 
Q 14.9375 54.109375 19.578125 55.046875 
Q 24.21875 56 28.609375 56 
Q 40.484375 56 46.34375 49.84375 
Q 52.203125 43.703125 52.203125 31.203125 
" id="BitstreamVeraSans-Roman-61"/>
      <path d="M 44.28125 53.078125 
L 44.28125 44.578125 
Q 40.484375 46.53125 36.375 47.5 
Q 32.28125 48.484375 27.875 48.484375 
Q 21.1875 48.484375 17.84375 46.4375 
Q 14.5 44.390625 14.5 40.28125 
Q 14.5 37.15625 16.890625 35.375 
Q 19.28125 33.59375 26.515625 31.984375 
L 29.59375 31.296875 
Q 39.15625 29.25 43.1875 25.515625 
Q 47.21875 21.78125 47.21875 15.09375 
Q 47.21875 7.46875 41.1875 3.015625 
Q 35.15625 -1.421875 24.609375 -1.421875 
Q 20.21875 -1.421875 15.453125 -0.5625 
Q 10.6875 0.296875 5.421875 2 
L 5.421875 11.28125 
Q 10.40625 8.6875 15.234375 7.390625 
Q 20.0625 6.109375 24.8125 6.109375 
Q 31.15625 6.109375 34.5625 8.28125 
Q 37.984375 10.453125 37.984375 14.40625 
Q 37.984375 18.0625 35.515625 20.015625 
Q 33.0625 21.96875 24.703125 23.78125 
L 21.578125 24.515625 
Q 13.234375 26.265625 9.515625 29.90625 
Q 5.8125 33.546875 5.8125 39.890625 
Q 5.8125 47.609375 11.28125 51.796875 
Q 16.75 56 26.8125 56 
Q 31.78125 56 36.171875 55.265625 
Q 40.578125 54.546875 44.28125 53.078125 
" id="BitstreamVeraSans-Roman-73"/>
      <path d="M 30.609375 48.390625 
Q 23.390625 48.390625 19.1875 42.75 
Q 14.984375 37.109375 14.984375 27.296875 
Q 14.984375 17.484375 19.15625 11.84375 
Q 23.34375 6.203125 30.609375 6.203125 
Q 37.796875 6.203125 41.984375 11.859375 
Q 46.1875 17.53125 46.1875 27.296875 
Q 46.1875 37.015625 41.984375 42.703125 
Q 37.796875 48.390625 30.609375 48.390625 
M 30.609375 56 
Q 42.328125 56 49.015625 48.375 
Q 55.71875 40.765625 55.71875 27.296875 
Q 55.71875 13.875 49.015625 6.21875 
Q 42.328125 -1.421875 30.609375 -1.421875 
Q 18.84375 -1.421875 12.171875 6.21875 
Q 5.515625 13.875 5.515625 27.296875 
Q 5.515625 40.765625 12.171875 48.375 
Q 18.84375 56 30.609375 56 
" id="BitstreamVeraSans-Roman-6f"/>
      <path d="M 54.890625 33.015625 
L 54.890625 0 
L 45.90625 0 
L 45.90625 32.71875 
Q 45.90625 40.484375 42.875 44.328125 
Q 39.84375 48.1875 33.796875 48.1875 
Q 26.515625 48.1875 22.3125 43.546875 
Q 18.109375 38.921875 18.109375 30.90625 
L 18.109375 0 
L 9.078125 0 
L 9.078125 54.6875 
L 18.109375 54.6875 
L 18.109375 46.1875 
Q 21.34375 51.125 25.703125 53.5625 
Q 30.078125 56 35.796875 56 
Q 45.21875 56 50.046875 50.171875 
Q 54.890625 44.34375 54.890625 33.015625 
" id="BitstreamVeraSans-Roman-6e"/>
      <path d="M 18.3125 70.21875 
L 18.3125 54.6875 
L 36.8125 54.6875 
L 36.8125 47.703125 
L 18.3125 47.703125 
L 18.3125 18.015625 
Q 18.3125 11.328125 20.140625 9.421875 
Q 21.96875 7.515625 27.59375 7.515625 
L 36.8125 7.515625 
L 36.8125 0 
L 27.59375 0 
Q 17.1875 0 13.234375 3.875 
Q 9.28125 7.765625 9.28125 18.015625 
L 9.28125 47.703125 
L 2.6875 47.703125 
L 2.6875 54.6875 
L 9.28125 54.6875 
L 9.28125 70.21875 
z
" id="BitstreamVeraSans-Roman-74"/>
     </defs>
     <g transform="translate(258.6028125 418.531875)scale(0.12 -0.12)">
      <use xlink:href="#BitstreamVeraSans-Roman-47"/>
      <use x="77.490234375" xlink:href="#BitstreamVeraSans-Roman-65"/>
      <use x="139.013671875" xlink:href="#BitstreamVeraSans-Roman-6e"/>
      <use x="202.392578125" xlink:href="#BitstreamVeraSans-Roman-65"/>
      <use x="263.916015625" xlink:href="#BitstreamVeraSans-Roman-72"/>
      <use x="305.029296875" xlink:href="#BitstreamVeraSans-Roman-61"/>
      <use x="366.30859375" xlink:href="#BitstreamVeraSans-Roman-74"/>
      <use x="405.517578125" xlink:href="#BitstreamVeraSans-Roman-69"/>
      <use x="433.30078125" xlink:href="#BitstreamVeraSans-Roman-6f"/>
      <use x="494.482421875" xlink:href="#BitstreamVeraSans-Roman-6e"/>
      <use x="557.861328125" xlink:href="#BitstreamVeraSans-Roman-73"/>
     </g>
    </g>
   </g>
   <g id="matplotlib.axis_2">
    <g id="ytick_1">
     <g id="line2d_19">
      <defs>
       <path d="M 0 0 
L 4 0 
" id="m09a9306147" style="stroke:#000000;stroke-width:0.5;"/>
      </defs>
      <g>
       <use style="stroke:#000000;stroke-width:0.5;" x="72.0" xlink:href="#m09a9306147" y="388.8"/>
      </g>
     </g>
     <g id="line2d_20">
      <defs>
       <path d="M 0 0 
L -4 0 
" id="mebfd586b5b" style="stroke:#000000;stroke-width:0.5;"/>
      </defs>
      <g>
       <use style="stroke:#000000;stroke-width:0.5;" x="518.4" xlink:href="#mebfd586b5b" y="388.8"/>
      </g>
     </g>
     <g id="text_11">
      <!-- 0 -->
      <g transform="translate(60.365 392.11125)scale(0.12 -0.12)">
       <use xlink:href="#BitstreamVeraSans-Roman-30"/>
      </g>
     </g>
    </g>
    <g id="ytick_2">
     <g id="line2d_21">
      <g>
       <use style="stroke:#000000;stroke-width:0.5;" x="72.0" xlink:href="#m09a9306147" y="331.2"/>
      </g>
     </g>
     <g id="line2d_22">
      <g>
       <use style="stroke:#000000;stroke-width:0.5;" x="518.4" xlink:href="#mebfd586b5b" y="331.2"/>
      </g>
     </g>
     <g id="text_12">
      <!-- 50 -->
      <defs>
       <path d="M 10.796875 72.90625 
L 49.515625 72.90625 
L 49.515625 64.59375 
L 19.828125 64.59375 
L 19.828125 46.734375 
Q 21.96875 47.46875 24.109375 47.828125 
Q 26.265625 48.1875 28.421875 48.1875 
Q 40.625 48.1875 47.75 41.5 
Q 54.890625 34.8125 54.890625 23.390625 
Q 54.890625 11.625 47.5625 5.09375 
Q 40.234375 -1.421875 26.90625 -1.421875 
Q 22.3125 -1.421875 17.546875 -0.640625 
Q 12.796875 0.140625 7.71875 1.703125 
L 7.71875 11.625 
Q 12.109375 9.234375 16.796875 8.0625 
Q 21.484375 6.890625 26.703125 6.890625 
Q 35.15625 6.890625 40.078125 11.328125 
Q 45.015625 15.765625 45.015625 23.390625 
Q 45.015625 31 40.078125 35.4375 
Q 35.15625 39.890625 26.703125 39.890625 
Q 22.75 39.890625 18.8125 39.015625 
Q 14.890625 38.140625 10.796875 36.28125 
z
" id="BitstreamVeraSans-Roman-35"/>
      </defs>
      <g transform="translate(52.73 334.51125)scale(0.12 -0.12)">
       <use xlink:href="#BitstreamVeraSans-Roman-35"/>
       <use x="63.623046875" xlink:href="#BitstreamVeraSans-Roman-30"/>
      </g>
     </g>
    </g>
    <g id="ytick_3">
     <g id="line2d_23">
      <g>
       <use style="stroke:#000000;stroke-width:0.5;" x="72.0" xlink:href="#m09a9306147" y="273.6"/>
      </g>
     </g>
     <g id="line2d_24">
      <g>
       <use style="stroke:#000000;stroke-width:0.5;" x="518.4" xlink:href="#mebfd586b5b" y="273.6"/>
      </g>
     </g>
     <g id="text_13">
      <!-- 100 -->
      <g transform="translate(45.095 276.91125)scale(0.12 -0.12)">
       <use xlink:href="#BitstreamVeraSans-Roman-31"/>
       <use x="63.623046875" xlink:href="#BitstreamVeraSans-Roman-30"/>
       <use x="127.24609375" xlink:href="#BitstreamVeraSans-Roman-30"/>
      </g>
     </g>
    </g>
    <g id="ytick_4">
     <g id="line2d_25">
      <g>
       <use style="stroke:#000000;stroke-width:0.5;" x="72.0" xlink:href="#m09a9306147" y="216.0"/>
      </g>
     </g>
     <g id="line2d_26">
      <g>
       <use style="stroke:#000000;stroke-width:0.5;" x="518.4" xlink:href="#mebfd586b5b" y="216.0"/>
      </g>
     </g>
     <g id="text_14">
      <!-- 150 -->
      <g transform="translate(45.095 219.31125)scale(0.12 -0.12)">
       <use xlink:href="#BitstreamVeraSans-Roman-31"/>
       <use x="63.623046875" xlink:href="#BitstreamVeraSans-Roman-35"/>
       <use x="127.24609375" xlink:href="#BitstreamVeraSans-Roman-30"/>
      </g>
     </g>
    </g>
    <g id="ytick_5">
     <g id="line2d_27">
      <g>
       <use style="stroke:#000000;stroke-width:0.5;" x="72.0" xlink:href="#m09a9306147" y="158.4"/>
      </g>
     </g>
     <g id="line2d_28">
      <g>
       <use style="stroke:#000000;stroke-width:0.5;" x="518.4" xlink:href="#mebfd586b5b" y="158.4"/>
      </g>
     </g>
     <g id="text_15">
      <!-- 200 -->
      <g transform="translate(45.095 161.71125)scale(0.12 -0.12)">
       <use xlink:href="#BitstreamVeraSans-Roman-32"/>
       <use x="63.623046875" xlink:href="#BitstreamVeraSans-Roman-30"/>
       <use x="127.24609375" xlink:href="#BitstreamVeraSans-Roman-30"/>
      </g>
     </g>
    </g>
    <g id="ytick_6">
     <g id="line2d_29">
      <g>
       <use style="stroke:#000000;stroke-width:0.5;" x="72.0" xlink:href="#m09a9306147" y="100.8"/>
      </g>
     </g>
     <g id="line2d_30">
      <g>
       <use style="stroke:#000000;stroke-width:0.5;" x="518.4" xlink:href="#mebfd586b5b" y="100.8"/>
      </g>
     </g>
     <g id="text_16">
      <!-- 250 -->
      <g transform="translate(45.095 104.11125)scale(0.12 -0.12)">
       <use xlink:href="#BitstreamVeraSans-Roman-32"/>
       <use x="63.623046875" xlink:href="#BitstreamVeraSans-Roman-35"/>
       <use x="127.24609375" xlink:href="#BitstreamVeraSans-Roman-30"/>
      </g>
     </g>
    </g>
    <g id="ytick_7">
     <g id="line2d_31">
      <g>
       <use style="stroke:#000000;stroke-width:0.5;" x="72.0" xlink:href="#m09a9306147" y="43.2"/>
      </g>
     </g>
     <g id="line2d_32">
      <g>
       <use style="stroke:#000000;stroke-width:0.5;" x="518.4" xlink:href="#mebfd586b5b" y="43.2"/>
      </g>
     </g>
     <g id="text_17">
      <!-- 300 -->
      <defs>
       <path d="M 40.578125 39.3125 
Q 47.65625 37.796875 51.625 33 
Q 55.609375 28.21875 55.609375 21.1875 
Q 55.609375 10.40625 48.1875 4.484375 
Q 40.765625 -1.421875 27.09375 -1.421875 
Q 22.515625 -1.421875 17.65625 -0.515625 
Q 12.796875 0.390625 7.625 2.203125 
L 7.625 11.71875 
Q 11.71875 9.328125 16.59375 8.109375 
Q 21.484375 6.890625 26.8125 6.890625 
Q 36.078125 6.890625 40.9375 10.546875 
Q 45.796875 14.203125 45.796875 21.1875 
Q 45.796875 27.640625 41.28125 31.265625 
Q 36.765625 34.90625 28.71875 34.90625 
L 20.21875 34.90625 
L 20.21875 43.015625 
L 29.109375 43.015625 
Q 36.375 43.015625 40.234375 45.921875 
Q 44.09375 48.828125 44.09375 54.296875 
Q 44.09375 59.90625 40.109375 62.90625 
Q 36.140625 65.921875 28.71875 65.921875 
Q 24.65625 65.921875 20.015625 65.03125 
Q 15.375 64.15625 9.8125 62.3125 
L 9.8125 71.09375 
Q 15.4375 72.65625 20.34375 73.4375 
Q 25.25 74.21875 29.59375 74.21875 
Q 40.828125 74.21875 47.359375 69.109375 
Q 53.90625 64.015625 53.90625 55.328125 
Q 53.90625 49.265625 50.4375 45.09375 
Q 46.96875 40.921875 40.578125 39.3125 
" id="BitstreamVeraSans-Roman-33"/>
      </defs>
      <g transform="translate(45.095 46.51125)scale(0.12 -0.12)">
       <use xlink:href="#BitstreamVeraSans-Roman-33"/>
       <use x="63.623046875" xlink:href="#BitstreamVeraSans-Roman-30"/>
       <use x="127.24609375" xlink:href="#BitstreamVeraSans-Roman-30"/>
      </g>
     </g>
    </g>
    <g id="text_18">
     <!-- Size per Species -->
     <defs>
      <path d="M 5.515625 54.6875 
L 48.1875 54.6875 
L 48.1875 46.484375 
L 14.40625 7.171875 
L 48.1875 7.171875 
L 48.1875 0 
L 4.296875 0 
L 4.296875 8.203125 
L 38.09375 47.515625 
L 5.515625 47.515625 
z
" id="BitstreamVeraSans-Roman-7a"/>
      <path d="M 48.78125 52.59375 
L 48.78125 44.1875 
Q 44.96875 46.296875 41.140625 47.34375 
Q 37.3125 48.390625 33.40625 48.390625 
Q 24.65625 48.390625 19.8125 42.84375 
Q 14.984375 37.3125 14.984375 27.296875 
Q 14.984375 17.28125 19.8125 11.734375 
Q 24.65625 6.203125 33.40625 6.203125 
Q 37.3125 6.203125 41.140625 7.25 
Q 44.96875 8.296875 48.78125 10.40625 
L 48.78125 2.09375 
Q 45.015625 0.34375 40.984375 -0.53125 
Q 36.96875 -1.421875 32.421875 -1.421875 
Q 20.0625 -1.421875 12.78125 6.34375 
Q 5.515625 14.109375 5.515625 27.296875 
Q 5.515625 40.671875 12.859375 48.328125 
Q 20.21875 56 33.015625 56 
Q 37.15625 56 41.109375 55.140625 
Q 45.0625 54.296875 48.78125 52.59375 
" id="BitstreamVeraSans-Roman-63"/>
      <path id="BitstreamVeraSans-Roman-20"/>
      <path d="M 53.515625 70.515625 
L 53.515625 60.890625 
Q 47.90625 63.578125 42.921875 64.890625 
Q 37.9375 66.21875 33.296875 66.21875 
Q 25.25 66.21875 20.875 63.09375 
Q 16.5 59.96875 16.5 54.203125 
Q 16.5 49.359375 19.40625 46.890625 
Q 22.3125 44.4375 30.421875 42.921875 
L 36.375 41.703125 
Q 47.40625 39.59375 52.65625 34.296875 
Q 57.90625 29 57.90625 20.125 
Q 57.90625 9.515625 50.796875 4.046875 
Q 43.703125 -1.421875 29.984375 -1.421875 
Q 24.8125 -1.421875 18.96875 -0.25 
Q 13.140625 0.921875 6.890625 3.21875 
L 6.890625 13.375 
Q 12.890625 10.015625 18.65625 8.296875 
Q 24.421875 6.59375 29.984375 6.59375 
Q 38.421875 6.59375 43.015625 9.90625 
Q 47.609375 13.234375 47.609375 19.390625 
Q 47.609375 24.75 44.3125 27.78125 
Q 41.015625 30.8125 33.5 32.328125 
L 27.484375 33.5 
Q 16.453125 35.6875 11.515625 40.375 
Q 6.59375 45.0625 6.59375 53.421875 
Q 6.59375 63.09375 13.40625 68.65625 
Q 20.21875 74.21875 32.171875 74.21875 
Q 37.3125 74.21875 42.625 73.28125 
Q 47.953125 72.359375 53.515625 70.515625 
" id="BitstreamVeraSans-Roman-53"/>
      <path d="M 18.109375 8.203125 
L 18.109375 -20.796875 
L 9.078125 -20.796875 
L 9.078125 54.6875 
L 18.109375 54.6875 
L 18.109375 46.390625 
Q 20.953125 51.265625 25.265625 53.625 
Q 29.59375 56 35.59375 56 
Q 45.5625 56 51.78125 48.09375 
Q 58.015625 40.1875 58.015625 27.296875 
Q 58.015625 14.40625 51.78125 6.484375 
Q 45.5625 -1.421875 35.59375 -1.421875 
Q 29.59375 -1.421875 25.265625 0.953125 
Q 20.953125 3.328125 18.109375 8.203125 
M 48.6875 27.296875 
Q 48.6875 37.203125 44.609375 42.84375 
Q 40.53125 48.484375 33.40625 48.484375 
Q 26.265625 48.484375 22.1875 42.84375 
Q 18.109375 37.203125 18.109375 27.296875 
Q 18.109375 17.390625 22.1875 11.75 
Q 26.265625 6.109375 33.40625 6.109375 
Q 40.53125 6.109375 44.609375 11.75 
Q 48.6875 17.390625 48.6875 27.296875 
" id="BitstreamVeraSans-Roman-70"/>
     </defs>
     <g transform="translate(37.599375 265.1915625)rotate(-90.0)scale(0.12 -0.12)">
      <use xlink:href="#BitstreamVeraSans-Roman-53"/>
      <use x="63.4765625" xlink:href="#BitstreamVeraSans-Roman-69"/>
      <use x="91.259765625" xlink:href="#BitstreamVeraSans-Roman-7a"/>
      <use x="143.75" xlink:href="#BitstreamVeraSans-Roman-65"/>
      <use x="205.2734375" xlink:href="#BitstreamVeraSans-Roman-20"/>
      <use x="237.060546875" xlink:href="#BitstreamVeraSans-Roman-70"/>
      <use x="300.537109375" xlink:href="#BitstreamVeraSans-Roman-65"/>
      <use x="362.060546875" xlink:href="#BitstreamVeraSans-Roman-72"/>
      <use x="403.173828125" xlink:href="#BitstreamVeraSans-Roman-20"/>
      <use x="434.9609375" xlink:href="#BitstreamVeraSans-Roman-53"/>
      <use x="498.4375" xlink:href="#BitstreamVeraSans-Roman-70"/>
      <use x="561.9140625" xlink:href="#BitstreamVeraSans-Roman-65"/>
      <use x="623.4375" xlink:href="#BitstreamVeraSans-Roman-63"/>
      <use x="678.41796875" xlink:href="#BitstreamVeraSans-Roman-69"/>
      <use x="706.201171875" xlink:href="#BitstreamVeraSans-Roman-65"/>
      <use x="767.724609375" xlink:href="#BitstreamVeraSans-Roman-73"/>
     </g>
    </g>
   </g>
   <g id="text_19">
    <!-- Speciation -->
    <g transform="translate(257.46525 38.2)scale(0.144 -0.144)">
     <use xlink:href="#BitstreamVeraSans-Roman-53"/>
     <use x="63.4765625" xlink:href="#BitstreamVeraSans-Roman-70"/>
     <use x="126.953125" xlink:href="#BitstreamVeraSans-Roman-65"/>
     <use x="188.4765625" xlink:href="#BitstreamVeraSans-Roman-63"/>
     <use x="243.45703125" xlink:href="#BitstreamVeraSans-Roman-69"/>
     <use x="271.240234375" xlink:href="#BitstreamVeraSans-Roman-61"/>
     <use x="332.51953125" xlink:href="#BitstreamVeraSans-Roman-74"/>
     <use x="371.728515625" xlink:href="#BitstreamVeraSans-Roman-69"/>
     <use x="399.51171875" xlink:href="#BitstreamVeraSans-Roman-6f"/>
     <use x="460.693359375" xlink:href="#BitstreamVeraSans-Roman-6e"/>
    </g>
   </g>
  </g>
 </g>
 <defs>
  <clipPath id="p06f5f9e312">
   <rect height="345.6" width="446.4" x="72.0" y="43.2"/>
  </clipPath>
 </defs>
</svg>
