<?xml version="1.0" encoding="UTF-8" standalone="no"?>
<!DOCTYPE svg PUBLIC "-//W3C//DTD SVG 1.1//EN"
 "http://www.w3.org/Graphics/SVG/1.1/DTD/svg11.dtd">
<!-- Generated by graphviz version 2.39.20160104.1625 (20160104.1625)
 -->
<!-- Title: %3 Pages: 1 -->
<svg width="270pt" height="99pt"
 viewBox="0.00 0.00 269.88 98.77" xmlns="http://www.w3.org/2000/svg" xmlns:xlink="http://www.w3.org/1999/xlink">
<g id="graph0" class="graph" transform="scale(1 1) rotate(0) translate(4 94.7696)">
<title>%3</title>
<polygon fill="white" stroke="transparent" points="-4,4 -4,-94.7696 265.885,-94.7696 265.885,4 -4,4"/>
<!-- 0 -->
<g id="node1" class="node">
<title>0</title>
<polygon fill="lightgrey" stroke="black" points="21,-90.7696 0,-90.7696 0,-72.7696 21,-72.7696 21,-90.7696"/>
<text text-anchor="middle" x="10.5" y="-78.6696" font-family="Times,serif" font-size="9.00">0</text>
</g>
<!-- 7 -->
<g id="node8" class="node">
<title>7</title>
<ellipse fill="lightblue" stroke="lightblue" cx="41.5" cy="-18.3848" rx="15.6129" ry="15.6129"/>
<text text-anchor="middle" x="41.5" y="-15.2848" font-family="Times,serif" font-size="9.00">7</text>
</g>
<!-- 0&#45;&gt;7 -->
<g id="edge9" class="edge">
<title>0&#45;&gt;7</title>
<path fill="none" stroke="green" stroke-width="0.905963" stroke-dasharray="1,5" d="M14.9415,-72.6881C18.8382,-64.7207 24.6804,-52.7752 29.8941,-42.1149"/>
<polygon fill="green" stroke="green" stroke-width="0.905963" points="33.1823,-43.3581 34.4317,-32.8372 26.8941,-40.2826 33.1823,-43.3581"/>
</g>
<!-- 9 -->
<g id="node10" class="node">
<title>9</title>
<ellipse fill="lightblue" stroke="lightblue" cx="89.5" cy="-18.3848" rx="14.7" ry="14.7"/>
<text text-anchor="middle" x="89.5" y="-15.2848" font-family="Times,serif" font-size="9.00">9</text>
</g>
<!-- 0&#45;&gt;9 -->
<g id="edge11" class="edge">
<title>0&#45;&gt;9</title>
<path fill="none" stroke="red" stroke-width="0.78419" stroke-dasharray="1,5" d="M21.1543,-73.2212C33.5918,-63.2421 54.4189,-46.5317 69.82,-34.1748"/>
<polygon fill="red" stroke="red" stroke-width="0.78419" points="72.1208,-36.8161 77.7302,-27.8281 67.7401,-31.3563 72.1208,-36.8161"/>
</g>
<!-- 1 -->
<g id="node2" class="node">
<title>1</title>
<polygon fill="lightgrey" stroke="black" points="220,-90.7696 199,-90.7696 199,-72.7696 220,-72.7696 220,-90.7696"/>
<text text-anchor="middle" x="209.5" y="-78.6696" font-family="Times,serif" font-size="9.00">1</text>
</g>
<!-- 8 -->
<g id="node9" class="node">
<title>8</title>
<ellipse fill="lightblue" stroke="lightblue" cx="137.5" cy="-18.3848" rx="14.7" ry="14.7"/>
<text text-anchor="middle" x="137.5" y="-15.2848" font-family="Times,serif" font-size="9.00">8</text>
</g>
<!-- 1&#45;&gt;8 -->
<g id="edge12" class="edge">
<title>1&#45;&gt;8</title>
<path fill="none" stroke="red" stroke-width="0.753887" d="M199.184,-72.6881C188.107,-62.9364 170.26,-47.2253 156.607,-35.2052"/>
<polygon fill="red" stroke="red" stroke-width="0.753887" points="158.564,-32.265 148.745,-28.2843 153.938,-37.5191 158.564,-32.265"/>
</g>
<!-- 10 -->
<g id="node11" class="node">
<title>10</title>
<ellipse fill="lightblue" stroke="lightblue" cx="188.5" cy="-18.3848" rx="18.2703" ry="18.2703"/>
<text text-anchor="middle" x="188.5" y="-15.2848" font-family="Times,serif" font-size="9.00">10</text>
</g>
<!-- 1&#45;&gt;10 -->
<g id="edge14" class="edge">
<title>1&#45;&gt;10</title>
<path fill="none" stroke="green" stroke-width="0.227416" stroke-dasharray="1,5" d="M206.491,-72.6881C204.151,-65.6252 200.775,-55.4361 197.579,-45.7874"/>
<polygon fill="green" stroke="green" stroke-width="0.227416" points="200.831,-44.4736 194.363,-36.0818 194.186,-46.6751 200.831,-44.4736"/>
</g>
<!-- 11 -->
<g id="node12" class="node">
<title>11</title>
<ellipse fill="lightblue" stroke="lightblue" cx="243.5" cy="-18.3848" rx="18.2703" ry="18.2703"/>
<text text-anchor="middle" x="243.5" y="-15.2848" font-family="Times,serif" font-size="9.00">11</text>
</g>
<!-- 1&#45;&gt;11 -->
<g id="edge3" class="edge">
<title>1&#45;&gt;11</title>
<path fill="none" stroke="red" stroke-width="0.885496" stroke-dasharray="1,5" d="M214.371,-72.6881C218.42,-65.14 224.384,-54.0216 229.863,-43.8081"/>
<polygon fill="red" stroke="red" stroke-width="0.885496" points="233.046,-45.2777 234.689,-34.811 226.878,-41.9688 233.046,-45.2777"/>
</g>
<!-- 2 -->
<g id="node3" class="node">
<title>2</title>
<polygon fill="lightgrey" stroke="black" points="259,-90.7696 238,-90.7696 238,-72.7696 259,-72.7696 259,-90.7696"/>
<text text-anchor="middle" x="248.5" y="-78.6696" font-family="Times,serif" font-size="9.00">2</text>
</g>
<!-- 3 -->
<g id="node4" class="node">
<title>3</title>
<polygon fill="lightgrey" stroke="black" points="100.5,-90.7696 78.5,-90.7696 78.5,-72.7696 100.5,-72.7696 100.5,-90.7696"/>
<text text-anchor="middle" x="89.5" y="-78.6696" font-family="Times,serif" font-size="9.00">3</text>
</g>
<!-- 3&#45;&gt;8 -->
<g id="edge10" class="edge">
<title>3&#45;&gt;8</title>
<path fill="none" stroke="red" stroke-width="0.310093" stroke-dasharray="1,5" d="M96.3772,-72.6881C103.07,-63.85 113.47,-50.1167 122.136,-38.6726"/>
<polygon fill="red" stroke="red" stroke-width="0.310093" points="125.089,-40.5716 128.336,-30.4865 119.508,-36.3456 125.089,-40.5716"/>
</g>
<!-- 3&#45;&gt;9 -->
<g id="edge13" class="edge">
<title>3&#45;&gt;9</title>
<path fill="none" stroke="red" stroke-width="0.717435" stroke-dasharray="1,5" d="M89.5,-72.6881C89.5,-65.0662 89.5,-53.8038 89.5,-43.5087"/>
<polygon fill="red" stroke="red" stroke-width="0.717435" points="93.0001,-43.3233 89.5,-33.3233 86.0001,-43.3233 93.0001,-43.3233"/>
</g>
<!-- 4 -->
<g id="node5" class="node">
<title>4</title>
<polygon fill="lightgrey" stroke="black" points="180.5,-90.7696 158.5,-90.7696 158.5,-72.7696 180.5,-72.7696 180.5,-90.7696"/>
<text text-anchor="middle" x="169.5" y="-78.6696" font-family="Times,serif" font-size="9.00">4</text>
</g>
<!-- 4&#45;&gt;7 -->
<g id="edge2" class="edge">
<title>4&#45;&gt;7</title>
<path fill="none" stroke="red" stroke-width="0.279458" stroke-dasharray="1,5" d="M158.25,-76.9444C131.786,-65.5889 67.6523,-38.0336 65.5,-36.7696 64.3798,-36.1117 63.252,-35.4092 62.1283,-34.6768"/>
<polygon fill="red" stroke="red" stroke-width="0.279458" points="63.9675,-31.6894 53.7962,-28.7238 59.8981,-37.385 63.9675,-31.6894"/>
</g>
<!-- 4&#45;&gt;8 -->
<g id="edge15" class="edge">
<title>4&#45;&gt;8</title>
<path fill="none" stroke="red" stroke-width="0.327165" stroke-dasharray="1,5" d="M164.915,-72.6881C160.745,-64.4276 154.416,-51.8909 148.889,-40.9439"/>
<polygon fill="red" stroke="red" stroke-width="0.327165" points="151.945,-39.2299 144.313,-31.8804 145.696,-42.3847 151.945,-39.2299"/>
</g>
<!-- 4&#45;&gt;9 -->
<g id="edge4" class="edge">
<title>4&#45;&gt;9</title>
<path fill="none" stroke="red" stroke-width="0.702175" d="M158.376,-72.9562C145.698,-62.9107 124.731,-46.2986 109.255,-34.0369"/>
<polygon fill="red" stroke="red" stroke-width="0.702175" points="111.321,-31.2085 101.31,-27.7417 106.974,-36.6952 111.321,-31.2085"/>
</g>
<!-- 4&#45;&gt;10 -->
<g id="edge1" class="edge">
<title>4&#45;&gt;10</title>
<path fill="none" stroke="green" stroke-width="0.243922" d="M172.222,-72.6881C174.339,-65.6252 177.394,-55.4361 180.286,-45.7874"/>
<polygon fill="green" stroke="green" stroke-width="0.243922" points="183.676,-46.6657 183.195,-36.0818 176.971,-44.6557 183.676,-46.6657"/>
</g>
<!-- 5 -->
<g id="node6" class="node">
<title>5</title>
<polygon fill="lightgrey" stroke="black" points="60,-90.7696 39,-90.7696 39,-72.7696 60,-72.7696 60,-90.7696"/>
<text text-anchor="middle" x="49.5" y="-78.6696" font-family="Times,serif" font-size="9.00">5</text>
</g>
<!-- 5&#45;&gt;7 -->
<g id="edge7" class="edge">
<title>5&#45;&gt;7</title>
<path fill="none" stroke="red" stroke-width="0.267933" d="M48.3538,-72.6881C47.4175,-65.2695 46.0458,-54.4019 44.7752,-44.3343"/>
<polygon fill="red" stroke="red" stroke-width="0.267933" points="48.2348,-43.7934 43.51,-34.3104 41.2899,-44.67 48.2348,-43.7934"/>
</g>
<!-- 5&#45;&gt;9 -->
<g id="edge6" class="edge">
<title>5&#45;&gt;9</title>
<path fill="none" stroke="green" stroke-width="0.285432" stroke-dasharray="1,5" d="M55.231,-72.6881C60.6856,-64.0446 69.0948,-50.7193 76.2177,-39.4322"/>
<polygon fill="green" stroke="green" stroke-width="0.285432" points="79.1964,-41.2702 81.5734,-30.9454 73.2766,-37.5344 79.1964,-41.2702"/>
</g>
<!-- 6 -->
<g id="node7" class="node">
<title>6</title>
<polygon fill="lightgrey" stroke="black" points="140,-90.7696 119,-90.7696 119,-72.7696 140,-72.7696 140,-90.7696"/>
<text text-anchor="middle" x="129.5" y="-78.6696" font-family="Times,serif" font-size="9.00">6</text>
</g>
<!-- 6&#45;&gt;8 -->
<g id="edge5" class="edge">
<title>6&#45;&gt;8</title>
<path fill="none" stroke="green" stroke-width="0.274462" stroke-dasharray="1,5" d="M130.646,-72.6881C131.608,-65.0662 133.03,-53.8038 134.329,-43.5087"/>
<polygon fill="green" stroke="green" stroke-width="0.274462" points="137.835,-43.6829 135.615,-33.3233 130.89,-42.8063 137.835,-43.6829"/>
</g>
<!-- 6&#45;&gt;9 -->
<g id="edge8" class="edge">
<title>6&#45;&gt;9</title>
<path fill="none" stroke="red" stroke-width="0.351258" d="M123.769,-72.6881C118.314,-64.0446 109.905,-50.7193 102.782,-39.4322"/>
<polygon fill="red" stroke="red" stroke-width="0.351258" points="105.723,-37.5344 97.4266,-30.9454 99.8036,-41.2702 105.723,-37.5344"/>
</g>
</g>
</svg>
