<?xml version="1.0" encoding="UTF-8" standalone="no"?>
<!DOCTYPE svg PUBLIC "-//W3C//DTD SVG 1.1//EN"
 "http://www.w3.org/Graphics/SVG/1.1/DTD/svg11.dtd">
<!-- Generated by graphviz version 2.39.20160104.1625 (20160104.1625)
 -->
<!-- Title: %3 Pages: 1 -->
<svg width="1006pt" height="247pt"
 viewBox="0.00 0.00 1005.88 247.14" xmlns="http://www.w3.org/2000/svg" xmlns:xlink="http://www.w3.org/1999/xlink">
<g id="graph0" class="graph" transform="scale(1 1) rotate(0) translate(4 243.137)">
<title>%3</title>
<polygon fill="white" stroke="transparent" points="-4,4 -4,-243.137 1001.88,-243.137 1001.88,4 -4,4"/>
<!-- 0 -->
<g id="node1" class="node">
<title>0</title>
<polygon fill="lightgrey" stroke="black" points="297.885,-175.045 276.885,-175.045 276.885,-157.045 297.885,-157.045 297.885,-175.045"/>
<text text-anchor="middle" x="287.385" y="-162.945" font-family="Times,serif" font-size="9.00">0</text>
</g>
<!-- 24 -->
<g id="node25" class="node">
<title>24</title>
<ellipse fill="lightblue" stroke="lightblue" cx="298.385" cy="-91.8614" rx="18.2703" ry="18.2703"/>
<text text-anchor="middle" x="298.385" y="-88.7614" font-family="Times,serif" font-size="9.00">24</text>
</g>
<!-- 0&#45;&gt;24 -->
<g id="edge20" class="edge">
<title>0&#45;&gt;24</title>
<path fill="none" stroke="red" stroke-width="0.138198" d="M288.734,-156.949C290.092,-147.79 292.257,-133.187 294.193,-120.132"/>
<polygon fill="red" stroke="red" stroke-width="0.138198" points="297.672,-120.533 295.676,-110.128 290.747,-119.506 297.672,-120.533"/>
</g>
<!-- 1 -->
<g id="node2" class="node">
<title>1</title>
<polygon fill="lightgrey" stroke="black" points="485.885,-175.045 464.885,-175.045 464.885,-157.045 485.885,-157.045 485.885,-175.045"/>
<text text-anchor="middle" x="475.385" y="-162.945" font-family="Times,serif" font-size="9.00">1</text>
</g>
<!-- 1&#45;&gt;24 -->
<g id="edge8" class="edge">
<title>1&#45;&gt;24</title>
<path fill="none" stroke="green" stroke-width="1.61839" stroke-dasharray="1,5" d="M467.581,-156.846C464.158,-153.31 459.894,-149.512 455.385,-146.953 403.243,-117.364 379.555,-136.642 325.385,-110.953 324.188,-110.386 322.989,-109.766 321.795,-109.107"/>
<polygon fill="green" stroke="green" stroke-width="1.61839" points="323.28,-105.906 312.954,-103.536 319.548,-111.828 323.28,-105.906"/>
</g>
<!-- 26 -->
<g id="node27" class="node">
<title>26</title>
<ellipse fill="lightblue" stroke="lightblue" cx="423.385" cy="-18.3848" rx="18.2703" ry="18.2703"/>
<text text-anchor="middle" x="423.385" y="-15.2848" font-family="Times,serif" font-size="9.00">26</text>
</g>
<!-- 1&#45;&gt;26 -->
<g id="edge4" class="edge">
<title>1&#45;&gt;26</title>
<path fill="none" stroke="green" stroke-width="0.365808" stroke-dasharray="1,5" d="M466.013,-157.005C450.234,-141.759 420.007,-112.439 419.385,-110.953 410.783,-90.4238 412.649,-65.042 416.179,-46.0517"/>
<polygon fill="green" stroke="green" stroke-width="0.365808" points="419.611,-46.7383 418.256,-36.2305 412.763,-45.29 419.611,-46.7383"/>
</g>
<!-- 33 -->
<g id="node30" class="node">
<title>33</title>
<ellipse fill="none" stroke="black" cx="599.385" cy="-91.8614" rx="19.1842" ry="19.1842"/>
<text text-anchor="middle" x="599.385" y="-88.7614" font-family="Times,serif" font-size="9.00">33</text>
</g>
<!-- 1&#45;&gt;33 -->
<g id="edge16" class="edge">
<title>1&#45;&gt;33</title>
<path fill="none" stroke="red" stroke-width="0.405299" d="M485.957,-159.72C505.237,-148.186 546.613,-123.432 573.703,-107.226"/>
<polygon fill="red" stroke="red" stroke-width="0.405299" points="575.845,-110.023 582.629,-101.885 572.251,-104.016 575.845,-110.023"/>
</g>
<!-- 31 -->
<g id="node33" class="node">
<title>31</title>
<ellipse fill="none" stroke="black" cx="353.385" cy="-91.8614" rx="19.1842" ry="19.1842"/>
<text text-anchor="middle" x="353.385" y="-88.7614" font-family="Times,serif" font-size="9.00">31</text>
</g>
<!-- 1&#45;&gt;31 -->
<g id="edge26" class="edge">
<title>1&#45;&gt;31</title>
<path fill="none" stroke="green" stroke-width="0.522763" d="M466.898,-156.92C463.505,-153.556 459.443,-149.86 455.385,-146.953 427.264,-126.812 416.695,-127.618 386.385,-110.953 383.967,-109.624 381.461,-108.221 378.961,-106.804"/>
<polygon fill="green" stroke="green" stroke-width="0.522763" points="380.508,-103.657 370.092,-101.716 377.025,-109.729 380.508,-103.657"/>
</g>
<!-- 2 -->
<g id="node3" class="node">
<title>2</title>
<polygon fill="lightgrey" stroke="black" points="175.885,-175.045 154.885,-175.045 154.885,-157.045 175.885,-157.045 175.885,-175.045"/>
<text text-anchor="middle" x="165.385" y="-162.945" font-family="Times,serif" font-size="9.00">2</text>
</g>
<!-- 2&#45;&gt;24 -->
<g id="edge35" class="edge">
<title>2&#45;&gt;24</title>
<path fill="none" stroke="red" stroke-width="0.3125" d="M176.192,-156.91C180.457,-153.544 185.499,-149.85 190.385,-146.953 224.271,-126.861 237.135,-130.42 271.385,-110.953 272.664,-110.226 273.957,-109.454 275.249,-108.652"/>
<polygon fill="red" stroke="red" stroke-width="0.3125" points="277.201,-111.557 283.593,-103.108 273.327,-105.727 277.201,-111.557"/>
</g>
<!-- 2&#45;&gt;26 -->
<g id="edge17" class="edge">
<title>2&#45;&gt;26</title>
<path fill="none" stroke="green" stroke-width="0.575394" stroke-dasharray="1,5" d="M162.726,-156.764C158.06,-138.313 150.729,-96.7408 171.385,-72.7696 200.264,-39.2543 334.824,-25.0699 394.618,-20.3474"/>
<polygon fill="green" stroke="green" stroke-width="0.575394" points="395.163,-23.8163 404.871,-19.5732 394.636,-16.8362 395.163,-23.8163"/>
</g>
<!-- 27 -->
<g id="node28" class="node">
<title>27</title>
<ellipse fill="lightblue" stroke="lightblue" cx="85.3848" cy="-91.8614" rx="18.2703" ry="18.2703"/>
<text text-anchor="middle" x="85.3848" y="-88.7614" font-family="Times,serif" font-size="9.00">27</text>
</g>
<!-- 2&#45;&gt;27 -->
<g id="edge28" class="edge">
<title>2&#45;&gt;27</title>
<path fill="none" stroke="green" stroke-width="0.314447" d="M155.655,-156.685C152.402,-153.575 148.749,-150.103 145.385,-146.953 132.635,-135.017 118.223,-121.776 106.72,-111.267"/>
<polygon fill="green" stroke="green" stroke-width="0.314447" points="109.024,-108.631 99.277,-104.477 104.306,-113.802 109.024,-108.631"/>
</g>
<!-- 34 -->
<g id="node34" class="node">
<title>34</title>
<ellipse fill="none" stroke="black" cx="243.385" cy="-91.8614" rx="19.1842" ry="19.1842"/>
<text text-anchor="middle" x="243.385" y="-88.7614" font-family="Times,serif" font-size="9.00">34</text>
</g>
<!-- 2&#45;&gt;34 -->
<g id="edge14" class="edge">
<title>2&#45;&gt;34</title>
<path fill="none" stroke="red" stroke-width="0.139729" d="M174.949,-156.949C186.589,-145.879 206.591,-126.855 221.975,-112.224"/>
<polygon fill="red" stroke="red" stroke-width="0.139729" points="224.696,-114.466 229.53,-105.039 219.872,-109.394 224.696,-114.466"/>
</g>
<!-- 3 -->
<g id="node4" class="node">
<title>3</title>
<polygon fill="lightgrey" stroke="black" points="919.385,-239.137 897.385,-239.137 897.385,-221.137 919.385,-221.137 919.385,-239.137"/>
<text text-anchor="middle" x="908.385" y="-227.037" font-family="Times,serif" font-size="9.00">3</text>
</g>
<!-- 4 -->
<g id="node5" class="node">
<title>4</title>
<polygon fill="lightgrey" stroke="black" points="795.385,-239.137 773.385,-239.137 773.385,-221.137 795.385,-221.137 795.385,-239.137"/>
<text text-anchor="middle" x="784.385" y="-227.037" font-family="Times,serif" font-size="9.00">4</text>
</g>
<!-- 25 -->
<g id="node26" class="node">
<title>25</title>
<ellipse fill="lightblue" stroke="lightblue" cx="824.385" cy="-166.045" rx="18.2703" ry="18.2703"/>
<text text-anchor="middle" x="824.385" y="-162.945" font-family="Times,serif" font-size="9.00">25</text>
</g>
<!-- 4&#45;&gt;25 -->
<g id="edge34" class="edge">
<title>4&#45;&gt;25</title>
<path fill="none" stroke="green" stroke-width="2.87324" d="M790.116,-220.954C795.111,-212.95 802.585,-200.975 809.279,-190.249"/>
<polygon fill="green" stroke="green" stroke-width="2.87324" points="812.322,-191.984 814.648,-181.647 806.384,-188.277 812.322,-191.984"/>
</g>
<!-- 5 -->
<g id="node6" class="node">
<title>5</title>
<polygon fill="lightgrey" stroke="black" points="523.885,-100.861 502.885,-100.861 502.885,-82.8614 523.885,-82.8614 523.885,-100.861"/>
<text text-anchor="middle" x="513.385" y="-88.7614" font-family="Times,serif" font-size="9.00">5</text>
</g>
<!-- 5&#45;&gt;26 -->
<g id="edge13" class="edge">
<title>5&#45;&gt;26</title>
<path fill="none" stroke="green" stroke-width="0.820956" stroke-dasharray="1,5" d="M504.207,-82.7244C500.868,-79.5021 497.021,-75.9034 493.385,-72.7696 478.228,-59.7068 460.412,-45.8847 446.546,-35.444"/>
<polygon fill="green" stroke="green" stroke-width="0.820956" points="448.588,-32.6004 438.482,-29.4171 444.397,-38.2074 448.588,-32.6004"/>
</g>
<!-- 6 -->
<g id="node7" class="node">
<title>6</title>
<polygon fill="lightgrey" stroke="black" points="958.885,-239.137 937.885,-239.137 937.885,-221.137 958.885,-221.137 958.885,-239.137"/>
<text text-anchor="middle" x="948.385" y="-227.037" font-family="Times,serif" font-size="9.00">6</text>
</g>
<!-- 7 -->
<g id="node8" class="node">
<title>7</title>
<polygon fill="lightgrey" stroke="black" points="525.385,-239.137 503.385,-239.137 503.385,-221.137 525.385,-221.137 525.385,-239.137"/>
<text text-anchor="middle" x="514.385" y="-227.037" font-family="Times,serif" font-size="9.00">7</text>
</g>
<!-- 7&#45;&gt;26 -->
<g id="edge41" class="edge">
<title>7&#45;&gt;26</title>
<path fill="none" stroke="green" stroke-width="0.413587" d="M519.04,-221.114C531.49,-195.605 562.621,-121.646 532.385,-72.7696 514.881,-44.4746 477.725,-30.4174 451.682,-23.7845"/>
<polygon fill="green" stroke="green" stroke-width="0.413587" points="452.164,-20.3032 441.631,-21.4479 450.579,-27.1214 452.164,-20.3032"/>
</g>
<!-- 28 -->
<g id="node29" class="node">
<title>28</title>
<ellipse fill="lightblue" stroke="lightblue" cx="428.385" cy="-166.045" rx="18.2703" ry="18.2703"/>
<text text-anchor="middle" x="428.385" y="-162.945" font-family="Times,serif" font-size="9.00">28</text>
</g>
<!-- 7&#45;&gt;28 -->
<g id="edge25" class="edge">
<title>7&#45;&gt;28</title>
<path fill="none" stroke="green" stroke-width="1.76842" d="M503.142,-221.758C490.115,-212.05 468.301,-195.793 451.59,-183.339"/>
<polygon fill="green" stroke="green" stroke-width="1.76842" points="453.499,-180.397 443.389,-177.227 449.316,-186.01 453.499,-180.397"/>
</g>
<!-- 30 -->
<g id="node31" class="node">
<title>30</title>
<ellipse fill="none" stroke="black" cx="447.385" cy="-91.8614" rx="19.1842" ry="19.1842"/>
<text text-anchor="middle" x="447.385" y="-88.7614" font-family="Times,serif" font-size="9.00">30</text>
</g>
<!-- 7&#45;&gt;30 -->
<g id="edge44" class="edge">
<title>7&#45;&gt;30</title>
<path fill="none" stroke="red" stroke-width="0.559855" stroke-dasharray="1,5" d="M513.584,-220.914C511.904,-205.033 507.059,-171.835 494.385,-146.953 487.901,-134.224 477.914,-121.942 468.81,-112.217"/>
<polygon fill="red" stroke="red" stroke-width="0.559855" points="471.269,-109.725 461.783,-105.006 466.256,-114.611 471.269,-109.725"/>
</g>
<!-- 8 -->
<g id="node9" class="node">
<title>8</title>
<polygon fill="lightgrey" stroke="black" points="997.885,-239.137 976.885,-239.137 976.885,-221.137 997.885,-221.137 997.885,-239.137"/>
<text text-anchor="middle" x="987.385" y="-227.037" font-family="Times,serif" font-size="9.00">8</text>
</g>
<!-- 9 -->
<g id="node10" class="node">
<title>9</title>
<polygon fill="lightgrey" stroke="black" points="834.885,-239.137 813.885,-239.137 813.885,-221.137 834.885,-221.137 834.885,-239.137"/>
<text text-anchor="middle" x="824.385" y="-227.037" font-family="Times,serif" font-size="9.00">9</text>
</g>
<!-- 9&#45;&gt;25 -->
<g id="edge22" class="edge">
<title>9&#45;&gt;25</title>
<path fill="none" stroke="red" stroke-width="0.515911" d="M824.385,-220.954C824.385,-213.989 824.385,-204.018 824.385,-194.479"/>
<polygon fill="red" stroke="red" stroke-width="0.515911" points="827.885,-194.461 824.385,-184.461 820.885,-194.461 827.885,-194.461"/>
</g>
<!-- 10 -->
<g id="node11" class="node">
<title>10</title>
<polygon fill="lightgrey" stroke="black" points="879.385,-239.137 853.385,-239.137 853.385,-221.137 879.385,-221.137 879.385,-239.137"/>
<text text-anchor="middle" x="866.385" y="-227.037" font-family="Times,serif" font-size="9.00">10</text>
</g>
<!-- 10&#45;&gt;25 -->
<g id="edge43" class="edge">
<title>10&#45;&gt;25</title>
<path fill="none" stroke="green" stroke-width="1.16061" d="M860.367,-220.954C855.122,-212.95 847.274,-200.975 840.246,-190.249"/>
<polygon fill="green" stroke="green" stroke-width="1.16061" points="843.017,-188.093 834.609,-181.647 837.162,-191.929 843.017,-188.093"/>
</g>
<!-- 11 -->
<g id="node12" class="node">
<title>11</title>
<polygon fill="lightgrey" stroke="black" points="744.385,-175.045 718.385,-175.045 718.385,-157.045 744.385,-157.045 744.385,-175.045"/>
<text text-anchor="middle" x="731.385" y="-162.945" font-family="Times,serif" font-size="9.00">11</text>
</g>
<!-- 22 -->
<g id="node23" class="node">
<title>22</title>
<ellipse fill="lightblue" stroke="lightblue" cx="692.385" cy="-91.8614" rx="18.2703" ry="18.2703"/>
<text text-anchor="middle" x="692.385" y="-88.7614" font-family="Times,serif" font-size="9.00">22</text>
</g>
<!-- 11&#45;&gt;22 -->
<g id="edge21" class="edge">
<title>11&#45;&gt;22</title>
<path fill="none" stroke="green" stroke-width="0.129372" d="M726.603,-156.949C721.446,-147.141 713.008,-131.09 705.801,-117.382"/>
<polygon fill="green" stroke="green" stroke-width="0.129372" points="708.816,-115.594 701.064,-108.371 702.62,-118.851 708.816,-115.594"/>
</g>
<!-- 23 -->
<g id="node24" class="node">
<title>23</title>
<ellipse fill="lightblue" stroke="lightblue" cx="775.385" cy="-91.8614" rx="18.2703" ry="18.2703"/>
<text text-anchor="middle" x="775.385" y="-88.7614" font-family="Times,serif" font-size="9.00">23</text>
</g>
<!-- 11&#45;&gt;23 -->
<g id="edge12" class="edge">
<title>11&#45;&gt;23</title>
<path fill="none" stroke="green" stroke-width="0.151523" stroke-dasharray="1,5" d="M736.78,-156.949C742.729,-146.92 752.549,-130.362 760.796,-116.457"/>
<polygon fill="green" stroke="green" stroke-width="0.151523" points="763.841,-118.185 765.932,-107.798 757.82,-114.614 763.841,-118.185"/>
</g>
<!-- 12 -->
<g id="node13" class="node">
<title>12</title>
<polygon fill="lightgrey" stroke="black" points="788.385,-175.045 762.385,-175.045 762.385,-157.045 788.385,-157.045 788.385,-175.045"/>
<text text-anchor="middle" x="775.385" y="-162.945" font-family="Times,serif" font-size="9.00">12</text>
</g>
<!-- 12&#45;&gt;23 -->
<g id="edge46" class="edge">
<title>12&#45;&gt;23</title>
<path fill="none" stroke="green" stroke-width="1.05454" d="M775.385,-156.949C775.385,-147.941 775.385,-133.668 775.385,-120.78"/>
<polygon fill="green" stroke="green" stroke-width="1.05454" points="778.885,-120.426 775.385,-110.426 771.885,-120.426 778.885,-120.426"/>
</g>
<!-- 13 -->
<g id="node14" class="node">
<title>13</title>
<polygon fill="lightgrey" stroke="black" points="700.385,-175.045 674.385,-175.045 674.385,-157.045 700.385,-157.045 700.385,-175.045"/>
<text text-anchor="middle" x="687.385" y="-162.945" font-family="Times,serif" font-size="9.00">13</text>
</g>
<!-- 13&#45;&gt;22 -->
<g id="edge1" class="edge">
<title>13&#45;&gt;22</title>
<path fill="none" stroke="green" stroke-width="2.65533" d="M687.998,-156.949C688.605,-147.941 689.567,-133.668 690.436,-120.78"/>
<polygon fill="green" stroke="green" stroke-width="2.65533" points="693.953,-120.638 691.134,-110.426 686.969,-120.168 693.953,-120.638"/>
</g>
<!-- 13&#45;&gt;33 -->
<g id="edge2" class="edge">
<title>13&#45;&gt;33</title>
<path fill="none" stroke="green" stroke-width="0.213879" d="M676.594,-156.949C663.105,-145.578 639.661,-125.814 622.135,-111.04"/>
<polygon fill="green" stroke="green" stroke-width="0.213879" points="623.978,-108.016 614.077,-104.247 619.467,-113.368 623.978,-108.016"/>
</g>
<!-- 14 -->
<g id="node15" class="node">
<title>14</title>
<polygon fill="lightgrey" stroke="black" points="31.3848,-239.137 5.38478,-239.137 5.38478,-221.137 31.3848,-221.137 31.3848,-239.137"/>
<text text-anchor="middle" x="18.3848" y="-227.037" font-family="Times,serif" font-size="9.00">14</text>
</g>
<!-- 29 -->
<g id="node35" class="node">
<title>29</title>
<ellipse fill="none" stroke="black" cx="18.3848" cy="-166.045" rx="18.2703" ry="18.2703"/>
<text text-anchor="middle" x="18.3848" y="-162.945" font-family="Times,serif" font-size="9.00">29</text>
</g>
<!-- 14&#45;&gt;29 -->
<g id="edge37" class="edge">
<title>14&#45;&gt;29</title>
<path fill="none" stroke="red" stroke-width="0.371964" d="M18.3848,-220.954C18.3848,-213.989 18.3848,-204.018 18.3848,-194.479"/>
<polygon fill="red" stroke="red" stroke-width="0.371964" points="21.8849,-194.461 18.3848,-184.461 14.8849,-194.461 21.8849,-194.461"/>
</g>
<!-- 15 -->
<g id="node16" class="node">
<title>15</title>
<polygon fill="lightgrey" stroke="black" points="281.385,-239.137 255.385,-239.137 255.385,-221.137 281.385,-221.137 281.385,-239.137"/>
<text text-anchor="middle" x="268.385" y="-227.037" font-family="Times,serif" font-size="9.00">15</text>
</g>
<!-- 15&#45;&gt;24 -->
<g id="edge39" class="edge">
<title>15&#45;&gt;24</title>
<path fill="none" stroke="green" stroke-width="1.46276" d="M255.321,-221.573C244.471,-213.608 229.811,-200.653 223.385,-185.137 216.89,-169.458 215.72,-162.094 223.385,-146.953 224.118,-145.506 253.474,-124.174 275.236,-108.488"/>
<polygon fill="green" stroke="green" stroke-width="1.46276" points="277.345,-111.282 283.415,-102.599 273.255,-105.601 277.345,-111.282"/>
</g>
<!-- 32 -->
<g id="node32" class="node">
<title>32</title>
<ellipse fill="none" stroke="black" cx="373.385" cy="-166.045" rx="19.1842" ry="19.1842"/>
<text text-anchor="middle" x="373.385" y="-162.945" font-family="Times,serif" font-size="9.00">32</text>
</g>
<!-- 15&#45;&gt;32 -->
<g id="edge7" class="edge">
<title>15&#45;&gt;32</title>
<path fill="none" stroke="red" stroke-width="0.204583" d="M281.683,-222.02C298.315,-211.867 327.143,-194.271 348.045,-181.513"/>
<polygon fill="red" stroke="red" stroke-width="0.204583" points="350.026,-184.404 356.738,-176.206 346.379,-178.429 350.026,-184.404"/>
</g>
<!-- 16 -->
<g id="node17" class="node">
<title>16</title>
<polygon fill="lightgrey" stroke="black" points="390.385,-239.137 364.385,-239.137 364.385,-221.137 390.385,-221.137 390.385,-239.137"/>
<text text-anchor="middle" x="377.385" y="-227.037" font-family="Times,serif" font-size="9.00">16</text>
</g>
<!-- 16&#45;&gt;24 -->
<g id="edge15" class="edge">
<title>16&#45;&gt;24</title>
<path fill="none" stroke="red" stroke-width="0.408267" d="M370.344,-221.105C363.561,-212.21 353.204,-198.109 345.385,-185.137 332.152,-163.184 319.203,-137.034 310.258,-118.017"/>
<polygon fill="red" stroke="red" stroke-width="0.408267" points="313.355,-116.375 305.966,-108.782 307.007,-119.326 313.355,-116.375"/>
</g>
<!-- 16&#45;&gt;28 -->
<g id="edge10" class="edge">
<title>16&#45;&gt;28</title>
<path fill="none" stroke="green" stroke-width="0.353901" d="M384.692,-220.954C391.364,-212.569 401.504,-199.827 410.336,-188.727"/>
<polygon fill="green" stroke="green" stroke-width="0.353901" points="413.268,-190.663 416.756,-180.659 407.791,-186.304 413.268,-190.663"/>
</g>
<!-- 17 -->
<g id="node18" class="node">
<title>17</title>
<polygon fill="lightgrey" stroke="black" points="136.385,-175.045 110.385,-175.045 110.385,-157.045 136.385,-157.045 136.385,-175.045"/>
<text text-anchor="middle" x="123.385" y="-162.945" font-family="Times,serif" font-size="9.00">17</text>
</g>
<!-- 17&#45;&gt;24 -->
<g id="edge23" class="edge">
<title>17&#45;&gt;24</title>
<path fill="none" stroke="green" stroke-width="1.62005" d="M132.127,-156.889C135.917,-153.36 140.583,-149.555 145.385,-146.953 196.593,-119.209 218.863,-136.123 271.385,-110.953 272.579,-110.381 273.777,-109.757 274.968,-109.095"/>
<polygon fill="green" stroke="green" stroke-width="1.62005" points="277.22,-111.813 283.804,-103.512 273.481,-105.895 277.22,-111.813"/>
</g>
<!-- 17&#45;&gt;27 -->
<g id="edge36" class="edge">
<title>17&#45;&gt;27</title>
<path fill="none" stroke="green" stroke-width="0.911414" d="M118.725,-156.949C113.701,-147.141 105.479,-131.09 98.4572,-117.382"/>
<polygon fill="green" stroke="green" stroke-width="0.911414" points="101.516,-115.676 93.8418,-108.371 95.2858,-118.867 101.516,-115.676"/>
</g>
<!-- 18 -->
<g id="node19" class="node">
<title>18</title>
<polygon fill="lightgrey" stroke="black" points="258.385,-175.045 232.385,-175.045 232.385,-157.045 258.385,-157.045 258.385,-175.045"/>
<text text-anchor="middle" x="245.385" y="-162.945" font-family="Times,serif" font-size="9.00">18</text>
</g>
<!-- 18&#45;&gt;24 -->
<g id="edge31" class="edge">
<title>18&#45;&gt;24</title>
<path fill="none" stroke="red" stroke-width="0.966183" d="M251.884,-156.949C259.254,-146.632 271.561,-129.407 281.663,-115.267"/>
<polygon fill="red" stroke="red" stroke-width="0.966183" points="284.638,-117.123 287.604,-106.952 278.942,-113.054 284.638,-117.123"/>
</g>
<!-- 19 -->
<g id="node20" class="node">
<title>19</title>
<polygon fill="lightgrey" stroke="black" points="659.385,-239.137 633.385,-239.137 633.385,-221.137 659.385,-221.137 659.385,-239.137"/>
<text text-anchor="middle" x="646.385" y="-227.037" font-family="Times,serif" font-size="9.00">19</text>
</g>
<!-- 19&#45;&gt;25 -->
<g id="edge24" class="edge">
<title>19&#45;&gt;25</title>
<path fill="none" stroke="green" stroke-width="0.227943" d="M659.435,-227.743C686.269,-222.505 749.167,-208.581 797.385,-185.137 798.576,-184.558 799.771,-183.929 800.96,-183.262"/>
<polygon fill="green" stroke="green" stroke-width="0.227943" points="803.219,-185.975 809.788,-177.663 799.469,-180.063 803.219,-185.975"/>
</g>
<!-- 19&#45;&gt;26 -->
<g id="edge5" class="edge">
<title>19&#45;&gt;26</title>
<path fill="none" stroke="green" stroke-width="2.86077" d="M648.436,-220.946C653.79,-194.343 665.282,-116.399 627.385,-72.7696 604.44,-46.354 502.256,-29.0906 451.785,-22.0205"/>
<polygon fill="green" stroke="green" stroke-width="2.86077" points="452.228,-18.5486 441.847,-20.6669 451.283,-25.4845 452.228,-18.5486"/>
</g>
<!-- 19&#45;&gt;32 -->
<g id="edge33" class="edge">
<title>19&#45;&gt;32</title>
<path fill="none" stroke="green" stroke-width="0.14544" d="M633.365,-229.632C595.906,-227.789 485.181,-219.586 401.385,-185.137 399.99,-184.564 398.595,-183.914 397.212,-183.209"/>
<polygon fill="green" stroke="green" stroke-width="0.14544" points="398.805,-180.084 388.422,-177.973 395.222,-186.098 398.805,-180.084"/>
</g>
<!-- 20 -->
<g id="node21" class="node">
<title>20</title>
<polygon fill="lightgrey" stroke="black" points="206.385,-100.861 180.385,-100.861 180.385,-82.8614 206.385,-82.8614 206.385,-100.861"/>
<text text-anchor="middle" x="193.385" y="-88.7614" font-family="Times,serif" font-size="9.00">20</text>
</g>
<!-- 20&#45;&gt;26 -->
<g id="edge18" class="edge">
<title>20&#45;&gt;26</title>
<path fill="none" stroke="red" stroke-width="0.788311" stroke-dasharray="1,5" d="M202.098,-82.6507C205.883,-79.113 210.554,-75.317 215.385,-72.7696 274.763,-41.4599 353.367,-27.3008 394.879,-21.6475"/>
<polygon fill="red" stroke="red" stroke-width="0.788311" points="395.371,-25.1131 404.84,-20.3588 394.473,-18.1709 395.371,-25.1131"/>
</g>
<!-- 21 -->
<g id="node22" class="node">
<title>21</title>
<polygon fill="lightgrey" stroke="black" points="85.3848,-239.137 59.3848,-239.137 59.3848,-221.137 85.3848,-221.137 85.3848,-239.137"/>
<text text-anchor="middle" x="72.3848" y="-227.037" font-family="Times,serif" font-size="9.00">21</text>
</g>
<!-- 21&#45;&gt;27 -->
<g id="edge19" class="edge">
<title>21&#45;&gt;27</title>
<path fill="none" stroke="green" stroke-width="0.807046" d="M73.2377,-221.064C75.1257,-200.983 79.7248,-152.064 82.6911,-120.513"/>
<polygon fill="green" stroke="green" stroke-width="0.807046" points="86.1767,-120.83 83.6282,-110.546 79.2074,-120.174 86.1767,-120.83"/>
</g>
<!-- 21&#45;&gt;29 -->
<g id="edge42" class="edge">
<title>21&#45;&gt;29</title>
<path fill="none" stroke="green" stroke-width="0.329223" stroke-dasharray="1,5" d="M64.6479,-220.954C57.42,-212.376 46.3492,-199.236 36.8496,-187.961"/>
<polygon fill="green" stroke="green" stroke-width="0.329223" points="39.4075,-185.565 30.2875,-180.172 34.0542,-190.075 39.4075,-185.565"/>
</g>
<!-- 22&#45;&gt;26 -->
<g id="edge6" class="edge">
<title>22&#45;&gt;26</title>
<path fill="none" stroke="green" stroke-width="0.466965" d="M676.939,-81.3231C671.842,-78.2109 666.028,-75.035 660.385,-72.7696 588.21,-43.7955 497.175,-28.3582 451.804,-21.9797"/>
<polygon fill="green" stroke="green" stroke-width="0.466965" points="452.187,-18.4995 441.806,-20.618 451.242,-25.4355 452.187,-18.4995"/>
</g>
<!-- 25&#45;&gt;23 -->
<g id="edge11" class="edge">
<title>25&#45;&gt;23</title>
<path fill="none" stroke="green" stroke-width="1.60846" d="M814.232,-150.674C807.596,-140.628 798.793,-127.3 791.244,-115.871"/>
<polygon fill="green" stroke="green" stroke-width="1.60846" points="793.957,-113.628 785.525,-107.213 788.116,-117.486 793.957,-113.628"/>
</g>
<!-- 27&#45;&gt;27 -->
<g id="edge38" class="edge">
<title>27&#45;&gt;27</title>
<path fill="none" stroke="green" stroke-width="0.514354" d="M99.5766,-103.618C110.564,-108.015 121.77,-104.096 121.77,-91.8614 121.77,-83.4503 116.473,-78.9696 109.592,-78.4192"/>
<polygon fill="green" stroke="green" stroke-width="0.514354" points="108.857,-74.9937 99.5766,-80.105 110.019,-81.8966 108.857,-74.9937"/>
</g>
<!-- 28&#45;&gt;31 -->
<g id="edge30" class="edge">
<title>28&#45;&gt;31</title>
<path fill="none" stroke="green" stroke-width="0.47749" d="M414.976,-152.783C403.705,-141.634 387.399,-125.506 374.396,-112.644"/>
<polygon fill="green" stroke="green" stroke-width="0.47749" points="376.756,-110.055 367.185,-105.511 371.833,-115.032 376.756,-110.055"/>
</g>
<!-- 30&#45;&gt;26 -->
<g id="edge3" class="edge">
<title>30&#45;&gt;26</title>
<path fill="none" stroke="red" stroke-width="1.66008" d="M441.452,-73.6987C438.7,-65.2723 435.37,-55.0766 432.322,-45.7459"/>
<polygon fill="red" stroke="red" stroke-width="1.66008" points="435.598,-44.5041 429.166,-36.0851 428.944,-46.6776 435.598,-44.5041"/>
</g>
<!-- 30&#45;&gt;30 -->
<g id="edge45" class="edge">
<title>30&#45;&gt;30</title>
<path fill="none" stroke="red" stroke-width="0.810724" d="M462.625,-103.908C473.572,-107.83 484.477,-103.815 484.477,-91.8614 484.477,-83.6437 479.323,-79.1777 472.544,-78.4634"/>
<polygon fill="red" stroke="red" stroke-width="0.810724" points="472.061,-74.9968 462.625,-79.8149 473.006,-81.9327 472.061,-74.9968"/>
</g>
<!-- 32&#45;&gt;24 -->
<g id="edge32" class="edge">
<title>32&#45;&gt;24</title>
<path fill="none" stroke="green" stroke-width="0.662763" d="M359.629,-152.439C348.175,-141.11 331.701,-124.815 318.723,-111.979"/>
<polygon fill="green" stroke="green" stroke-width="0.662763" points="321.122,-109.428 311.551,-104.884 316.199,-114.405 321.122,-109.428"/>
</g>
<!-- 31&#45;&gt;26 -->
<g id="edge9" class="edge">
<title>31&#45;&gt;26</title>
<path fill="none" stroke="green" stroke-width="0.326838" d="M366.881,-77.6944C377.18,-66.8844 391.534,-51.8177 403.197,-39.5755"/>
<polygon fill="green" stroke="green" stroke-width="0.326838" points="406.039,-41.666 410.403,-32.0115 400.971,-36.8376 406.039,-41.666"/>
</g>
<!-- 34&#45;&gt;26 -->
<g id="edge29" class="edge">
<title>34&#45;&gt;26</title>
<path fill="none" stroke="green" stroke-width="0.325246" d="M258.943,-80.2263C262.883,-77.571 267.19,-74.9055 271.385,-72.7696 312.896,-51.6298 364.578,-35.0151 395.725,-25.9608"/>
<polygon fill="green" stroke="green" stroke-width="0.325246" points="396.801,-29.2938 405.457,-23.1845 394.88,-22.5624 396.801,-29.2938"/>
</g>
<!-- 29&#45;&gt;27 -->
<g id="edge27" class="edge">
<title>29&#45;&gt;27</title>
<path fill="none" stroke="green" stroke-width="0.239399" d="M30.987,-152.092C40.8131,-141.212 54.6331,-125.91 65.8843,-113.453"/>
<polygon fill="green" stroke="green" stroke-width="0.239399" points="68.7339,-115.519 72.8391,-105.752 63.539,-110.828 68.7339,-115.519"/>
</g>
<!-- 29&#45;&gt;29 -->
<g id="edge40" class="edge">
<title>29&#45;&gt;29</title>
<path fill="none" stroke="red" stroke-width="0.141748" d="M33.3345,-176.753C44.0729,-180.24 54.7696,-176.67 54.7696,-166.045 54.7696,-158.907 49.9409,-154.953 43.5152,-154.184"/>
<polygon fill="red" stroke="red" stroke-width="0.141748" points="42.8772,-150.734 33.3345,-155.337 43.6649,-157.69 42.8772,-150.734"/>
</g>
</g>
</svg>
