<?xml version="1.0" encoding="UTF-8" standalone="no"?>
<!DOCTYPE svg PUBLIC "-//W3C//DTD SVG 1.1//EN"
 "http://www.w3.org/Graphics/SVG/1.1/DTD/svg11.dtd">
<!-- Generated by graphviz version 2.39.20160104.1625 (20160104.1625)
 -->
<!-- Title: %3 Pages: 1 -->
<svg width="497pt" height="239pt"
 viewBox="0.00 0.00 496.98 238.65" xmlns="http://www.w3.org/2000/svg" xmlns:xlink="http://www.w3.org/1999/xlink">
<g id="graph0" class="graph" transform="scale(1 1) rotate(0) translate(4 234.652)">
<title>%3</title>
<polygon fill="white" stroke="transparent" points="-4,4 -4,-234.652 492.982,-234.652 492.982,4 -4,4"/>
<!-- 0 -->
<g id="node1" class="node">
<title>0</title>
<polygon fill="lightgrey" stroke="black" points="151.728,-230.652 130.728,-230.652 130.728,-212.652 151.728,-212.652 151.728,-230.652"/>
<text text-anchor="middle" x="141.228" y="-218.552" font-family="Times,serif" font-size="9.00">0</text>
</g>
<!-- 9 -->
<g id="node10" class="node">
<title>9</title>
<ellipse fill="lightblue" stroke="lightblue" cx="93.2282" cy="-85.4975" rx="14.7" ry="14.7"/>
<text text-anchor="middle" x="93.2282" y="-82.3975" font-family="Times,serif" font-size="9.00">9</text>
</g>
<!-- 0&#45;&gt;9 -->
<g id="edge27" class="edge">
<title>0&#45;&gt;9</title>
<path fill="none" stroke="green" stroke-width="0.19685" stroke-dasharray="1,5" d="M130.676,-218.187C115.027,-212.407 86.2229,-199.157 74.2282,-176.652 62.6385,-154.906 71.5866,-126.739 80.724,-107.507"/>
<polygon fill="green" stroke="green" stroke-width="0.19685" points="83.9722,-108.843 85.4117,-98.346 77.7406,-105.654 83.9722,-108.843"/>
</g>
<!-- 10 -->
<g id="node11" class="node">
<title>10</title>
<ellipse fill="lightblue" stroke="lightblue" cx="303.228" cy="-85.4975" rx="18.2703" ry="18.2703"/>
<text text-anchor="middle" x="303.228" y="-82.3975" font-family="Times,serif" font-size="9.00">10</text>
</g>
<!-- 0&#45;&gt;10 -->
<g id="edge9" class="edge">
<title>0&#45;&gt;10</title>
<path fill="none" stroke="red" stroke-width="0.945748" d="M151.775,-219.294C171.899,-214.357 216.341,-201.293 245.228,-176.652 265.954,-158.972 281.831,-132.014 291.69,-111.996"/>
<polygon fill="red" stroke="red" stroke-width="0.945748" points="294.929,-113.333 296.042,-102.797 288.601,-110.34 294.929,-113.333"/>
</g>
<!-- 15 -->
<g id="node13" class="node">
<title>15</title>
<ellipse fill="none" stroke="black" cx="141.228" cy="-158.267" rx="18.2703" ry="18.2703"/>
<text text-anchor="middle" x="141.228" y="-155.167" font-family="Times,serif" font-size="9.00">15</text>
</g>
<!-- 0&#45;&gt;15 -->
<g id="edge19" class="edge">
<title>0&#45;&gt;15</title>
<path fill="none" stroke="green" stroke-width="0.421006" d="M141.228,-212.57C141.228,-205.805 141.228,-196.172 141.228,-186.893"/>
<polygon fill="green" stroke="green" stroke-width="0.421006" points="144.728,-186.739 141.228,-176.739 137.728,-186.739 144.728,-186.739"/>
</g>
<!-- 1 -->
<g id="node2" class="node">
<title>1</title>
<polygon fill="lightgrey" stroke="black" points="466.728,-167.267 445.728,-167.267 445.728,-149.267 466.728,-149.267 466.728,-167.267"/>
<text text-anchor="middle" x="456.228" y="-155.167" font-family="Times,serif" font-size="9.00">1</text>
</g>
<!-- 7 -->
<g id="node8" class="node">
<title>7</title>
<ellipse fill="lightblue" stroke="lightblue" cx="206.228" cy="-15.5563" rx="15.6129" ry="15.6129"/>
<text text-anchor="middle" x="206.228" y="-12.4563" font-family="Times,serif" font-size="9.00">7</text>
</g>
<!-- 1&#45;&gt;7 -->
<g id="edge26" class="edge">
<title>1&#45;&gt;7</title>
<path fill="none" stroke="red" stroke-width="3.11112" d="M455.697,-149.211C454.112,-130.839 447.846,-89.0709 423.228,-67.1127 394.96,-41.8987 283.159,-25.1118 232.012,-18.5978"/>
<polygon fill="red" stroke="red" stroke-width="3.11112" points="232.145,-15.0875 221.791,-17.3305 231.284,-22.0343 232.145,-15.0875"/>
</g>
<!-- 8 -->
<g id="node9" class="node">
<title>8</title>
<ellipse fill="lightblue" stroke="lightblue" cx="158.228" cy="-15.5563" rx="14.7" ry="14.7"/>
<text text-anchor="middle" x="158.228" y="-12.4563" font-family="Times,serif" font-size="9.00">8</text>
</g>
<!-- 1&#45;&gt;8 -->
<g id="edge24" class="edge">
<title>1&#45;&gt;8</title>
<path fill="none" stroke="green" stroke-width="1.06998" d="M450.597,-149.204C437.408,-128.273 404.34,-77.5554 387.228,-67.1127 307.892,-18.6964 267.408,-65.9191 181.228,-31.1127 180.368,-30.7652 179.507,-30.382 178.65,-29.9704"/>
<polygon fill="green" stroke="green" stroke-width="1.06998" points="180.257,-26.8552 169.861,-24.8093 176.712,-32.8913 180.257,-26.8552"/>
</g>
<!-- 1&#45;&gt;10 -->
<g id="edge8" class="edge">
<title>1&#45;&gt;10</title>
<path fill="none" stroke="red" stroke-width="1.04573" stroke-dasharray="1,5" d="M445.473,-154.077C423.81,-145.515 373.548,-125.03 333.228,-103.882 331.443,-102.946 329.62,-101.946 327.797,-100.913"/>
<polygon fill="red" stroke="red" stroke-width="1.04573" points="329.268,-97.7163 318.88,-95.6326 325.701,-103.74 329.268,-97.7163"/>
</g>
<!-- 11 -->
<g id="node12" class="node">
<title>11</title>
<ellipse fill="lightblue" stroke="lightblue" cx="360.228" cy="-85.4975" rx="18.2703" ry="18.2703"/>
<text text-anchor="middle" x="360.228" y="-82.3975" font-family="Times,serif" font-size="9.00">11</text>
</g>
<!-- 1&#45;&gt;11 -->
<g id="edge16" class="edge">
<title>1&#45;&gt;11</title>
<path fill="none" stroke="green" stroke-width="0.321153" d="M445.588,-150.201C430.619,-138.855 402.965,-117.892 383.187,-102.901"/>
<polygon fill="green" stroke="green" stroke-width="0.321153" points="385.075,-99.94 374.992,-96.6884 380.847,-105.518 385.075,-99.94"/>
</g>
<!-- 2 -->
<g id="node3" class="node">
<title>2</title>
<polygon fill="lightgrey" stroke="black" points="104.728,-167.267 83.7282,-167.267 83.7282,-149.267 104.728,-149.267 104.728,-167.267"/>
<text text-anchor="middle" x="94.2282" y="-155.167" font-family="Times,serif" font-size="9.00">2</text>
</g>
<!-- 2&#45;&gt;7 -->
<g id="edge15" class="edge">
<title>2&#45;&gt;7</title>
<path fill="none" stroke="green" stroke-width="0.594784" stroke-dasharray="1,5" d="M99.5793,-149.07C109.589,-132.159 132.222,-95.2816 155.228,-67.1127 165.032,-55.1096 177.199,-42.7296 187.19,-33.1103"/>
<polygon fill="green" stroke="green" stroke-width="0.594784" points="189.794,-35.4645 194.649,-26.0476 184.981,-30.3814 189.794,-35.4645"/>
</g>
<!-- 2&#45;&gt;8 -->
<g id="edge5" class="edge">
<title>2&#45;&gt;8</title>
<path fill="none" stroke="red" stroke-width="0.195029" stroke-dasharray="1,5" d="M87.3719,-149.142C75.4239,-132.036 53.4946,-94.4098 69.2282,-67.1127 83.0219,-43.1813 112.641,-29.3469 133.925,-22.145"/>
<polygon fill="red" stroke="red" stroke-width="0.195029" points="135.094,-25.4467 143.598,-19.1271 133.009,-18.7644 135.094,-25.4467"/>
</g>
<!-- 2&#45;&gt;9 -->
<g id="edge18" class="edge">
<title>2&#45;&gt;9</title>
<path fill="none" stroke="green" stroke-width="0.83507" stroke-dasharray="1,5" d="M94.1016,-149.051C93.9689,-139.394 93.7547,-123.805 93.5716,-110.484"/>
<polygon fill="green" stroke="green" stroke-width="0.83507" points="97.0708,-110.394 93.4336,-100.443 90.0714,-110.49 97.0708,-110.394"/>
</g>
<!-- 2&#45;&gt;11 -->
<g id="edge21" class="edge">
<title>2&#45;&gt;11</title>
<path fill="none" stroke="green" stroke-width="3.12791" d="M101.963,-149.179C105.376,-145.739 109.651,-142.117 114.228,-139.882 201.683,-97.1779 239.056,-137.937 330.228,-103.882 332.32,-103.101 334.427,-102.167 336.501,-101.142"/>
<polygon fill="green" stroke="green" stroke-width="3.12791" points="338.234,-104.183 345.241,-96.2365 334.808,-98.0786 338.234,-104.183"/>
</g>
<!-- 14 -->
<g id="node14" class="node">
<title>14</title>
<ellipse fill="none" stroke="black" cx="182.228" cy="-85.4975" rx="18.2703" ry="18.2703"/>
<text text-anchor="middle" x="182.228" y="-82.3975" font-family="Times,serif" font-size="9.00">14</text>
</g>
<!-- 2&#45;&gt;14 -->
<g id="edge12" class="edge">
<title>2&#45;&gt;14</title>
<path fill="none" stroke="red" stroke-width="0.14824" d="M103.873,-149.154C107.12,-146.152 110.792,-142.83 114.228,-139.882 128.912,-127.288 145.907,-113.695 159.234,-103.249"/>
<polygon fill="red" stroke="red" stroke-width="0.14824" points="161.666,-105.791 167.4,-96.8815 157.362,-100.27 161.666,-105.791"/>
</g>
<!-- 3 -->
<g id="node4" class="node">
<title>3</title>
<polygon fill="lightgrey" stroke="black" points="256.228,-230.652 234.228,-230.652 234.228,-212.652 256.228,-212.652 256.228,-230.652"/>
<text text-anchor="middle" x="245.228" y="-218.552" font-family="Times,serif" font-size="9.00">3</text>
</g>
<!-- 3&#45;&gt;10 -->
<g id="edge30" class="edge">
<title>3&#45;&gt;10</title>
<path fill="none" stroke="green" stroke-width="1.42839" d="M253.982,-212.373C261.673,-203.745 272.639,-190.215 279.228,-176.652 288.958,-156.625 295.124,-132.139 298.767,-113.589"/>
<polygon fill="green" stroke="green" stroke-width="1.42839" points="302.22,-114.165 300.583,-103.697 295.335,-112.901 302.22,-114.165"/>
</g>
<!-- 3&#45;&gt;11 -->
<g id="edge7" class="edge">
<title>3&#45;&gt;11</title>
<path fill="none" stroke="red" stroke-width="0.493329" stroke-dasharray="1,5" d="M256.616,-213.91C268.376,-205.574 286.846,-191.497 300.228,-176.652 318.543,-156.335 335.283,-129.942 346.4,-110.788"/>
<polygon fill="red" stroke="red" stroke-width="0.493329" points="349.483,-112.447 351.388,-102.025 343.399,-108.984 349.483,-112.447"/>
</g>
<!-- 3&#45;&gt;15 -->
<g id="edge1" class="edge">
<title>3&#45;&gt;15</title>
<path fill="none" stroke="green" stroke-width="0.149461" d="M234.098,-214.869C217.867,-204.976 187.285,-186.337 165.656,-173.155"/>
<polygon fill="green" stroke="green" stroke-width="0.149461" points="167.363,-170.097 157.002,-167.881 163.72,-176.074 167.363,-170.097"/>
</g>
<!-- 3&#45;&gt;14 -->
<g id="edge3" class="edge">
<title>3&#45;&gt;14</title>
<path fill="none" stroke="green" stroke-width="0.15396" stroke-dasharray="1,5" d="M235.128,-212.618C226.265,-204.156 213.662,-190.731 206.228,-176.652 195.833,-156.963 189.708,-132.455 186.251,-113.811"/>
<polygon fill="green" stroke="green" stroke-width="0.15396" points="189.685,-113.128 184.553,-103.859 182.785,-114.306 189.685,-113.128"/>
</g>
<!-- 4 -->
<g id="node5" class="node">
<title>4</title>
<polygon fill="lightgrey" stroke="black" points="409.228,-230.652 387.228,-230.652 387.228,-212.652 409.228,-212.652 409.228,-230.652"/>
<text text-anchor="middle" x="398.228" y="-218.552" font-family="Times,serif" font-size="9.00">4</text>
</g>
<!-- 4&#45;&gt;7 -->
<g id="edge2" class="edge">
<title>4&#45;&gt;7</title>
<path fill="none" stroke="green" stroke-width="0.853189" stroke-dasharray="1,5" d="M409.272,-219.046C427.099,-214.178 461.685,-201.832 476.228,-176.652 501.306,-133.232 487.179,-99.8833 449.228,-67.1127 416.715,-39.0367 287.646,-23.436 231.99,-17.8966"/>
<polygon fill="green" stroke="green" stroke-width="0.853189" points="232.178,-14.3986 221.888,-16.9222 231.506,-21.3663 232.178,-14.3986"/>
</g>
<!-- 4&#45;&gt;10 -->
<g id="edge4" class="edge">
<title>4&#45;&gt;10</title>
<path fill="none" stroke="green" stroke-width="0.699655" d="M391.698,-212.293C377.047,-191.295 341.174,-139.882 319.879,-109.362"/>
<polygon fill="green" stroke="green" stroke-width="0.699655" points="322.626,-107.182 314.033,-100.984 316.885,-111.187 322.626,-107.182"/>
</g>
<!-- 4&#45;&gt;11 -->
<g id="edge25" class="edge">
<title>4&#45;&gt;11</title>
<path fill="none" stroke="green" stroke-width="0.160309" d="M399.083,-212.317C400.188,-196.855 401.128,-165.129 393.228,-139.882 389.779,-128.86 383.641,-117.767 377.587,-108.501"/>
<polygon fill="green" stroke="green" stroke-width="0.160309" points="380.452,-106.49 371.898,-100.239 374.686,-110.46 380.452,-106.49"/>
</g>
<!-- 4&#45;&gt;15 -->
<g id="edge20" class="edge">
<title>4&#45;&gt;15</title>
<path fill="none" stroke="red" stroke-width="0.127341" d="M386.931,-219.192C357.226,-212.684 274.512,-194.301 206.228,-176.652 193.971,-173.484 180.493,-169.718 169.003,-166.423"/>
<polygon fill="red" stroke="red" stroke-width="0.127341" points="169.681,-162.975 159.102,-163.559 167.736,-169.7 169.681,-162.975"/>
</g>
<!-- 5 -->
<g id="node6" class="node">
<title>5</title>
<polygon fill="lightgrey" stroke="black" points="236.728,-167.267 215.728,-167.267 215.728,-149.267 236.728,-149.267 236.728,-167.267"/>
<text text-anchor="middle" x="226.228" y="-155.167" font-family="Times,serif" font-size="9.00">5</text>
</g>
<!-- 5&#45;&gt;8 -->
<g id="edge13" class="edge">
<title>5&#45;&gt;8</title>
<path fill="none" stroke="red" stroke-width="1.42085" d="M226.259,-149.159C225.957,-132.079 223.561,-94.4974 209.228,-67.1127 201.785,-52.8904 189.105,-40.0463 178.251,-30.7354"/>
<polygon fill="red" stroke="red" stroke-width="1.42085" points="180.382,-27.9569 170.424,-24.3397 175.953,-33.3774 180.382,-27.9569"/>
</g>
<!-- 5&#45;&gt;10 -->
<g id="edge10" class="edge">
<title>5&#45;&gt;10</title>
<path fill="none" stroke="green" stroke-width="0.945566" d="M235.98,-149.051C247.559,-138.108 267.198,-119.548 282.273,-105.302"/>
<polygon fill="green" stroke="green" stroke-width="0.945566" points="284.809,-107.721 289.673,-98.3084 280.001,-102.633 284.809,-107.721"/>
</g>
<!-- 5&#45;&gt;14 -->
<g id="edge23" class="edge">
<title>5&#45;&gt;14</title>
<path fill="none" stroke="red" stroke-width="1.09515" d="M220.656,-149.051C214.756,-139.294 205.194,-123.48 197.085,-110.069"/>
<polygon fill="red" stroke="red" stroke-width="1.09515" points="199.936,-108.018 191.766,-101.272 193.945,-111.64 199.936,-108.018"/>
</g>
<!-- 6 -->
<g id="node7" class="node">
<title>6</title>
<polygon fill="lightgrey" stroke="black" points="27.7282,-230.652 6.72823,-230.652 6.72823,-212.652 27.7282,-212.652 27.7282,-230.652"/>
<text text-anchor="middle" x="17.2282" y="-218.552" font-family="Times,serif" font-size="9.00">6</text>
</g>
<!-- 6&#45;&gt;7 -->
<g id="edge17" class="edge">
<title>6&#45;&gt;7</title>
<path fill="none" stroke="green" stroke-width="0.461394" d="M17.5573,-212.514C19.0088,-186.088 26.8548,-108.807 69.2282,-67.1127 106.799,-30.1441 134.579,-53.6474 182.228,-31.1127 183.053,-30.7226 183.883,-30.3084 184.713,-29.8755"/>
<polygon fill="green" stroke="green" stroke-width="0.461394" points="186.545,-32.8587 193.391,-24.7723 182.997,-26.8248 186.545,-32.8587"/>
</g>
<!-- 6&#45;&gt;8 -->
<g id="edge14" class="edge">
<title>6&#45;&gt;8</title>
<path fill="none" stroke="green" stroke-width="1.64293" d="M12.7006,-212.334C5.84046,-196.897 -5.50919,-165.206 3.22823,-139.882 16.6276,-101.046 28.6827,-93.4312 60.2282,-67.1127 82.936,-48.1675 113.739,-33.3749 134.709,-24.5848"/>
<polygon fill="green" stroke="green" stroke-width="1.64293" points="136.185,-27.7632 144.135,-20.76 133.553,-21.2768 136.185,-27.7632"/>
</g>
<!-- 6&#45;&gt;15 -->
<g id="edge29" class="edge">
<title>6&#45;&gt;15</title>
<path fill="none" stroke="red" stroke-width="0.218833" stroke-dasharray="1,5" d="M27.8428,-217.267C45.8073,-209.716 83.1821,-193.445 113.228,-176.652 114.561,-175.907 115.914,-175.122 117.271,-174.312"/>
<polygon fill="red" stroke="red" stroke-width="0.218833" points="119.463,-177.068 126.068,-168.785 115.739,-171.141 119.463,-177.068"/>
</g>
<!-- 15&#45;&gt;9 -->
<g id="edge6" class="edge">
<title>15&#45;&gt;9</title>
<path fill="none" stroke="red" stroke-width="0.267842" stroke-dasharray="1,5" d="M131.049,-142.834C124.1,-132.3 114.807,-118.211 107.171,-106.636"/>
<polygon fill="red" stroke="red" stroke-width="0.267842" points="109.908,-104.427 101.48,-98.007 104.064,-108.282 109.908,-104.427"/>
</g>
<!-- 15&#45;&gt;14 -->
<g id="edge11" class="edge">
<title>15&#45;&gt;14</title>
<path fill="none" stroke="red" stroke-width="1.027" d="M150.327,-142.117C155.583,-132.79 162.303,-120.862 168.219,-110.361"/>
<polygon fill="red" stroke="red" stroke-width="1.027" points="171.295,-112.033 173.154,-101.602 165.196,-108.597 171.295,-112.033"/>
</g>
<!-- 14&#45;&gt;7 -->
<g id="edge28" class="edge">
<title>14&#45;&gt;7</title>
<path fill="none" stroke="red" stroke-width="0.37673" stroke-dasharray="1,5" d="M188.284,-67.8484C191.15,-59.4981 194.62,-49.3851 197.742,-40.2864"/>
<polygon fill="red" stroke="red" stroke-width="0.37673" points="201.133,-41.1873 201.069,-30.5927 194.512,-38.9153 201.133,-41.1873"/>
</g>
<!-- 14&#45;&gt;8 -->
<g id="edge22" class="edge">
<title>14&#45;&gt;8</title>
<path fill="none" stroke="red" stroke-width="0.104142" stroke-dasharray="1,5" d="M176.172,-67.8484C173.194,-59.1706 169.563,-48.589 166.349,-39.2206"/>
<polygon fill="red" stroke="red" stroke-width="0.104142" points="169.63,-38.001 163.074,-29.6784 163.009,-40.2731 169.63,-38.001"/>
</g>
</g>
</svg>
