<?xml version="1.0" encoding="UTF-8" standalone="no"?>
<!DOCTYPE svg PUBLIC "-//W3C//DTD SVG 1.1//EN"
 "http://www.w3.org/Graphics/SVG/1.1/DTD/svg11.dtd">
<!-- Generated by graphviz version 2.39.20160104.1625 (20160104.1625)
 -->
<!-- Title: %3 Pages: 1 -->
<svg width="680pt" height="244pt"
 viewBox="0.00 0.00 679.93 244.31" xmlns="http://www.w3.org/2000/svg" xmlns:xlink="http://www.w3.org/1999/xlink">
<g id="graph0" class="graph" transform="scale(1 1) rotate(0) translate(4 240.309)">
<title>%3</title>
<polygon fill="white" stroke="transparent" points="-4,4 -4,-240.309 675.931,-240.309 675.931,4 -4,4"/>
<!-- 0 -->
<g id="node1" class="node">
<title>0</title>
<polygon fill="lightgrey" stroke="black" points="117.874,-236.309 96.8742,-236.309 96.8742,-218.309 117.874,-218.309 117.874,-236.309"/>
<text text-anchor="middle" x="107.374" y="-224.209" font-family="Times,serif" font-size="9.00">0</text>
</g>
<!-- 8 -->
<g id="node9" class="node">
<title>8</title>
<ellipse fill="lightblue" stroke="lightblue" cx="48.3742" cy="-18.3848" rx="14.7" ry="14.7"/>
<text text-anchor="middle" x="48.3742" y="-15.2848" font-family="Times,serif" font-size="9.00">8</text>
</g>
<!-- 0&#45;&gt;8 -->
<g id="edge29" class="edge">
<title>0&#45;&gt;8</title>
<path fill="none" stroke="red" stroke-width="0.914244" d="M96.7024,-225.763C76.607,-222.214 33.5427,-211.421 15.3742,-182.309 -10.4011,-141.008 2.26213,-119.655 15.3742,-72.7696 18.8358,-60.392 25.9697,-48.0291 32.7218,-38.2255"/>
<polygon fill="red" stroke="red" stroke-width="0.914244" points="35.6433,-40.1592 38.699,-30.0145 29.9839,-36.0394 35.6433,-40.1592"/>
</g>
<!-- 11 -->
<g id="node12" class="node">
<title>11</title>
<ellipse fill="lightblue" stroke="lightblue" cx="353.374" cy="-18.3848" rx="18.2703" ry="18.2703"/>
<text text-anchor="middle" x="353.374" y="-15.2848" font-family="Times,serif" font-size="9.00">11</text>
</g>
<!-- 0&#45;&gt;11 -->
<g id="edge24" class="edge">
<title>0&#45;&gt;11</title>
<path fill="none" stroke="green" stroke-width="1.78447" d="M112.074,-217.95C125.744,-191.589 168.052,-115.844 223.374,-72.7696 254.356,-48.6471 297.587,-33.3952 325.531,-25.3727"/>
<polygon fill="green" stroke="green" stroke-width="1.78447" points="326.721,-28.6753 335.435,-22.6485 324.865,-21.926 326.721,-28.6753"/>
</g>
<!-- 12 -->
<g id="node13" class="node">
<title>12</title>
<ellipse fill="none" stroke="black" cx="376.374" cy="-163.924" rx="18.2703" ry="18.2703"/>
<text text-anchor="middle" x="376.374" y="-160.824" font-family="Times,serif" font-size="9.00">12</text>
</g>
<!-- 0&#45;&gt;12 -->
<g id="edge2" class="edge">
<title>0&#45;&gt;12</title>
<path fill="none" stroke="green" stroke-width="0.474555" d="M118.044,-225.185C148.412,-219.09 237.863,-200.796 311.374,-182.309 323.652,-179.221 337.134,-175.468 348.62,-172.16"/>
<polygon fill="green" stroke="green" stroke-width="0.474555" points="349.894,-175.435 358.517,-169.279 347.937,-168.714 349.894,-175.435"/>
</g>
<!-- 1 -->
<g id="node2" class="node">
<title>1</title>
<polygon fill="lightgrey" stroke="black" points="450.874,-236.309 429.874,-236.309 429.874,-218.309 450.874,-218.309 450.874,-236.309"/>
<text text-anchor="middle" x="440.374" y="-224.209" font-family="Times,serif" font-size="9.00">1</text>
</g>
<!-- 9 -->
<g id="node10" class="node">
<title>9</title>
<ellipse fill="lightblue" stroke="lightblue" cx="574.374" cy="-18.3848" rx="14.7" ry="14.7"/>
<text text-anchor="middle" x="574.374" y="-15.2848" font-family="Times,serif" font-size="9.00">9</text>
</g>
<!-- 1&#45;&gt;9 -->
<g id="edge10" class="edge">
<title>1&#45;&gt;9</title>
<path fill="none" stroke="red" stroke-width="0.203485" d="M446.305,-218.062C466.355,-186.802 531.953,-84.5244 560.686,-39.7264"/>
<polygon fill="red" stroke="red" stroke-width="0.203485" points="563.775,-41.3927 566.228,-31.0857 557.883,-37.6135 563.775,-41.3927"/>
</g>
<!-- 1&#45;&gt;11 -->
<g id="edge13" class="edge">
<title>1&#45;&gt;11</title>
<path fill="none" stroke="red" stroke-width="0.172205" stroke-dasharray="1,5" d="M440.861,-218.271C441.799,-193.365 441.737,-122.305 414.374,-72.7696 405.679,-57.0281 390.64,-43.5425 377.671,-33.9377"/>
<polygon fill="red" stroke="red" stroke-width="0.172205" points="379.32,-30.8183 369.127,-27.9282 375.293,-36.544 379.32,-30.8183"/>
</g>
<!-- 1&#45;&gt;12 -->
<g id="edge19" class="edge">
<title>1&#45;&gt;12</title>
<path fill="none" stroke="green" stroke-width="1.06716" d="M431.205,-218.227C422.245,-209.354 408.303,-195.546 396.721,-184.075"/>
<polygon fill="green" stroke="green" stroke-width="1.06716" points="399.094,-181.499 389.526,-176.949 394.168,-186.473 399.094,-181.499"/>
</g>
<!-- 13 -->
<g id="node14" class="node">
<title>13</title>
<ellipse fill="none" stroke="black" cx="330.374" cy="-91.1543" rx="18.2703" ry="18.2703"/>
<text text-anchor="middle" x="330.374" y="-88.0543" font-family="Times,serif" font-size="9.00">13</text>
</g>
<!-- 1&#45;&gt;13 -->
<g id="edge5" class="edge">
<title>1&#45;&gt;13</title>
<path fill="none" stroke="green" stroke-width="0.193648" stroke-dasharray="1,5" d="M437.892,-218.152C433.207,-202.117 421.84,-168.481 403.374,-145.539 390.12,-129.072 370.789,-114.967 355.349,-105.25"/>
<polygon fill="green" stroke="green" stroke-width="0.193648" points="357.148,-102.248 346.783,-100.052 353.516,-108.232 357.148,-102.248"/>
</g>
<!-- 2 -->
<g id="node3" class="node">
<title>2</title>
<polygon fill="lightgrey" stroke="black" points="337.874,-236.309 316.874,-236.309 316.874,-218.309 337.874,-218.309 337.874,-236.309"/>
<text text-anchor="middle" x="327.374" y="-224.209" font-family="Times,serif" font-size="9.00">2</text>
</g>
<!-- 10 -->
<g id="node11" class="node">
<title>10</title>
<ellipse fill="lightblue" stroke="lightblue" cx="284.374" cy="-163.924" rx="18.2703" ry="18.2703"/>
<text text-anchor="middle" x="284.374" y="-160.824" font-family="Times,serif" font-size="9.00">10</text>
</g>
<!-- 2&#45;&gt;10 -->
<g id="edge8" class="edge">
<title>2&#45;&gt;10</title>
<path fill="none" stroke="red" stroke-width="0.496977" d="M321.213,-218.227C315.843,-210.311 307.809,-198.468 300.613,-187.86"/>
<polygon fill="red" stroke="red" stroke-width="0.496977" points="303.352,-185.664 294.842,-179.354 297.559,-189.594 303.352,-185.664"/>
</g>
<!-- 2&#45;&gt;11 -->
<g id="edge23" class="edge">
<title>2&#45;&gt;11</title>
<path fill="none" stroke="red" stroke-width="0.140976" stroke-dasharray="1,5" d="M338.146,-224.613C355.53,-219.614 389.25,-207.087 403.374,-182.309 429.885,-135.801 394.434,-73.6954 371.021,-40.8895"/>
<polygon fill="red" stroke="red" stroke-width="0.140976" points="373.834,-38.806 365.086,-32.8286 368.197,-42.9565 373.834,-38.806"/>
</g>
<!-- 2&#45;&gt;13 -->
<g id="edge25" class="edge">
<title>2&#45;&gt;13</title>
<path fill="none" stroke="green" stroke-width="1.12103" stroke-dasharray="1,5" d="M327.58,-217.95C328.019,-198.065 329.058,-150.903 329.738,-120.04"/>
<polygon fill="green" stroke="green" stroke-width="1.12103" points="333.241,-119.949 329.962,-109.874 326.242,-119.794 333.241,-119.949"/>
</g>
<!-- 14 -->
<g id="node15" class="node">
<title>14</title>
<ellipse fill="none" stroke="black" cx="229.374" cy="-163.924" rx="18.2703" ry="18.2703"/>
<text text-anchor="middle" x="229.374" y="-160.824" font-family="Times,serif" font-size="9.00">14</text>
</g>
<!-- 2&#45;&gt;14 -->
<g id="edge16" class="edge">
<title>2&#45;&gt;14</title>
<path fill="none" stroke="green" stroke-width="0.240184" d="M316.441,-220.326C302.648,-211.507 278.212,-195.847 257.374,-182.309 256.094,-181.477 254.782,-180.623 253.458,-179.759"/>
<polygon fill="green" stroke="green" stroke-width="0.240184" points="255.045,-176.614 244.761,-174.065 251.211,-182.471 255.045,-176.614"/>
</g>
<!-- 3 -->
<g id="node4" class="node">
<title>3</title>
<polygon fill="lightgrey" stroke="black" points="509.374,-236.309 487.374,-236.309 487.374,-218.309 509.374,-218.309 509.374,-236.309"/>
<text text-anchor="middle" x="498.374" y="-224.209" font-family="Times,serif" font-size="9.00">3</text>
</g>
<!-- 7 -->
<g id="node8" class="node">
<title>7</title>
<ellipse fill="lightblue" stroke="lightblue" cx="656.374" cy="-163.924" rx="15.6129" ry="15.6129"/>
<text text-anchor="middle" x="656.374" y="-160.824" font-family="Times,serif" font-size="9.00">7</text>
</g>
<!-- 3&#45;&gt;7 -->
<g id="edge12" class="edge">
<title>3&#45;&gt;7</title>
<path fill="none" stroke="red" stroke-width="0.784185" stroke-dasharray="1,5" d="M509.648,-224.222C532.338,-217.82 584.893,-202.037 626.374,-182.309 629.063,-181.03 631.816,-179.571 634.511,-178.048"/>
<polygon fill="red" stroke="red" stroke-width="0.784185" points="636.502,-180.935 643.273,-172.786 632.898,-174.934 636.502,-180.935"/>
</g>
<!-- 3&#45;&gt;9 -->
<g id="edge26" class="edge">
<title>3&#45;&gt;9</title>
<path fill="none" stroke="red" stroke-width="0.768401" d="M509.442,-225.568C529.367,-221.771 570.833,-210.692 588.374,-182.309 615.455,-138.491 597.433,-75.0582 584.415,-41.3925"/>
<polygon fill="red" stroke="red" stroke-width="0.768401" points="587.591,-39.9087 580.592,-31.9548 581.103,-42.5373 587.591,-39.9087"/>
</g>
<!-- 3&#45;&gt;10 -->
<g id="edge21" class="edge">
<title>3&#45;&gt;10</title>
<path fill="none" stroke="green" stroke-width="0.291604" d="M487.17,-223.99C454.561,-214.331 359.025,-186.035 311.653,-172.004"/>
<polygon fill="green" stroke="green" stroke-width="0.291604" points="312.629,-168.642 302.047,-169.158 310.641,-175.354 312.629,-168.642"/>
</g>
<!-- 3&#45;&gt;12 -->
<g id="edge17" class="edge">
<title>3&#45;&gt;12</title>
<path fill="none" stroke="green" stroke-width="0.122459" stroke-dasharray="1,5" d="M487.115,-221.459C467.887,-211.469 428.255,-190.879 401.994,-177.235"/>
<polygon fill="green" stroke="green" stroke-width="0.122459" points="403.474,-174.059 392.986,-172.555 400.247,-180.271 403.474,-174.059"/>
</g>
<!-- 3&#45;&gt;13 -->
<g id="edge4" class="edge">
<title>3&#45;&gt;13</title>
<path fill="none" stroke="green" stroke-width="0.139429" stroke-dasharray="1,5" d="M492.299,-218.284C481.114,-202.16 455.877,-167.995 428.374,-145.539 406.254,-127.479 377.289,-112.252 356.596,-102.546"/>
<polygon fill="green" stroke="green" stroke-width="0.139429" points="357.997,-99.3379 347.448,-98.3603 355.085,-105.703 357.997,-99.3379"/>
</g>
<!-- 4 -->
<g id="node5" class="node">
<title>4</title>
<polygon fill="lightgrey" stroke="black" points="295.374,-236.309 273.374,-236.309 273.374,-218.309 295.374,-218.309 295.374,-236.309"/>
<text text-anchor="middle" x="284.374" y="-224.209" font-family="Times,serif" font-size="9.00">4</text>
</g>
<!-- 4&#45;&gt;10 -->
<g id="edge1" class="edge">
<title>4&#45;&gt;10</title>
<path fill="none" stroke="green" stroke-width="0.406232" d="M284.374,-218.227C284.374,-211.462 284.374,-201.829 284.374,-192.55"/>
<polygon fill="green" stroke="green" stroke-width="0.406232" points="287.874,-192.396 284.374,-182.396 280.874,-192.396 287.874,-192.396"/>
</g>
<!-- 4&#45;&gt;11 -->
<g id="edge27" class="edge">
<title>4&#45;&gt;11</title>
<path fill="none" stroke="green" stroke-width="0.694361" d="M273.085,-224.959C254.466,-220.407 217.842,-208.441 202.374,-182.309 194.05,-168.246 195.481,-160.356 202.374,-145.539 228.252,-89.9162 291.769,-49.9108 327.635,-30.878"/>
<polygon fill="green" stroke="green" stroke-width="0.694361" points="329.26,-33.9781 336.541,-26.2818 326.05,-27.7576 329.26,-33.9781"/>
</g>
<!-- 4&#45;&gt;12 -->
<g id="edge9" class="edge">
<title>4&#45;&gt;12</title>
<path fill="none" stroke="green" stroke-width="0.552394" stroke-dasharray="1,5" d="M295.655,-219.536C309.757,-209.821 334.268,-192.934 352.59,-180.311"/>
<polygon fill="green" stroke="green" stroke-width="0.552394" points="354.765,-183.062 361.014,-174.506 350.794,-177.298 354.765,-183.062"/>
</g>
<!-- 5 -->
<g id="node6" class="node">
<title>5</title>
<polygon fill="lightgrey" stroke="black" points="78.8742,-172.924 57.8742,-172.924 57.8742,-154.924 78.8742,-154.924 78.8742,-172.924"/>
<text text-anchor="middle" x="68.3742" y="-160.824" font-family="Times,serif" font-size="9.00">5</text>
</g>
<!-- 5&#45;&gt;8 -->
<g id="edge14" class="edge">
<title>5&#45;&gt;8</title>
<path fill="none" stroke="green" stroke-width="1.03024" d="M67.1231,-154.82C64.1113,-132.903 56.3717,-76.5822 51.8336,-43.5583"/>
<polygon fill="green" stroke="green" stroke-width="1.03024" points="55.2576,-42.7658 50.4287,-33.3354 48.3228,-43.7188 55.2576,-42.7658"/>
</g>
<!-- 5&#45;&gt;13 -->
<g id="edge6" class="edge">
<title>5&#45;&gt;13</title>
<path fill="none" stroke="green" stroke-width="0.249714" d="M79.0594,-160.745C91.5784,-157.035 112.954,-150.743 131.374,-145.539 192.335,-128.316 264.052,-108.931 302.563,-98.5935"/>
<polygon fill="green" stroke="green" stroke-width="0.249714" points="303.755,-101.897 312.507,-95.9269 301.942,-95.1363 303.755,-101.897"/>
</g>
<!-- 6 -->
<g id="node7" class="node">
<title>6</title>
<polygon fill="lightgrey" stroke="black" points="198.874,-236.309 177.874,-236.309 177.874,-218.309 198.874,-218.309 198.874,-236.309"/>
<text text-anchor="middle" x="188.374" y="-224.209" font-family="Times,serif" font-size="9.00">6</text>
</g>
<!-- 6&#45;&gt;8 -->
<g id="edge18" class="edge">
<title>6&#45;&gt;8</title>
<path fill="none" stroke="green" stroke-width="0.814887" d="M177.539,-225.495C147.458,-220.218 64.0899,-203.868 48.3742,-182.309 18.2931,-141.043 30.3813,-77.0899 40.3025,-42.5279"/>
<polygon fill="green" stroke="green" stroke-width="0.814887" points="43.6989,-43.3888 43.2628,-32.803 37.0023,-41.3503 43.6989,-43.3888"/>
</g>
<!-- 6&#45;&gt;10 -->
<g id="edge22" class="edge">
<title>6&#45;&gt;10</title>
<path fill="none" stroke="green" stroke-width="0.526201" d="M199.015,-220.283C213.747,-210.556 240.767,-192.716 260.472,-179.706"/>
<polygon fill="green" stroke="green" stroke-width="0.526201" points="262.524,-182.545 268.94,-174.114 258.667,-176.704 262.524,-182.545"/>
</g>
<!-- 6&#45;&gt;13 -->
<g id="edge28" class="edge">
<title>6&#45;&gt;13</title>
<path fill="none" stroke="red" stroke-width="0.753148" d="M187.301,-218.085C185.908,-201.647 185.396,-167 202.374,-145.539 226.79,-114.677 271.999,-101.068 301.629,-95.253"/>
<polygon fill="red" stroke="red" stroke-width="0.753148" points="302.542,-98.6456 311.773,-93.4458 301.314,-91.7541 302.542,-98.6456"/>
</g>
<!-- 6&#45;&gt;14 -->
<g id="edge15" class="edge">
<title>6&#45;&gt;14</title>
<path fill="none" stroke="red" stroke-width="0.309016" d="M194.249,-218.227C199.3,-210.418 206.823,-198.788 213.613,-188.291"/>
<polygon fill="red" stroke="red" stroke-width="0.309016" points="216.58,-190.147 219.073,-179.849 210.703,-186.345 216.58,-190.147"/>
</g>
<!-- 12&#45;&gt;11 -->
<g id="edge11" class="edge">
<title>12&#45;&gt;11</title>
<path fill="none" stroke="green" stroke-width="1.65523" d="M373.461,-145.491C369.521,-120.558 362.456,-75.8523 357.842,-46.6568"/>
<polygon fill="green" stroke="green" stroke-width="1.65523" points="361.282,-45.9988 356.264,-36.6677 354.367,-47.0915 361.282,-45.9988"/>
</g>
<!-- 12&#45;&gt;13 -->
<g id="edge20" class="edge">
<title>12&#45;&gt;13</title>
<path fill="none" stroke="green" stroke-width="0.145838" stroke-dasharray="1,5" d="M366.393,-148.134C360.365,-138.598 352.558,-126.248 345.754,-115.485"/>
<polygon fill="green" stroke="green" stroke-width="0.145838" points="348.638,-113.496 340.336,-106.913 342.721,-117.236 348.638,-113.496"/>
</g>
<!-- 13&#45;&gt;8 -->
<g id="edge3" class="edge">
<title>13&#45;&gt;8</title>
<path fill="none" stroke="green" stroke-width="0.124061" stroke-dasharray="1,5" d="M312.305,-86.4916C263.414,-73.8753 128.476,-39.0548 72.8421,-24.6987"/>
<polygon fill="green" stroke="green" stroke-width="0.124061" points="73.3792,-21.2227 62.8219,-22.113 71.6301,-28.0006 73.3792,-21.2227"/>
</g>
<!-- 13&#45;&gt;9 -->
<g id="edge30" class="edge">
<title>13&#45;&gt;9</title>
<path fill="none" stroke="red" stroke-width="1.70734" d="M348.316,-85.8034C391.482,-72.9297 501.173,-40.2159 550.134,-25.614"/>
<polygon fill="red" stroke="red" stroke-width="1.70734" points="551.298,-28.9194 559.88,-22.7073 549.297,-22.2114 551.298,-28.9194"/>
</g>
<!-- 13&#45;&gt;11 -->
<g id="edge31" class="edge">
<title>13&#45;&gt;11</title>
<path fill="none" stroke="red" stroke-width="1.05067" stroke-dasharray="1,5" d="M335.942,-73.5389C338.578,-65.1985 341.787,-55.0462 344.729,-45.7363"/>
<polygon fill="red" stroke="red" stroke-width="1.05067" points="348.102,-46.6802 347.778,-36.0903 341.427,-44.5705 348.102,-46.6802"/>
</g>
<!-- 14&#45;&gt;13 -->
<g id="edge7" class="edge">
<title>14&#45;&gt;13</title>
<path fill="none" stroke="red" stroke-width="0.178566" d="M244.714,-152.872C261.272,-140.942 287.841,-121.799 307.002,-107.994"/>
<polygon fill="red" stroke="red" stroke-width="0.178566" points="309.154,-110.757 315.221,-102.072 305.062,-105.078 309.154,-110.757"/>
</g>
</g>
</svg>
