<?xml version="1.0" encoding="UTF-8" standalone="no"?>
<!DOCTYPE svg PUBLIC "-//W3C//DTD SVG 1.1//EN"
 "http://www.w3.org/Graphics/SVG/1.1/DTD/svg11.dtd">
<!-- Generated by graphviz version 2.39.20160104.1625 (20160104.1625)
 -->
<!-- Title: %3 Pages: 1 -->
<svg width="289pt" height="99pt"
 viewBox="0.00 0.00 288.77 98.77" xmlns="http://www.w3.org/2000/svg" xmlns:xlink="http://www.w3.org/1999/xlink">
<g id="graph0" class="graph" transform="scale(1 1) rotate(0) translate(4 94.7696)">
<title>%3</title>
<polygon fill="white" stroke="transparent" points="-4,4 -4,-94.7696 284.77,-94.7696 284.77,4 -4,4"/>
<!-- 0 -->
<g id="node1" class="node">
<title>0</title>
<polygon fill="lightgrey" stroke="black" points="28.8848,-90.7696 7.88478,-90.7696 7.88478,-72.7696 28.8848,-72.7696 28.8848,-90.7696"/>
<text text-anchor="middle" x="18.3848" y="-78.6696" font-family="Times,serif" font-size="9.00">0</text>
</g>
<!-- 11 -->
<g id="node12" class="node">
<title>11</title>
<ellipse fill="lightblue" stroke="lightblue" cx="18.3848" cy="-18.3848" rx="18.2703" ry="18.2703"/>
<text text-anchor="middle" x="18.3848" y="-15.2848" font-family="Times,serif" font-size="9.00">11</text>
</g>
<!-- 0&#45;&gt;11 -->
<g id="edge7" class="edge">
<title>0&#45;&gt;11</title>
<path fill="none" stroke="green" stroke-width="0.982215" d="M18.3848,-72.6881C18.3848,-65.9231 18.3848,-56.2901 18.3848,-47.011"/>
<polygon fill="green" stroke="green" stroke-width="0.982215" points="21.8849,-46.8567 18.3848,-36.8567 14.8849,-46.8567 21.8849,-46.8567"/>
</g>
<!-- 1 -->
<g id="node2" class="node">
<title>1</title>
<polygon fill="lightgrey" stroke="black" points="147.885,-90.7696 126.885,-90.7696 126.885,-72.7696 147.885,-72.7696 147.885,-90.7696"/>
<text text-anchor="middle" x="137.385" y="-78.6696" font-family="Times,serif" font-size="9.00">1</text>
</g>
<!-- 7 -->
<g id="node8" class="node">
<title>7</title>
<ellipse fill="lightblue" stroke="lightblue" cx="98.3848" cy="-18.3848" rx="15.6129" ry="15.6129"/>
<text text-anchor="middle" x="98.3848" y="-15.2848" font-family="Times,serif" font-size="9.00">7</text>
</g>
<!-- 1&#45;&gt;7 -->
<g id="edge10" class="edge">
<title>1&#45;&gt;7</title>
<path fill="none" stroke="green" stroke-width="0.251634" stroke-dasharray="1,5" d="M131.797,-72.6881C126.663,-64.3442 118.845,-51.6372 112.061,-40.6127"/>
<polygon fill="green" stroke="green" stroke-width="0.251634" points="114.91,-38.5632 106.688,-31.8804 108.948,-42.2315 114.91,-38.5632"/>
</g>
<!-- 9 -->
<g id="node10" class="node">
<title>9</title>
<ellipse fill="lightblue" stroke="lightblue" cx="152.385" cy="-18.3848" rx="14.7" ry="14.7"/>
<text text-anchor="middle" x="152.385" y="-15.2848" font-family="Times,serif" font-size="9.00">9</text>
</g>
<!-- 1&#45;&gt;9 -->
<g id="edge9" class="edge">
<title>1&#45;&gt;9</title>
<path fill="none" stroke="green" stroke-width="0.142232" d="M139.534,-72.6881C141.381,-64.8833 144.131,-53.2611 146.614,-42.7692"/>
<polygon fill="green" stroke="green" stroke-width="0.142232" points="150.068,-43.3744 148.965,-32.8372 143.256,-41.7623 150.068,-43.3744"/>
</g>
<!-- 2 -->
<g id="node3" class="node">
<title>2</title>
<polygon fill="lightgrey" stroke="black" points="108.885,-90.7696 87.8848,-90.7696 87.8848,-72.7696 108.885,-72.7696 108.885,-90.7696"/>
<text text-anchor="middle" x="98.3848" y="-78.6696" font-family="Times,serif" font-size="9.00">2</text>
</g>
<!-- 2&#45;&gt;7 -->
<g id="edge1" class="edge">
<title>2&#45;&gt;7</title>
<path fill="none" stroke="green" stroke-width="0.214208" d="M98.3848,-72.6881C98.3848,-65.2695 98.3848,-54.4019 98.3848,-44.3343"/>
<polygon fill="green" stroke="green" stroke-width="0.214208" points="101.885,-44.3104 98.3848,-34.3104 94.8849,-44.3104 101.885,-44.3104"/>
</g>
<!-- 2&#45;&gt;9 -->
<g id="edge4" class="edge">
<title>2&#45;&gt;9</title>
<path fill="none" stroke="green" stroke-width="0.163278" stroke-dasharray="1,5" d="M106.122,-72.6881C113.819,-63.6531 125.874,-49.5025 135.749,-37.9115"/>
<polygon fill="green" stroke="green" stroke-width="0.163278" points="138.64,-39.9155 142.461,-30.0336 133.311,-35.3759 138.64,-39.9155"/>
</g>
<!-- 3 -->
<g id="node4" class="node">
<title>3</title>
<polygon fill="lightgrey" stroke="black" points="188.385,-90.7696 166.385,-90.7696 166.385,-72.7696 188.385,-72.7696 188.385,-90.7696"/>
<text text-anchor="middle" x="177.385" y="-78.6696" font-family="Times,serif" font-size="9.00">3</text>
</g>
<!-- 3&#45;&gt;9 -->
<g id="edge8" class="edge">
<title>3&#45;&gt;9</title>
<path fill="none" stroke="green" stroke-width="0.337198" d="M173.803,-72.6881C170.619,-64.6159 165.825,-52.4602 161.579,-41.6948"/>
<polygon fill="green" stroke="green" stroke-width="0.337198" points="164.82,-40.3745 157.895,-32.3561 158.309,-42.9429 164.82,-40.3745"/>
</g>
<!-- 4 -->
<g id="node5" class="node">
<title>4</title>
<polygon fill="lightgrey" stroke="black" points="69.3848,-90.7696 47.3848,-90.7696 47.3848,-72.7696 69.3848,-72.7696 69.3848,-90.7696"/>
<text text-anchor="middle" x="58.3848" y="-78.6696" font-family="Times,serif" font-size="9.00">4</text>
</g>
<!-- 4&#45;&gt;7 -->
<g id="edge2" class="edge">
<title>4&#45;&gt;7</title>
<path fill="none" stroke="green" stroke-width="0.256843" d="M64.1158,-72.6881C69.3814,-64.3442 77.4003,-51.6372 84.3575,-40.6127"/>
<polygon fill="green" stroke="green" stroke-width="0.256843" points="87.4912,-42.2052 89.8681,-31.8804 81.5714,-38.4693 87.4912,-42.2052"/>
</g>
<!-- 5 -->
<g id="node6" class="node">
<title>5</title>
<polygon fill="lightgrey" stroke="black" points="266.885,-90.7696 245.885,-90.7696 245.885,-72.7696 266.885,-72.7696 266.885,-90.7696"/>
<text text-anchor="middle" x="256.385" y="-78.6696" font-family="Times,serif" font-size="9.00">5</text>
</g>
<!-- 6 -->
<g id="node7" class="node">
<title>6</title>
<polygon fill="lightgrey" stroke="black" points="227.885,-90.7696 206.885,-90.7696 206.885,-72.7696 227.885,-72.7696 227.885,-90.7696"/>
<text text-anchor="middle" x="217.385" y="-78.6696" font-family="Times,serif" font-size="9.00">6</text>
</g>
<!-- 8 -->
<g id="node9" class="node">
<title>8</title>
<ellipse fill="lightblue" stroke="lightblue" cx="211.385" cy="-18.3848" rx="14.7" ry="14.7"/>
<text text-anchor="middle" x="211.385" y="-15.2848" font-family="Times,serif" font-size="9.00">8</text>
</g>
<!-- 6&#45;&gt;8 -->
<g id="edge3" class="edge">
<title>6&#45;&gt;8</title>
<path fill="none" stroke="green" stroke-width="0.2458" stroke-dasharray="1,5" d="M216.525,-72.6881C215.804,-65.0662 214.738,-53.8038 213.763,-43.5087"/>
<polygon fill="green" stroke="green" stroke-width="0.2458" points="217.226,-42.9489 212.799,-33.3233 210.257,-43.6087 217.226,-42.9489"/>
</g>
<!-- 6&#45;&gt;9 -->
<g id="edge6" class="edge">
<title>6&#45;&gt;9</title>
<path fill="none" stroke="green" stroke-width="0.310767" d="M208.072,-72.6881C198.396,-63.253 183,-48.2393 170.846,-36.3874"/>
<polygon fill="green" stroke="green" stroke-width="0.310767" points="173.023,-33.6219 163.42,-29.1461 168.136,-38.6335 173.023,-33.6219"/>
</g>
<!-- 10 -->
<g id="node11" class="node">
<title>10</title>
<ellipse fill="lightblue" stroke="lightblue" cx="262.385" cy="-18.3848" rx="18.2703" ry="18.2703"/>
<text text-anchor="middle" x="262.385" y="-15.2848" font-family="Times,serif" font-size="9.00">10</text>
</g>
<!-- 6&#45;&gt;10 -->
<g id="edge5" class="edge">
<title>6&#45;&gt;10</title>
<path fill="none" stroke="green" stroke-width="0.544079" d="M223.832,-72.6881C229.508,-64.6929 238.029,-52.6918 245.617,-42.0033"/>
<polygon fill="green" stroke="green" stroke-width="0.544079" points="248.495,-43.9946 251.43,-33.8144 242.788,-39.9423 248.495,-43.9946"/>
</g>
</g>
</svg>
