<?xml version="1.0" encoding="UTF-8" standalone="no"?>
<!DOCTYPE svg PUBLIC "-//W3C//DTD SVG 1.1//EN"
 "http://www.w3.org/Graphics/SVG/1.1/DTD/svg11.dtd">
<!-- Generated by graphviz version 2.39.20160104.1625 (20160104.1625)
 -->
<!-- Title: %3 Pages: 1 -->
<svg width="1022pt" height="264pt"
 viewBox="0.00 0.00 1022.38 264.49" xmlns="http://www.w3.org/2000/svg" xmlns:xlink="http://www.w3.org/1999/xlink">
<g id="graph0" class="graph" transform="scale(1 1) rotate(0) translate(4 260.492)">
<title>%3</title>
<polygon fill="white" stroke="transparent" points="-4,4 -4,-260.492 1018.38,-260.492 1018.38,4 -4,4"/>
<!-- 0 -->
<g id="node1" class="node">
<title>0</title>
<polygon fill="lightgrey" stroke="black" points="65.5,-247.108 44.5,-247.108 44.5,-229.108 65.5,-229.108 65.5,-247.108"/>
<text text-anchor="middle" x="55" y="-235.008" font-family="Times,serif" font-size="9.00">0</text>
</g>
<!-- 28 -->
<g id="node29" class="node">
<title>28</title>
<ellipse fill="lightblue" stroke="lightblue" cx="20" cy="-165.338" rx="18.2703" ry="18.2703"/>
<text text-anchor="middle" x="20" y="-162.238" font-family="Times,serif" font-size="9.00">28</text>
</g>
<!-- 0&#45;&gt;28 -->
<g id="edge15" class="edge">
<title>0&#45;&gt;28</title>
<path fill="none" stroke="red" stroke-width="0.188917" d="M50.5672,-228.891C46.0083,-219.413 38.7004,-204.219 32.3732,-191.064"/>
<polygon fill="red" stroke="red" stroke-width="0.188917" points="35.4813,-189.451 27.9927,-181.956 29.173,-192.485 35.4813,-189.451"/>
</g>
<!-- 29 -->
<g id="node30" class="node">
<title>29</title>
<ellipse fill="none" stroke="black" cx="89" cy="-165.338" rx="18.2703" ry="18.2703"/>
<text text-anchor="middle" x="89" y="-162.238" font-family="Times,serif" font-size="9.00">29</text>
</g>
<!-- 0&#45;&gt;29 -->
<g id="edge13" class="edge">
<title>0&#45;&gt;29</title>
<path fill="none" stroke="green" stroke-width="0.297065" d="M59.3061,-228.891C63.7061,-219.474 70.7418,-204.416 76.8605,-191.32"/>
<polygon fill="green" stroke="green" stroke-width="0.297065" points="80.0408,-192.782 81.1029,-182.24 73.6988,-189.818 80.0408,-192.782"/>
</g>
<!-- 1 -->
<g id="node2" class="node">
<title>1</title>
<polygon fill="lightgrey" stroke="black" points="279.5,-247.108 258.5,-247.108 258.5,-229.108 279.5,-229.108 279.5,-247.108"/>
<text text-anchor="middle" x="269" y="-235.008" font-family="Times,serif" font-size="9.00">1</text>
</g>
<!-- 2 -->
<g id="node3" class="node">
<title>2</title>
<polygon fill="lightgrey" stroke="black" points="318.5,-247.108 297.5,-247.108 297.5,-229.108 318.5,-229.108 318.5,-247.108"/>
<text text-anchor="middle" x="308" y="-235.008" font-family="Times,serif" font-size="9.00">2</text>
</g>
<!-- 24 -->
<g id="node25" class="node">
<title>24</title>
<ellipse fill="lightblue" stroke="lightblue" cx="329" cy="-165.338" rx="18.2703" ry="18.2703"/>
<text text-anchor="middle" x="329" y="-162.238" font-family="Times,serif" font-size="9.00">24</text>
</g>
<!-- 2&#45;&gt;24 -->
<g id="edge11" class="edge">
<title>2&#45;&gt;24</title>
<path fill="none" stroke="green" stroke-width="0.477039" d="M310.66,-228.891C313.272,-219.838 317.389,-205.571 321.062,-192.847"/>
<polygon fill="green" stroke="green" stroke-width="0.477039" points="324.464,-193.68 323.874,-183.102 317.738,-191.739 324.464,-193.68"/>
</g>
<!-- 3 -->
<g id="node4" class="node">
<title>3</title>
<polygon fill="lightgrey" stroke="black" points="403,-247.108 381,-247.108 381,-229.108 403,-229.108 403,-247.108"/>
<text text-anchor="middle" x="392" y="-235.008" font-family="Times,serif" font-size="9.00">3</text>
</g>
<!-- 4 -->
<g id="node5" class="node">
<title>4</title>
<polygon fill="lightgrey" stroke="black" points="443,-247.108 421,-247.108 421,-229.108 443,-229.108 443,-247.108"/>
<text text-anchor="middle" x="432" y="-235.008" font-family="Times,serif" font-size="9.00">4</text>
</g>
<!-- 5 -->
<g id="node6" class="node">
<title>5</title>
<polygon fill="lightgrey" stroke="black" points="482.5,-247.108 461.5,-247.108 461.5,-229.108 482.5,-229.108 482.5,-247.108"/>
<text text-anchor="middle" x="472" y="-235.008" font-family="Times,serif" font-size="9.00">5</text>
</g>
<!-- 6 -->
<g id="node7" class="node">
<title>6</title>
<polygon fill="lightgrey" stroke="black" points="521.5,-247.108 500.5,-247.108 500.5,-229.108 521.5,-229.108 521.5,-247.108"/>
<text text-anchor="middle" x="511" y="-235.008" font-family="Times,serif" font-size="9.00">6</text>
</g>
<!-- 7 -->
<g id="node8" class="node">
<title>7</title>
<polygon fill="lightgrey" stroke="black" points="562,-247.108 540,-247.108 540,-229.108 562,-229.108 562,-247.108"/>
<text text-anchor="middle" x="551" y="-235.008" font-family="Times,serif" font-size="9.00">7</text>
</g>
<!-- 8 -->
<g id="node9" class="node">
<title>8</title>
<polygon fill="lightgrey" stroke="black" points="601.5,-247.108 580.5,-247.108 580.5,-229.108 601.5,-229.108 601.5,-247.108"/>
<text text-anchor="middle" x="591" y="-235.008" font-family="Times,serif" font-size="9.00">8</text>
</g>
<!-- 9 -->
<g id="node10" class="node">
<title>9</title>
<polygon fill="lightgrey" stroke="black" points="640.5,-247.108 619.5,-247.108 619.5,-229.108 640.5,-229.108 640.5,-247.108"/>
<text text-anchor="middle" x="630" y="-235.008" font-family="Times,serif" font-size="9.00">9</text>
</g>
<!-- 26 -->
<g id="node27" class="node">
<title>26</title>
<ellipse fill="lightblue" stroke="lightblue" cx="630" cy="-165.338" rx="18.2703" ry="18.2703"/>
<text text-anchor="middle" x="630" y="-162.238" font-family="Times,serif" font-size="9.00">26</text>
</g>
<!-- 9&#45;&gt;26 -->
<g id="edge1" class="edge">
<title>9&#45;&gt;26</title>
<path fill="none" stroke="red" stroke-width="0.103732" d="M630,-228.891C630,-220.107 630,-206.414 630,-193.984"/>
<polygon fill="red" stroke="red" stroke-width="0.103732" points="633.5,-193.976 630,-183.976 626.5,-193.976 633.5,-193.976"/>
</g>
<!-- 10 -->
<g id="node11" class="node">
<title>10</title>
<polygon fill="lightgrey" stroke="black" points="685,-247.108 659,-247.108 659,-229.108 685,-229.108 685,-247.108"/>
<text text-anchor="middle" x="672" y="-235.008" font-family="Times,serif" font-size="9.00">10</text>
</g>
<!-- 11 -->
<g id="node12" class="node">
<title>11</title>
<polygon fill="lightgrey" stroke="black" points="240,-247.108 214,-247.108 214,-229.108 240,-229.108 240,-247.108"/>
<text text-anchor="middle" x="227" y="-235.008" font-family="Times,serif" font-size="9.00">11</text>
</g>
<!-- 22 -->
<g id="node23" class="node">
<title>22</title>
<ellipse fill="lightblue" stroke="lightblue" cx="227" cy="-165.338" rx="18.2703" ry="18.2703"/>
<text text-anchor="middle" x="227" y="-162.238" font-family="Times,serif" font-size="9.00">22</text>
</g>
<!-- 11&#45;&gt;22 -->
<g id="edge6" class="edge">
<title>11&#45;&gt;22</title>
<path fill="none" stroke="green" stroke-width="0.830902" d="M227,-228.891C227,-220.107 227,-206.414 227,-193.984"/>
<polygon fill="green" stroke="green" stroke-width="0.830902" points="230.5,-193.976 227,-183.976 223.5,-193.976 230.5,-193.976"/>
</g>
<!-- 12 -->
<g id="node13" class="node">
<title>12</title>
<polygon fill="lightgrey" stroke="black" points="194,-247.108 168,-247.108 168,-229.108 194,-229.108 194,-247.108"/>
<text text-anchor="middle" x="181" y="-235.008" font-family="Times,serif" font-size="9.00">12</text>
</g>
<!-- 12&#45;&gt;22 -->
<g id="edge14" class="edge">
<title>12&#45;&gt;22</title>
<path fill="none" stroke="green" stroke-width="0.319472" d="M186.826,-228.891C192.994,-219.134 202.99,-203.321 211.468,-189.91"/>
<polygon fill="green" stroke="green" stroke-width="0.319472" points="214.644,-191.436 217.028,-181.113 208.727,-187.695 214.644,-191.436"/>
</g>
<!-- 25 -->
<g id="node26" class="node">
<title>25</title>
<ellipse fill="lightblue" stroke="lightblue" cx="134" cy="-18.3848" rx="18.2703" ry="18.2703"/>
<text text-anchor="middle" x="134" y="-15.2848" font-family="Times,serif" font-size="9.00">25</text>
</g>
<!-- 12&#45;&gt;25 -->
<g id="edge5" class="edge">
<title>12&#45;&gt;25</title>
<path fill="none" stroke="red" stroke-width="0.34196" stroke-dasharray="1,5" d="M181.089,-228.914C181.094,-203.482 179.469,-130.273 162,-72.7696 158.884,-62.5131 153.872,-51.8899 148.944,-42.7836"/>
<polygon fill="red" stroke="red" stroke-width="0.34196" points="151.898,-40.896 143.922,-33.9219 145.808,-44.3475 151.898,-40.896"/>
</g>
<!-- 12&#45;&gt;29 -->
<g id="edge10" class="edge">
<title>12&#45;&gt;29</title>
<path fill="none" stroke="green" stroke-width="0.186671" d="M169.348,-228.891C154.84,-217.416 129.743,-197.564 111.449,-183.095"/>
<polygon fill="green" stroke="green" stroke-width="0.186671" points="113.6,-180.334 103.586,-176.875 109.257,-185.824 113.6,-180.334"/>
</g>
<!-- 13 -->
<g id="node14" class="node">
<title>13</title>
<polygon fill="lightgrey" stroke="black" points="110,-247.108 84,-247.108 84,-229.108 110,-229.108 110,-247.108"/>
<text text-anchor="middle" x="97" y="-235.008" font-family="Times,serif" font-size="9.00">13</text>
</g>
<!-- 13&#45;&gt;29 -->
<g id="edge8" class="edge">
<title>13&#45;&gt;29</title>
<path fill="none" stroke="red" stroke-width="0.861014" d="M95.9868,-228.891C95.0145,-220.047 93.4952,-206.228 92.1214,-193.731"/>
<polygon fill="red" stroke="red" stroke-width="0.861014" points="95.5887,-193.241 91.0168,-183.683 88.6306,-194.006 95.5887,-193.241"/>
</g>
<!-- 14 -->
<g id="node15" class="node">
<title>14</title>
<polygon fill="lightgrey" stroke="black" points="729,-247.108 703,-247.108 703,-229.108 729,-229.108 729,-247.108"/>
<text text-anchor="middle" x="716" y="-235.008" font-family="Times,serif" font-size="9.00">14</text>
</g>
<!-- 15 -->
<g id="node16" class="node">
<title>15</title>
<polygon fill="lightgrey" stroke="black" points="773,-247.108 747,-247.108 747,-229.108 773,-229.108 773,-247.108"/>
<text text-anchor="middle" x="760" y="-235.008" font-family="Times,serif" font-size="9.00">15</text>
</g>
<!-- 16 -->
<g id="node17" class="node">
<title>16</title>
<polygon fill="lightgrey" stroke="black" points="817,-247.108 791,-247.108 791,-229.108 817,-229.108 817,-247.108"/>
<text text-anchor="middle" x="804" y="-235.008" font-family="Times,serif" font-size="9.00">16</text>
</g>
<!-- 17 -->
<g id="node18" class="node">
<title>17</title>
<polygon fill="lightgrey" stroke="black" points="151,-174.338 125,-174.338 125,-156.338 151,-156.338 151,-174.338"/>
<text text-anchor="middle" x="138" y="-162.238" font-family="Times,serif" font-size="9.00">17</text>
</g>
<!-- 30 -->
<g id="node31" class="node">
<title>30</title>
<ellipse fill="none" stroke="black" cx="134" cy="-91.8614" rx="19.1842" ry="19.1842"/>
<text text-anchor="middle" x="134" y="-88.7614" font-family="Times,serif" font-size="9.00">30</text>
</g>
<!-- 17&#45;&gt;30 -->
<g id="edge3" class="edge">
<title>17&#45;&gt;30</title>
<path fill="none" stroke="green" stroke-width="0.289277" d="M137.51,-156.328C137.034,-147.586 136.285,-133.837 135.601,-121.277"/>
<polygon fill="green" stroke="green" stroke-width="0.289277" points="139.088,-120.937 135.05,-111.143 132.098,-121.318 139.088,-120.937"/>
</g>
<!-- 18 -->
<g id="node19" class="node">
<title>18</title>
<polygon fill="lightgrey" stroke="black" points="861,-247.108 835,-247.108 835,-229.108 861,-229.108 861,-247.108"/>
<text text-anchor="middle" x="848" y="-235.008" font-family="Times,serif" font-size="9.00">18</text>
</g>
<!-- 19 -->
<g id="node20" class="node">
<title>19</title>
<polygon fill="lightgrey" stroke="black" points="363,-247.108 337,-247.108 337,-229.108 363,-229.108 363,-247.108"/>
<text text-anchor="middle" x="350" y="-235.008" font-family="Times,serif" font-size="9.00">19</text>
</g>
<!-- 19&#45;&gt;24 -->
<g id="edge7" class="edge">
<title>19&#45;&gt;24</title>
<path fill="none" stroke="red" stroke-width="0.308031" d="M347.34,-228.891C344.728,-219.838 340.611,-205.571 336.938,-192.847"/>
<polygon fill="red" stroke="red" stroke-width="0.308031" points="340.262,-191.739 334.126,-183.102 333.536,-193.68 340.262,-191.739"/>
</g>
<!-- 20 -->
<g id="node21" class="node">
<title>20</title>
<polygon fill="lightgrey" stroke="black" points="905,-247.108 879,-247.108 879,-229.108 905,-229.108 905,-247.108"/>
<text text-anchor="middle" x="892" y="-235.008" font-family="Times,serif" font-size="9.00">20</text>
</g>
<!-- 21 -->
<g id="node22" class="node">
<title>21</title>
<polygon fill="lightgrey" stroke="black" points="26,-247.108 0,-247.108 0,-229.108 26,-229.108 26,-247.108"/>
<text text-anchor="middle" x="13" y="-235.008" font-family="Times,serif" font-size="9.00">21</text>
</g>
<!-- 21&#45;&gt;28 -->
<g id="edge4" class="edge">
<title>21&#45;&gt;28</title>
<path fill="none" stroke="green" stroke-width="0.333105" d="M13.8866,-228.891C14.7373,-220.047 16.0667,-206.228 17.2688,-193.731"/>
<polygon fill="green" stroke="green" stroke-width="0.333105" points="20.7616,-193.973 18.2353,-183.683 13.7938,-193.302 20.7616,-193.973"/>
</g>
<!-- 23 -->
<g id="node24" class="node">
<title>23</title>
<ellipse fill="lightblue" stroke="lightblue" cx="941" cy="-238.108" rx="18.2703" ry="18.2703"/>
<text text-anchor="middle" x="941" y="-235.008" font-family="Times,serif" font-size="9.00">23</text>
</g>
<!-- 27 -->
<g id="node28" class="node">
<title>27</title>
<ellipse fill="lightblue" stroke="lightblue" cx="996" cy="-238.108" rx="18.2703" ry="18.2703"/>
<text text-anchor="middle" x="996" y="-235.008" font-family="Times,serif" font-size="9.00">27</text>
</g>
<!-- 29&#45;&gt;25 -->
<g id="edge9" class="edge">
<title>29&#45;&gt;25</title>
<path fill="none" stroke="green" stroke-width="0.745641" d="M90.779,-146.843C92.9762,-127.863 97.5118,-97.6694 106,-72.7696 109.408,-62.7728 114.394,-52.3354 119.217,-43.3084"/>
<polygon fill="green" stroke="green" stroke-width="0.745641" points="122.319,-44.9316 124.112,-34.4895 116.199,-41.5344 122.319,-44.9316"/>
</g>
<!-- 29&#45;&gt;30 -->
<g id="edge2" class="edge">
<title>29&#45;&gt;30</title>
<path fill="none" stroke="green" stroke-width="0.615155" d="M98.7643,-149.395C104.58,-139.898 112.089,-127.637 118.68,-116.876"/>
<polygon fill="green" stroke="green" stroke-width="0.615155" points="121.705,-118.638 123.943,-108.282 115.736,-114.982 121.705,-118.638"/>
</g>
<!-- 30&#45;&gt;25 -->
<g id="edge12" class="edge">
<title>30&#45;&gt;25</title>
<path fill="none" stroke="red" stroke-width="0.300233" d="M134,-72.5563C134,-64.6969 134,-55.4517 134,-46.8458"/>
<polygon fill="red" stroke="red" stroke-width="0.300233" points="137.5,-46.8016 134,-36.8016 130.5,-46.8016 137.5,-46.8016"/>
</g>
</g>
</svg>
