<?xml version="1.0" encoding="UTF-8" standalone="no"?>
<!DOCTYPE svg PUBLIC "-//W3C//DTD SVG 1.1//EN"
 "http://www.w3.org/Graphics/SVG/1.1/DTD/svg11.dtd">
<!-- Generated by graphviz version 2.39.20160104.1625 (20160104.1625)
 -->
<!-- Title: %3 Pages: 1 -->
<svg width="751pt" height="244pt"
 viewBox="0.00 0.00 751.18 244.31" xmlns="http://www.w3.org/2000/svg" xmlns:xlink="http://www.w3.org/1999/xlink">
<g id="graph0" class="graph" transform="scale(1 1) rotate(0) translate(4 240.309)">
<title>%3</title>
<polygon fill="white" stroke="transparent" points="-4,4 -4,-240.309 747.18,-240.309 747.18,4 -4,4"/>
<!-- 0 -->
<g id="node1" class="node">
<title>0</title>
<polygon fill="lightgrey" stroke="black" points="26.3507,-236.309 5.35074,-236.309 5.35074,-218.309 26.3507,-218.309 26.3507,-236.309"/>
<text text-anchor="middle" x="15.8507" y="-224.209" font-family="Times,serif" font-size="9.00">0</text>
</g>
<!-- 8 -->
<g id="node9" class="node">
<title>8</title>
<ellipse fill="lightblue" stroke="lightblue" cx="281.851" cy="-18.3848" rx="14.7" ry="14.7"/>
<text text-anchor="middle" x="281.851" y="-15.2848" font-family="Times,serif" font-size="9.00">8</text>
</g>
<!-- 0&#45;&gt;8 -->
<g id="edge19" class="edge">
<title>0&#45;&gt;8</title>
<path fill="none" stroke="green" stroke-width="0.363298" d="M12.6512,-218.143C9.69265,-209.148 5.51064,-194.975 3.85074,-182.309 -2.72335,-132.141 -4.09388,-105.069 34.8507,-72.7696 68.7539,-44.651 201.218,-27.2034 256.938,-20.9709"/>
<polygon fill="green" stroke="green" stroke-width="0.363298" points="257.445,-24.4365 267.007,-19.8741 256.687,-17.4776 257.445,-24.4365"/>
</g>
<!-- 11 -->
<g id="node12" class="node">
<title>11</title>
<ellipse fill="lightblue" stroke="lightblue" cx="61.8507" cy="-91.1543" rx="18.2703" ry="18.2703"/>
<text text-anchor="middle" x="61.8507" y="-88.0543" font-family="Times,serif" font-size="9.00">11</text>
</g>
<!-- 0&#45;&gt;11 -->
<g id="edge32" class="edge">
<title>0&#45;&gt;11</title>
<path fill="none" stroke="red" stroke-width="1.37668" stroke-dasharray="1,5" d="M12.9633,-217.836C8.71128,-202.175 2.24886,-170.17 11.8507,-145.539 17.419,-131.255 28.6881,-118.454 39.1204,-108.864"/>
<polygon fill="red" stroke="red" stroke-width="1.37668" points="41.5617,-111.38 46.8266,-102.186 36.9773,-106.09 41.5617,-111.38"/>
</g>
<!-- 14 -->
<g id="node13" class="node">
<title>14</title>
<ellipse fill="none" stroke="black" cx="403.851" cy="-91.1543" rx="18.2703" ry="18.2703"/>
<text text-anchor="middle" x="403.851" y="-88.0543" font-family="Times,serif" font-size="9.00">14</text>
</g>
<!-- 0&#45;&gt;14 -->
<g id="edge5" class="edge">
<title>0&#45;&gt;14</title>
<path fill="none" stroke="green" stroke-width="0.131263" stroke-dasharray="1,5" d="M26.633,-223.525C78.0545,-205.481 299.085,-127.918 376.744,-100.666"/>
<polygon fill="green" stroke="green" stroke-width="0.131263" points="378.032,-103.924 386.309,-97.3098 375.714,-97.3185 378.032,-103.924"/>
</g>
<!-- 15 -->
<g id="node16" class="node">
<title>15</title>
<ellipse fill="none" stroke="black" cx="38.8507" cy="-163.924" rx="18.2703" ry="18.2703"/>
<text text-anchor="middle" x="38.8507" y="-160.824" font-family="Times,serif" font-size="9.00">15</text>
</g>
<!-- 0&#45;&gt;15 -->
<g id="edge21" class="edge">
<title>0&#45;&gt;15</title>
<path fill="none" stroke="green" stroke-width="0.136925" d="M19.1461,-218.227C21.7546,-211.039 25.5381,-200.612 29.0941,-190.812"/>
<polygon fill="green" stroke="green" stroke-width="0.136925" points="32.4012,-191.959 32.5221,-181.365 25.821,-189.571 32.4012,-191.959"/>
</g>
<!-- 1 -->
<g id="node2" class="node">
<title>1</title>
<polygon fill="lightgrey" stroke="black" points="492.351,-172.924 471.351,-172.924 471.351,-154.924 492.351,-154.924 492.351,-172.924"/>
<text text-anchor="middle" x="481.851" y="-160.824" font-family="Times,serif" font-size="9.00">1</text>
</g>
<!-- 7 -->
<g id="node8" class="node">
<title>7</title>
<ellipse fill="lightblue" stroke="lightblue" cx="455.851" cy="-91.1543" rx="15.6129" ry="15.6129"/>
<text text-anchor="middle" x="455.851" y="-88.0543" font-family="Times,serif" font-size="9.00">7</text>
</g>
<!-- 1&#45;&gt;7 -->
<g id="edge35" class="edge">
<title>1&#45;&gt;7</title>
<path fill="none" stroke="red" stroke-width="0.446708" d="M478.558,-154.708C475.052,-144.894 469.357,-128.955 464.547,-115.494"/>
<polygon fill="red" stroke="red" stroke-width="0.446708" points="467.754,-114.066 461.093,-105.827 461.162,-116.422 467.754,-114.066"/>
</g>
<!-- 10 -->
<g id="node11" class="node">
<title>10</title>
<ellipse fill="lightblue" stroke="lightblue" cx="518.851" cy="-18.3848" rx="18.2703" ry="18.2703"/>
<text text-anchor="middle" x="518.851" y="-15.2848" font-family="Times,serif" font-size="9.00">10</text>
</g>
<!-- 1&#45;&gt;10 -->
<g id="edge8" class="edge">
<title>1&#45;&gt;10</title>
<path fill="none" stroke="green" stroke-width="0.757752" stroke-dasharray="1,5" d="M484.165,-154.82C489.561,-133.594 503.161,-80.0987 511.64,-46.7489"/>
<polygon fill="green" stroke="green" stroke-width="0.757752" points="515.124,-47.2494 514.196,-36.6953 508.34,-45.5247 515.124,-47.2494"/>
</g>
<!-- 2 -->
<g id="node3" class="node">
<title>2</title>
<polygon fill="lightgrey" stroke="black" points="415.351,-236.309 394.351,-236.309 394.351,-218.309 415.351,-218.309 415.351,-236.309"/>
<text text-anchor="middle" x="404.851" y="-224.209" font-family="Times,serif" font-size="9.00">2</text>
</g>
<!-- 2&#45;&gt;8 -->
<g id="edge39" class="edge">
<title>2&#45;&gt;8</title>
<path fill="none" stroke="green" stroke-width="0.529012" d="M399.407,-218.062C381.046,-186.876 321.073,-85.0064 294.602,-40.0443"/>
<polygon fill="green" stroke="green" stroke-width="0.529012" points="297.579,-38.2014 289.489,-31.3596 291.547,-41.7528 297.579,-38.2014"/>
</g>
<!-- 9 -->
<g id="node10" class="node">
<title>9</title>
<ellipse fill="lightblue" stroke="lightblue" cx="657.851" cy="-91.1543" rx="14.7" ry="14.7"/>
<text text-anchor="middle" x="657.851" y="-88.0543" font-family="Times,serif" font-size="9.00">9</text>
</g>
<!-- 2&#45;&gt;9 -->
<g id="edge22" class="edge">
<title>2&#45;&gt;9</title>
<path fill="none" stroke="red" stroke-width="0.322809" d="M415.709,-225.633C450.624,-220.095 559.444,-201.632 588.851,-182.309 615.03,-165.106 635.156,-134.468 646.742,-113.499"/>
<polygon fill="red" stroke="red" stroke-width="0.322809" points="649.854,-115.101 651.455,-104.628 643.672,-111.817 649.854,-115.101"/>
</g>
<!-- 2&#45;&gt;10 -->
<g id="edge7" class="edge">
<title>2&#45;&gt;10</title>
<path fill="none" stroke="red" stroke-width="0.787963" d="M415.609,-225.771C447.207,-221.013 538.603,-205.446 555.851,-182.309 587.223,-140.223 556.221,-76.3236 535.024,-42.061"/>
<polygon fill="red" stroke="red" stroke-width="0.787963" points="537.964,-40.1616 529.627,-33.6225 532.066,-43.9328 537.964,-40.1616"/>
</g>
<!-- 2&#45;&gt;11 -->
<g id="edge27" class="edge">
<title>2&#45;&gt;11</title>
<path fill="none" stroke="green" stroke-width="1.64839" stroke-dasharray="1,5" d="M394.209,-223.085C347.435,-204.517 159.297,-129.836 88.7491,-101.832"/>
<polygon fill="green" stroke="green" stroke-width="1.64839" points="89.8102,-98.4873 79.2244,-98.0508 87.2276,-104.993 89.8102,-98.4873"/>
</g>
<!-- 2&#45;&gt;14 -->
<g id="edge14" class="edge">
<title>2&#45;&gt;14</title>
<path fill="none" stroke="green" stroke-width="0.788838" d="M404.782,-217.95C404.636,-198.065 404.29,-150.903 404.063,-120.04"/>
<polygon fill="green" stroke="green" stroke-width="0.788838" points="407.562,-119.848 403.988,-109.874 400.562,-119.899 407.562,-119.848"/>
</g>
<!-- 12 -->
<g id="node14" class="node">
<title>12</title>
<ellipse fill="none" stroke="black" cx="528.851" cy="-163.924" rx="18.2703" ry="18.2703"/>
<text text-anchor="middle" x="528.851" y="-160.824" font-family="Times,serif" font-size="9.00">12</text>
</g>
<!-- 2&#45;&gt;12 -->
<g id="edge10" class="edge">
<title>2&#45;&gt;12</title>
<path fill="none" stroke="red" stroke-width="0.90922" d="M415.465,-222.924C433.43,-215.373 470.805,-199.102 500.851,-182.309 502.183,-181.564 503.537,-180.779 504.893,-179.969"/>
<polygon fill="red" stroke="red" stroke-width="0.90922" points="507.085,-182.725 513.691,-174.442 503.361,-176.798 507.085,-182.725"/>
</g>
<!-- 13 -->
<g id="node15" class="node">
<title>13</title>
<ellipse fill="none" stroke="black" cx="320.851" cy="-163.924" rx="18.2703" ry="18.2703"/>
<text text-anchor="middle" x="320.851" y="-160.824" font-family="Times,serif" font-size="9.00">13</text>
</g>
<!-- 2&#45;&gt;13 -->
<g id="edge28" class="edge">
<title>2&#45;&gt;13</title>
<path fill="none" stroke="red" stroke-width="0.203151" stroke-dasharray="1,5" d="M394.212,-219.281C381.581,-209.749 360.156,-193.583 343.711,-181.174"/>
<polygon fill="red" stroke="red" stroke-width="0.203151" points="345.729,-178.312 335.639,-175.083 341.513,-183.9 345.729,-178.312"/>
</g>
<!-- 3 -->
<g id="node4" class="node">
<title>3</title>
<polygon fill="lightgrey" stroke="black" points="539.851,-236.309 517.851,-236.309 517.851,-218.309 539.851,-218.309 539.851,-236.309"/>
<text text-anchor="middle" x="528.851" y="-224.209" font-family="Times,serif" font-size="9.00">3</text>
</g>
<!-- 3&#45;&gt;14 -->
<g id="edge16" class="edge">
<title>3&#45;&gt;14</title>
<path fill="none" stroke="red" stroke-width="0.92995" d="M517.38,-221.525C503.14,-213.944 478.68,-199.56 461.851,-182.309 442.94,-162.924 426.912,-136.412 416.53,-116.977"/>
<polygon fill="red" stroke="red" stroke-width="0.92995" points="419.616,-115.325 411.899,-108.066 413.405,-118.554 419.616,-115.325"/>
</g>
<!-- 3&#45;&gt;12 -->
<g id="edge37" class="edge">
<title>3&#45;&gt;12</title>
<path fill="none" stroke="green" stroke-width="0.486734" stroke-dasharray="1,5" d="M528.851,-218.227C528.851,-211.462 528.851,-201.829 528.851,-192.55"/>
<polygon fill="green" stroke="green" stroke-width="0.486734" points="532.351,-192.396 528.851,-182.396 525.351,-192.396 532.351,-192.396"/>
</g>
<!-- 16 -->
<g id="node17" class="node">
<title>16</title>
<ellipse fill="none" stroke="black" cx="696.851" cy="-163.924" rx="18.2703" ry="18.2703"/>
<text text-anchor="middle" x="696.851" y="-160.824" font-family="Times,serif" font-size="9.00">16</text>
</g>
<!-- 3&#45;&gt;16 -->
<g id="edge36" class="edge">
<title>3&#45;&gt;16</title>
<path fill="none" stroke="green" stroke-width="0.3" d="M539.874,-223.15C565.963,-213.306 632.119,-188.347 669.692,-174.17"/>
<polygon fill="green" stroke="green" stroke-width="0.3" points="671.354,-177.284 679.475,-170.48 668.883,-170.735 671.354,-177.284"/>
</g>
<!-- 4 -->
<g id="node5" class="node">
<title>4</title>
<polygon fill="lightgrey" stroke="black" points="331.851,-236.309 309.851,-236.309 309.851,-218.309 331.851,-218.309 331.851,-236.309"/>
<text text-anchor="middle" x="320.851" y="-224.209" font-family="Times,serif" font-size="9.00">4</text>
</g>
<!-- 4&#45;&gt;8 -->
<g id="edge3" class="edge">
<title>4&#45;&gt;8</title>
<path fill="none" stroke="red" stroke-width="0.8041" d="M313.674,-218.276C307.23,-209.604 298.142,-195.858 293.851,-182.309 278.833,-134.894 278.702,-76.0565 280.148,-43.3295"/>
<polygon fill="red" stroke="red" stroke-width="0.8041" points="283.646,-43.457 280.68,-33.2859 276.656,-43.0869 283.646,-43.457"/>
</g>
<!-- 4&#45;&gt;12 -->
<g id="edge9" class="edge">
<title>4&#45;&gt;12</title>
<path fill="none" stroke="green" stroke-width="1.08806" d="M332.235,-225.818C361.327,-221.725 440.368,-208.811 500.851,-182.309 502.249,-181.696 503.655,-181.016 505.052,-180.288"/>
<polygon fill="green" stroke="green" stroke-width="1.08806" points="507.147,-183.115 513.975,-175.014 503.586,-177.089 507.147,-183.115"/>
</g>
<!-- 4&#45;&gt;13 -->
<g id="edge18" class="edge">
<title>4&#45;&gt;13</title>
<path fill="none" stroke="red" stroke-width="0.193245" d="M320.851,-218.227C320.851,-211.462 320.851,-201.829 320.851,-192.55"/>
<polygon fill="red" stroke="red" stroke-width="0.193245" points="324.351,-192.396 320.851,-182.396 317.351,-192.396 324.351,-192.396"/>
</g>
<!-- 5 -->
<g id="node6" class="node">
<title>5</title>
<polygon fill="lightgrey" stroke="black" points="707.351,-236.309 686.351,-236.309 686.351,-218.309 707.351,-218.309 707.351,-236.309"/>
<text text-anchor="middle" x="696.851" y="-224.209" font-family="Times,serif" font-size="9.00">5</text>
</g>
<!-- 5&#45;&gt;9 -->
<g id="edge1" class="edge">
<title>5&#45;&gt;9</title>
<path fill="none" stroke="red" stroke-width="0.905131" stroke-dasharray="1,5" d="M704.464,-217.952C716.086,-202.458 735.715,-170.688 723.851,-145.539 714.88,-126.524 695.639,-111.904 680.234,-102.636"/>
<polygon fill="red" stroke="red" stroke-width="0.905131" points="681.692,-99.44 671.265,-97.5654 678.248,-105.534 681.692,-99.44"/>
</g>
<!-- 5&#45;&gt;10 -->
<g id="edge20" class="edge">
<title>5&#45;&gt;10</title>
<path fill="none" stroke="green" stroke-width="0.111027" stroke-dasharray="1,5" d="M707.495,-219.781C717.742,-211.817 732.581,-198.216 738.851,-182.309 744.843,-167.105 744.181,-160.987 738.851,-145.539 725.451,-106.703 715.425,-96.445 681.851,-72.7696 640.202,-43.4009 581.556,-29.0107 547.143,-22.6863"/>
<polygon fill="green" stroke="green" stroke-width="0.111027" points="547.738,-19.2373 537.286,-20.9748 546.54,-26.1341 547.738,-19.2373"/>
</g>
<!-- 5&#45;&gt;14 -->
<g id="edge30" class="edge">
<title>5&#45;&gt;14</title>
<path fill="none" stroke="green" stroke-width="0.371147" stroke-dasharray="1,5" d="M686.006,-219.764C662.985,-204.038 607.132,-167.4 555.851,-145.539 502.668,-122.867 483.18,-134.118 430.851,-109.539 429.667,-108.983 428.477,-108.378 427.292,-107.737"/>
<polygon fill="green" stroke="green" stroke-width="0.371147" points="428.839,-104.58 418.481,-102.349 425.186,-110.552 428.839,-104.58"/>
</g>
<!-- 5&#45;&gt;12 -->
<g id="edge25" class="edge">
<title>5&#45;&gt;12</title>
<path fill="none" stroke="green" stroke-width="0.572378" d="M686.342,-223.344C660.602,-213.632 593.756,-188.412 555.945,-174.146"/>
<polygon fill="green" stroke="green" stroke-width="0.572378" points="556.7,-170.691 546.109,-170.435 554.229,-177.24 556.7,-170.691"/>
</g>
<!-- 6 -->
<g id="node7" class="node">
<title>6</title>
<polygon fill="lightgrey" stroke="black" points="228.351,-236.309 207.351,-236.309 207.351,-218.309 228.351,-218.309 228.351,-236.309"/>
<text text-anchor="middle" x="217.851" y="-224.209" font-family="Times,serif" font-size="9.00">6</text>
</g>
<!-- 6&#45;&gt;10 -->
<g id="edge26" class="edge">
<title>6&#45;&gt;10</title>
<path fill="none" stroke="red" stroke-width="0.544196" stroke-dasharray="1,5" d="M219.63,-218.19C223.204,-201.917 232.615,-167.523 251.851,-145.539 317.303,-70.7362 436.453,-36.3524 490.655,-24.0338"/>
<polygon fill="red" stroke="red" stroke-width="0.544196" points="491.574,-27.4157 500.594,-21.8589 490.077,-20.5775 491.574,-27.4157"/>
</g>
<!-- 6&#45;&gt;11 -->
<g id="edge4" class="edge">
<title>6&#45;&gt;11</title>
<path fill="none" stroke="green" stroke-width="0.571322" stroke-dasharray="1,5" d="M207.174,-221.677C192.763,-213.829 166.617,-198.71 146.851,-182.309 121.498,-161.272 96.2363,-133.016 79.9251,-113.569"/>
<polygon fill="green" stroke="green" stroke-width="0.571322" points="82.5822,-111.29 73.5083,-105.82 77.1908,-115.755 82.5822,-111.29"/>
</g>
<!-- 6&#45;&gt;14 -->
<g id="edge17" class="edge">
<title>6&#45;&gt;14</title>
<path fill="none" stroke="green" stroke-width="0.323146" d="M224.455,-218.115C236.613,-201.724 264.035,-167.15 293.851,-145.539 324.765,-123.132 337.931,-127.067 371.851,-109.539 374.275,-108.286 376.779,-106.941 379.268,-105.57"/>
<polygon fill="green" stroke="green" stroke-width="0.323146" points="381.072,-108.571 388.054,-100.602 377.626,-102.477 381.072,-108.571"/>
</g>
<!-- 6&#45;&gt;12 -->
<g id="edge13" class="edge">
<title>6&#45;&gt;12</title>
<path fill="none" stroke="red" stroke-width="0.733227" stroke-dasharray="1,5" d="M228.469,-226.225C273.563,-221.531 449.237,-202.289 500.851,-182.309 502.274,-181.758 503.7,-181.126 505.113,-180.437"/>
<polygon fill="red" stroke="red" stroke-width="0.733227" points="507.159,-183.298 514.086,-175.281 503.671,-177.229 507.159,-183.298"/>
</g>
<!-- 6&#45;&gt;13 -->
<g id="edge34" class="edge">
<title>6&#45;&gt;13</title>
<path fill="none" stroke="red" stroke-width="0.352032" d="M228.486,-220.764C244.406,-210.967 274.869,-192.22 296.452,-178.938"/>
<polygon fill="red" stroke="red" stroke-width="0.352032" points="298.408,-181.845 305.09,-173.623 294.739,-175.883 298.408,-181.845"/>
</g>
<!-- 6&#45;&gt;15 -->
<g id="edge38" class="edge">
<title>6&#45;&gt;15</title>
<path fill="none" stroke="green" stroke-width="0.609697" d="M207.226,-224.926C182.619,-219.223 120.067,-203.657 70.8507,-182.309 68.3471,-181.223 65.7907,-179.989 63.2684,-178.687"/>
<polygon fill="green" stroke="green" stroke-width="0.609697" points="64.8842,-175.581 54.4379,-173.813 61.5018,-181.71 64.8842,-175.581"/>
</g>
<!-- 14&#45;&gt;8 -->
<g id="edge29" class="edge">
<title>14&#45;&gt;8</title>
<path fill="none" stroke="red" stroke-width="0.148422" stroke-dasharray="1,5" d="M387.901,-81.641C366.348,-68.7849 327.84,-45.8161 303.634,-31.378"/>
<polygon fill="red" stroke="red" stroke-width="0.148422" points="305.205,-28.2397 294.824,-26.1229 301.619,-34.2515 305.205,-28.2397"/>
</g>
<!-- 14&#45;&gt;10 -->
<g id="edge2" class="edge">
<title>14&#45;&gt;10</title>
<path fill="none" stroke="red" stroke-width="0.359613" stroke-dasharray="1,5" d="M419.192,-80.5358C422.981,-77.961 427.045,-75.2394 430.851,-72.7696 452.018,-59.0314 476.46,-43.9907 494.204,-33.2158"/>
<polygon fill="red" stroke="red" stroke-width="0.359613" points="496.079,-36.1726 502.82,-27.9996 492.453,-30.1845 496.079,-36.1726"/>
</g>
<!-- 12&#45;&gt;7 -->
<g id="edge6" class="edge">
<title>12&#45;&gt;7</title>
<path fill="none" stroke="green" stroke-width="0.100092" d="M515.8,-150.914C504.144,-139.295 486.955,-122.161 473.968,-109.215"/>
<polygon fill="green" stroke="green" stroke-width="0.100092" points="476.434,-106.731 466.881,-102.15 471.492,-111.688 476.434,-106.731"/>
</g>
<!-- 12&#45;&gt;9 -->
<g id="edge15" class="edge">
<title>12&#45;&gt;9</title>
<path fill="none" stroke="green" stroke-width="0.476933" stroke-dasharray="1,5" d="M544.928,-154.855C567.806,-141.949 609.837,-118.239 635.666,-103.669"/>
<polygon fill="green" stroke="green" stroke-width="0.476933" points="637.708,-106.536 644.698,-98.574 634.268,-100.439 637.708,-106.536"/>
</g>
<!-- 12&#45;&gt;10 -->
<g id="edge12" class="edge">
<title>12&#45;&gt;10</title>
<path fill="none" stroke="green" stroke-width="0.759108" d="M527.584,-145.491C525.88,-120.694 522.833,-76.3403 520.826,-47.1368"/>
<polygon fill="green" stroke="green" stroke-width="0.759108" points="524.316,-46.864 520.139,-37.1274 517.332,-47.3439 524.316,-46.864"/>
</g>
<!-- 13&#45;&gt;7 -->
<g id="edge33" class="edge">
<title>13&#45;&gt;7</title>
<path fill="none" stroke="red" stroke-width="0.250931" stroke-dasharray="1,5" d="M338.113,-156.522C360.2,-146.798 399.366,-128.697 430.851,-109.539 432.306,-108.653 433.784,-107.706 435.255,-106.726"/>
<polygon fill="red" stroke="red" stroke-width="0.250931" points="437.282,-109.579 443.43,-100.95 433.243,-103.862 437.282,-109.579"/>
</g>
<!-- 13&#45;&gt;8 -->
<g id="edge11" class="edge">
<title>13&#45;&gt;8</title>
<path fill="none" stroke="green" stroke-width="0.193039" d="M315.798,-145.81C312.863,-135.24 309.113,-121.644 305.851,-109.539 299.763,-86.9526 292.991,-61.1689 288.197,-42.8008"/>
<polygon fill="green" stroke="green" stroke-width="0.193039" points="291.531,-41.7173 285.623,-32.923 284.757,-43.4825 291.531,-41.7173"/>
</g>
<!-- 13&#45;&gt;14 -->
<g id="edge24" class="edge">
<title>13&#45;&gt;14</title>
<path fill="none" stroke="green" stroke-width="0.383223" stroke-dasharray="1,5" d="M334.931,-151.58C347.886,-140.221 367.296,-123.203 382.219,-110.12"/>
<polygon fill="green" stroke="green" stroke-width="0.383223" points="384.767,-112.541 389.979,-103.316 380.152,-107.277 384.767,-112.541"/>
</g>
<!-- 15&#45;&gt;11 -->
<g id="edge23" class="edge">
<title>15&#45;&gt;11</title>
<path fill="none" stroke="red" stroke-width="0.411779" d="M44.4184,-146.308C47.0545,-137.968 50.2633,-127.816 53.2058,-118.506"/>
<polygon fill="red" stroke="red" stroke-width="0.411779" points="56.5781,-119.45 56.2546,-108.86 49.9036,-117.34 56.5781,-119.45"/>
</g>
<!-- 16&#45;&gt;9 -->
<g id="edge31" class="edge">
<title>16&#45;&gt;9</title>
<path fill="none" stroke="green" stroke-width="0.772157" d="M688.001,-147.411C682.647,-137.422 675.749,-124.55 669.902,-113.64"/>
<polygon fill="green" stroke="green" stroke-width="0.772157" points="672.908,-111.84 665.099,-104.679 666.738,-115.146 672.908,-111.84"/>
</g>
</g>
</svg>
