<?xml version="1.0" encoding="UTF-8" standalone="no"?>
<!DOCTYPE svg PUBLIC "-//W3C//DTD SVG 1.1//EN"
 "http://www.w3.org/Graphics/SVG/1.1/DTD/svg11.dtd">
<!-- Generated by graphviz version 2.39.20160104.1625 (20160104.1625)
 -->
<!-- Title: %3 Pages: 1 -->
<svg width="903pt" height="340pt"
 viewBox="0.00 0.00 902.88 340.09" xmlns="http://www.w3.org/2000/svg" xmlns:xlink="http://www.w3.org/1999/xlink">
<g id="graph0" class="graph" transform="scale(1 1) rotate(0) translate(4 336.09)">
<title>%3</title>
<polygon fill="white" stroke="transparent" points="-4,4 -4,-336.09 898.885,-336.09 898.885,4 -4,4"/>
<!-- 0 -->
<g id="node1" class="node">
<title>0</title>
<polygon fill="lightgrey" stroke="black" points="21,-322.706 0,-322.706 0,-304.706 21,-304.706 21,-322.706"/>
<text text-anchor="middle" x="10.5" y="-310.606" font-family="Times,serif" font-size="9.00">0</text>
</g>
<!-- 1 -->
<g id="node2" class="node">
<title>1</title>
<polygon fill="lightgrey" stroke="black" points="60,-322.706 39,-322.706 39,-304.706 60,-304.706 60,-322.706"/>
<text text-anchor="middle" x="49.5" y="-310.606" font-family="Times,serif" font-size="9.00">1</text>
</g>
<!-- 2 -->
<g id="node3" class="node">
<title>2</title>
<polygon fill="lightgrey" stroke="black" points="99,-322.706 78,-322.706 78,-304.706 99,-304.706 99,-322.706"/>
<text text-anchor="middle" x="88.5" y="-310.606" font-family="Times,serif" font-size="9.00">2</text>
</g>
<!-- 3 -->
<g id="node4" class="node">
<title>3</title>
<polygon fill="lightgrey" stroke="black" points="206.5,-249.229 184.5,-249.229 184.5,-231.229 206.5,-231.229 206.5,-249.229"/>
<text text-anchor="middle" x="195.5" y="-237.129" font-family="Times,serif" font-size="9.00">3</text>
</g>
<!-- 25 -->
<g id="node26" class="node">
<title>25</title>
<ellipse fill="lightblue" stroke="lightblue" cx="171.5" cy="-166.045" rx="18.2703" ry="18.2703"/>
<text text-anchor="middle" x="171.5" y="-162.945" font-family="Times,serif" font-size="9.00">25</text>
</g>
<!-- 3&#45;&gt;25 -->
<g id="edge2" class="edge">
<title>3&#45;&gt;25</title>
<path fill="none" stroke="green" stroke-width="0.215456" stroke-dasharray="1,5" d="M192.557,-231.133C189.525,-221.76 184.648,-206.686 180.351,-193.403"/>
<polygon fill="green" stroke="green" stroke-width="0.215456" points="183.626,-192.157 177.218,-183.72 176.966,-194.312 183.626,-192.157"/>
</g>
<!-- 4 -->
<g id="node5" class="node">
<title>4</title>
<polygon fill="lightgrey" stroke="black" points="436.5,-175.045 414.5,-175.045 414.5,-157.045 436.5,-157.045 436.5,-175.045"/>
<text text-anchor="middle" x="425.5" y="-162.945" font-family="Times,serif" font-size="9.00">4</text>
</g>
<!-- 32 -->
<g id="node34" class="node">
<title>32</title>
<ellipse fill="none" stroke="black" cx="425.5" cy="-91.8614" rx="19.1842" ry="19.1842"/>
<text text-anchor="middle" x="425.5" y="-88.7614" font-family="Times,serif" font-size="9.00">32</text>
</g>
<!-- 4&#45;&gt;32 -->
<g id="edge26" class="edge">
<title>4&#45;&gt;32</title>
<path fill="none" stroke="green" stroke-width="0.416126" d="M425.5,-156.949C425.5,-148.062 425.5,-134.05 425.5,-121.299"/>
<polygon fill="green" stroke="green" stroke-width="0.416126" points="429,-121.026 425.5,-111.026 422,-121.026 429,-121.026"/>
</g>
<!-- 5 -->
<g id="node6" class="node">
<title>5</title>
<polygon fill="lightgrey" stroke="black" points="74,-249.229 53,-249.229 53,-231.229 74,-231.229 74,-249.229"/>
<text text-anchor="middle" x="63.5" y="-237.129" font-family="Times,serif" font-size="9.00">5</text>
</g>
<!-- 5&#45;&gt;25 -->
<g id="edge23" class="edge">
<title>5&#45;&gt;25</title>
<path fill="none" stroke="green" stroke-width="0.914655" d="M74.0895,-231.896C78.4966,-228.492 83.6966,-224.56 88.5,-221.137 107.872,-207.334 130.384,-192.461 147.072,-181.652"/>
<polygon fill="green" stroke="green" stroke-width="0.914655" points="149.179,-184.458 155.687,-176.098 145.386,-178.575 149.179,-184.458"/>
</g>
<!-- 6 -->
<g id="node7" class="node">
<title>6</title>
<polygon fill="lightgrey" stroke="black" points="536,-322.706 515,-322.706 515,-304.706 536,-304.706 536,-322.706"/>
<text text-anchor="middle" x="525.5" y="-310.606" font-family="Times,serif" font-size="9.00">6</text>
</g>
<!-- 7 -->
<g id="node8" class="node">
<title>7</title>
<polygon fill="lightgrey" stroke="black" points="576.5,-322.706 554.5,-322.706 554.5,-304.706 576.5,-304.706 576.5,-322.706"/>
<text text-anchor="middle" x="565.5" y="-310.606" font-family="Times,serif" font-size="9.00">7</text>
</g>
<!-- 8 -->
<g id="node9" class="node">
<title>8</title>
<polygon fill="lightgrey" stroke="black" points="290,-249.229 269,-249.229 269,-231.229 290,-231.229 290,-249.229"/>
<text text-anchor="middle" x="279.5" y="-237.129" font-family="Times,serif" font-size="9.00">8</text>
</g>
<!-- 8&#45;&gt;25 -->
<g id="edge1" class="edge">
<title>8&#45;&gt;25</title>
<path fill="none" stroke="green" stroke-width="0.642063" d="M270.493,-230.883C267.171,-227.641 263.29,-224.083 259.5,-221.137 239.383,-205.5 214.651,-190.334 196.534,-179.887"/>
<polygon fill="green" stroke="green" stroke-width="0.642063" points="198.146,-176.777 187.723,-174.876 194.685,-182.862 198.146,-176.777"/>
</g>
<!-- 26 -->
<g id="node27" class="node">
<title>26</title>
<ellipse fill="lightblue" stroke="lightblue" cx="258.5" cy="-166.045" rx="18.2703" ry="18.2703"/>
<text text-anchor="middle" x="258.5" y="-162.945" font-family="Times,serif" font-size="9.00">26</text>
</g>
<!-- 8&#45;&gt;26 -->
<g id="edge16" class="edge">
<title>8&#45;&gt;26</title>
<path fill="none" stroke="red" stroke-width="0.212764" stroke-dasharray="1,5" d="M276.925,-231.133C274.289,-221.822 270.061,-206.884 266.319,-193.666"/>
<polygon fill="red" stroke="red" stroke-width="0.212764" points="269.678,-192.683 263.587,-184.015 262.943,-194.59 269.678,-192.683"/>
</g>
<!-- 9 -->
<g id="node10" class="node">
<title>9</title>
<polygon fill="lightgrey" stroke="black" points="138,-322.706 117,-322.706 117,-304.706 138,-304.706 138,-322.706"/>
<text text-anchor="middle" x="127.5" y="-310.606" font-family="Times,serif" font-size="9.00">9</text>
</g>
<!-- 9&#45;&gt;25 -->
<g id="edge22" class="edge">
<title>9&#45;&gt;25</title>
<path fill="none" stroke="green" stroke-width="2.50486" d="M124.474,-304.65C119.306,-287.63 110.362,-249.982 121.5,-221.137 127.061,-206.734 138.33,-193.771 148.764,-184.042"/>
<polygon fill="green" stroke="green" stroke-width="2.50486" points="151.274,-186.496 156.471,-177.263 146.651,-181.239 151.274,-186.496"/>
</g>
<!-- 29 -->
<g id="node32" class="node">
<title>29</title>
<ellipse fill="none" stroke="black" cx="148.5" cy="-240.229" rx="18.2703" ry="18.2703"/>
<text text-anchor="middle" x="148.5" y="-237.129" font-family="Times,serif" font-size="9.00">29</text>
</g>
<!-- 9&#45;&gt;29 -->
<g id="edge10" class="edge">
<title>9&#45;&gt;29</title>
<path fill="none" stroke="green" stroke-width="0.352931" stroke-dasharray="1,5" d="M130.075,-304.696C132.685,-295.564 136.857,-280.968 140.571,-267.972"/>
<polygon fill="green" stroke="green" stroke-width="0.352931" points="144.03,-268.604 143.413,-258.027 137.3,-266.681 144.03,-268.604"/>
</g>
<!-- 10 -->
<g id="node11" class="node">
<title>10</title>
<polygon fill="lightgrey" stroke="black" points="620.5,-322.706 594.5,-322.706 594.5,-304.706 620.5,-304.706 620.5,-322.706"/>
<text text-anchor="middle" x="607.5" y="-310.606" font-family="Times,serif" font-size="9.00">10</text>
</g>
<!-- 11 -->
<g id="node12" class="node">
<title>11</title>
<polygon fill="lightgrey" stroke="black" points="664.5,-322.706 638.5,-322.706 638.5,-304.706 664.5,-304.706 664.5,-322.706"/>
<text text-anchor="middle" x="651.5" y="-310.606" font-family="Times,serif" font-size="9.00">11</text>
</g>
<!-- 12 -->
<g id="node13" class="node">
<title>12</title>
<polygon fill="lightgrey" stroke="black" points="537.5,-249.229 511.5,-249.229 511.5,-231.229 537.5,-231.229 537.5,-249.229"/>
<text text-anchor="middle" x="524.5" y="-237.129" font-family="Times,serif" font-size="9.00">12</text>
</g>
<!-- 31 -->
<g id="node33" class="node">
<title>31</title>
<ellipse fill="none" stroke="black" cx="518.5" cy="-166.045" rx="19.1842" ry="19.1842"/>
<text text-anchor="middle" x="518.5" y="-162.945" font-family="Times,serif" font-size="9.00">31</text>
</g>
<!-- 12&#45;&gt;31 -->
<g id="edge11" class="edge">
<title>12&#45;&gt;31</title>
<path fill="none" stroke="green" stroke-width="0.619386" d="M523.764,-231.133C523.046,-222.246 521.912,-208.234 520.881,-195.483"/>
<polygon fill="green" stroke="green" stroke-width="0.619386" points="524.345,-194.895 520.05,-185.21 517.368,-195.459 524.345,-194.895"/>
</g>
<!-- 13 -->
<g id="node14" class="node">
<title>13</title>
<polygon fill="lightgrey" stroke="black" points="708.5,-322.706 682.5,-322.706 682.5,-304.706 708.5,-304.706 708.5,-322.706"/>
<text text-anchor="middle" x="695.5" y="-310.606" font-family="Times,serif" font-size="9.00">13</text>
</g>
<!-- 14 -->
<g id="node15" class="node">
<title>14</title>
<polygon fill="lightgrey" stroke="black" points="339.5,-322.706 313.5,-322.706 313.5,-304.706 339.5,-304.706 339.5,-322.706"/>
<text text-anchor="middle" x="326.5" y="-310.606" font-family="Times,serif" font-size="9.00">14</text>
</g>
<!-- 24 -->
<g id="node25" class="node">
<title>24</title>
<ellipse fill="lightblue" stroke="lightblue" cx="326.5" cy="-240.229" rx="18.2703" ry="18.2703"/>
<text text-anchor="middle" x="326.5" y="-237.129" font-family="Times,serif" font-size="9.00">24</text>
</g>
<!-- 14&#45;&gt;24 -->
<g id="edge7" class="edge">
<title>14&#45;&gt;24</title>
<path fill="none" stroke="green" stroke-width="0.696861" d="M326.5,-304.696C326.5,-295.774 326.5,-281.637 326.5,-268.872"/>
<polygon fill="green" stroke="green" stroke-width="0.696861" points="330,-268.616 326.5,-258.616 323,-268.616 330,-268.616"/>
</g>
<!-- 15 -->
<g id="node16" class="node">
<title>15</title>
<polygon fill="lightgrey" stroke="black" points="752.5,-322.706 726.5,-322.706 726.5,-304.706 752.5,-304.706 752.5,-322.706"/>
<text text-anchor="middle" x="739.5" y="-310.606" font-family="Times,serif" font-size="9.00">15</text>
</g>
<!-- 16 -->
<g id="node17" class="node">
<title>16</title>
<polygon fill="lightgrey" stroke="black" points="796.5,-322.706 770.5,-322.706 770.5,-304.706 796.5,-304.706 796.5,-322.706"/>
<text text-anchor="middle" x="783.5" y="-310.606" font-family="Times,serif" font-size="9.00">16</text>
</g>
<!-- 17 -->
<g id="node18" class="node">
<title>17</title>
<polygon fill="lightgrey" stroke="black" points="250.5,-249.229 224.5,-249.229 224.5,-231.229 250.5,-231.229 250.5,-249.229"/>
<text text-anchor="middle" x="237.5" y="-237.129" font-family="Times,serif" font-size="9.00">17</text>
</g>
<!-- 17&#45;&gt;25 -->
<g id="edge12" class="edge">
<title>17&#45;&gt;25</title>
<path fill="none" stroke="red" stroke-width="0.177025" stroke-dasharray="1,5" d="M229.407,-231.133C219.823,-220.36 203.537,-202.055 190.673,-187.596"/>
<polygon fill="red" stroke="red" stroke-width="0.177025" points="193.205,-185.176 183.943,-180.031 187.975,-189.829 193.205,-185.176"/>
</g>
<!-- 17&#45;&gt;26 -->
<g id="edge25" class="edge">
<title>17&#45;&gt;26</title>
<path fill="none" stroke="red" stroke-width="0.459009" d="M240.075,-231.133C242.711,-221.822 246.939,-206.884 250.681,-193.666"/>
<polygon fill="red" stroke="red" stroke-width="0.459009" points="254.057,-194.59 253.413,-184.015 247.322,-192.683 254.057,-194.59"/>
</g>
<!-- 18 -->
<g id="node19" class="node">
<title>18</title>
<polygon fill="lightgrey" stroke="black" points="840.5,-322.706 814.5,-322.706 814.5,-304.706 840.5,-304.706 840.5,-322.706"/>
<text text-anchor="middle" x="827.5" y="-310.606" font-family="Times,serif" font-size="9.00">18</text>
</g>
<!-- 23 -->
<g id="node24" class="node">
<title>23</title>
<ellipse fill="lightblue" stroke="lightblue" cx="827.5" cy="-240.229" rx="18.2703" ry="18.2703"/>
<text text-anchor="middle" x="827.5" y="-237.129" font-family="Times,serif" font-size="9.00">23</text>
</g>
<!-- 18&#45;&gt;23 -->
<g id="edge17" class="edge">
<title>18&#45;&gt;23</title>
<path fill="none" stroke="green" stroke-width="0.372124" d="M827.5,-304.696C827.5,-295.774 827.5,-281.637 827.5,-268.872"/>
<polygon fill="green" stroke="green" stroke-width="0.372124" points="831,-268.616 827.5,-258.616 824,-268.616 831,-268.616"/>
</g>
<!-- 19 -->
<g id="node20" class="node">
<title>19</title>
<polygon fill="lightgrey" stroke="black" points="238.5,-322.706 212.5,-322.706 212.5,-304.706 238.5,-304.706 238.5,-322.706"/>
<text text-anchor="middle" x="225.5" y="-310.606" font-family="Times,serif" font-size="9.00">19</text>
</g>
<!-- 19&#45;&gt;24 -->
<g id="edge4" class="edge">
<title>19&#45;&gt;24</title>
<path fill="none" stroke="red" stroke-width="0.736193" stroke-dasharray="1,5" d="M237.885,-304.696C254.109,-292.893 282.881,-271.961 303.233,-257.155"/>
<polygon fill="red" stroke="red" stroke-width="0.736193" points="305.352,-259.942 311.379,-251.229 301.234,-254.282 305.352,-259.942"/>
</g>
<!-- 19&#45;&gt;29 -->
<g id="edge19" class="edge">
<title>19&#45;&gt;29</title>
<path fill="none" stroke="red" stroke-width="0.114273" d="M216.058,-304.696C204.5,-293.666 184.586,-274.664 169.365,-260.139"/>
<polygon fill="red" stroke="red" stroke-width="0.114273" points="171.552,-257.389 161.901,-253.017 166.72,-262.453 171.552,-257.389"/>
</g>
<!-- 20 -->
<g id="node21" class="node">
<title>20</title>
<polygon fill="lightgrey" stroke="black" points="481.5,-175.045 455.5,-175.045 455.5,-157.045 481.5,-157.045 481.5,-175.045"/>
<text text-anchor="middle" x="468.5" y="-162.945" font-family="Times,serif" font-size="9.00">20</text>
</g>
<!-- 22 -->
<g id="node23" class="node">
<title>22</title>
<ellipse fill="lightblue" stroke="lightblue" cx="495.5" cy="-18.3848" rx="18.2703" ry="18.2703"/>
<text text-anchor="middle" x="495.5" y="-15.2848" font-family="Times,serif" font-size="9.00">22</text>
</g>
<!-- 20&#45;&gt;22 -->
<g id="edge3" class="edge">
<title>20&#45;&gt;22</title>
<path fill="none" stroke="red" stroke-width="0.20864" stroke-dasharray="1,5" d="M470.189,-156.808C474.137,-135.216 484.104,-80.7108 490.287,-46.8942"/>
<polygon fill="red" stroke="red" stroke-width="0.20864" points="493.793,-47.1762 492.149,-36.7097 486.908,-45.917 493.793,-47.1762"/>
</g>
<!-- 30 -->
<g id="node31" class="node">
<title>30</title>
<ellipse fill="none" stroke="black" cx="519.5" cy="-91.8614" rx="19.1842" ry="19.1842"/>
<text text-anchor="middle" x="519.5" y="-88.7614" font-family="Times,serif" font-size="9.00">30</text>
</g>
<!-- 20&#45;&gt;30 -->
<g id="edge21" class="edge">
<title>20&#45;&gt;30</title>
<path fill="none" stroke="green" stroke-width="0.143879" d="M474.754,-156.949C481.714,-146.824 493.249,-130.046 502.863,-116.061"/>
<polygon fill="green" stroke="green" stroke-width="0.143879" points="505.763,-118.022 508.544,-107.798 499.994,-114.056 505.763,-118.022"/>
</g>
<!-- 20&#45;&gt;32 -->
<g id="edge15" class="edge">
<title>20&#45;&gt;32</title>
<path fill="none" stroke="green" stroke-width="0.341374" d="M463.227,-156.949C457.579,-147.204 448.357,-131.295 440.445,-117.645"/>
<polygon fill="green" stroke="green" stroke-width="0.341374" points="443.28,-115.557 435.237,-108.66 437.224,-119.067 443.28,-115.557"/>
</g>
<!-- 21 -->
<g id="node22" class="node">
<title>21</title>
<polygon fill="lightgrey" stroke="black" points="496.5,-322.706 470.5,-322.706 470.5,-304.706 496.5,-304.706 496.5,-322.706"/>
<text text-anchor="middle" x="483.5" y="-310.606" font-family="Times,serif" font-size="9.00">21</text>
</g>
<!-- 21&#45;&gt;22 -->
<g id="edge20" class="edge">
<title>21&#45;&gt;22</title>
<path fill="none" stroke="red" stroke-width="0.225563" d="M493.976,-304.384C497.539,-301.368 501.606,-298.091 505.5,-295.321 530.842,-277.295 550.178,-286.383 565.5,-259.321 606.54,-186.836 587.005,-146.103 547.5,-72.7696 540.095,-59.0227 528.268,-46.2566 517.763,-36.5523"/>
<polygon fill="red" stroke="red" stroke-width="0.225563" points="519.893,-33.7638 510.083,-29.7627 515.257,-39.0083 519.893,-33.7638"/>
</g>
<!-- 28 -->
<g id="node29" class="node">
<title>28</title>
<ellipse fill="lightblue" stroke="lightblue" cx="381.5" cy="-240.229" rx="18.2703" ry="18.2703"/>
<text text-anchor="middle" x="381.5" y="-237.129" font-family="Times,serif" font-size="9.00">28</text>
</g>
<!-- 21&#45;&gt;28 -->
<g id="edge6" class="edge">
<title>21&#45;&gt;28</title>
<path fill="none" stroke="red" stroke-width="0.463518" d="M470.993,-304.696C454.515,-292.826 425.22,-271.723 404.647,-256.903"/>
<polygon fill="red" stroke="red" stroke-width="0.463518" points="406.587,-253.987 396.427,-250.982 402.495,-259.667 406.587,-253.987"/>
</g>
<!-- 33 -->
<g id="node30" class="node">
<title>33</title>
<ellipse fill="none" stroke="black" cx="436.5" cy="-240.229" rx="19.1842" ry="19.1842"/>
<text text-anchor="middle" x="436.5" y="-237.129" font-family="Times,serif" font-size="9.00">33</text>
</g>
<!-- 21&#45;&gt;33 -->
<g id="edge5" class="edge">
<title>21&#45;&gt;33</title>
<path fill="none" stroke="green" stroke-width="0.586834" d="M477.737,-304.696C471.463,-294.888 461.158,-278.777 452.418,-265.115"/>
<polygon fill="green" stroke="green" stroke-width="0.586834" points="455.297,-263.119 446.96,-256.581 449.4,-266.891 455.297,-263.119"/>
</g>
<!-- 21&#45;&gt;30 -->
<g id="edge9" class="edge">
<title>21&#45;&gt;30</title>
<path fill="none" stroke="green" stroke-width="0.134548" stroke-dasharray="1,5" d="M494.324,-304.559C512.148,-289.471 545.793,-260.865 546.5,-259.321 567.289,-213.912 557.781,-195.604 546.5,-146.953 544.107,-136.634 539.499,-126.018 534.757,-116.893"/>
<polygon fill="green" stroke="green" stroke-width="0.134548" points="537.747,-115.067 529.855,-107.999 531.617,-118.446 537.747,-115.067"/>
</g>
<!-- 21&#45;&gt;31 -->
<g id="edge24" class="edge">
<title>21&#45;&gt;31</title>
<path fill="none" stroke="green" stroke-width="0.182995" stroke-dasharray="1,5" d="M485.145,-304.454C488.174,-287.73 495.013,-251.396 502.5,-221.137 504.701,-212.242 507.386,-202.626 509.924,-193.954"/>
<polygon fill="green" stroke="green" stroke-width="0.182995" points="513.296,-194.893 512.796,-184.31 506.587,-192.894 513.296,-194.893"/>
</g>
<!-- 27 -->
<g id="node28" class="node">
<title>27</title>
<ellipse fill="lightblue" stroke="lightblue" cx="876.5" cy="-313.706" rx="18.2703" ry="18.2703"/>
<text text-anchor="middle" x="876.5" y="-310.606" font-family="Times,serif" font-size="9.00">27</text>
</g>
<!-- 33&#45;&gt;31 -->
<g id="edge27" class="edge">
<title>33&#45;&gt;31</title>
<path fill="none" stroke="red" stroke-width="0.179854" d="M450.783,-227.307C463.405,-215.889 482.009,-199.058 496.525,-185.925"/>
<polygon fill="red" stroke="red" stroke-width="0.179854" points="499.038,-188.372 504.105,-179.068 494.341,-183.181 499.038,-188.372"/>
</g>
<!-- 30&#45;&gt;22 -->
<g id="edge8" class="edge">
<title>30&#45;&gt;22</title>
<path fill="none" stroke="green" stroke-width="0.815909" d="M513.567,-73.6987C510.815,-65.2723 507.485,-55.0766 504.437,-45.7459"/>
<polygon fill="green" stroke="green" stroke-width="0.815909" points="507.714,-44.5041 501.282,-36.0851 501.059,-46.6776 507.714,-44.5041"/>
</g>
<!-- 29&#45;&gt;25 -->
<g id="edge13" class="edge">
<title>29&#45;&gt;25</title>
<path fill="none" stroke="green" stroke-width="0.882548" stroke-dasharray="1,5" d="M153.951,-222.648C156.652,-213.935 159.976,-203.214 163.002,-193.455"/>
<polygon fill="green" stroke="green" stroke-width="0.882548" points="166.39,-194.345 166.009,-183.757 159.704,-192.272 166.39,-194.345"/>
</g>
<!-- 31&#45;&gt;30 -->
<g id="edge14" class="edge">
<title>31&#45;&gt;30</title>
<path fill="none" stroke="red" stroke-width="0.234639" d="M518.758,-146.941C518.863,-139.128 518.987,-129.91 519.104,-121.272"/>
<polygon fill="red" stroke="red" stroke-width="0.234639" points="522.605,-121.205 519.24,-111.159 515.605,-121.111 522.605,-121.205"/>
</g>
<!-- 32&#45;&gt;22 -->
<g id="edge18" class="edge">
<title>32&#45;&gt;22</title>
<path fill="none" stroke="red" stroke-width="0.739122" stroke-dasharray="1,5" d="M438.997,-77.6944C449.295,-66.8844 463.649,-51.8177 475.312,-39.5755"/>
<polygon fill="red" stroke="red" stroke-width="0.739122" points="478.154,-41.666 482.518,-32.0115 473.086,-36.8376 478.154,-41.666"/>
</g>
</g>
</svg>
