<?xml version="1.0" encoding="UTF-8" standalone="no"?>
<!DOCTYPE svg PUBLIC "-//W3C//DTD SVG 1.1//EN"
 "http://www.w3.org/Graphics/SVG/1.1/DTD/svg11.dtd">
<!-- Generated by graphviz version 2.39.20160104.1625 (20160104.1625)
 -->
<!-- Title: %3 Pages: 1 -->
<svg width="280pt" height="134pt"
 viewBox="0.00 0.00 280.06 134.12" xmlns="http://www.w3.org/2000/svg" xmlns:xlink="http://www.w3.org/1999/xlink">
<g id="graph0" class="graph" transform="scale(1 1) rotate(0) translate(4 130.125)">
<title>%3</title>
<polygon fill="white" stroke="transparent" points="-4,4 -4,-130.125 276.062,-130.125 276.062,4 -4,4"/>
<!-- stress -->
<g id="node1" class="node">
<title>stress</title>
<polygon fill="lightgrey" stroke="black" points="71.5624,-126.125 34.5624,-126.125 34.5624,-108.125 71.5624,-108.125 71.5624,-126.125"/>
<text text-anchor="middle" x="53.0624" y="-114.025" font-family="Times,serif" font-size="9.00">stress</text>
</g>
<!-- a0t0 -->
<g id="node2" class="node">
<title>a0t0</title>
<polygon fill="lightgrey" stroke="black" points="122.062,-126.125 90.0624,-126.125 90.0624,-108.125 122.062,-108.125 122.062,-126.125"/>
<text text-anchor="middle" x="106.062" y="-114.025" font-family="Times,serif" font-size="9.00">a0t0</text>
</g>
<!-- a0t1 -->
<g id="node3" class="node">
<title>a0t1</title>
<polygon fill="lightgrey" stroke="black" points="172.062,-126.125 140.062,-126.125 140.062,-108.125 172.062,-108.125 172.062,-126.125"/>
<text text-anchor="middle" x="156.062" y="-114.025" font-family="Times,serif" font-size="9.00">a0t1</text>
</g>
<!-- apoptosis -->
<g id="node6" class="node">
<title>apoptosis</title>
<ellipse fill="lightblue" stroke="lightblue" cx="36.0624" cy="-36.0624" rx="36.125" ry="36.125"/>
<text text-anchor="middle" x="36.0624" y="-32.9624" font-family="Times,serif" font-size="9.00">apoptosis</text>
</g>
<!-- a0t1&#45;&gt;apoptosis -->
<g id="edge3" class="edge">
<title>a0t1&#45;&gt;apoptosis</title>
<path fill="none" stroke="red" stroke-width="0.224197" d="M139.868,-108.25C124.405,-99.5828 100.63,-85.7431 81.0624,-72.1249 78.1812,-70.1197 75.245,-67.9873 72.3231,-65.8001"/>
<polygon fill="red" stroke="red" stroke-width="0.224197" points="74.2468,-62.8645 64.1833,-59.5514 69.9842,-68.4171 74.2468,-62.8645"/>
</g>
<!-- division -->
<g id="node7" class="node">
<title>division</title>
<ellipse fill="lightblue" stroke="lightblue" cx="122.062" cy="-36.0624" rx="31.6406" ry="31.6406"/>
<text text-anchor="middle" x="122.062" y="-32.9624" font-family="Times,serif" font-size="9.00">division</text>
</g>
<!-- a0t1&#45;&gt;division -->
<g id="edge4" class="edge">
<title>a0t1&#45;&gt;division</title>
<path fill="none" stroke="green" stroke-width="0.17345" d="M152.162,-107.826C148.743,-99.6737 143.53,-87.244 138.397,-75.0074"/>
<polygon fill="green" stroke="green" stroke-width="0.17345" points="141.615,-73.6296 134.519,-65.7617 135.16,-76.3372 141.615,-73.6296"/>
</g>
<!-- a0 -->
<g id="node8" class="node">
<title>a0</title>
<ellipse fill="lightblue" stroke="lightblue" cx="189.062" cy="-36.0624" rx="17.8571" ry="17.8571"/>
<text text-anchor="middle" x="189.062" y="-32.9624" font-family="Times,serif" font-size="9.00">a0</text>
</g>
<!-- a0t1&#45;&gt;a0 -->
<g id="edge1" class="edge">
<title>a0t1&#45;&gt;a0</title>
<path fill="none" stroke="red" stroke-width="0.255775" stroke-dasharray="1,5" d="M159.848,-107.826C164.348,-96.773 172.048,-77.8572 178.414,-62.2204"/>
<polygon fill="red" stroke="red" stroke-width="0.255775" points="181.828,-63.1154 182.357,-52.5338 175.345,-60.4761 181.828,-63.1154"/>
</g>
<!-- h0 -->
<g id="node9" class="node">
<title>h0</title>
<ellipse fill="lightblue" stroke="lightblue" cx="243.062" cy="-36.0624" rx="18.2703" ry="18.2703"/>
<text text-anchor="middle" x="243.062" y="-32.9624" font-family="Times,serif" font-size="9.00">h0</text>
</g>
<!-- a0t1&#45;&gt;h0 -->
<g id="edge2" class="edge">
<title>a0t1&#45;&gt;h0</title>
<path fill="none" stroke="red" stroke-width="0.580272" d="M170.798,-107.811C183.544,-99.3647 202.073,-86.1255 216.062,-72.1249 219.835,-68.3488 223.516,-64.023 226.884,-59.7089"/>
<polygon fill="red" stroke="red" stroke-width="0.580272" points="229.772,-61.6909 232.921,-51.575 224.151,-57.519 229.772,-61.6909"/>
</g>
<!-- a0t2 -->
<g id="node4" class="node">
<title>a0t2</title>
<polygon fill="lightgrey" stroke="black" points="222.062,-126.125 190.062,-126.125 190.062,-108.125 222.062,-108.125 222.062,-126.125"/>
<text text-anchor="middle" x="206.062" y="-114.025" font-family="Times,serif" font-size="9.00">a0t2</text>
</g>
<!-- a0t3 -->
<g id="node5" class="node">
<title>a0t3</title>
<polygon fill="lightgrey" stroke="black" points="272.062,-126.125 240.062,-126.125 240.062,-108.125 272.062,-108.125 272.062,-126.125"/>
<text text-anchor="middle" x="256.062" y="-114.025" font-family="Times,serif" font-size="9.00">a0t3</text>
</g>
</g>
</svg>
