<?xml version="1.0" encoding="UTF-8" standalone="no"?>
<!DOCTYPE svg PUBLIC "-//W3C//DTD SVG 1.1//EN"
 "http://www.w3.org/Graphics/SVG/1.1/DTD/svg11.dtd">
<!-- Generated by graphviz version 2.39.20160104.1625 (20160104.1625)
 -->
<!-- Title: %3 Pages: 1 -->
<svg width="970pt" height="118pt"
 viewBox="0.00 0.00 969.50 117.54" xmlns="http://www.w3.org/2000/svg" xmlns:xlink="http://www.w3.org/1999/xlink">
<g id="graph0" class="graph" transform="scale(1 1) rotate(0) translate(4 113.539)">
<title>%3</title>
<polygon fill="white" stroke="transparent" points="-4,4 -4,-113.539 965.5,-113.539 965.5,4 -4,4"/>
<!-- 0 -->
<g id="node1" class="node">
<title>0</title>
<polygon fill="lightgrey" stroke="black" points="21,-100.154 0,-100.154 0,-82.1543 21,-82.1543 21,-100.154"/>
<text text-anchor="middle" x="10.5" y="-88.0543" font-family="Times,serif" font-size="9.00">0</text>
</g>
<!-- 1 -->
<g id="node2" class="node">
<title>1</title>
<polygon fill="lightgrey" stroke="black" points="105,-100.154 84,-100.154 84,-82.1543 105,-82.1543 105,-100.154"/>
<text text-anchor="middle" x="94.5" y="-88.0543" font-family="Times,serif" font-size="9.00">1</text>
</g>
<!-- 22 -->
<g id="node23" class="node">
<title>22</title>
<ellipse fill="lightblue" stroke="lightblue" cx="73.5" cy="-18.3848" rx="18.2703" ry="18.2703"/>
<text text-anchor="middle" x="73.5" y="-15.2848" font-family="Times,serif" font-size="9.00">22</text>
</g>
<!-- 1&#45;&gt;22 -->
<g id="edge4" class="edge">
<title>1&#45;&gt;22</title>
<path fill="none" stroke="red" stroke-width="0.660323" d="M91.8403,-81.938C89.2277,-72.8848 85.1105,-58.6178 81.4385,-45.8934"/>
<polygon fill="red" stroke="red" stroke-width="0.660323" points="84.7618,-44.7859 78.6263,-36.1484 78.0362,-46.7268 84.7618,-44.7859"/>
</g>
<!-- 25 -->
<g id="node26" class="node">
<title>25</title>
<ellipse fill="lightblue" stroke="lightblue" cx="173.5" cy="-18.3848" rx="18.2703" ry="18.2703"/>
<text text-anchor="middle" x="173.5" y="-15.2848" font-family="Times,serif" font-size="9.00">25</text>
</g>
<!-- 1&#45;&gt;25 -->
<g id="edge5" class="edge">
<title>1&#45;&gt;25</title>
<path fill="none" stroke="red" stroke-width="0.260525" d="M103.719,-82.1164C106.808,-79.1201 110.284,-75.7817 113.5,-72.7696 126.173,-60.9008 140.582,-47.8265 152.103,-37.4721"/>
<polygon fill="red" stroke="red" stroke-width="0.260525" points="154.451,-40.0677 159.561,-30.7864 149.779,-34.8554 154.451,-40.0677"/>
</g>
<!-- 2 -->
<g id="node3" class="node">
<title>2</title>
<polygon fill="lightgrey" stroke="black" points="144,-100.154 123,-100.154 123,-82.1543 144,-82.1543 144,-100.154"/>
<text text-anchor="middle" x="133.5" y="-88.0543" font-family="Times,serif" font-size="9.00">2</text>
</g>
<!-- 2&#45;&gt;25 -->
<g id="edge13" class="edge">
<title>2&#45;&gt;25</title>
<path fill="none" stroke="green" stroke-width="0.210206" d="M138.566,-81.938C143.81,-72.3978 152.237,-57.0677 159.5,-43.8543"/>
<polygon fill="green" stroke="green" stroke-width="0.210206" points="162.771,-45.1693 164.521,-34.7199 156.637,-41.7973 162.771,-45.1693"/>
</g>
<!-- 3 -->
<g id="node4" class="node">
<title>3</title>
<polygon fill="lightgrey" stroke="black" points="303.5,-100.154 281.5,-100.154 281.5,-82.1543 303.5,-82.1543 303.5,-100.154"/>
<text text-anchor="middle" x="292.5" y="-88.0543" font-family="Times,serif" font-size="9.00">3</text>
</g>
<!-- 4 -->
<g id="node5" class="node">
<title>4</title>
<polygon fill="lightgrey" stroke="black" points="184.5,-100.154 162.5,-100.154 162.5,-82.1543 184.5,-82.1543 184.5,-100.154"/>
<text text-anchor="middle" x="173.5" y="-88.0543" font-family="Times,serif" font-size="9.00">4</text>
</g>
<!-- 4&#45;&gt;25 -->
<g id="edge12" class="edge">
<title>4&#45;&gt;25</title>
<path fill="none" stroke="green" stroke-width="0.741282" d="M173.5,-81.938C173.5,-73.1537 173.5,-59.4608 173.5,-47.0311"/>
<polygon fill="green" stroke="green" stroke-width="0.741282" points="177,-47.0228 173.5,-37.0229 170,-47.0229 177,-47.0228"/>
</g>
<!-- 5 -->
<g id="node6" class="node">
<title>5</title>
<polygon fill="lightgrey" stroke="black" points="224,-100.154 203,-100.154 203,-82.1543 224,-82.1543 224,-100.154"/>
<text text-anchor="middle" x="213.5" y="-88.0543" font-family="Times,serif" font-size="9.00">5</text>
</g>
<!-- 5&#45;&gt;25 -->
<g id="edge10" class="edge">
<title>5&#45;&gt;25</title>
<path fill="none" stroke="green" stroke-width="1.14241" d="M208.434,-81.938C203.19,-72.3978 194.763,-57.0677 187.5,-43.8543"/>
<polygon fill="green" stroke="green" stroke-width="1.14241" points="190.363,-41.7973 182.479,-34.7199 184.229,-45.1693 190.363,-41.7973"/>
</g>
<!-- 6 -->
<g id="node7" class="node">
<title>6</title>
<polygon fill="lightgrey" stroke="black" points="343,-100.154 322,-100.154 322,-82.1543 343,-82.1543 343,-100.154"/>
<text text-anchor="middle" x="332.5" y="-88.0543" font-family="Times,serif" font-size="9.00">6</text>
</g>
<!-- 23 -->
<g id="node24" class="node">
<title>23</title>
<ellipse fill="lightblue" stroke="lightblue" cx="374.5" cy="-18.3848" rx="18.2703" ry="18.2703"/>
<text text-anchor="middle" x="374.5" y="-15.2848" font-family="Times,serif" font-size="9.00">23</text>
</g>
<!-- 6&#45;&gt;23 -->
<g id="edge7" class="edge">
<title>6&#45;&gt;23</title>
<path fill="none" stroke="green" stroke-width="0.577215" d="M337.819,-81.938C343.415,-72.243 352.462,-56.5688 360.17,-43.2129"/>
<polygon fill="green" stroke="green" stroke-width="0.577215" points="363.267,-44.8494 365.234,-34.4388 357.204,-41.3502 363.267,-44.8494"/>
</g>
<!-- 7 -->
<g id="node8" class="node">
<title>7</title>
<polygon fill="lightgrey" stroke="black" points="471.5,-100.154 449.5,-100.154 449.5,-82.1543 471.5,-82.1543 471.5,-100.154"/>
<text text-anchor="middle" x="460.5" y="-88.0543" font-family="Times,serif" font-size="9.00">7</text>
</g>
<!-- 8 -->
<g id="node9" class="node">
<title>8</title>
<polygon fill="lightgrey" stroke="black" points="263,-100.154 242,-100.154 242,-82.1543 263,-82.1543 263,-100.154"/>
<text text-anchor="middle" x="252.5" y="-88.0543" font-family="Times,serif" font-size="9.00">8</text>
</g>
<!-- 8&#45;&gt;25 -->
<g id="edge1" class="edge">
<title>8&#45;&gt;25</title>
<path fill="none" stroke="green" stroke-width="1.20819" d="M242.495,-81.938C230.544,-70.9301 210.226,-52.2141 194.724,-37.9352"/>
<polygon fill="green" stroke="green" stroke-width="1.20819" points="196.853,-35.1378 187.127,-30.937 192.111,-40.2864 196.853,-35.1378"/>
</g>
<!-- 9 -->
<g id="node10" class="node">
<title>9</title>
<polygon fill="lightgrey" stroke="black" points="511,-100.154 490,-100.154 490,-82.1543 511,-82.1543 511,-100.154"/>
<text text-anchor="middle" x="500.5" y="-88.0543" font-family="Times,serif" font-size="9.00">9</text>
</g>
<!-- 26 -->
<g id="node27" class="node">
<title>26</title>
<ellipse fill="lightblue" stroke="lightblue" cx="520.5" cy="-18.3848" rx="18.2703" ry="18.2703"/>
<text text-anchor="middle" x="520.5" y="-15.2848" font-family="Times,serif" font-size="9.00">26</text>
</g>
<!-- 9&#45;&gt;26 -->
<g id="edge2" class="edge">
<title>9&#45;&gt;26</title>
<path fill="none" stroke="red" stroke-width="0.483265" d="M503.033,-81.938C505.521,-72.8848 509.442,-58.6178 512.94,-45.8934"/>
<polygon fill="red" stroke="red" stroke-width="0.483265" points="516.342,-46.7184 515.618,-36.1484 509.593,-44.8633 516.342,-46.7184"/>
</g>
<!-- 10 -->
<g id="node11" class="node">
<title>10</title>
<polygon fill="lightgrey" stroke="black" points="609.5,-100.154 583.5,-100.154 583.5,-82.1543 609.5,-82.1543 609.5,-100.154"/>
<text text-anchor="middle" x="596.5" y="-88.0543" font-family="Times,serif" font-size="9.00">10</text>
</g>
<!-- 24 -->
<g id="node25" class="node">
<title>24</title>
<ellipse fill="lightblue" stroke="lightblue" cx="618.5" cy="-18.3848" rx="18.2703" ry="18.2703"/>
<text text-anchor="middle" x="618.5" y="-15.2848" font-family="Times,serif" font-size="9.00">24</text>
</g>
<!-- 10&#45;&gt;24 -->
<g id="edge9" class="edge">
<title>10&#45;&gt;24</title>
<path fill="none" stroke="red" stroke-width="0.165322" d="M599.286,-81.938C602.023,-72.8848 606.337,-58.6178 610.183,-45.8934"/>
<polygon fill="red" stroke="red" stroke-width="0.165322" points="613.586,-46.7334 613.13,-36.1484 606.885,-44.7076 613.586,-46.7334"/>
</g>
<!-- 11 -->
<g id="node12" class="node">
<title>11</title>
<polygon fill="lightgrey" stroke="black" points="387.5,-100.154 361.5,-100.154 361.5,-82.1543 387.5,-82.1543 387.5,-100.154"/>
<text text-anchor="middle" x="374.5" y="-88.0543" font-family="Times,serif" font-size="9.00">11</text>
</g>
<!-- 11&#45;&gt;23 -->
<g id="edge6" class="edge">
<title>11&#45;&gt;23</title>
<path fill="none" stroke="green" stroke-width="0.254065" d="M374.5,-81.938C374.5,-73.1537 374.5,-59.4608 374.5,-47.0311"/>
<polygon fill="green" stroke="green" stroke-width="0.254065" points="378,-47.0228 374.5,-37.0229 371,-47.0229 378,-47.0228"/>
</g>
<!-- 12 -->
<g id="node13" class="node">
<title>12</title>
<polygon fill="lightgrey" stroke="black" points="697.5,-100.154 671.5,-100.154 671.5,-82.1543 697.5,-82.1543 697.5,-100.154"/>
<text text-anchor="middle" x="684.5" y="-88.0543" font-family="Times,serif" font-size="9.00">12</text>
</g>
<!-- 13 -->
<g id="node14" class="node">
<title>13</title>
<polygon fill="lightgrey" stroke="black" points="431.5,-100.154 405.5,-100.154 405.5,-82.1543 431.5,-82.1543 431.5,-100.154"/>
<text text-anchor="middle" x="418.5" y="-88.0543" font-family="Times,serif" font-size="9.00">13</text>
</g>
<!-- 13&#45;&gt;23 -->
<g id="edge3" class="edge">
<title>13&#45;&gt;23</title>
<path fill="none" stroke="green" stroke-width="1.21142" d="M412.927,-81.938C407.028,-72.1808 397.466,-56.3676 389.357,-42.9563"/>
<polygon fill="green" stroke="green" stroke-width="1.21142" points="392.207,-40.9056 384.038,-34.1593 386.217,-44.5276 392.207,-40.9056"/>
</g>
<!-- 14 -->
<g id="node15" class="node">
<title>14</title>
<polygon fill="lightgrey" stroke="black" points="741.5,-100.154 715.5,-100.154 715.5,-82.1543 741.5,-82.1543 741.5,-100.154"/>
<text text-anchor="middle" x="728.5" y="-88.0543" font-family="Times,serif" font-size="9.00">14</text>
</g>
<!-- 15 -->
<g id="node16" class="node">
<title>15</title>
<polygon fill="lightgrey" stroke="black" points="785.5,-100.154 759.5,-100.154 759.5,-82.1543 785.5,-82.1543 785.5,-100.154"/>
<text text-anchor="middle" x="772.5" y="-88.0543" font-family="Times,serif" font-size="9.00">15</text>
</g>
<!-- 16 -->
<g id="node17" class="node">
<title>16</title>
<polygon fill="lightgrey" stroke="black" points="829.5,-100.154 803.5,-100.154 803.5,-82.1543 829.5,-82.1543 829.5,-100.154"/>
<text text-anchor="middle" x="816.5" y="-88.0543" font-family="Times,serif" font-size="9.00">16</text>
</g>
<!-- 17 -->
<g id="node18" class="node">
<title>17</title>
<polygon fill="lightgrey" stroke="black" points="653.5,-100.154 627.5,-100.154 627.5,-82.1543 653.5,-82.1543 653.5,-100.154"/>
<text text-anchor="middle" x="640.5" y="-88.0543" font-family="Times,serif" font-size="9.00">17</text>
</g>
<!-- 17&#45;&gt;24 -->
<g id="edge11" class="edge">
<title>17&#45;&gt;24</title>
<path fill="none" stroke="green" stroke-width="1.13457" d="M637.714,-81.938C634.977,-72.8848 630.663,-58.6178 626.817,-45.8934"/>
<polygon fill="green" stroke="green" stroke-width="1.13457" points="630.115,-44.7076 623.87,-36.1484 623.414,-46.7334 630.115,-44.7076"/>
</g>
<!-- 18 -->
<g id="node19" class="node">
<title>18</title>
<polygon fill="lightgrey" stroke="black" points="873.5,-100.154 847.5,-100.154 847.5,-82.1543 873.5,-82.1543 873.5,-100.154"/>
<text text-anchor="middle" x="860.5" y="-88.0543" font-family="Times,serif" font-size="9.00">18</text>
</g>
<!-- 19 -->
<g id="node20" class="node">
<title>19</title>
<polygon fill="lightgrey" stroke="black" points="65.5,-100.154 39.5,-100.154 39.5,-82.1543 65.5,-82.1543 65.5,-100.154"/>
<text text-anchor="middle" x="52.5" y="-88.0543" font-family="Times,serif" font-size="9.00">19</text>
</g>
<!-- 19&#45;&gt;22 -->
<g id="edge8" class="edge">
<title>19&#45;&gt;22</title>
<path fill="none" stroke="green" stroke-width="1.09004" stroke-dasharray="1,5" d="M55.1597,-81.938C57.7723,-72.8848 61.8895,-58.6178 65.5615,-45.8934"/>
<polygon fill="green" stroke="green" stroke-width="1.09004" points="68.9638,-46.7268 68.3737,-36.1484 62.2382,-44.7859 68.9638,-46.7268"/>
</g>
<!-- 20 -->
<g id="node21" class="node">
<title>20</title>
<polygon fill="lightgrey" stroke="black" points="917.5,-100.154 891.5,-100.154 891.5,-82.1543 917.5,-82.1543 917.5,-100.154"/>
<text text-anchor="middle" x="904.5" y="-88.0543" font-family="Times,serif" font-size="9.00">20</text>
</g>
<!-- 27 -->
<g id="node28" class="node">
<title>27</title>
<ellipse fill="lightblue" stroke="lightblue" cx="904.5" cy="-18.3848" rx="18.2703" ry="18.2703"/>
<text text-anchor="middle" x="904.5" y="-15.2848" font-family="Times,serif" font-size="9.00">27</text>
</g>
<!-- 20&#45;&gt;27 -->
<g id="edge15" class="edge">
<title>20&#45;&gt;27</title>
<path fill="none" stroke="red" stroke-width="0.155032" d="M904.5,-81.938C904.5,-73.1537 904.5,-59.4608 904.5,-47.0311"/>
<polygon fill="red" stroke="red" stroke-width="0.155032" points="908,-47.0228 904.5,-37.0229 901,-47.0229 908,-47.0228"/>
</g>
<!-- 21 -->
<g id="node22" class="node">
<title>21</title>
<polygon fill="lightgrey" stroke="black" points="961.5,-100.154 935.5,-100.154 935.5,-82.1543 961.5,-82.1543 961.5,-100.154"/>
<text text-anchor="middle" x="948.5" y="-88.0543" font-family="Times,serif" font-size="9.00">21</text>
</g>
<!-- 28 -->
<g id="node29" class="node">
<title>28</title>
<ellipse fill="lightblue" stroke="lightblue" cx="547.5" cy="-91.1543" rx="18.2703" ry="18.2703"/>
<text text-anchor="middle" x="547.5" y="-88.0543" font-family="Times,serif" font-size="9.00">28</text>
</g>
<!-- 28&#45;&gt;26 -->
<g id="edge14" class="edge">
<title>28&#45;&gt;26</title>
<path fill="none" stroke="green" stroke-width="0.121281" d="M541.101,-73.909C537.93,-65.3619 534.028,-54.8451 530.476,-45.2716"/>
<polygon fill="green" stroke="green" stroke-width="0.121281" points="533.706,-43.9165 526.946,-35.7585 527.144,-46.3515 533.706,-43.9165"/>
</g>
</g>
</svg>
