<?xml version="1.0" encoding="UTF-8" standalone="no"?>
<!DOCTYPE svg PUBLIC "-//W3C//DTD SVG 1.1//EN"
 "http://www.w3.org/Graphics/SVG/1.1/DTD/svg11.dtd">
<!-- Generated by graphviz version 2.36.0 (20140111.2315)
 -->
<!-- Title: %3 Pages: 1 -->
<svg width="284pt" height="134pt"
 viewBox="0.00 0.00 284.00 134.00" xmlns="http://www.w3.org/2000/svg" xmlns:xlink="http://www.w3.org/1999/xlink">
<g id="graph0" class="graph" transform="scale(1 1) rotate(0) translate(4 130)">
<title>%3</title>
<polygon fill="white" stroke="none" points="-4,4 -4,-130 280,-130 280,4 -4,4"/>
<!-- stress -->
<g id="node1" class="node"><title>stress</title>
<polygon fill="lightgrey" stroke="black" points="36.25,-126 -0.25,-126 -0.25,-108 36.25,-108 36.25,-126"/>
<text text-anchor="middle" x="18" y="-114.8" font-family="Times,serif" font-size="9.00">stress</text>
</g>
<!-- a0t0 -->
<g id="node2" class="node"><title>a0t0</title>
<polygon fill="lightgrey" stroke="black" points="87,-126 55,-126 55,-108 87,-108 87,-126"/>
<text text-anchor="middle" x="71" y="-114.8" font-family="Times,serif" font-size="9.00">a0t0</text>
</g>
<!-- a0t1 -->
<g id="node3" class="node"><title>a0t1</title>
<polygon fill="lightgrey" stroke="black" points="137,-126 105,-126 105,-108 137,-108 137,-126"/>
<text text-anchor="middle" x="121" y="-114.8" font-family="Times,serif" font-size="9.00">a0t1</text>
</g>
<!-- a0t2 -->
<g id="node4" class="node"><title>a0t2</title>
<polygon fill="lightgrey" stroke="black" points="187,-126 155,-126 155,-108 187,-108 187,-126"/>
<text text-anchor="middle" x="171" y="-114.8" font-family="Times,serif" font-size="9.00">a0t2</text>
</g>
<!-- apoptosis -->
<g id="node6" class="node"><title>apoptosis</title>
<ellipse fill="lightblue" stroke="lightblue" cx="52" cy="-36" rx="35.0343" ry="35.2113"/>
<text text-anchor="middle" x="52" y="-33.8" font-family="Times,serif" font-size="9.00">apoptosis</text>
</g>
<!-- a0t2&#45;&gt;apoptosis -->
<g id="edge4" class="edge"><title>a0t2&#45;&gt;apoptosis</title>
<path fill="none" stroke="red" stroke-width="0.353233" d="M155.961,-107.999C140.539,-99.6072 116.042,-85.7488 96,-72 93.0948,-70.0071 90.1341,-67.8803 87.1914,-65.6972"/>
<polygon fill="red" stroke="red" stroke-width="0.353233" points="89.0818,-62.7373 79.0067,-59.4594 84.8386,-68.3047 89.0818,-62.7373"/>
</g>
<!-- division -->
<g id="node7" class="node"><title>division</title>
<ellipse fill="lightblue" stroke="lightblue" cx="137" cy="-36" rx="31.233" ry="31.6406"/>
<text text-anchor="middle" x="137" y="-33.8" font-family="Times,serif" font-size="9.00">division</text>
</g>
<!-- a0t2&#45;&gt;division -->
<g id="edge3" class="edge"><title>a0t2&#45;&gt;division</title>
<path fill="none" stroke="green" stroke-width="0.406218" d="M167.489,-107.843C164.082,-99.9266 158.658,-87.3222 153.322,-74.9249"/>
<polygon fill="green" stroke="green" stroke-width="0.406218" points="156.462,-73.368 149.294,-65.5662 150.033,-76.1353 156.462,-73.368"/>
</g>
<!-- a0 -->
<g id="node8" class="node"><title>a0</title>
<ellipse fill="lightblue" stroke="lightblue" cx="204" cy="-36" rx="17.5149" ry="17.8571"/>
<text text-anchor="middle" x="204" y="-33.8" font-family="Times,serif" font-size="9.00">a0</text>
</g>
<!-- a0t2&#45;&gt;a0 -->
<g id="edge2" class="edge"><title>a0t2&#45;&gt;a0</title>
<path fill="none" stroke="green" stroke-width="0.139725" d="M174.407,-107.843C178.908,-97.0697 187.035,-77.6143 193.635,-61.8143"/>
<polygon fill="green" stroke="green" stroke-width="0.139725" points="196.876,-63.1356 197.501,-52.5592 190.417,-60.4375 196.876,-63.1356"/>
</g>
<!-- h0 -->
<g id="node9" class="node"><title>h0</title>
<ellipse fill="lightblue" stroke="lightblue" cx="258" cy="-36" rx="18.0791" ry="18.2703"/>
<text text-anchor="middle" x="258" y="-33.8" font-family="Times,serif" font-size="9.00">h0</text>
</g>
<!-- a0t2&#45;&gt;h0 -->
<g id="edge1" class="edge"><title>a0t2&#45;&gt;h0</title>
<path fill="none" stroke="green" stroke-width="0.280149" d="M183.937,-107.761C196.412,-99.5032 215.484,-86.0313 230,-72 233.955,-68.1771 237.861,-63.7968 241.443,-59.4585"/>
<polygon fill="green" stroke="green" stroke-width="0.280149" points="244.414,-61.3436 247.86,-51.325 238.918,-57.0076 244.414,-61.3436"/>
</g>
<!-- a0t3 -->
<g id="node5" class="node"><title>a0t3</title>
<polygon fill="lightgrey" stroke="black" points="237,-126 205,-126 205,-108 237,-108 237,-126"/>
<text text-anchor="middle" x="221" y="-114.8" font-family="Times,serif" font-size="9.00">a0t3</text>
</g>
</g>
</svg>
