<?xml version="1.0" encoding="UTF-8" standalone="no"?>
<!DOCTYPE svg PUBLIC "-//W3C//DTD SVG 1.1//EN"
 "http://www.w3.org/Graphics/SVG/1.1/DTD/svg11.dtd">
<!-- Generated by graphviz version 2.39.20160104.1625 (20160104.1625)
 -->
<!-- Title: %3 Pages: 1 -->
<svg width="285pt" height="134pt"
 viewBox="0.00 0.00 284.88 134.12" xmlns="http://www.w3.org/2000/svg" xmlns:xlink="http://www.w3.org/1999/xlink">
<g id="graph0" class="graph" transform="scale(1 1) rotate(0) translate(4 130.125)">
<title>%3</title>
<polygon fill="white" stroke="transparent" points="-4,4 -4,-130.125 280.885,-130.125 280.885,4 -4,4"/>
<!-- stress -->
<g id="node1" class="node">
<title>stress</title>
<polygon fill="lightgrey" stroke="black" points="37,-126.125 0,-126.125 0,-108.125 37,-108.125 37,-126.125"/>
<text text-anchor="middle" x="18.5" y="-114.025" font-family="Times,serif" font-size="9.00">stress</text>
</g>
<!-- a0t0 -->
<g id="node2" class="node">
<title>a0t0</title>
<polygon fill="lightgrey" stroke="black" points="87.5,-126.125 55.5,-126.125 55.5,-108.125 87.5,-108.125 87.5,-126.125"/>
<text text-anchor="middle" x="71.5" y="-114.025" font-family="Times,serif" font-size="9.00">a0t0</text>
</g>
<!-- a0t1 -->
<g id="node3" class="node">
<title>a0t1</title>
<polygon fill="lightgrey" stroke="black" points="137.5,-126.125 105.5,-126.125 105.5,-108.125 137.5,-108.125 137.5,-126.125"/>
<text text-anchor="middle" x="121.5" y="-114.025" font-family="Times,serif" font-size="9.00">a0t1</text>
</g>
<!-- a0t2 -->
<g id="node4" class="node">
<title>a0t2</title>
<polygon fill="lightgrey" stroke="black" points="187.5,-126.125 155.5,-126.125 155.5,-108.125 187.5,-108.125 187.5,-126.125"/>
<text text-anchor="middle" x="171.5" y="-114.025" font-family="Times,serif" font-size="9.00">a0t2</text>
</g>
<!-- apoptosis -->
<g id="node6" class="node">
<title>apoptosis</title>
<ellipse fill="lightblue" stroke="lightblue" cx="51.5" cy="-36.0624" rx="36.125" ry="36.125"/>
<text text-anchor="middle" x="51.5" y="-32.9624" font-family="Times,serif" font-size="9.00">apoptosis</text>
</g>
<!-- a0t2&#45;&gt;apoptosis -->
<g id="edge4" class="edge">
<title>a0t2&#45;&gt;apoptosis</title>
<path fill="none" stroke="red" stroke-width="0.353233" d="M155.305,-108.25C139.843,-99.5828 116.068,-85.7431 96.5,-72.1249 93.6187,-70.1197 90.6826,-67.9873 87.7606,-65.8001"/>
<polygon fill="red" stroke="red" stroke-width="0.353233" points="89.6844,-62.8645 79.6209,-59.5514 85.4218,-68.4171 89.6844,-62.8645"/>
</g>
<!-- division -->
<g id="node7" class="node">
<title>division</title>
<ellipse fill="lightblue" stroke="lightblue" cx="137.5" cy="-36.0624" rx="31.6406" ry="31.6406"/>
<text text-anchor="middle" x="137.5" y="-32.9624" font-family="Times,serif" font-size="9.00">division</text>
</g>
<!-- a0t2&#45;&gt;division -->
<g id="edge3" class="edge">
<title>a0t2&#45;&gt;division</title>
<path fill="none" stroke="green" stroke-width="0.406218" d="M167.6,-107.826C164.18,-99.6737 158.967,-87.244 153.835,-75.0074"/>
<polygon fill="green" stroke="green" stroke-width="0.406218" points="157.052,-73.6296 149.957,-65.7617 150.597,-76.3372 157.052,-73.6296"/>
</g>
<!-- a0 -->
<g id="node8" class="node">
<title>a0</title>
<ellipse fill="lightblue" stroke="lightblue" cx="204.5" cy="-36.0624" rx="17.8571" ry="17.8571"/>
<text text-anchor="middle" x="204.5" y="-32.9624" font-family="Times,serif" font-size="9.00">a0</text>
</g>
<!-- a0t2&#45;&gt;a0 -->
<g id="edge2" class="edge">
<title>a0t2&#45;&gt;a0</title>
<path fill="none" stroke="green" stroke-width="0.139725" d="M175.286,-107.826C179.785,-96.773 187.486,-77.8572 193.851,-62.2204"/>
<polygon fill="green" stroke="green" stroke-width="0.139725" points="197.266,-63.1154 197.795,-52.5338 190.782,-60.4761 197.266,-63.1154"/>
</g>
<!-- h0 -->
<g id="node9" class="node">
<title>h0</title>
<ellipse fill="lightblue" stroke="lightblue" cx="258.5" cy="-36.0624" rx="18.2703" ry="18.2703"/>
<text text-anchor="middle" x="258.5" y="-32.9624" font-family="Times,serif" font-size="9.00">h0</text>
</g>
<!-- a0t2&#45;&gt;h0 -->
<g id="edge1" class="edge">
<title>a0t2&#45;&gt;h0</title>
<path fill="none" stroke="green" stroke-width="0.280149" d="M186.235,-107.811C198.982,-99.3647 217.511,-86.1255 231.5,-72.1249 235.273,-68.3488 238.953,-64.023 242.322,-59.7089"/>
<polygon fill="green" stroke="green" stroke-width="0.280149" points="245.21,-61.6909 248.359,-51.575 239.589,-57.519 245.21,-61.6909"/>
</g>
<!-- a0t3 -->
<g id="node5" class="node">
<title>a0t3</title>
<polygon fill="lightgrey" stroke="black" points="237.5,-126.125 205.5,-126.125 205.5,-108.125 237.5,-108.125 237.5,-126.125"/>
<text text-anchor="middle" x="221.5" y="-114.025" font-family="Times,serif" font-size="9.00">a0t3</text>
</g>
</g>
</svg>
