<?xml version="1.0" encoding="UTF-8" standalone="no"?>
<!DOCTYPE svg PUBLIC "-//W3C//DTD SVG 1.1//EN"
 "http://www.w3.org/Graphics/SVG/1.1/DTD/svg11.dtd">
<!-- Generated by graphviz version 2.39.20160104.1625 (20160104.1625)
 -->
<!-- Title: %3 Pages: 1 -->
<svg width="852pt" height="320pt"
 viewBox="0.00 0.00 852.09 319.91" xmlns="http://www.w3.org/2000/svg" xmlns:xlink="http://www.w3.org/1999/xlink">
<g id="graph0" class="graph" transform="scale(1 1) rotate(0) translate(4 315.907)">
<title>%3</title>
<polygon fill="white" stroke="transparent" points="-4,4 -4,-315.907 848.092,-315.907 848.092,4 -4,4"/>
<!-- 0 -->
<g id="node1" class="node">
<title>0</title>
<polygon fill="lightgrey" stroke="black" points="71.5919,-311.907 50.5919,-311.907 50.5919,-293.907 71.5919,-293.907 71.5919,-311.907"/>
<text text-anchor="middle" x="61.0919" y="-299.807" font-family="Times,serif" font-size="9.00">0</text>
</g>
<!-- 29 -->
<g id="node32" class="node">
<title>29</title>
<ellipse fill="none" stroke="black" cx="98.0919" cy="-239.522" rx="18.2703" ry="18.2703"/>
<text text-anchor="middle" x="98.0919" y="-236.422" font-family="Times,serif" font-size="9.00">29</text>
</g>
<!-- 0&#45;&gt;29 -->
<g id="edge32" class="edge">
<title>0&#45;&gt;29</title>
<path fill="none" stroke="red" stroke-width="0.35171" d="M66.3931,-293.825C70.9059,-286.094 77.6052,-274.618 83.6839,-264.204"/>
<polygon fill="red" stroke="red" stroke-width="0.35171" points="86.7769,-265.848 88.7955,-255.447 80.7315,-262.319 86.7769,-265.848"/>
</g>
<!-- 1 -->
<g id="node2" class="node">
<title>1</title>
<polygon fill="lightgrey" stroke="black" points="243.592,-311.907 222.592,-311.907 222.592,-293.907 243.592,-293.907 243.592,-311.907"/>
<text text-anchor="middle" x="233.092" y="-299.807" font-family="Times,serif" font-size="9.00">1</text>
</g>
<!-- 2 -->
<g id="node3" class="node">
<title>2</title>
<polygon fill="lightgrey" stroke="black" points="327.592,-311.907 306.592,-311.907 306.592,-293.907 327.592,-293.907 327.592,-311.907"/>
<text text-anchor="middle" x="317.092" y="-299.807" font-family="Times,serif" font-size="9.00">2</text>
</g>
<!-- 28 -->
<g id="node29" class="node">
<title>28</title>
<ellipse fill="lightblue" stroke="lightblue" cx="381.092" cy="-239.522" rx="18.2703" ry="18.2703"/>
<text text-anchor="middle" x="381.092" y="-236.422" font-family="Times,serif" font-size="9.00">28</text>
</g>
<!-- 2&#45;&gt;28 -->
<g id="edge13" class="edge">
<title>2&#45;&gt;28</title>
<path fill="none" stroke="green" stroke-width="1.2599" d="M326.262,-293.825C335.221,-284.952 349.163,-271.144 360.745,-259.673"/>
<polygon fill="green" stroke="green" stroke-width="1.2599" points="363.298,-262.071 367.94,-252.547 358.372,-257.097 363.298,-262.071"/>
</g>
<!-- 3 -->
<g id="node4" class="node">
<title>3</title>
<polygon fill="lightgrey" stroke="black" points="500.092,-311.907 478.092,-311.907 478.092,-293.907 500.092,-293.907 500.092,-311.907"/>
<text text-anchor="middle" x="489.092" y="-299.807" font-family="Times,serif" font-size="9.00">3</text>
</g>
<!-- 4 -->
<g id="node5" class="node">
<title>4</title>
<polygon fill="lightgrey" stroke="black" points="540.092,-311.907 518.092,-311.907 518.092,-293.907 540.092,-293.907 540.092,-311.907"/>
<text text-anchor="middle" x="529.092" y="-299.807" font-family="Times,serif" font-size="9.00">4</text>
</g>
<!-- 5 -->
<g id="node6" class="node">
<title>5</title>
<polygon fill="lightgrey" stroke="black" points="271.592,-175.045 250.592,-175.045 250.592,-157.045 271.592,-157.045 271.592,-175.045"/>
<text text-anchor="middle" x="261.092" y="-162.945" font-family="Times,serif" font-size="9.00">5</text>
</g>
<!-- 25 -->
<g id="node26" class="node">
<title>25</title>
<ellipse fill="lightblue" stroke="lightblue" cx="173.092" cy="-91.8614" rx="18.2703" ry="18.2703"/>
<text text-anchor="middle" x="173.092" y="-88.7614" font-family="Times,serif" font-size="9.00">25</text>
</g>
<!-- 5&#45;&gt;25 -->
<g id="edge25" class="edge">
<title>5&#45;&gt;25</title>
<path fill="none" stroke="green" stroke-width="0.155428" d="M250.301,-156.949C236.655,-145.445 212.818,-125.351 195.23,-110.524"/>
<polygon fill="green" stroke="green" stroke-width="0.155428" points="197.071,-107.498 187.17,-103.729 192.559,-112.85 197.071,-107.498"/>
</g>
<!-- 27 -->
<g id="node28" class="node">
<title>27</title>
<ellipse fill="lightblue" stroke="lightblue" cx="309.092" cy="-91.8614" rx="18.2703" ry="18.2703"/>
<text text-anchor="middle" x="309.092" y="-88.7614" font-family="Times,serif" font-size="9.00">27</text>
</g>
<!-- 5&#45;&gt;27 -->
<g id="edge28" class="edge">
<title>5&#45;&gt;27</title>
<path fill="none" stroke="green" stroke-width="0.533079" d="M266.978,-156.949C273.508,-146.856 284.316,-130.152 293.348,-116.194"/>
<polygon fill="green" stroke="green" stroke-width="0.533079" points="296.47,-117.812 298.964,-107.515 290.593,-114.009 296.47,-117.812"/>
</g>
<!-- 6 -->
<g id="node7" class="node">
<title>6</title>
<polygon fill="lightgrey" stroke="black" points="579.592,-311.907 558.592,-311.907 558.592,-293.907 579.592,-293.907 579.592,-311.907"/>
<text text-anchor="middle" x="569.092" y="-299.807" font-family="Times,serif" font-size="9.00">6</text>
</g>
<!-- 7 -->
<g id="node8" class="node">
<title>7</title>
<polygon fill="lightgrey" stroke="black" points="194.092,-175.045 172.092,-175.045 172.092,-157.045 194.092,-157.045 194.092,-175.045"/>
<text text-anchor="middle" x="183.092" y="-162.945" font-family="Times,serif" font-size="9.00">7</text>
</g>
<!-- 7&#45;&gt;25 -->
<g id="edge7" class="edge">
<title>7&#45;&gt;25</title>
<path fill="none" stroke="green" stroke-width="0.8222" d="M181.866,-156.949C180.631,-147.79 178.663,-133.187 176.903,-120.132"/>
<polygon fill="green" stroke="green" stroke-width="0.8222" points="180.359,-119.57 175.554,-110.128 173.422,-120.506 180.359,-119.57"/>
</g>
<!-- 8 -->
<g id="node9" class="node">
<title>8</title>
<polygon fill="lightgrey" stroke="black" points="110.592,-311.907 89.5919,-311.907 89.5919,-293.907 110.592,-293.907 110.592,-311.907"/>
<text text-anchor="middle" x="100.092" y="-299.807" font-family="Times,serif" font-size="9.00">8</text>
</g>
<!-- 8&#45;&gt;29 -->
<g id="edge29" class="edge">
<title>8&#45;&gt;29</title>
<path fill="none" stroke="green" stroke-width="0.300484" d="M99.8053,-293.825C99.5919,-287.06 99.2879,-277.427 98.9951,-268.148"/>
<polygon fill="green" stroke="green" stroke-width="0.300484" points="102.488,-267.878 98.6747,-257.994 95.4919,-268.099 102.488,-267.878"/>
</g>
<!-- 9 -->
<g id="node10" class="node">
<title>9</title>
<polygon fill="lightgrey" stroke="black" points="61.5919,-248.522 40.5919,-248.522 40.5919,-230.522 61.5919,-230.522 61.5919,-248.522"/>
<text text-anchor="middle" x="51.0919" y="-236.422" font-family="Times,serif" font-size="9.00">9</text>
</g>
<!-- 24 -->
<g id="node25" class="node">
<title>24</title>
<ellipse fill="lightblue" stroke="lightblue" cx="60.0919" cy="-166.045" rx="18.2703" ry="18.2703"/>
<text text-anchor="middle" x="60.0919" y="-162.945" font-family="Times,serif" font-size="9.00">24</text>
</g>
<!-- 9&#45;&gt;24 -->
<g id="edge11" class="edge">
<title>9&#45;&gt;24</title>
<path fill="none" stroke="red" stroke-width="0.172259" d="M52.1955,-230.512C53.2883,-221.591 55.0199,-207.453 56.5835,-194.688"/>
<polygon fill="red" stroke="red" stroke-width="0.172259" points="60.0978,-194.784 57.8397,-184.432 53.1498,-193.933 60.0978,-194.784"/>
</g>
<!-- 10 -->
<g id="node11" class="node">
<title>10</title>
<polygon fill="lightgrey" stroke="black" points="345.092,-248.522 319.092,-248.522 319.092,-230.522 345.092,-230.522 345.092,-248.522"/>
<text text-anchor="middle" x="332.092" y="-236.422" font-family="Times,serif" font-size="9.00">10</text>
</g>
<!-- 10&#45;&gt;25 -->
<g id="edge22" class="edge">
<title>10&#45;&gt;25</title>
<path fill="none" stroke="green" stroke-width="0.833537" d="M318.951,-233.749C300.221,-225.086 265.426,-207.346 241.092,-185.137 219.142,-165.104 199.805,-136.982 187.418,-116.864"/>
<polygon fill="green" stroke="green" stroke-width="0.833537" points="190.386,-115.007 182.232,-108.242 184.387,-118.615 190.386,-115.007"/>
</g>
<!-- 26 -->
<g id="node27" class="node">
<title>26</title>
<ellipse fill="lightblue" stroke="lightblue" cx="89.0919" cy="-18.3848" rx="18.2703" ry="18.2703"/>
<text text-anchor="middle" x="89.0919" y="-15.2848" font-family="Times,serif" font-size="9.00">26</text>
</g>
<!-- 10&#45;&gt;26 -->
<g id="edge8" class="edge">
<title>10&#45;&gt;26</title>
<path fill="none" stroke="green" stroke-width="0.618649" d="M342.07,-230.497C345.731,-227.372 349.986,-223.952 354.092,-221.137 381.33,-202.464 402.326,-213.588 419.092,-185.137 448.383,-135.431 404.407,-101.002 354.092,-72.7696 272.273,-26.8603 237.184,-59.2247 146.092,-36.7696 136.231,-34.3388 125.598,-31.0867 116.216,-27.9938"/>
<polygon fill="green" stroke="green" stroke-width="0.618649" points="117.218,-24.6378 106.624,-24.7465 114.974,-31.2682 117.218,-24.6378"/>
</g>
<!-- 10&#45;&gt;27 -->
<g id="edge26" class="edge">
<title>10&#45;&gt;27</title>
<path fill="none" stroke="green" stroke-width="0.619208" d="M334.28,-230.431C337.945,-213.663 344.253,-176.848 337.092,-146.953 334.569,-136.422 329.683,-125.63 324.689,-116.421"/>
<polygon fill="green" stroke="green" stroke-width="0.619208" points="327.562,-114.396 319.54,-107.475 321.495,-117.888 327.562,-114.396"/>
</g>
<!-- 30 -->
<g id="node33" class="node">
<title>30</title>
<ellipse fill="none" stroke="black" cx="309.092" cy="-166.045" rx="19.1842" ry="19.1842"/>
<text text-anchor="middle" x="309.092" y="-162.945" font-family="Times,serif" font-size="9.00">30</text>
</g>
<!-- 10&#45;&gt;30 -->
<g id="edge15" class="edge">
<title>10&#45;&gt;30</title>
<path fill="none" stroke="green" stroke-width="0.18461" d="M329.272,-230.512C326.451,-221.501 321.965,-207.17 317.938,-194.305"/>
<polygon fill="green" stroke="green" stroke-width="0.18461" points="321.175,-192.93 314.848,-184.432 314.495,-195.021 321.175,-192.93"/>
</g>
<!-- 11 -->
<g id="node12" class="node">
<title>11</title>
<polygon fill="lightgrey" stroke="black" points="624.092,-311.907 598.092,-311.907 598.092,-293.907 624.092,-293.907 624.092,-311.907"/>
<text text-anchor="middle" x="611.092" y="-299.807" font-family="Times,serif" font-size="9.00">11</text>
</g>
<!-- 12 -->
<g id="node13" class="node">
<title>12</title>
<polygon fill="lightgrey" stroke="black" points="157.092,-311.907 131.092,-311.907 131.092,-293.907 157.092,-293.907 157.092,-311.907"/>
<text text-anchor="middle" x="144.092" y="-299.807" font-family="Times,serif" font-size="9.00">12</text>
</g>
<!-- 23 -->
<g id="node24" class="node">
<title>23</title>
<ellipse fill="lightblue" stroke="lightblue" cx="190.092" cy="-239.522" rx="18.2703" ry="18.2703"/>
<text text-anchor="middle" x="190.092" y="-236.422" font-family="Times,serif" font-size="9.00">23</text>
</g>
<!-- 12&#45;&gt;23 -->
<g id="edge30" class="edge">
<title>12&#45;&gt;23</title>
<path fill="none" stroke="green" stroke-width="0.484406" d="M150.683,-293.825C156.563,-285.722 165.43,-273.504 173.265,-262.708"/>
<polygon fill="green" stroke="green" stroke-width="0.484406" points="176.21,-264.609 179.251,-254.46 170.544,-260.498 176.21,-264.609"/>
</g>
<!-- 12&#45;&gt;25 -->
<g id="edge4" class="edge">
<title>12&#45;&gt;25</title>
<path fill="none" stroke="red" stroke-width="0.144859" d="M145.02,-293.741C147.5,-269.637 154.673,-202.506 163.092,-146.953 164.417,-138.207 166.064,-128.718 167.636,-120.119"/>
<polygon fill="red" stroke="red" stroke-width="0.144859" points="171.097,-120.653 169.49,-110.181 164.215,-119.369 171.097,-120.653"/>
</g>
<!-- 12&#45;&gt;29 -->
<g id="edge9" class="edge">
<title>12&#45;&gt;29</title>
<path fill="none" stroke="green" stroke-width="0.517531" d="M137.501,-293.825C131.62,-285.722 122.753,-273.504 114.919,-262.708"/>
<polygon fill="green" stroke="green" stroke-width="0.517531" points="117.639,-260.498 108.933,-254.46 111.974,-264.609 117.639,-260.498"/>
</g>
<!-- 13 -->
<g id="node14" class="node">
<title>13</title>
<polygon fill="lightgrey" stroke="black" points="410.092,-175.045 384.092,-175.045 384.092,-157.045 410.092,-157.045 410.092,-175.045"/>
<text text-anchor="middle" x="397.092" y="-162.945" font-family="Times,serif" font-size="9.00">13</text>
</g>
<!-- 13&#45;&gt;27 -->
<g id="edge23" class="edge">
<title>13&#45;&gt;27</title>
<path fill="none" stroke="red" stroke-width="0.198382" d="M386.301,-156.949C372.655,-145.445 348.818,-125.351 331.23,-110.524"/>
<polygon fill="red" stroke="red" stroke-width="0.198382" points="333.071,-107.498 323.17,-103.729 328.559,-112.85 333.071,-107.498"/>
</g>
<!-- 14 -->
<g id="node15" class="node">
<title>14</title>
<polygon fill="lightgrey" stroke="black" points="372.092,-311.907 346.092,-311.907 346.092,-293.907 372.092,-293.907 372.092,-311.907"/>
<text text-anchor="middle" x="359.092" y="-299.807" font-family="Times,serif" font-size="9.00">14</text>
</g>
<!-- 14&#45;&gt;28 -->
<g id="edge1" class="edge">
<title>14&#45;&gt;28</title>
<path fill="none" stroke="green" stroke-width="0.194876" d="M362.244,-293.825C364.739,-286.637 368.358,-276.21 371.759,-266.41"/>
<polygon fill="green" stroke="green" stroke-width="0.194876" points="375.066,-267.557 375.038,-256.963 368.453,-265.262 375.066,-267.557"/>
</g>
<!-- 15 -->
<g id="node16" class="node">
<title>15</title>
<polygon fill="lightgrey" stroke="black" points="668.092,-311.907 642.092,-311.907 642.092,-293.907 668.092,-293.907 668.092,-311.907"/>
<text text-anchor="middle" x="655.092" y="-299.807" font-family="Times,serif" font-size="9.00">15</text>
</g>
<!-- 16 -->
<g id="node17" class="node">
<title>16</title>
<polygon fill="lightgrey" stroke="black" points="712.092,-311.907 686.092,-311.907 686.092,-293.907 712.092,-293.907 712.092,-311.907"/>
<text text-anchor="middle" x="699.092" y="-299.807" font-family="Times,serif" font-size="9.00">16</text>
</g>
<!-- 17 -->
<g id="node18" class="node">
<title>17</title>
<polygon fill="lightgrey" stroke="black" points="416.092,-311.907 390.092,-311.907 390.092,-293.907 416.092,-293.907 416.092,-311.907"/>
<text text-anchor="middle" x="403.092" y="-299.807" font-family="Times,serif" font-size="9.00">17</text>
</g>
<!-- 17&#45;&gt;28 -->
<g id="edge18" class="edge">
<title>17&#45;&gt;28</title>
<path fill="none" stroke="red" stroke-width="0.651659" d="M399.94,-293.825C397.445,-286.637 393.826,-276.21 390.424,-266.41"/>
<polygon fill="red" stroke="red" stroke-width="0.651659" points="393.731,-265.262 387.145,-256.963 387.118,-267.557 393.731,-265.262"/>
</g>
<!-- 18 -->
<g id="node19" class="node">
<title>18</title>
<polygon fill="lightgrey" stroke="black" points="756.092,-311.907 730.092,-311.907 730.092,-293.907 756.092,-293.907 756.092,-311.907"/>
<text text-anchor="middle" x="743.092" y="-299.807" font-family="Times,serif" font-size="9.00">18</text>
</g>
<!-- 19 -->
<g id="node20" class="node">
<title>19</title>
<polygon fill="lightgrey" stroke="black" points="800.092,-311.907 774.092,-311.907 774.092,-293.907 800.092,-293.907 800.092,-311.907"/>
<text text-anchor="middle" x="787.092" y="-299.807" font-family="Times,serif" font-size="9.00">19</text>
</g>
<!-- 20 -->
<g id="node21" class="node">
<title>20</title>
<polygon fill="lightgrey" stroke="black" points="844.092,-311.907 818.092,-311.907 818.092,-293.907 844.092,-293.907 844.092,-311.907"/>
<text text-anchor="middle" x="831.092" y="-299.807" font-family="Times,serif" font-size="9.00">20</text>
</g>
<!-- 21 -->
<g id="node22" class="node">
<title>21</title>
<polygon fill="lightgrey" stroke="black" points="460.092,-311.907 434.092,-311.907 434.092,-293.907 460.092,-293.907 460.092,-311.907"/>
<text text-anchor="middle" x="447.092" y="-299.807" font-family="Times,serif" font-size="9.00">21</text>
</g>
<!-- 21&#45;&gt;28 -->
<g id="edge3" class="edge">
<title>21&#45;&gt;28</title>
<path fill="none" stroke="green" stroke-width="0.224984" stroke-dasharray="1,5" d="M437.636,-293.825C428.396,-284.952 414.019,-271.144 402.074,-259.673"/>
<polygon fill="green" stroke="green" stroke-width="0.224984" points="404.292,-256.95 394.655,-252.547 399.443,-261.998 404.292,-256.95"/>
</g>
<!-- 22 -->
<g id="node23" class="node">
<title>22</title>
<ellipse fill="lightblue" stroke="lightblue" cx="173.092" cy="-18.3848" rx="18.2703" ry="18.2703"/>
<text text-anchor="middle" x="173.092" y="-15.2848" font-family="Times,serif" font-size="9.00">22</text>
</g>
<!-- 24&#45;&gt;25 -->
<g id="edge24" class="edge">
<title>24&#45;&gt;25</title>
<path fill="none" stroke="green" stroke-width="0.178158" stroke-dasharray="1,5" d="M75.804,-155.73C94.7787,-143.274 126.895,-122.189 149.005,-107.674"/>
<polygon fill="green" stroke="green" stroke-width="0.178158" points="151.074,-110.503 157.513,-102.089 147.233,-104.651 151.074,-110.503"/>
</g>
<!-- 24&#45;&gt;26 -->
<g id="edge5" class="edge">
<title>24&#45;&gt;26</title>
<path fill="none" stroke="green" stroke-width="0.293605" stroke-dasharray="1,5" d="M63.6479,-147.939C68.605,-122.699 77.6419,-76.6849 83.5041,-46.8361"/>
<polygon fill="green" stroke="green" stroke-width="0.293605" points="87.014,-47.126 85.5068,-36.6389 80.1452,-45.777 87.014,-47.126"/>
</g>
<!-- 24&#45;&gt;27 -->
<g id="edge20" class="edge">
<title>24&#45;&gt;27</title>
<path fill="none" stroke="green" stroke-width="0.370631" stroke-dasharray="1,5" d="M77.9993,-160.71C120.981,-147.905 230.217,-115.36 281.593,-100.054"/>
<polygon fill="green" stroke="green" stroke-width="0.370631" points="282.762,-103.358 291.347,-97.1482 280.764,-96.6492 282.762,-103.358"/>
</g>
<!-- 32 -->
<g id="node30" class="node">
<title>32</title>
<ellipse fill="none" stroke="black" cx="113.092" cy="-91.8614" rx="19.1842" ry="19.1842"/>
<text text-anchor="middle" x="113.092" y="-88.7614" font-family="Times,serif" font-size="9.00">32</text>
</g>
<!-- 24&#45;&gt;32 -->
<g id="edge31" class="edge">
<title>24&#45;&gt;32</title>
<path fill="none" stroke="green" stroke-width="0.598992" d="M70.8172,-151.033C78.0001,-140.979 87.614,-127.523 95.8587,-115.983"/>
<polygon fill="green" stroke="green" stroke-width="0.598992" points="98.8683,-117.791 101.834,-107.619 93.1726,-113.722 98.8683,-117.791"/>
</g>
<!-- 31 -->
<g id="node31" class="node">
<title>31</title>
<ellipse fill="none" stroke="black" cx="19.0919" cy="-91.8614" rx="19.1842" ry="19.1842"/>
<text text-anchor="middle" x="19.0919" y="-88.7614" font-family="Times,serif" font-size="9.00">31</text>
</g>
<!-- 24&#45;&gt;31 -->
<g id="edge12" class="edge">
<title>24&#45;&gt;31</title>
<path fill="none" stroke="red" stroke-width="0.157205" d="M51.1955,-149.948C45.9858,-140.522 39.2853,-128.399 33.3547,-117.668"/>
<polygon fill="red" stroke="red" stroke-width="0.157205" points="36.2984,-115.758 28.3978,-108.699 30.1718,-119.145 36.2984,-115.758"/>
</g>
<!-- 24&#45;&gt;29 -->
<g id="edge16" class="edge">
<title>24&#45;&gt;29</title>
<path fill="none" stroke="green" stroke-width="0.233058" stroke-dasharray="1,5" d="M72.7937,-180.085C78.6979,-189.154 85.3275,-201.258 90.4994,-212.176"/>
<polygon fill="green" stroke="green" stroke-width="0.233058" points="87.3311,-213.665 94.6143,-221.359 93.719,-210.802 87.3311,-213.665"/>
</g>
<!-- 25&#45;&gt;22 -->
<g id="edge19" class="edge">
<title>25&#45;&gt;22</title>
<path fill="none" stroke="red" stroke-width="0.471504" d="M173.092,-73.3202C173.092,-65.4014 173.092,-55.9736 173.092,-47.1828"/>
<polygon fill="red" stroke="red" stroke-width="0.471504" points="176.592,-46.9201 173.092,-36.9201 169.592,-46.9201 176.592,-46.9201"/>
</g>
<!-- 27&#45;&gt;27 -->
<g id="edge17" class="edge">
<title>27&#45;&gt;27</title>
<path fill="none" stroke="red" stroke-width="0.323235" d="M323.284,-103.618C334.271,-108.015 345.477,-104.096 345.477,-91.8614 345.477,-83.4503 340.18,-78.9696 333.3,-78.4192"/>
<polygon fill="red" stroke="red" stroke-width="0.323235" points="332.564,-74.9937 323.284,-80.105 333.726,-81.8966 332.564,-74.9937"/>
</g>
<!-- 28&#45;&gt;28 -->
<g id="edge21" class="edge">
<title>28&#45;&gt;28</title>
<path fill="none" stroke="green" stroke-width="0.147922" d="M396.421,-250.012C407.03,-253.19 417.477,-249.694 417.477,-239.522 417.477,-232.688 412.761,-228.867 406.448,-228.059"/>
<polygon fill="green" stroke="green" stroke-width="0.147922" points="406.036,-224.583 396.421,-229.032 406.712,-231.55 406.036,-224.583"/>
</g>
<!-- 32&#45;&gt;26 -->
<g id="edge2" class="edge">
<title>32&#45;&gt;26</title>
<path fill="none" stroke="red" stroke-width="0.127848" d="M107.159,-73.6987C104.407,-65.2723 101.077,-55.0766 98.029,-45.7459"/>
<polygon fill="red" stroke="red" stroke-width="0.127848" points="101.305,-44.5041 94.8734,-36.0851 94.6514,-46.6776 101.305,-44.5041"/>
</g>
<!-- 31&#45;&gt;26 -->
<g id="edge6" class="edge">
<title>31&#45;&gt;26</title>
<path fill="none" stroke="red" stroke-width="0.118486" d="M32.5886,-77.6944C42.8871,-66.8844 57.2408,-51.8177 68.9039,-39.5755"/>
<polygon fill="red" stroke="red" stroke-width="0.118486" points="71.7463,-41.666 76.1099,-32.0115 66.6781,-36.8376 71.7463,-41.666"/>
</g>
<!-- 29&#45;&gt;24 -->
<g id="edge27" class="edge">
<title>29&#45;&gt;24</title>
<path fill="none" stroke="red" stroke-width="0.563654" d="M85.5329,-225.701C79.6099,-216.634 72.9361,-204.466 67.7289,-193.485"/>
<polygon fill="red" stroke="red" stroke-width="0.563654" points="70.8719,-191.94 63.5861,-184.248 64.4848,-194.804 70.8719,-191.94"/>
</g>
<!-- 29&#45;&gt;25 -->
<g id="edge10" class="edge">
<title>29&#45;&gt;25</title>
<path fill="none" stroke="green" stroke-width="1.78998" d="M102.453,-221.39C107.503,-202.176 116.858,-171.306 130.092,-146.953 136.609,-134.96 145.703,-122.869 153.849,-113.081"/>
<polygon fill="green" stroke="green" stroke-width="1.78998" points="156.538,-115.323 160.392,-105.454 151.225,-110.765 156.538,-115.323"/>
</g>
<!-- 30&#45;&gt;27 -->
<g id="edge14" class="edge">
<title>30&#45;&gt;27</title>
<path fill="none" stroke="green" stroke-width="0.592957" d="M309.092,-146.941C309.092,-138.945 309.092,-129.477 309.092,-120.666"/>
<polygon fill="green" stroke="green" stroke-width="0.592957" points="312.592,-120.388 309.092,-110.388 305.592,-120.388 312.592,-120.388"/>
</g>
</g>
</svg>
