<?xml version="1.0" encoding="utf-8" standalone="no"?>
<!DOCTYPE svg PUBLIC "-//W3C//DTD SVG 1.1//EN"
  "http://www.w3.org/Graphics/SVG/1.1/DTD/svg11.dtd">
<!-- Created with matplotlib (http://matplotlib.org/) -->
<svg height="432pt" version="1.1" viewBox="0 0 576 432" width="576pt" xmlns="http://www.w3.org/2000/svg" xmlns:xlink="http://www.w3.org/1999/xlink">
 <defs>
  <style type="text/css">
*{stroke-linecap:butt;stroke-linejoin:round;stroke-miterlimit:100000;}
  </style>
 </defs>
 <g id="figure_1">
  <g id="patch_1">
   <path d="M 0 432 
L 576 432 
L 576 0 
L 0 0 
z
" style="fill:#ffffff;"/>
  </g>
  <g id="axes_1">
   <g id="patch_2">
    <path d="M 72 388.8 
L 518.4 388.8 
L 518.4 43.2 
L 72 43.2 
z
" style="fill:#ffffff;"/>
   </g>
   <g id="PolyCollection_1">
    <defs>
     <path d="M 72 -339.428571 
L 72 -43.2 
L 79.44 -43.2 
L 86.88 -43.2 
L 94.32 -43.2 
L 101.76 -43.2 
L 109.2 -43.2 
L 116.64 -43.2 
L 124.08 -43.2 
L 131.52 -43.2 
L 138.96 -43.2 
L 146.4 -43.2 
L 153.84 -43.2 
L 161.28 -43.2 
L 168.72 -43.2 
L 176.16 -43.2 
L 183.6 -43.2 
L 191.04 -43.2 
L 198.48 -43.2 
L 205.92 -43.2 
L 213.36 -43.2 
L 220.8 -43.2 
L 228.24 -43.2 
L 235.68 -43.2 
L 243.12 -43.2 
L 250.56 -43.2 
L 258 -43.2 
L 265.44 -43.2 
L 272.88 -43.2 
L 280.32 -43.2 
L 287.76 -43.2 
L 295.2 -43.2 
L 302.64 -43.2 
L 310.08 -43.2 
L 317.52 -43.2 
L 324.96 -43.2 
L 332.4 -43.2 
L 339.84 -43.2 
L 347.28 -43.2 
L 354.72 -43.2 
L 362.16 -43.2 
L 369.6 -43.2 
L 377.04 -43.2 
L 384.48 -43.2 
L 391.92 -43.2 
L 399.36 -43.2 
L 406.8 -43.2 
L 414.24 -43.2 
L 421.68 -43.2 
L 429.12 -43.2 
L 436.56 -43.2 
L 444 -43.2 
L 451.44 -43.2 
L 458.88 -43.2 
L 466.32 -43.2 
L 473.76 -43.2 
L 481.2 -43.2 
L 488.64 -43.2 
L 496.08 -43.2 
L 503.52 -43.2 
L 503.52 -78.747429 
L 503.52 -78.747429 
L 496.08 -81.709714 
L 488.64 -72.822857 
L 481.2 -76.772571 
L 473.76 -83.684571 
L 466.32 -79.734857 
L 458.88 -79.734857 
L 451.44 -74.797714 
L 444 -77.76 
L 436.56 -75.785143 
L 429.12 -76.772571 
L 421.68 -66.898286 
L 414.24 -73.810286 
L 406.8 -72.822857 
L 399.36 -72.822857 
L 391.92 -67.885714 
L 384.48 -58.998857 
L 377.04 -81.709714 
L 369.6 -80.722286 
L 362.16 -82.697143 
L 354.72 -103.433143 
L 347.28 -81.709714 
L 339.84 -110.345143 
L 332.4 -63.936 
L 324.96 -86.646857 
L 317.52 -98.496 
L 310.08 -84.672 
L 302.64 -87.634286 
L 295.2 -104.420571 
L 287.76 -80.722286 
L 280.32 -100.470857 
L 272.88 -105.408 
L 265.44 -63.936 
L 258 -130.093714 
L 250.56 -81.709714 
L 243.12 -72.822857 
L 235.68 -129.106286 
L 228.24 -90.596571 
L 220.8 -116.269714 
L 213.36 -127.131429 
L 205.92 -102.445714 
L 198.48 -174.528 
L 191.04 -69.860571 
L 183.6 -84.672 
L 176.16 -140.955429 
L 168.72 -187.364571 
L 161.28 -79.734857 
L 153.84 -66.898286 
L 146.4 -90.596571 
L 138.96 -117.257143 
L 131.52 -94.546286 
L 124.08 -236.736 
L 116.64 -189.339429 
L 109.2 -244.635429 
L 101.76 -148.854857 
L 94.32 -289.069714 
L 86.88 -339.428571 
L 79.44 -339.428571 
L 72 -339.428571 
z
" id="maac82a15f3" style="stroke:#000000;"/>
    </defs>
    <g clip-path="url(#p3426b1078d)">
     <use style="fill:#0000ff;stroke:#000000;" x="0.0" xlink:href="#maac82a15f3" y="432.0"/>
    </g>
   </g>
   <g id="PolyCollection_2">
    <defs>
     <path d="M 72 -339.428571 
L 72 -339.428571 
L 79.44 -339.428571 
L 86.88 -339.428571 
L 94.32 -289.069714 
L 101.76 -148.854857 
L 109.2 -244.635429 
L 116.64 -189.339429 
L 124.08 -236.736 
L 131.52 -94.546286 
L 138.96 -117.257143 
L 146.4 -90.596571 
L 153.84 -66.898286 
L 161.28 -79.734857 
L 168.72 -187.364571 
L 176.16 -140.955429 
L 183.6 -84.672 
L 191.04 -69.860571 
L 198.48 -174.528 
L 205.92 -102.445714 
L 213.36 -127.131429 
L 220.8 -116.269714 
L 228.24 -90.596571 
L 235.68 -129.106286 
L 243.12 -72.822857 
L 250.56 -81.709714 
L 258 -130.093714 
L 265.44 -63.936 
L 272.88 -105.408 
L 280.32 -100.470857 
L 287.76 -80.722286 
L 295.2 -104.420571 
L 302.64 -87.634286 
L 310.08 -84.672 
L 317.52 -98.496 
L 324.96 -86.646857 
L 332.4 -63.936 
L 339.84 -110.345143 
L 347.28 -81.709714 
L 354.72 -103.433143 
L 362.16 -82.697143 
L 369.6 -80.722286 
L 377.04 -81.709714 
L 384.48 -58.998857 
L 391.92 -67.885714 
L 399.36 -72.822857 
L 406.8 -72.822857 
L 414.24 -73.810286 
L 421.68 -66.898286 
L 429.12 -76.772571 
L 436.56 -75.785143 
L 444 -77.76 
L 451.44 -74.797714 
L 458.88 -79.734857 
L 466.32 -79.734857 
L 473.76 -83.684571 
L 481.2 -76.772571 
L 488.64 -72.822857 
L 496.08 -81.709714 
L 503.52 -78.747429 
L 503.52 -78.747429 
L 503.52 -78.747429 
L 496.08 -81.709714 
L 488.64 -72.822857 
L 481.2 -76.772571 
L 473.76 -83.684571 
L 466.32 -79.734857 
L 458.88 -79.734857 
L 451.44 -97.508571 
L 444 -96.521143 
L 436.56 -119.232 
L 429.12 -97.508571 
L 421.68 -96.521143 
L 414.24 -104.420571 
L 406.8 -137.993143 
L 399.36 -93.558857 
L 391.92 -84.672 
L 384.48 -73.810286 
L 377.04 -130.093714 
L 369.6 -119.232 
L 362.16 -127.131429 
L 354.72 -140.955429 
L 347.28 -129.106286 
L 339.84 -143.917714 
L 332.4 -135.030857 
L 324.96 -103.433143 
L 317.52 -162.678857 
L 310.08 -127.131429 
L 302.64 -171.565714 
L 295.2 -128.118857 
L 287.76 -152.804571 
L 280.32 -139.968 
L 272.88 -191.314286 
L 265.44 -77.76 
L 258 -216 
L 250.56 -111.332571 
L 243.12 -119.232 
L 235.68 -200.201143 
L 228.24 -206.125714 
L 220.8 -148.854857 
L 213.36 -262.409143 
L 205.92 -133.056 
L 198.48 -259.446857 
L 191.04 -194.276571 
L 183.6 -202.176 
L 176.16 -187.364571 
L 168.72 -251.547429 
L 161.28 -148.854857 
L 153.84 -239.698286 
L 146.4 -168.603429 
L 138.96 -142.930286 
L 131.52 -128.118857 
L 124.08 -333.504 
L 116.64 -340.416 
L 109.2 -340.416 
L 101.76 -340.416 
L 94.32 -339.428571 
L 86.88 -339.428571 
L 79.44 -339.428571 
L 72 -339.428571 
z
" id="m6b9187f626" style="stroke:#000000;"/>
    </defs>
    <g clip-path="url(#p3426b1078d)">
     <use style="fill:#008000;stroke:#000000;" x="0.0" xlink:href="#m6b9187f626" y="432.0"/>
    </g>
   </g>
   <g id="PolyCollection_3">
    <defs>
     <path d="M 72 -339.428571 
L 72 -339.428571 
L 79.44 -339.428571 
L 86.88 -339.428571 
L 94.32 -339.428571 
L 101.76 -340.416 
L 109.2 -340.416 
L 116.64 -340.416 
L 124.08 -333.504 
L 131.52 -128.118857 
L 138.96 -142.930286 
L 146.4 -168.603429 
L 153.84 -239.698286 
L 161.28 -148.854857 
L 168.72 -251.547429 
L 176.16 -187.364571 
L 183.6 -202.176 
L 191.04 -194.276571 
L 198.48 -259.446857 
L 205.92 -133.056 
L 213.36 -262.409143 
L 220.8 -148.854857 
L 228.24 -206.125714 
L 235.68 -200.201143 
L 243.12 -119.232 
L 250.56 -111.332571 
L 258 -216 
L 265.44 -77.76 
L 272.88 -191.314286 
L 280.32 -139.968 
L 287.76 -152.804571 
L 295.2 -128.118857 
L 302.64 -171.565714 
L 310.08 -127.131429 
L 317.52 -162.678857 
L 324.96 -103.433143 
L 332.4 -135.030857 
L 339.84 -143.917714 
L 347.28 -129.106286 
L 354.72 -140.955429 
L 362.16 -127.131429 
L 369.6 -119.232 
L 377.04 -130.093714 
L 384.48 -73.810286 
L 391.92 -84.672 
L 399.36 -93.558857 
L 406.8 -137.993143 
L 414.24 -104.420571 
L 421.68 -96.521143 
L 429.12 -97.508571 
L 436.56 -119.232 
L 444 -96.521143 
L 451.44 -97.508571 
L 458.88 -79.734857 
L 466.32 -79.734857 
L 473.76 -83.684571 
L 481.2 -76.772571 
L 488.64 -72.822857 
L 496.08 -81.709714 
L 503.52 -78.747429 
L 503.52 -119.232 
L 503.52 -119.232 
L 496.08 -112.32 
L 488.64 -101.458286 
L 481.2 -105.408 
L 473.76 -121.206857 
L 466.32 -116.269714 
L 458.88 -114.294857 
L 451.44 -134.043429 
L 444 -145.892571 
L 436.56 -137.005714 
L 429.12 -143.917714 
L 421.68 -119.232 
L 414.24 -146.88 
L 406.8 -151.817143 
L 399.36 -124.169143 
L 391.92 -209.088 
L 384.48 -76.772571 
L 377.04 -185.389714 
L 369.6 -160.704 
L 362.16 -205.138286 
L 354.72 -156.754286 
L 347.28 -202.176 
L 339.84 -173.540571 
L 332.4 -198.226286 
L 324.96 -132.068571 
L 317.52 -216 
L 310.08 -160.704 
L 302.64 -236.736 
L 295.2 -161.691429 
L 287.76 -242.660571 
L 280.32 -174.528 
L 272.88 -234.761143 
L 265.44 -148.854857 
L 258 -249.572571 
L 250.56 -145.892571 
L 243.12 -176.502857 
L 235.68 -267.346286 
L 228.24 -285.12 
L 220.8 -196.251429 
L 213.36 -324.617143 
L 205.92 -212.050286 
L 198.48 -307.830857 
L 191.04 -289.069714 
L 183.6 -284.132571 
L 176.16 -240.685714 
L 168.72 -315.730286 
L 161.28 -196.251429 
L 153.84 -306.843429 
L 146.4 -244.635429 
L 138.96 -188.352 
L 131.52 -331.529143 
L 124.08 -340.416 
L 116.64 -340.416 
L 109.2 -340.416 
L 101.76 -340.416 
L 94.32 -339.428571 
L 86.88 -339.428571 
L 79.44 -339.428571 
L 72 -339.428571 
z
" id="m9c274bc569" style="stroke:#000000;"/>
    </defs>
    <g clip-path="url(#p3426b1078d)">
     <use style="fill:#ff0000;stroke:#000000;" x="0.0" xlink:href="#m9c274bc569" y="432.0"/>
    </g>
   </g>
   <g id="PolyCollection_4">
    <defs>
     <path d="M 72 -339.428571 
L 72 -339.428571 
L 79.44 -339.428571 
L 86.88 -339.428571 
L 94.32 -339.428571 
L 101.76 -340.416 
L 109.2 -340.416 
L 116.64 -340.416 
L 124.08 -340.416 
L 131.52 -331.529143 
L 138.96 -188.352 
L 146.4 -244.635429 
L 153.84 -306.843429 
L 161.28 -196.251429 
L 168.72 -315.730286 
L 176.16 -240.685714 
L 183.6 -284.132571 
L 191.04 -289.069714 
L 198.48 -307.830857 
L 205.92 -212.050286 
L 213.36 -324.617143 
L 220.8 -196.251429 
L 228.24 -285.12 
L 235.68 -267.346286 
L 243.12 -176.502857 
L 250.56 -145.892571 
L 258 -249.572571 
L 265.44 -148.854857 
L 272.88 -234.761143 
L 280.32 -174.528 
L 287.76 -242.660571 
L 295.2 -161.691429 
L 302.64 -236.736 
L 310.08 -160.704 
L 317.52 -216 
L 324.96 -132.068571 
L 332.4 -198.226286 
L 339.84 -173.540571 
L 347.28 -202.176 
L 354.72 -156.754286 
L 362.16 -205.138286 
L 369.6 -160.704 
L 377.04 -185.389714 
L 384.48 -76.772571 
L 391.92 -209.088 
L 399.36 -124.169143 
L 406.8 -151.817143 
L 414.24 -146.88 
L 421.68 -119.232 
L 429.12 -143.917714 
L 436.56 -137.005714 
L 444 -145.892571 
L 451.44 -134.043429 
L 458.88 -114.294857 
L 466.32 -116.269714 
L 473.76 -121.206857 
L 481.2 -105.408 
L 488.64 -101.458286 
L 496.08 -112.32 
L 503.52 -119.232 
L 503.52 -134.043429 
L 503.52 -134.043429 
L 496.08 -152.804571 
L 488.64 -118.244571 
L 481.2 -199.213714 
L 473.76 -139.968 
L 466.32 -153.792 
L 458.88 -148.854857 
L 451.44 -171.565714 
L 444 -183.414857 
L 436.56 -166.628571 
L 429.12 -185.389714 
L 421.68 -136.018286 
L 414.24 -191.314286 
L 406.8 -183.414857 
L 399.36 -157.741714 
L 391.92 -230.811429 
L 384.48 -100.470857 
L 377.04 -223.899429 
L 369.6 -212.050286 
L 362.16 -235.748571 
L 354.72 -203.163429 
L 347.28 -241.673143 
L 339.84 -222.912 
L 332.4 -244.635429 
L 324.96 -157.741714 
L 317.52 -248.585143 
L 310.08 -216 
L 302.64 -261.421714 
L 295.2 -226.861714 
L 287.76 -253.522286 
L 280.32 -235.748571 
L 272.88 -282.157714 
L 265.44 -206.125714 
L 258 -283.145143 
L 250.56 -185.389714 
L 243.12 -333.504 
L 235.68 -340.416 
L 228.24 -341.403429 
L 220.8 -342.390857 
L 213.36 -342.390857 
L 205.92 -341.403429 
L 198.48 -342.390857 
L 191.04 -341.403429 
L 183.6 -341.403429 
L 176.16 -342.390857 
L 168.72 -342.390857 
L 161.28 -342.390857 
L 153.84 -342.390857 
L 146.4 -341.403429 
L 138.96 -342.390857 
L 131.52 -341.403429 
L 124.08 -340.416 
L 116.64 -340.416 
L 109.2 -340.416 
L 101.76 -340.416 
L 94.32 -339.428571 
L 86.88 -339.428571 
L 79.44 -339.428571 
L 72 -339.428571 
z
" id="m6efb869e89" style="stroke:#000000;"/>
    </defs>
    <g clip-path="url(#p3426b1078d)">
     <use style="fill:#00bfbf;stroke:#000000;" x="0.0" xlink:href="#m6efb869e89" y="432.0"/>
    </g>
   </g>
   <g id="PolyCollection_5">
    <defs>
     <path d="M 72 -339.428571 
L 72 -339.428571 
L 79.44 -339.428571 
L 86.88 -339.428571 
L 94.32 -339.428571 
L 101.76 -340.416 
L 109.2 -340.416 
L 116.64 -340.416 
L 124.08 -340.416 
L 131.52 -341.403429 
L 138.96 -342.390857 
L 146.4 -341.403429 
L 153.84 -342.390857 
L 161.28 -342.390857 
L 168.72 -342.390857 
L 176.16 -342.390857 
L 183.6 -341.403429 
L 191.04 -341.403429 
L 198.48 -342.390857 
L 205.92 -341.403429 
L 213.36 -342.390857 
L 220.8 -342.390857 
L 228.24 -341.403429 
L 235.68 -340.416 
L 243.12 -333.504 
L 250.56 -185.389714 
L 258 -283.145143 
L 265.44 -206.125714 
L 272.88 -282.157714 
L 280.32 -235.748571 
L 287.76 -253.522286 
L 295.2 -226.861714 
L 302.64 -261.421714 
L 310.08 -216 
L 317.52 -248.585143 
L 324.96 -157.741714 
L 332.4 -244.635429 
L 339.84 -222.912 
L 347.28 -241.673143 
L 354.72 -203.163429 
L 362.16 -235.748571 
L 369.6 -212.050286 
L 377.04 -223.899429 
L 384.48 -100.470857 
L 391.92 -230.811429 
L 399.36 -157.741714 
L 406.8 -183.414857 
L 414.24 -191.314286 
L 421.68 -136.018286 
L 429.12 -185.389714 
L 436.56 -166.628571 
L 444 -183.414857 
L 451.44 -171.565714 
L 458.88 -148.854857 
L 466.32 -153.792 
L 473.76 -139.968 
L 481.2 -199.213714 
L 488.64 -118.244571 
L 496.08 -152.804571 
L 503.52 -134.043429 
L 503.52 -187.364571 
L 503.52 -187.364571 
L 496.08 -204.150857 
L 488.64 -218.962286 
L 481.2 -209.088 
L 473.76 -178.477714 
L 466.32 -194.276571 
L 458.88 -184.402286 
L 451.44 -205.138286 
L 444 -214.025143 
L 436.56 -197.238857 
L 429.12 -216.987429 
L 421.68 -163.666286 
L 414.24 -238.710857 
L 406.8 -206.125714 
L 399.36 -209.088 
L 391.92 -250.56 
L 384.48 -164.653714 
L 377.04 -232.786286 
L 369.6 -265.371429 
L 362.16 -262.409143 
L 354.72 -270.308571 
L 347.28 -263.396571 
L 339.84 -269.321143 
L 332.4 -270.308571 
L 324.96 -239.698286 
L 317.52 -271.296 
L 310.08 -305.856 
L 302.64 -292.032 
L 295.2 -304.868571 
L 287.76 -299.931429 
L 280.32 -281.170286 
L 272.88 -314.742857 
L 265.44 -256.484571 
L 258 -323.629714 
L 250.56 -342.390857 
L 243.12 -341.403429 
L 235.68 -340.416 
L 228.24 -341.403429 
L 220.8 -342.390857 
L 213.36 -342.390857 
L 205.92 -341.403429 
L 198.48 -342.390857 
L 191.04 -341.403429 
L 183.6 -341.403429 
L 176.16 -342.390857 
L 168.72 -342.390857 
L 161.28 -342.390857 
L 153.84 -342.390857 
L 146.4 -341.403429 
L 138.96 -342.390857 
L 131.52 -341.403429 
L 124.08 -340.416 
L 116.64 -340.416 
L 109.2 -340.416 
L 101.76 -340.416 
L 94.32 -339.428571 
L 86.88 -339.428571 
L 79.44 -339.428571 
L 72 -339.428571 
z
" id="m930fd33ab0" style="stroke:#000000;"/>
    </defs>
    <g clip-path="url(#p3426b1078d)">
     <use style="fill:#bf00bf;stroke:#000000;" x="0.0" xlink:href="#m930fd33ab0" y="432.0"/>
    </g>
   </g>
   <g id="PolyCollection_6">
    <defs>
     <path d="M 72 -339.428571 
L 72 -339.428571 
L 79.44 -339.428571 
L 86.88 -339.428571 
L 94.32 -339.428571 
L 101.76 -340.416 
L 109.2 -340.416 
L 116.64 -340.416 
L 124.08 -340.416 
L 131.52 -341.403429 
L 138.96 -342.390857 
L 146.4 -341.403429 
L 153.84 -342.390857 
L 161.28 -342.390857 
L 168.72 -342.390857 
L 176.16 -342.390857 
L 183.6 -341.403429 
L 191.04 -341.403429 
L 198.48 -342.390857 
L 205.92 -341.403429 
L 213.36 -342.390857 
L 220.8 -342.390857 
L 228.24 -341.403429 
L 235.68 -340.416 
L 243.12 -341.403429 
L 250.56 -342.390857 
L 258 -323.629714 
L 265.44 -256.484571 
L 272.88 -314.742857 
L 280.32 -281.170286 
L 287.76 -299.931429 
L 295.2 -304.868571 
L 302.64 -292.032 
L 310.08 -305.856 
L 317.52 -271.296 
L 324.96 -239.698286 
L 332.4 -270.308571 
L 339.84 -269.321143 
L 347.28 -263.396571 
L 354.72 -270.308571 
L 362.16 -262.409143 
L 369.6 -265.371429 
L 377.04 -232.786286 
L 384.48 -164.653714 
L 391.92 -250.56 
L 399.36 -209.088 
L 406.8 -206.125714 
L 414.24 -238.710857 
L 421.68 -163.666286 
L 429.12 -216.987429 
L 436.56 -197.238857 
L 444 -214.025143 
L 451.44 -205.138286 
L 458.88 -184.402286 
L 466.32 -194.276571 
L 473.76 -178.477714 
L 481.2 -209.088 
L 488.64 -218.962286 
L 496.08 -204.150857 
L 503.52 -187.364571 
L 503.52 -225.874286 
L 503.52 -225.874286 
L 496.08 -237.723429 
L 488.64 -251.547429 
L 481.2 -244.635429 
L 473.76 -217.974857 
L 466.32 -228.836571 
L 458.88 -225.874286 
L 451.44 -236.736 
L 444 -245.622857 
L 436.56 -231.798857 
L 429.12 -247.597714 
L 421.68 -190.326857 
L 414.24 -267.346286 
L 406.8 -243.648 
L 399.36 -238.710857 
L 391.92 -278.208 
L 384.48 -184.402286 
L 377.04 -269.321143 
L 369.6 -302.893714 
L 362.16 -303.881143 
L 354.72 -306.843429 
L 347.28 -307.830857 
L 339.84 -305.856 
L 332.4 -313.755429 
L 324.96 -272.283429 
L 317.52 -324.617143 
L 310.08 -343.378286 
L 302.64 -343.378286 
L 295.2 -343.378286 
L 287.76 -342.390857 
L 280.32 -343.378286 
L 272.88 -344.365714 
L 265.44 -342.390857 
L 258 -342.390857 
L 250.56 -342.390857 
L 243.12 -341.403429 
L 235.68 -340.416 
L 228.24 -341.403429 
L 220.8 -342.390857 
L 213.36 -342.390857 
L 205.92 -341.403429 
L 198.48 -342.390857 
L 191.04 -341.403429 
L 183.6 -341.403429 
L 176.16 -342.390857 
L 168.72 -342.390857 
L 161.28 -342.390857 
L 153.84 -342.390857 
L 146.4 -341.403429 
L 138.96 -342.390857 
L 131.52 -341.403429 
L 124.08 -340.416 
L 116.64 -340.416 
L 109.2 -340.416 
L 101.76 -340.416 
L 94.32 -339.428571 
L 86.88 -339.428571 
L 79.44 -339.428571 
L 72 -339.428571 
z
" id="m893daa9c89" style="stroke:#000000;"/>
    </defs>
    <g clip-path="url(#p3426b1078d)">
     <use style="fill:#bfbf00;stroke:#000000;" x="0.0" xlink:href="#m893daa9c89" y="432.0"/>
    </g>
   </g>
   <g id="PolyCollection_7">
    <defs>
     <path d="M 72 -339.428571 
L 72 -339.428571 
L 79.44 -339.428571 
L 86.88 -339.428571 
L 94.32 -339.428571 
L 101.76 -340.416 
L 109.2 -340.416 
L 116.64 -340.416 
L 124.08 -340.416 
L 131.52 -341.403429 
L 138.96 -342.390857 
L 146.4 -341.403429 
L 153.84 -342.390857 
L 161.28 -342.390857 
L 168.72 -342.390857 
L 176.16 -342.390857 
L 183.6 -341.403429 
L 191.04 -341.403429 
L 198.48 -342.390857 
L 205.92 -341.403429 
L 213.36 -342.390857 
L 220.8 -342.390857 
L 228.24 -341.403429 
L 235.68 -340.416 
L 243.12 -341.403429 
L 250.56 -342.390857 
L 258 -342.390857 
L 265.44 -342.390857 
L 272.88 -344.365714 
L 280.32 -343.378286 
L 287.76 -342.390857 
L 295.2 -343.378286 
L 302.64 -343.378286 
L 310.08 -343.378286 
L 317.52 -324.617143 
L 324.96 -272.283429 
L 332.4 -313.755429 
L 339.84 -305.856 
L 347.28 -307.830857 
L 354.72 -306.843429 
L 362.16 -303.881143 
L 369.6 -302.893714 
L 377.04 -269.321143 
L 384.48 -184.402286 
L 391.92 -278.208 
L 399.36 -238.710857 
L 406.8 -243.648 
L 414.24 -267.346286 
L 421.68 -190.326857 
L 429.12 -247.597714 
L 436.56 -231.798857 
L 444 -245.622857 
L 451.44 -236.736 
L 458.88 -225.874286 
L 466.32 -228.836571 
L 473.76 -217.974857 
L 481.2 -244.635429 
L 488.64 -251.547429 
L 496.08 -237.723429 
L 503.52 -225.874286 
L 503.52 -257.472 
L 503.52 -257.472 
L 496.08 -283.145143 
L 488.64 -275.245714 
L 481.2 -284.132571 
L 473.76 -258.459429 
L 466.32 -263.396571 
L 458.88 -268.333714 
L 451.44 -262.409143 
L 444 -275.245714 
L 436.56 -273.270857 
L 429.12 -281.170286 
L 421.68 -213.037714 
L 414.24 -304.868571 
L 406.8 -277.220571 
L 399.36 -294.994286 
L 391.92 -290.057143 
L 384.48 -219.949714 
L 377.04 -311.780571 
L 369.6 -345.353143 
L 362.16 -343.378286 
L 354.72 -344.365714 
L 347.28 -345.353143 
L 339.84 -342.390857 
L 332.4 -343.378286 
L 324.96 -343.378286 
L 317.52 -345.353143 
L 310.08 -343.378286 
L 302.64 -343.378286 
L 295.2 -343.378286 
L 287.76 -342.390857 
L 280.32 -343.378286 
L 272.88 -344.365714 
L 265.44 -342.390857 
L 258 -342.390857 
L 250.56 -342.390857 
L 243.12 -341.403429 
L 235.68 -340.416 
L 228.24 -341.403429 
L 220.8 -342.390857 
L 213.36 -342.390857 
L 205.92 -341.403429 
L 198.48 -342.390857 
L 191.04 -341.403429 
L 183.6 -341.403429 
L 176.16 -342.390857 
L 168.72 -342.390857 
L 161.28 -342.390857 
L 153.84 -342.390857 
L 146.4 -341.403429 
L 138.96 -342.390857 
L 131.52 -341.403429 
L 124.08 -340.416 
L 116.64 -340.416 
L 109.2 -340.416 
L 101.76 -340.416 
L 94.32 -339.428571 
L 86.88 -339.428571 
L 79.44 -339.428571 
L 72 -339.428571 
z
" id="m701baa57bd" style="stroke:#000000;"/>
    </defs>
    <g clip-path="url(#p3426b1078d)">
     <use style="stroke:#000000;" x="0.0" xlink:href="#m701baa57bd" y="432.0"/>
    </g>
   </g>
   <g id="PolyCollection_8">
    <defs>
     <path d="M 72 -339.428571 
L 72 -339.428571 
L 79.44 -339.428571 
L 86.88 -339.428571 
L 94.32 -339.428571 
L 101.76 -340.416 
L 109.2 -340.416 
L 116.64 -340.416 
L 124.08 -340.416 
L 131.52 -341.403429 
L 138.96 -342.390857 
L 146.4 -341.403429 
L 153.84 -342.390857 
L 161.28 -342.390857 
L 168.72 -342.390857 
L 176.16 -342.390857 
L 183.6 -341.403429 
L 191.04 -341.403429 
L 198.48 -342.390857 
L 205.92 -341.403429 
L 213.36 -342.390857 
L 220.8 -342.390857 
L 228.24 -341.403429 
L 235.68 -340.416 
L 243.12 -341.403429 
L 250.56 -342.390857 
L 258 -342.390857 
L 265.44 -342.390857 
L 272.88 -344.365714 
L 280.32 -343.378286 
L 287.76 -342.390857 
L 295.2 -343.378286 
L 302.64 -343.378286 
L 310.08 -343.378286 
L 317.52 -345.353143 
L 324.96 -343.378286 
L 332.4 -343.378286 
L 339.84 -342.390857 
L 347.28 -345.353143 
L 354.72 -344.365714 
L 362.16 -343.378286 
L 369.6 -345.353143 
L 377.04 -311.780571 
L 384.48 -219.949714 
L 391.92 -290.057143 
L 399.36 -294.994286 
L 406.8 -277.220571 
L 414.24 -304.868571 
L 421.68 -213.037714 
L 429.12 -281.170286 
L 436.56 -273.270857 
L 444 -275.245714 
L 451.44 -262.409143 
L 458.88 -268.333714 
L 466.32 -263.396571 
L 473.76 -258.459429 
L 481.2 -284.132571 
L 488.64 -275.245714 
L 496.08 -283.145143 
L 503.52 -257.472 
L 503.52 -291.044571 
L 503.52 -291.044571 
L 496.08 -322.642286 
L 488.64 -302.893714 
L 481.2 -323.629714 
L 473.76 -291.044571 
L 466.32 -307.830857 
L 458.88 -299.931429 
L 451.44 -315.730286 
L 444 -315.730286 
L 436.56 -308.818286 
L 429.12 -316.717714 
L 421.68 -231.798857 
L 414.24 -340.416 
L 406.8 -307.830857 
L 399.36 -313.755429 
L 391.92 -322.642286 
L 384.48 -270.308571 
L 377.04 -329.554286 
L 369.6 -345.353143 
L 362.16 -343.378286 
L 354.72 -344.365714 
L 347.28 -345.353143 
L 339.84 -342.390857 
L 332.4 -343.378286 
L 324.96 -343.378286 
L 317.52 -345.353143 
L 310.08 -343.378286 
L 302.64 -343.378286 
L 295.2 -343.378286 
L 287.76 -342.390857 
L 280.32 -343.378286 
L 272.88 -344.365714 
L 265.44 -342.390857 
L 258 -342.390857 
L 250.56 -342.390857 
L 243.12 -341.403429 
L 235.68 -340.416 
L 228.24 -341.403429 
L 220.8 -342.390857 
L 213.36 -342.390857 
L 205.92 -341.403429 
L 198.48 -342.390857 
L 191.04 -341.403429 
L 183.6 -341.403429 
L 176.16 -342.390857 
L 168.72 -342.390857 
L 161.28 -342.390857 
L 153.84 -342.390857 
L 146.4 -341.403429 
L 138.96 -342.390857 
L 131.52 -341.403429 
L 124.08 -340.416 
L 116.64 -340.416 
L 109.2 -340.416 
L 101.76 -340.416 
L 94.32 -339.428571 
L 86.88 -339.428571 
L 79.44 -339.428571 
L 72 -339.428571 
z
" id="m7bb34d4a0a" style="stroke:#000000;"/>
    </defs>
    <g clip-path="url(#p3426b1078d)">
     <use style="fill:#0000ff;stroke:#000000;" x="0.0" xlink:href="#m7bb34d4a0a" y="432.0"/>
    </g>
   </g>
   <g id="PolyCollection_9">
    <defs>
     <path d="M 72 -339.428571 
L 72 -339.428571 
L 79.44 -339.428571 
L 86.88 -339.428571 
L 94.32 -339.428571 
L 101.76 -340.416 
L 109.2 -340.416 
L 116.64 -340.416 
L 124.08 -340.416 
L 131.52 -341.403429 
L 138.96 -342.390857 
L 146.4 -341.403429 
L 153.84 -342.390857 
L 161.28 -342.390857 
L 168.72 -342.390857 
L 176.16 -342.390857 
L 183.6 -341.403429 
L 191.04 -341.403429 
L 198.48 -342.390857 
L 205.92 -341.403429 
L 213.36 -342.390857 
L 220.8 -342.390857 
L 228.24 -341.403429 
L 235.68 -340.416 
L 243.12 -341.403429 
L 250.56 -342.390857 
L 258 -342.390857 
L 265.44 -342.390857 
L 272.88 -344.365714 
L 280.32 -343.378286 
L 287.76 -342.390857 
L 295.2 -343.378286 
L 302.64 -343.378286 
L 310.08 -343.378286 
L 317.52 -345.353143 
L 324.96 -343.378286 
L 332.4 -343.378286 
L 339.84 -342.390857 
L 347.28 -345.353143 
L 354.72 -344.365714 
L 362.16 -343.378286 
L 369.6 -345.353143 
L 377.04 -329.554286 
L 384.48 -270.308571 
L 391.92 -322.642286 
L 399.36 -313.755429 
L 406.8 -307.830857 
L 414.24 -340.416 
L 421.68 -231.798857 
L 429.12 -316.717714 
L 436.56 -308.818286 
L 444 -315.730286 
L 451.44 -315.730286 
L 458.88 -299.931429 
L 466.32 -307.830857 
L 473.76 -291.044571 
L 481.2 -323.629714 
L 488.64 -302.893714 
L 496.08 -322.642286 
L 503.52 -291.044571 
L 503.52 -344.365714 
L 503.52 -344.365714 
L 496.08 -345.353143 
L 488.64 -345.353143 
L 481.2 -345.353143 
L 473.76 -344.365714 
L 466.32 -342.390857 
L 458.88 -340.416 
L 451.44 -343.378286 
L 444 -346.340571 
L 436.56 -344.365714 
L 429.12 -345.353143 
L 421.68 -346.340571 
L 414.24 -345.353143 
L 406.8 -345.353143 
L 399.36 -346.340571 
L 391.92 -345.353143 
L 384.48 -345.353143 
L 377.04 -344.365714 
L 369.6 -345.353143 
L 362.16 -343.378286 
L 354.72 -344.365714 
L 347.28 -345.353143 
L 339.84 -342.390857 
L 332.4 -343.378286 
L 324.96 -343.378286 
L 317.52 -345.353143 
L 310.08 -343.378286 
L 302.64 -343.378286 
L 295.2 -343.378286 
L 287.76 -342.390857 
L 280.32 -343.378286 
L 272.88 -344.365714 
L 265.44 -342.390857 
L 258 -342.390857 
L 250.56 -342.390857 
L 243.12 -341.403429 
L 235.68 -340.416 
L 228.24 -341.403429 
L 220.8 -342.390857 
L 213.36 -342.390857 
L 205.92 -341.403429 
L 198.48 -342.390857 
L 191.04 -341.403429 
L 183.6 -341.403429 
L 176.16 -342.390857 
L 168.72 -342.390857 
L 161.28 -342.390857 
L 153.84 -342.390857 
L 146.4 -341.403429 
L 138.96 -342.390857 
L 131.52 -341.403429 
L 124.08 -340.416 
L 116.64 -340.416 
L 109.2 -340.416 
L 101.76 -340.416 
L 94.32 -339.428571 
L 86.88 -339.428571 
L 79.44 -339.428571 
L 72 -339.428571 
z
" id="m435886ba65" style="stroke:#000000;"/>
    </defs>
    <g clip-path="url(#p3426b1078d)">
     <use style="fill:#008000;stroke:#000000;" x="0.0" xlink:href="#m435886ba65" y="432.0"/>
    </g>
   </g>
   <g id="patch_3">
    <path d="M 72 43.2 
L 518.4 43.2 
" style="fill:none;stroke:#000000;stroke-linecap:square;stroke-linejoin:miter;"/>
   </g>
   <g id="patch_4">
    <path d="M 72 388.8 
L 518.4 388.8 
" style="fill:none;stroke:#000000;stroke-linecap:square;stroke-linejoin:miter;"/>
   </g>
   <g id="patch_5">
    <path d="M 72 388.8 
L 72 43.2 
" style="fill:none;stroke:#000000;stroke-linecap:square;stroke-linejoin:miter;"/>
   </g>
   <g id="patch_6">
    <path d="M 518.4 388.8 
L 518.4 43.2 
" style="fill:none;stroke:#000000;stroke-linecap:square;stroke-linejoin:miter;"/>
   </g>
   <g id="matplotlib.axis_1">
    <g id="xtick_1">
     <g id="line2d_1">
      <defs>
       <path d="M 0 0 
L 0 -4 
" id="md14e6d99e1" style="stroke:#000000;stroke-width:0.5;"/>
      </defs>
      <g>
       <use style="stroke:#000000;stroke-width:0.5;" x="72.0" xlink:href="#md14e6d99e1" y="388.8"/>
      </g>
     </g>
     <g id="line2d_2">
      <defs>
       <path d="M 0 0 
L 0 4 
" id="mfda11fa352" style="stroke:#000000;stroke-width:0.5;"/>
      </defs>
      <g>
       <use style="stroke:#000000;stroke-width:0.5;" x="72.0" xlink:href="#mfda11fa352" y="43.2"/>
      </g>
     </g>
     <g id="text_1">
      <!-- 0 -->
      <defs>
       <path d="M 31.78125 66.40625 
Q 24.171875 66.40625 20.328125 58.90625 
Q 16.5 51.421875 16.5 36.375 
Q 16.5 21.390625 20.328125 13.890625 
Q 24.171875 6.390625 31.78125 6.390625 
Q 39.453125 6.390625 43.28125 13.890625 
Q 47.125 21.390625 47.125 36.375 
Q 47.125 51.421875 43.28125 58.90625 
Q 39.453125 66.40625 31.78125 66.40625 
M 31.78125 74.21875 
Q 44.046875 74.21875 50.515625 64.515625 
Q 56.984375 54.828125 56.984375 36.375 
Q 56.984375 17.96875 50.515625 8.265625 
Q 44.046875 -1.421875 31.78125 -1.421875 
Q 19.53125 -1.421875 13.0625 8.265625 
Q 6.59375 17.96875 6.59375 36.375 
Q 6.59375 54.828125 13.0625 64.515625 
Q 19.53125 74.21875 31.78125 74.21875 
" id="BitstreamVeraSans-Roman-30"/>
      </defs>
      <g transform="translate(68.1825 401.918125)scale(0.12 -0.12)">
       <use xlink:href="#BitstreamVeraSans-Roman-30"/>
      </g>
     </g>
    </g>
    <g id="xtick_2">
     <g id="line2d_3">
      <g>
       <use style="stroke:#000000;stroke-width:0.5;" x="146.4" xlink:href="#md14e6d99e1" y="388.8"/>
      </g>
     </g>
     <g id="line2d_4">
      <g>
       <use style="stroke:#000000;stroke-width:0.5;" x="146.4" xlink:href="#mfda11fa352" y="43.2"/>
      </g>
     </g>
     <g id="text_2">
      <!-- 10 -->
      <defs>
       <path d="M 12.40625 8.296875 
L 28.515625 8.296875 
L 28.515625 63.921875 
L 10.984375 60.40625 
L 10.984375 69.390625 
L 28.421875 72.90625 
L 38.28125 72.90625 
L 38.28125 8.296875 
L 54.390625 8.296875 
L 54.390625 0 
L 12.40625 0 
z
" id="BitstreamVeraSans-Roman-31"/>
      </defs>
      <g transform="translate(138.765 401.918125)scale(0.12 -0.12)">
       <use xlink:href="#BitstreamVeraSans-Roman-31"/>
       <use x="63.623046875" xlink:href="#BitstreamVeraSans-Roman-30"/>
      </g>
     </g>
    </g>
    <g id="xtick_3">
     <g id="line2d_5">
      <g>
       <use style="stroke:#000000;stroke-width:0.5;" x="220.8" xlink:href="#md14e6d99e1" y="388.8"/>
      </g>
     </g>
     <g id="line2d_6">
      <g>
       <use style="stroke:#000000;stroke-width:0.5;" x="220.8" xlink:href="#mfda11fa352" y="43.2"/>
      </g>
     </g>
     <g id="text_3">
      <!-- 20 -->
      <defs>
       <path d="M 19.1875 8.296875 
L 53.609375 8.296875 
L 53.609375 0 
L 7.328125 0 
L 7.328125 8.296875 
Q 12.9375 14.109375 22.625 23.890625 
Q 32.328125 33.6875 34.8125 36.53125 
Q 39.546875 41.84375 41.421875 45.53125 
Q 43.3125 49.21875 43.3125 52.78125 
Q 43.3125 58.59375 39.234375 62.25 
Q 35.15625 65.921875 28.609375 65.921875 
Q 23.96875 65.921875 18.8125 64.3125 
Q 13.671875 62.703125 7.8125 59.421875 
L 7.8125 69.390625 
Q 13.765625 71.78125 18.9375 73 
Q 24.125 74.21875 28.421875 74.21875 
Q 39.75 74.21875 46.484375 68.546875 
Q 53.21875 62.890625 53.21875 53.421875 
Q 53.21875 48.921875 51.53125 44.890625 
Q 49.859375 40.875 45.40625 35.40625 
Q 44.1875 33.984375 37.640625 27.21875 
Q 31.109375 20.453125 19.1875 8.296875 
" id="BitstreamVeraSans-Roman-32"/>
      </defs>
      <g transform="translate(213.165 401.918125)scale(0.12 -0.12)">
       <use xlink:href="#BitstreamVeraSans-Roman-32"/>
       <use x="63.623046875" xlink:href="#BitstreamVeraSans-Roman-30"/>
      </g>
     </g>
    </g>
    <g id="xtick_4">
     <g id="line2d_7">
      <g>
       <use style="stroke:#000000;stroke-width:0.5;" x="295.2" xlink:href="#md14e6d99e1" y="388.8"/>
      </g>
     </g>
     <g id="line2d_8">
      <g>
       <use style="stroke:#000000;stroke-width:0.5;" x="295.2" xlink:href="#mfda11fa352" y="43.2"/>
      </g>
     </g>
     <g id="text_4">
      <!-- 30 -->
      <defs>
       <path d="M 40.578125 39.3125 
Q 47.65625 37.796875 51.625 33 
Q 55.609375 28.21875 55.609375 21.1875 
Q 55.609375 10.40625 48.1875 4.484375 
Q 40.765625 -1.421875 27.09375 -1.421875 
Q 22.515625 -1.421875 17.65625 -0.515625 
Q 12.796875 0.390625 7.625 2.203125 
L 7.625 11.71875 
Q 11.71875 9.328125 16.59375 8.109375 
Q 21.484375 6.890625 26.8125 6.890625 
Q 36.078125 6.890625 40.9375 10.546875 
Q 45.796875 14.203125 45.796875 21.1875 
Q 45.796875 27.640625 41.28125 31.265625 
Q 36.765625 34.90625 28.71875 34.90625 
L 20.21875 34.90625 
L 20.21875 43.015625 
L 29.109375 43.015625 
Q 36.375 43.015625 40.234375 45.921875 
Q 44.09375 48.828125 44.09375 54.296875 
Q 44.09375 59.90625 40.109375 62.90625 
Q 36.140625 65.921875 28.71875 65.921875 
Q 24.65625 65.921875 20.015625 65.03125 
Q 15.375 64.15625 9.8125 62.3125 
L 9.8125 71.09375 
Q 15.4375 72.65625 20.34375 73.4375 
Q 25.25 74.21875 29.59375 74.21875 
Q 40.828125 74.21875 47.359375 69.109375 
Q 53.90625 64.015625 53.90625 55.328125 
Q 53.90625 49.265625 50.4375 45.09375 
Q 46.96875 40.921875 40.578125 39.3125 
" id="BitstreamVeraSans-Roman-33"/>
      </defs>
      <g transform="translate(287.565 401.918125)scale(0.12 -0.12)">
       <use xlink:href="#BitstreamVeraSans-Roman-33"/>
       <use x="63.623046875" xlink:href="#BitstreamVeraSans-Roman-30"/>
      </g>
     </g>
    </g>
    <g id="xtick_5">
     <g id="line2d_9">
      <g>
       <use style="stroke:#000000;stroke-width:0.5;" x="369.6" xlink:href="#md14e6d99e1" y="388.8"/>
      </g>
     </g>
     <g id="line2d_10">
      <g>
       <use style="stroke:#000000;stroke-width:0.5;" x="369.6" xlink:href="#mfda11fa352" y="43.2"/>
      </g>
     </g>
     <g id="text_5">
      <!-- 40 -->
      <defs>
       <path d="M 37.796875 64.3125 
L 12.890625 25.390625 
L 37.796875 25.390625 
z
M 35.203125 72.90625 
L 47.609375 72.90625 
L 47.609375 25.390625 
L 58.015625 25.390625 
L 58.015625 17.1875 
L 47.609375 17.1875 
L 47.609375 0 
L 37.796875 0 
L 37.796875 17.1875 
L 4.890625 17.1875 
L 4.890625 26.703125 
z
" id="BitstreamVeraSans-Roman-34"/>
      </defs>
      <g transform="translate(361.965 401.918125)scale(0.12 -0.12)">
       <use xlink:href="#BitstreamVeraSans-Roman-34"/>
       <use x="63.623046875" xlink:href="#BitstreamVeraSans-Roman-30"/>
      </g>
     </g>
    </g>
    <g id="xtick_6">
     <g id="line2d_11">
      <g>
       <use style="stroke:#000000;stroke-width:0.5;" x="444.0" xlink:href="#md14e6d99e1" y="388.8"/>
      </g>
     </g>
     <g id="line2d_12">
      <g>
       <use style="stroke:#000000;stroke-width:0.5;" x="444.0" xlink:href="#mfda11fa352" y="43.2"/>
      </g>
     </g>
     <g id="text_6">
      <!-- 50 -->
      <defs>
       <path d="M 10.796875 72.90625 
L 49.515625 72.90625 
L 49.515625 64.59375 
L 19.828125 64.59375 
L 19.828125 46.734375 
Q 21.96875 47.46875 24.109375 47.828125 
Q 26.265625 48.1875 28.421875 48.1875 
Q 40.625 48.1875 47.75 41.5 
Q 54.890625 34.8125 54.890625 23.390625 
Q 54.890625 11.625 47.5625 5.09375 
Q 40.234375 -1.421875 26.90625 -1.421875 
Q 22.3125 -1.421875 17.546875 -0.640625 
Q 12.796875 0.140625 7.71875 1.703125 
L 7.71875 11.625 
Q 12.109375 9.234375 16.796875 8.0625 
Q 21.484375 6.890625 26.703125 6.890625 
Q 35.15625 6.890625 40.078125 11.328125 
Q 45.015625 15.765625 45.015625 23.390625 
Q 45.015625 31 40.078125 35.4375 
Q 35.15625 39.890625 26.703125 39.890625 
Q 22.75 39.890625 18.8125 39.015625 
Q 14.890625 38.140625 10.796875 36.28125 
z
" id="BitstreamVeraSans-Roman-35"/>
      </defs>
      <g transform="translate(436.365 401.918125)scale(0.12 -0.12)">
       <use xlink:href="#BitstreamVeraSans-Roman-35"/>
       <use x="63.623046875" xlink:href="#BitstreamVeraSans-Roman-30"/>
      </g>
     </g>
    </g>
    <g id="xtick_7">
     <g id="line2d_13">
      <g>
       <use style="stroke:#000000;stroke-width:0.5;" x="518.4" xlink:href="#md14e6d99e1" y="388.8"/>
      </g>
     </g>
     <g id="line2d_14">
      <g>
       <use style="stroke:#000000;stroke-width:0.5;" x="518.4" xlink:href="#mfda11fa352" y="43.2"/>
      </g>
     </g>
     <g id="text_7">
      <!-- 60 -->
      <defs>
       <path d="M 33.015625 40.375 
Q 26.375 40.375 22.484375 35.828125 
Q 18.609375 31.296875 18.609375 23.390625 
Q 18.609375 15.53125 22.484375 10.953125 
Q 26.375 6.390625 33.015625 6.390625 
Q 39.65625 6.390625 43.53125 10.953125 
Q 47.40625 15.53125 47.40625 23.390625 
Q 47.40625 31.296875 43.53125 35.828125 
Q 39.65625 40.375 33.015625 40.375 
M 52.59375 71.296875 
L 52.59375 62.3125 
Q 48.875 64.0625 45.09375 64.984375 
Q 41.3125 65.921875 37.59375 65.921875 
Q 27.828125 65.921875 22.671875 59.328125 
Q 17.53125 52.734375 16.796875 39.40625 
Q 19.671875 43.65625 24.015625 45.921875 
Q 28.375 48.1875 33.59375 48.1875 
Q 44.578125 48.1875 50.953125 41.515625 
Q 57.328125 34.859375 57.328125 23.390625 
Q 57.328125 12.15625 50.6875 5.359375 
Q 44.046875 -1.421875 33.015625 -1.421875 
Q 20.359375 -1.421875 13.671875 8.265625 
Q 6.984375 17.96875 6.984375 36.375 
Q 6.984375 53.65625 15.1875 63.9375 
Q 23.390625 74.21875 37.203125 74.21875 
Q 40.921875 74.21875 44.703125 73.484375 
Q 48.484375 72.75 52.59375 71.296875 
" id="BitstreamVeraSans-Roman-36"/>
      </defs>
      <g transform="translate(510.765 401.918125)scale(0.12 -0.12)">
       <use xlink:href="#BitstreamVeraSans-Roman-36"/>
       <use x="63.623046875" xlink:href="#BitstreamVeraSans-Roman-30"/>
      </g>
     </g>
    </g>
    <g id="text_8">
     <!-- Generations -->
     <defs>
      <path d="M 34.28125 27.484375 
Q 23.390625 27.484375 19.1875 25 
Q 14.984375 22.515625 14.984375 16.5 
Q 14.984375 11.71875 18.140625 8.90625 
Q 21.296875 6.109375 26.703125 6.109375 
Q 34.1875 6.109375 38.703125 11.40625 
Q 43.21875 16.703125 43.21875 25.484375 
L 43.21875 27.484375 
z
M 52.203125 31.203125 
L 52.203125 0 
L 43.21875 0 
L 43.21875 8.296875 
Q 40.140625 3.328125 35.546875 0.953125 
Q 30.953125 -1.421875 24.3125 -1.421875 
Q 15.921875 -1.421875 10.953125 3.296875 
Q 6 8.015625 6 15.921875 
Q 6 25.140625 12.171875 29.828125 
Q 18.359375 34.515625 30.609375 34.515625 
L 43.21875 34.515625 
L 43.21875 35.40625 
Q 43.21875 41.609375 39.140625 45 
Q 35.0625 48.390625 27.6875 48.390625 
Q 23 48.390625 18.546875 47.265625 
Q 14.109375 46.140625 10.015625 43.890625 
L 10.015625 52.203125 
Q 14.9375 54.109375 19.578125 55.046875 
Q 24.21875 56 28.609375 56 
Q 40.484375 56 46.34375 49.84375 
Q 52.203125 43.703125 52.203125 31.203125 
" id="BitstreamVeraSans-Roman-61"/>
      <path d="M 44.28125 53.078125 
L 44.28125 44.578125 
Q 40.484375 46.53125 36.375 47.5 
Q 32.28125 48.484375 27.875 48.484375 
Q 21.1875 48.484375 17.84375 46.4375 
Q 14.5 44.390625 14.5 40.28125 
Q 14.5 37.15625 16.890625 35.375 
Q 19.28125 33.59375 26.515625 31.984375 
L 29.59375 31.296875 
Q 39.15625 29.25 43.1875 25.515625 
Q 47.21875 21.78125 47.21875 15.09375 
Q 47.21875 7.46875 41.1875 3.015625 
Q 35.15625 -1.421875 24.609375 -1.421875 
Q 20.21875 -1.421875 15.453125 -0.5625 
Q 10.6875 0.296875 5.421875 2 
L 5.421875 11.28125 
Q 10.40625 8.6875 15.234375 7.390625 
Q 20.0625 6.109375 24.8125 6.109375 
Q 31.15625 6.109375 34.5625 8.28125 
Q 37.984375 10.453125 37.984375 14.40625 
Q 37.984375 18.0625 35.515625 20.015625 
Q 33.0625 21.96875 24.703125 23.78125 
L 21.578125 24.515625 
Q 13.234375 26.265625 9.515625 29.90625 
Q 5.8125 33.546875 5.8125 39.890625 
Q 5.8125 47.609375 11.28125 51.796875 
Q 16.75 56 26.8125 56 
Q 31.78125 56 36.171875 55.265625 
Q 40.578125 54.546875 44.28125 53.078125 
" id="BitstreamVeraSans-Roman-73"/>
      <path d="M 54.890625 33.015625 
L 54.890625 0 
L 45.90625 0 
L 45.90625 32.71875 
Q 45.90625 40.484375 42.875 44.328125 
Q 39.84375 48.1875 33.796875 48.1875 
Q 26.515625 48.1875 22.3125 43.546875 
Q 18.109375 38.921875 18.109375 30.90625 
L 18.109375 0 
L 9.078125 0 
L 9.078125 54.6875 
L 18.109375 54.6875 
L 18.109375 46.1875 
Q 21.34375 51.125 25.703125 53.5625 
Q 30.078125 56 35.796875 56 
Q 45.21875 56 50.046875 50.171875 
Q 54.890625 44.34375 54.890625 33.015625 
" id="BitstreamVeraSans-Roman-6e"/>
      <path d="M 30.609375 48.390625 
Q 23.390625 48.390625 19.1875 42.75 
Q 14.984375 37.109375 14.984375 27.296875 
Q 14.984375 17.484375 19.15625 11.84375 
Q 23.34375 6.203125 30.609375 6.203125 
Q 37.796875 6.203125 41.984375 11.859375 
Q 46.1875 17.53125 46.1875 27.296875 
Q 46.1875 37.015625 41.984375 42.703125 
Q 37.796875 48.390625 30.609375 48.390625 
M 30.609375 56 
Q 42.328125 56 49.015625 48.375 
Q 55.71875 40.765625 55.71875 27.296875 
Q 55.71875 13.875 49.015625 6.21875 
Q 42.328125 -1.421875 30.609375 -1.421875 
Q 18.84375 -1.421875 12.171875 6.21875 
Q 5.515625 13.875 5.515625 27.296875 
Q 5.515625 40.765625 12.171875 48.375 
Q 18.84375 56 30.609375 56 
" id="BitstreamVeraSans-Roman-6f"/>
      <path d="M 59.515625 10.40625 
L 59.515625 29.984375 
L 43.40625 29.984375 
L 43.40625 38.09375 
L 69.28125 38.09375 
L 69.28125 6.78125 
Q 63.578125 2.734375 56.6875 0.65625 
Q 49.8125 -1.421875 42 -1.421875 
Q 24.90625 -1.421875 15.25 8.5625 
Q 5.609375 18.5625 5.609375 36.375 
Q 5.609375 54.25 15.25 64.234375 
Q 24.90625 74.21875 42 74.21875 
Q 49.125 74.21875 55.546875 72.453125 
Q 61.96875 70.703125 67.390625 67.28125 
L 67.390625 56.78125 
Q 61.921875 61.421875 55.765625 63.765625 
Q 49.609375 66.109375 42.828125 66.109375 
Q 29.4375 66.109375 22.71875 58.640625 
Q 16.015625 51.171875 16.015625 36.375 
Q 16.015625 21.625 22.71875 14.15625 
Q 29.4375 6.6875 42.828125 6.6875 
Q 48.046875 6.6875 52.140625 7.59375 
Q 56.25 8.5 59.515625 10.40625 
" id="BitstreamVeraSans-Roman-47"/>
      <path d="M 56.203125 29.59375 
L 56.203125 25.203125 
L 14.890625 25.203125 
Q 15.484375 15.921875 20.484375 11.0625 
Q 25.484375 6.203125 34.421875 6.203125 
Q 39.59375 6.203125 44.453125 7.46875 
Q 49.3125 8.734375 54.109375 11.28125 
L 54.109375 2.78125 
Q 49.265625 0.734375 44.1875 -0.34375 
Q 39.109375 -1.421875 33.890625 -1.421875 
Q 20.796875 -1.421875 13.15625 6.1875 
Q 5.515625 13.8125 5.515625 26.8125 
Q 5.515625 40.234375 12.765625 48.109375 
Q 20.015625 56 32.328125 56 
Q 43.359375 56 49.78125 48.890625 
Q 56.203125 41.796875 56.203125 29.59375 
M 47.21875 32.234375 
Q 47.125 39.59375 43.09375 43.984375 
Q 39.0625 48.390625 32.421875 48.390625 
Q 24.90625 48.390625 20.390625 44.140625 
Q 15.875 39.890625 15.1875 32.171875 
z
" id="BitstreamVeraSans-Roman-65"/>
      <path d="M 41.109375 46.296875 
Q 39.59375 47.171875 37.8125 47.578125 
Q 36.03125 48 33.890625 48 
Q 26.265625 48 22.1875 43.046875 
Q 18.109375 38.09375 18.109375 28.8125 
L 18.109375 0 
L 9.078125 0 
L 9.078125 54.6875 
L 18.109375 54.6875 
L 18.109375 46.1875 
Q 20.953125 51.171875 25.484375 53.578125 
Q 30.03125 56 36.53125 56 
Q 37.453125 56 38.578125 55.875 
Q 39.703125 55.765625 41.0625 55.515625 
z
" id="BitstreamVeraSans-Roman-72"/>
      <path d="M 9.421875 54.6875 
L 18.40625 54.6875 
L 18.40625 0 
L 9.421875 0 
z
M 9.421875 75.984375 
L 18.40625 75.984375 
L 18.40625 64.59375 
L 9.421875 64.59375 
z
" id="BitstreamVeraSans-Roman-69"/>
      <path d="M 18.3125 70.21875 
L 18.3125 54.6875 
L 36.8125 54.6875 
L 36.8125 47.703125 
L 18.3125 47.703125 
L 18.3125 18.015625 
Q 18.3125 11.328125 20.140625 9.421875 
Q 21.96875 7.515625 27.59375 7.515625 
L 36.8125 7.515625 
L 36.8125 0 
L 27.59375 0 
Q 17.1875 0 13.234375 3.875 
Q 9.28125 7.765625 9.28125 18.015625 
L 9.28125 47.703125 
L 2.6875 47.703125 
L 2.6875 54.6875 
L 9.28125 54.6875 
L 9.28125 70.21875 
z
" id="BitstreamVeraSans-Roman-74"/>
     </defs>
     <g transform="translate(258.6028125 418.531875)scale(0.12 -0.12)">
      <use xlink:href="#BitstreamVeraSans-Roman-47"/>
      <use x="77.490234375" xlink:href="#BitstreamVeraSans-Roman-65"/>
      <use x="139.013671875" xlink:href="#BitstreamVeraSans-Roman-6e"/>
      <use x="202.392578125" xlink:href="#BitstreamVeraSans-Roman-65"/>
      <use x="263.916015625" xlink:href="#BitstreamVeraSans-Roman-72"/>
      <use x="305.029296875" xlink:href="#BitstreamVeraSans-Roman-61"/>
      <use x="366.30859375" xlink:href="#BitstreamVeraSans-Roman-74"/>
      <use x="405.517578125" xlink:href="#BitstreamVeraSans-Roman-69"/>
      <use x="433.30078125" xlink:href="#BitstreamVeraSans-Roman-6f"/>
      <use x="494.482421875" xlink:href="#BitstreamVeraSans-Roman-6e"/>
      <use x="557.861328125" xlink:href="#BitstreamVeraSans-Roman-73"/>
     </g>
    </g>
   </g>
   <g id="matplotlib.axis_2">
    <g id="ytick_1">
     <g id="line2d_15">
      <defs>
       <path d="M 0 0 
L 4 0 
" id="m803e6cadc3" style="stroke:#000000;stroke-width:0.5;"/>
      </defs>
      <g>
       <use style="stroke:#000000;stroke-width:0.5;" x="72.0" xlink:href="#m803e6cadc3" y="388.8"/>
      </g>
     </g>
     <g id="line2d_16">
      <defs>
       <path d="M 0 0 
L -4 0 
" id="mc82496dd58" style="stroke:#000000;stroke-width:0.5;"/>
      </defs>
      <g>
       <use style="stroke:#000000;stroke-width:0.5;" x="518.4" xlink:href="#mc82496dd58" y="388.8"/>
      </g>
     </g>
     <g id="text_9">
      <!-- 0 -->
      <g transform="translate(60.365 392.11125)scale(0.12 -0.12)">
       <use xlink:href="#BitstreamVeraSans-Roman-30"/>
      </g>
     </g>
    </g>
    <g id="ytick_2">
     <g id="line2d_17">
      <g>
       <use style="stroke:#000000;stroke-width:0.5;" x="72.0" xlink:href="#m803e6cadc3" y="339.428571429"/>
      </g>
     </g>
     <g id="line2d_18">
      <g>
       <use style="stroke:#000000;stroke-width:0.5;" x="518.4" xlink:href="#mc82496dd58" y="339.428571429"/>
      </g>
     </g>
     <g id="text_10">
      <!-- 50 -->
      <g transform="translate(52.73 342.739821429)scale(0.12 -0.12)">
       <use xlink:href="#BitstreamVeraSans-Roman-35"/>
       <use x="63.623046875" xlink:href="#BitstreamVeraSans-Roman-30"/>
      </g>
     </g>
    </g>
    <g id="ytick_3">
     <g id="line2d_19">
      <g>
       <use style="stroke:#000000;stroke-width:0.5;" x="72.0" xlink:href="#m803e6cadc3" y="290.057142857"/>
      </g>
     </g>
     <g id="line2d_20">
      <g>
       <use style="stroke:#000000;stroke-width:0.5;" x="518.4" xlink:href="#mc82496dd58" y="290.057142857"/>
      </g>
     </g>
     <g id="text_11">
      <!-- 100 -->
      <g transform="translate(45.095 293.368392857)scale(0.12 -0.12)">
       <use xlink:href="#BitstreamVeraSans-Roman-31"/>
       <use x="63.623046875" xlink:href="#BitstreamVeraSans-Roman-30"/>
       <use x="127.24609375" xlink:href="#BitstreamVeraSans-Roman-30"/>
      </g>
     </g>
    </g>
    <g id="ytick_4">
     <g id="line2d_21">
      <g>
       <use style="stroke:#000000;stroke-width:0.5;" x="72.0" xlink:href="#m803e6cadc3" y="240.685714286"/>
      </g>
     </g>
     <g id="line2d_22">
      <g>
       <use style="stroke:#000000;stroke-width:0.5;" x="518.4" xlink:href="#mc82496dd58" y="240.685714286"/>
      </g>
     </g>
     <g id="text_12">
      <!-- 150 -->
      <g transform="translate(45.095 243.996964286)scale(0.12 -0.12)">
       <use xlink:href="#BitstreamVeraSans-Roman-31"/>
       <use x="63.623046875" xlink:href="#BitstreamVeraSans-Roman-35"/>
       <use x="127.24609375" xlink:href="#BitstreamVeraSans-Roman-30"/>
      </g>
     </g>
    </g>
    <g id="ytick_5">
     <g id="line2d_23">
      <g>
       <use style="stroke:#000000;stroke-width:0.5;" x="72.0" xlink:href="#m803e6cadc3" y="191.314285714"/>
      </g>
     </g>
     <g id="line2d_24">
      <g>
       <use style="stroke:#000000;stroke-width:0.5;" x="518.4" xlink:href="#mc82496dd58" y="191.314285714"/>
      </g>
     </g>
     <g id="text_13">
      <!-- 200 -->
      <g transform="translate(45.095 194.625535714)scale(0.12 -0.12)">
       <use xlink:href="#BitstreamVeraSans-Roman-32"/>
       <use x="63.623046875" xlink:href="#BitstreamVeraSans-Roman-30"/>
       <use x="127.24609375" xlink:href="#BitstreamVeraSans-Roman-30"/>
      </g>
     </g>
    </g>
    <g id="ytick_6">
     <g id="line2d_25">
      <g>
       <use style="stroke:#000000;stroke-width:0.5;" x="72.0" xlink:href="#m803e6cadc3" y="141.942857143"/>
      </g>
     </g>
     <g id="line2d_26">
      <g>
       <use style="stroke:#000000;stroke-width:0.5;" x="518.4" xlink:href="#mc82496dd58" y="141.942857143"/>
      </g>
     </g>
     <g id="text_14">
      <!-- 250 -->
      <g transform="translate(45.095 145.254107143)scale(0.12 -0.12)">
       <use xlink:href="#BitstreamVeraSans-Roman-32"/>
       <use x="63.623046875" xlink:href="#BitstreamVeraSans-Roman-35"/>
       <use x="127.24609375" xlink:href="#BitstreamVeraSans-Roman-30"/>
      </g>
     </g>
    </g>
    <g id="ytick_7">
     <g id="line2d_27">
      <g>
       <use style="stroke:#000000;stroke-width:0.5;" x="72.0" xlink:href="#m803e6cadc3" y="92.5714285714"/>
      </g>
     </g>
     <g id="line2d_28">
      <g>
       <use style="stroke:#000000;stroke-width:0.5;" x="518.4" xlink:href="#mc82496dd58" y="92.5714285714"/>
      </g>
     </g>
     <g id="text_15">
      <!-- 300 -->
      <g transform="translate(45.095 95.8826785714)scale(0.12 -0.12)">
       <use xlink:href="#BitstreamVeraSans-Roman-33"/>
       <use x="63.623046875" xlink:href="#BitstreamVeraSans-Roman-30"/>
       <use x="127.24609375" xlink:href="#BitstreamVeraSans-Roman-30"/>
      </g>
     </g>
    </g>
    <g id="ytick_8">
     <g id="line2d_29">
      <g>
       <use style="stroke:#000000;stroke-width:0.5;" x="72.0" xlink:href="#m803e6cadc3" y="43.2"/>
      </g>
     </g>
     <g id="line2d_30">
      <g>
       <use style="stroke:#000000;stroke-width:0.5;" x="518.4" xlink:href="#mc82496dd58" y="43.2"/>
      </g>
     </g>
     <g id="text_16">
      <!-- 350 -->
      <g transform="translate(45.095 46.51125)scale(0.12 -0.12)">
       <use xlink:href="#BitstreamVeraSans-Roman-33"/>
       <use x="63.623046875" xlink:href="#BitstreamVeraSans-Roman-35"/>
       <use x="127.24609375" xlink:href="#BitstreamVeraSans-Roman-30"/>
      </g>
     </g>
    </g>
    <g id="text_17">
     <!-- Size per Species -->
     <defs>
      <path d="M 18.109375 8.203125 
L 18.109375 -20.796875 
L 9.078125 -20.796875 
L 9.078125 54.6875 
L 18.109375 54.6875 
L 18.109375 46.390625 
Q 20.953125 51.265625 25.265625 53.625 
Q 29.59375 56 35.59375 56 
Q 45.5625 56 51.78125 48.09375 
Q 58.015625 40.1875 58.015625 27.296875 
Q 58.015625 14.40625 51.78125 6.484375 
Q 45.5625 -1.421875 35.59375 -1.421875 
Q 29.59375 -1.421875 25.265625 0.953125 
Q 20.953125 3.328125 18.109375 8.203125 
M 48.6875 27.296875 
Q 48.6875 37.203125 44.609375 42.84375 
Q 40.53125 48.484375 33.40625 48.484375 
Q 26.265625 48.484375 22.1875 42.84375 
Q 18.109375 37.203125 18.109375 27.296875 
Q 18.109375 17.390625 22.1875 11.75 
Q 26.265625 6.109375 33.40625 6.109375 
Q 40.53125 6.109375 44.609375 11.75 
Q 48.6875 17.390625 48.6875 27.296875 
" id="BitstreamVeraSans-Roman-70"/>
      <path id="BitstreamVeraSans-Roman-20"/>
      <path d="M 53.515625 70.515625 
L 53.515625 60.890625 
Q 47.90625 63.578125 42.921875 64.890625 
Q 37.9375 66.21875 33.296875 66.21875 
Q 25.25 66.21875 20.875 63.09375 
Q 16.5 59.96875 16.5 54.203125 
Q 16.5 49.359375 19.40625 46.890625 
Q 22.3125 44.4375 30.421875 42.921875 
L 36.375 41.703125 
Q 47.40625 39.59375 52.65625 34.296875 
Q 57.90625 29 57.90625 20.125 
Q 57.90625 9.515625 50.796875 4.046875 
Q 43.703125 -1.421875 29.984375 -1.421875 
Q 24.8125 -1.421875 18.96875 -0.25 
Q 13.140625 0.921875 6.890625 3.21875 
L 6.890625 13.375 
Q 12.890625 10.015625 18.65625 8.296875 
Q 24.421875 6.59375 29.984375 6.59375 
Q 38.421875 6.59375 43.015625 9.90625 
Q 47.609375 13.234375 47.609375 19.390625 
Q 47.609375 24.75 44.3125 27.78125 
Q 41.015625 30.8125 33.5 32.328125 
L 27.484375 33.5 
Q 16.453125 35.6875 11.515625 40.375 
Q 6.59375 45.0625 6.59375 53.421875 
Q 6.59375 63.09375 13.40625 68.65625 
Q 20.21875 74.21875 32.171875 74.21875 
Q 37.3125 74.21875 42.625 73.28125 
Q 47.953125 72.359375 53.515625 70.515625 
" id="BitstreamVeraSans-Roman-53"/>
      <path d="M 48.78125 52.59375 
L 48.78125 44.1875 
Q 44.96875 46.296875 41.140625 47.34375 
Q 37.3125 48.390625 33.40625 48.390625 
Q 24.65625 48.390625 19.8125 42.84375 
Q 14.984375 37.3125 14.984375 27.296875 
Q 14.984375 17.28125 19.8125 11.734375 
Q 24.65625 6.203125 33.40625 6.203125 
Q 37.3125 6.203125 41.140625 7.25 
Q 44.96875 8.296875 48.78125 10.40625 
L 48.78125 2.09375 
Q 45.015625 0.34375 40.984375 -0.53125 
Q 36.96875 -1.421875 32.421875 -1.421875 
Q 20.0625 -1.421875 12.78125 6.34375 
Q 5.515625 14.109375 5.515625 27.296875 
Q 5.515625 40.671875 12.859375 48.328125 
Q 20.21875 56 33.015625 56 
Q 37.15625 56 41.109375 55.140625 
Q 45.0625 54.296875 48.78125 52.59375 
" id="BitstreamVeraSans-Roman-63"/>
      <path d="M 5.515625 54.6875 
L 48.1875 54.6875 
L 48.1875 46.484375 
L 14.40625 7.171875 
L 48.1875 7.171875 
L 48.1875 0 
L 4.296875 0 
L 4.296875 8.203125 
L 38.09375 47.515625 
L 5.515625 47.515625 
z
" id="BitstreamVeraSans-Roman-7a"/>
     </defs>
     <g transform="translate(37.599375 265.1915625)rotate(-90.0)scale(0.12 -0.12)">
      <use xlink:href="#BitstreamVeraSans-Roman-53"/>
      <use x="63.4765625" xlink:href="#BitstreamVeraSans-Roman-69"/>
      <use x="91.259765625" xlink:href="#BitstreamVeraSans-Roman-7a"/>
      <use x="143.75" xlink:href="#BitstreamVeraSans-Roman-65"/>
      <use x="205.2734375" xlink:href="#BitstreamVeraSans-Roman-20"/>
      <use x="237.060546875" xlink:href="#BitstreamVeraSans-Roman-70"/>
      <use x="300.537109375" xlink:href="#BitstreamVeraSans-Roman-65"/>
      <use x="362.060546875" xlink:href="#BitstreamVeraSans-Roman-72"/>
      <use x="403.173828125" xlink:href="#BitstreamVeraSans-Roman-20"/>
      <use x="434.9609375" xlink:href="#BitstreamVeraSans-Roman-53"/>
      <use x="498.4375" xlink:href="#BitstreamVeraSans-Roman-70"/>
      <use x="561.9140625" xlink:href="#BitstreamVeraSans-Roman-65"/>
      <use x="623.4375" xlink:href="#BitstreamVeraSans-Roman-63"/>
      <use x="678.41796875" xlink:href="#BitstreamVeraSans-Roman-69"/>
      <use x="706.201171875" xlink:href="#BitstreamVeraSans-Roman-65"/>
      <use x="767.724609375" xlink:href="#BitstreamVeraSans-Roman-73"/>
     </g>
    </g>
   </g>
   <g id="text_18">
    <!-- Speciation -->
    <g transform="translate(257.46525 38.2)scale(0.144 -0.144)">
     <use xlink:href="#BitstreamVeraSans-Roman-53"/>
     <use x="63.4765625" xlink:href="#BitstreamVeraSans-Roman-70"/>
     <use x="126.953125" xlink:href="#BitstreamVeraSans-Roman-65"/>
     <use x="188.4765625" xlink:href="#BitstreamVeraSans-Roman-63"/>
     <use x="243.45703125" xlink:href="#BitstreamVeraSans-Roman-69"/>
     <use x="271.240234375" xlink:href="#BitstreamVeraSans-Roman-61"/>
     <use x="332.51953125" xlink:href="#BitstreamVeraSans-Roman-74"/>
     <use x="371.728515625" xlink:href="#BitstreamVeraSans-Roman-69"/>
     <use x="399.51171875" xlink:href="#BitstreamVeraSans-Roman-6f"/>
     <use x="460.693359375" xlink:href="#BitstreamVeraSans-Roman-6e"/>
    </g>
   </g>
  </g>
 </g>
 <defs>
  <clipPath id="p3426b1078d">
   <rect height="345.6" width="446.4" x="72.0" y="43.2"/>
  </clipPath>
 </defs>
</svg>
