<?xml version="1.0" encoding="UTF-8" standalone="no"?>
<!DOCTYPE svg PUBLIC "-//W3C//DTD SVG 1.1//EN"
 "http://www.w3.org/Graphics/SVG/1.1/DTD/svg11.dtd">
<!-- Generated by graphviz version 2.39.20160104.1625 (20160104.1625)
 -->
<!-- Title: %3 Pages: 1 -->
<svg width="275pt" height="172pt"
 viewBox="0.00 0.00 275.35 171.54" xmlns="http://www.w3.org/2000/svg" xmlns:xlink="http://www.w3.org/1999/xlink">
<g id="graph0" class="graph" transform="scale(1 1) rotate(0) translate(4 167.539)">
<title>%3</title>
<polygon fill="white" stroke="transparent" points="-4,4 -4,-167.539 271.349,-167.539 271.349,4 -4,4"/>
<!-- 0 -->
<g id="node1" class="node">
<title>0</title>
<polygon fill="lightgrey" stroke="black" points="21,-100.154 0,-100.154 0,-82.1543 21,-82.1543 21,-100.154"/>
<text text-anchor="middle" x="10.5" y="-88.0543" font-family="Times,serif" font-size="9.00">0</text>
</g>
<!-- 7 -->
<g id="node8" class="node">
<title>7</title>
<ellipse fill="lightblue" stroke="lightblue" cx="46.5" cy="-18.3848" rx="15.6129" ry="15.6129"/>
<text text-anchor="middle" x="46.5" y="-15.2848" font-family="Times,serif" font-size="9.00">7</text>
</g>
<!-- 0&#45;&gt;7 -->
<g id="edge8" class="edge">
<title>0&#45;&gt;7</title>
<path fill="none" stroke="red" stroke-width="0.287822" d="M15.0594,-81.938C20.0227,-71.9054 28.1536,-55.4699 34.9032,-41.8263"/>
<polygon fill="red" stroke="red" stroke-width="0.287822" points="38.2117,-43.0318 39.5088,-32.5166 31.9375,-39.9278 38.2117,-43.0318"/>
</g>
<!-- 1 -->
<g id="node2" class="node">
<title>1</title>
<polygon fill="lightgrey" stroke="black" points="263,-100.154 242,-100.154 242,-82.1543 263,-82.1543 263,-100.154"/>
<text text-anchor="middle" x="252.5" y="-88.0543" font-family="Times,serif" font-size="9.00">1</text>
</g>
<!-- 9 -->
<g id="node10" class="node">
<title>9</title>
<ellipse fill="lightblue" stroke="lightblue" cx="252.5" cy="-18.3848" rx="14.7" ry="14.7"/>
<text text-anchor="middle" x="252.5" y="-15.2848" font-family="Times,serif" font-size="9.00">9</text>
</g>
<!-- 1&#45;&gt;9 -->
<g id="edge10" class="edge">
<title>1&#45;&gt;9</title>
<path fill="none" stroke="green" stroke-width="0.273727" stroke-dasharray="1,5" d="M252.5,-81.938C252.5,-72.2812 252.5,-56.6924 252.5,-43.371"/>
<polygon fill="green" stroke="green" stroke-width="0.273727" points="256,-43.3304 252.5,-33.3304 249,-43.3304 256,-43.3304"/>
</g>
<!-- 2 -->
<g id="node3" class="node">
<title>2</title>
<polygon fill="lightgrey" stroke="black" points="158,-100.154 137,-100.154 137,-82.1543 158,-82.1543 158,-100.154"/>
<text text-anchor="middle" x="147.5" y="-88.0543" font-family="Times,serif" font-size="9.00">2</text>
</g>
<!-- 2&#45;&gt;7 -->
<g id="edge1" class="edge">
<title>2&#45;&gt;7</title>
<path fill="none" stroke="green" stroke-width="0.519763" d="M136.828,-83.2356C132.408,-79.9746 127.221,-76.171 122.5,-72.7696 99.9898,-56.5502 94.0102,-52.9889 71.5,-36.7696 70.1176,-35.7735 68.6953,-34.743 67.264,-33.7017"/>
<polygon fill="green" stroke="green" stroke-width="0.519763" points="69.3195,-30.8689 59.1833,-27.7855 65.1843,-36.517 69.3195,-30.8689"/>
</g>
<!-- 8 -->
<g id="node9" class="node">
<title>8</title>
<ellipse fill="lightblue" stroke="lightblue" cx="204.5" cy="-18.3848" rx="14.7" ry="14.7"/>
<text text-anchor="middle" x="204.5" y="-15.2848" font-family="Times,serif" font-size="9.00">8</text>
</g>
<!-- 2&#45;&gt;8 -->
<g id="edge4" class="edge">
<title>2&#45;&gt;8</title>
<path fill="none" stroke="red" stroke-width="0.22157" stroke-dasharray="1,5" d="M154.719,-81.938C163.253,-71.0431 177.702,-52.5973 188.841,-38.3761"/>
<polygon fill="red" stroke="red" stroke-width="0.22157" points="191.856,-40.2032 195.267,-30.1725 186.345,-35.8867 191.856,-40.2032"/>
</g>
<!-- 10 -->
<g id="node11" class="node">
<title>10</title>
<ellipse fill="lightblue" stroke="lightblue" cx="153.5" cy="-18.3848" rx="18.2703" ry="18.2703"/>
<text text-anchor="middle" x="153.5" y="-15.2848" font-family="Times,serif" font-size="9.00">10</text>
</g>
<!-- 2&#45;&gt;10 -->
<g id="edge9" class="edge">
<title>2&#45;&gt;10</title>
<path fill="none" stroke="green" stroke-width="0.684869" d="M148.26,-81.938C148.989,-73.0939 150.129,-59.2742 151.159,-46.7776"/>
<polygon fill="green" stroke="green" stroke-width="0.684869" points="154.654,-46.9838 151.987,-36.73 147.677,-46.4085 154.654,-46.9838"/>
</g>
<!-- 11 -->
<g id="node12" class="node">
<title>11</title>
<ellipse fill="lightblue" stroke="lightblue" cx="98.5" cy="-18.3848" rx="18.2703" ry="18.2703"/>
<text text-anchor="middle" x="98.5" y="-15.2848" font-family="Times,serif" font-size="9.00">11</text>
</g>
<!-- 2&#45;&gt;11 -->
<g id="edge7" class="edge">
<title>2&#45;&gt;11</title>
<path fill="none" stroke="red" stroke-width="0.372459" d="M141.294,-81.938C134.619,-72.0243 123.733,-55.8586 114.612,-42.3126"/>
<polygon fill="red" stroke="red" stroke-width="0.372459" points="117.423,-40.2213 108.935,-33.8813 111.617,-44.131 117.423,-40.2213"/>
</g>
<!-- 3 -->
<g id="node4" class="node">
<title>3</title>
<polygon fill="lightgrey" stroke="black" points="123.5,-163.539 101.5,-163.539 101.5,-145.539 123.5,-145.539 123.5,-163.539"/>
<text text-anchor="middle" x="112.5" y="-151.439" font-family="Times,serif" font-size="9.00">3</text>
</g>
<!-- 4 -->
<g id="node5" class="node">
<title>4</title>
<polygon fill="lightgrey" stroke="black" points="219.5,-100.154 197.5,-100.154 197.5,-82.1543 219.5,-82.1543 219.5,-100.154"/>
<text text-anchor="middle" x="208.5" y="-88.0543" font-family="Times,serif" font-size="9.00">4</text>
</g>
<!-- 4&#45;&gt;8 -->
<g id="edge3" class="edge">
<title>4&#45;&gt;8</title>
<path fill="none" stroke="red" stroke-width="0.397513" d="M207.993,-81.938C207.463,-72.2812 206.606,-56.6924 205.873,-43.371"/>
<polygon fill="red" stroke="red" stroke-width="0.397513" points="209.365,-43.1232 205.322,-33.3304 202.376,-43.5074 209.365,-43.1232"/>
</g>
<!-- 4&#45;&gt;9 -->
<g id="edge2" class="edge">
<title>4&#45;&gt;9</title>
<path fill="none" stroke="green" stroke-width="0.444295" d="M214.073,-81.938C220.446,-71.3968 231.094,-53.7872 239.567,-39.7743"/>
<polygon fill="green" stroke="green" stroke-width="0.444295" points="242.575,-41.564 244.754,-31.1957 236.585,-37.942 242.575,-41.564"/>
</g>
<!-- 5 -->
<g id="node6" class="node">
<title>5</title>
<polygon fill="lightgrey" stroke="black" points="83,-163.539 62,-163.539 62,-145.539 83,-145.539 83,-163.539"/>
<text text-anchor="middle" x="72.5" y="-151.439" font-family="Times,serif" font-size="9.00">5</text>
</g>
<!-- 5&#45;&gt;7 -->
<g id="edge6" class="edge">
<title>5&#45;&gt;7</title>
<path fill="none" stroke="green" stroke-width="0.274912" stroke-dasharray="1,5" d="M70.7129,-145.181C66.772,-124.543 57.2206,-74.5255 51.3607,-43.839"/>
<polygon fill="green" stroke="green" stroke-width="0.274912" points="54.7709,-43.0368 49.4572,-33.8708 47.8951,-44.3499 54.7709,-43.0368"/>
</g>
<!-- 12 -->
<g id="node13" class="node">
<title>12</title>
<ellipse fill="none" stroke="black" cx="95.5" cy="-91.1543" rx="18.2703" ry="18.2703"/>
<text text-anchor="middle" x="95.5" y="-88.0543" font-family="Times,serif" font-size="9.00">12</text>
</g>
<!-- 5&#45;&gt;12 -->
<g id="edge5" class="edge">
<title>5&#45;&gt;12</title>
<path fill="none" stroke="green" stroke-width="0.578782" d="M75.7953,-145.458C78.4038,-138.269 82.1874,-127.842 85.7433,-118.042"/>
<polygon fill="green" stroke="green" stroke-width="0.578782" points="89.0504,-119.189 89.1714,-108.595 82.4702,-116.801 89.0504,-119.189"/>
</g>
<!-- 6 -->
<g id="node7" class="node">
<title>6</title>
<polygon fill="lightgrey" stroke="black" points="163,-163.539 142,-163.539 142,-145.539 163,-145.539 163,-163.539"/>
<text text-anchor="middle" x="152.5" y="-151.439" font-family="Times,serif" font-size="9.00">6</text>
</g>
<!-- 12&#45;&gt;7 -->
<g id="edge12" class="edge">
<title>12&#45;&gt;7</title>
<path fill="none" stroke="green" stroke-width="0.319201" d="M85.1084,-75.7218C78.1036,-65.3191 68.7648,-51.45 61.0266,-39.9581"/>
<polygon fill="green" stroke="green" stroke-width="0.319201" points="63.7276,-37.703 55.239,-31.363 57.9213,-41.6128 63.7276,-37.703"/>
</g>
<!-- 12&#45;&gt;11 -->
<g id="edge11" class="edge">
<title>12&#45;&gt;11</title>
<path fill="none" stroke="green" stroke-width="0.470274" stroke-dasharray="1,5" d="M96.2726,-72.4144C96.5935,-64.6303 96.973,-55.4246 97.327,-46.8383"/>
<polygon fill="green" stroke="green" stroke-width="0.470274" points="100.825,-46.945 97.7404,-36.8093 93.8314,-46.6566 100.825,-46.945"/>
</g>
</g>
</svg>
