<?xml version="1.0" encoding="UTF-8" standalone="no"?>
<!DOCTYPE svg PUBLIC "-//W3C//DTD SVG 1.1//EN"
 "http://www.w3.org/Graphics/SVG/1.1/DTD/svg11.dtd">
<!-- Generated by graphviz version 2.39.20160104.1625 (20160104.1625)
 -->
<!-- Title: %3 Pages: 1 -->
<svg width="1222pt" height="193pt"
 viewBox="0.00 0.00 1221.59 193.14" xmlns="http://www.w3.org/2000/svg" xmlns:xlink="http://www.w3.org/1999/xlink">
<g id="graph0" class="graph" transform="scale(1 1) rotate(0) translate(4 189.137)">
<title>%3</title>
<polygon fill="white" stroke="transparent" points="-4,4 -4,-189.137 1217.59,-189.137 1217.59,4 -4,4"/>
<!-- 0 -->
<g id="node1" class="node">
<title>0</title>
<polygon fill="lightgrey" stroke="black" points="21,-175.045 0,-175.045 0,-157.045 21,-157.045 21,-175.045"/>
<text text-anchor="middle" x="10.5" y="-162.945" font-family="Times,serif" font-size="9.00">0</text>
</g>
<!-- 1 -->
<g id="node2" class="node">
<title>1</title>
<polygon fill="lightgrey" stroke="black" points="60,-175.045 39,-175.045 39,-157.045 60,-157.045 60,-175.045"/>
<text text-anchor="middle" x="49.5" y="-162.945" font-family="Times,serif" font-size="9.00">1</text>
</g>
<!-- 2 -->
<g id="node3" class="node">
<title>2</title>
<polygon fill="lightgrey" stroke="black" points="99,-175.045 78,-175.045 78,-157.045 99,-157.045 99,-175.045"/>
<text text-anchor="middle" x="88.5" y="-162.945" font-family="Times,serif" font-size="9.00">2</text>
</g>
<!-- 3 -->
<g id="node4" class="node">
<title>3</title>
<polygon fill="lightgrey" stroke="black" points="139.5,-175.045 117.5,-175.045 117.5,-157.045 139.5,-157.045 139.5,-175.045"/>
<text text-anchor="middle" x="128.5" y="-162.945" font-family="Times,serif" font-size="9.00">3</text>
</g>
<!-- 4 -->
<g id="node5" class="node">
<title>4</title>
<polygon fill="lightgrey" stroke="black" points="179.5,-175.045 157.5,-175.045 157.5,-157.045 179.5,-157.045 179.5,-175.045"/>
<text text-anchor="middle" x="168.5" y="-162.945" font-family="Times,serif" font-size="9.00">4</text>
</g>
<!-- 30 -->
<g id="node31" class="node">
<title>30</title>
<ellipse fill="lightblue" stroke="lightblue" cx="168.5" cy="-91.8614" rx="19.1842" ry="19.1842"/>
<text text-anchor="middle" x="168.5" y="-88.7614" font-family="Times,serif" font-size="9.00">30</text>
</g>
<!-- 4&#45;&gt;30 -->
<g id="edge6" class="edge">
<title>4&#45;&gt;30</title>
<path fill="none" stroke="red" stroke-width="0.303466" d="M168.5,-156.949C168.5,-148.062 168.5,-134.05 168.5,-121.299"/>
<polygon fill="red" stroke="red" stroke-width="0.303466" points="172,-121.026 168.5,-111.026 165,-121.026 172,-121.026"/>
</g>
<!-- 5 -->
<g id="node6" class="node">
<title>5</title>
<polygon fill="lightgrey" stroke="black" points="219,-175.045 198,-175.045 198,-157.045 219,-157.045 219,-175.045"/>
<text text-anchor="middle" x="208.5" y="-162.945" font-family="Times,serif" font-size="9.00">5</text>
</g>
<!-- 6 -->
<g id="node7" class="node">
<title>6</title>
<polygon fill="lightgrey" stroke="black" points="258,-175.045 237,-175.045 237,-157.045 258,-157.045 258,-175.045"/>
<text text-anchor="middle" x="247.5" y="-162.945" font-family="Times,serif" font-size="9.00">6</text>
</g>
<!-- 7 -->
<g id="node8" class="node">
<title>7</title>
<polygon fill="lightgrey" stroke="black" points="298.5,-175.045 276.5,-175.045 276.5,-157.045 298.5,-157.045 298.5,-175.045"/>
<text text-anchor="middle" x="287.5" y="-162.945" font-family="Times,serif" font-size="9.00">7</text>
</g>
<!-- 8 -->
<g id="node9" class="node">
<title>8</title>
<polygon fill="lightgrey" stroke="black" points="338,-175.045 317,-175.045 317,-157.045 338,-157.045 338,-175.045"/>
<text text-anchor="middle" x="327.5" y="-162.945" font-family="Times,serif" font-size="9.00">8</text>
</g>
<!-- 9 -->
<g id="node10" class="node">
<title>9</title>
<polygon fill="lightgrey" stroke="black" points="377,-175.045 356,-175.045 356,-157.045 377,-157.045 377,-175.045"/>
<text text-anchor="middle" x="366.5" y="-162.945" font-family="Times,serif" font-size="9.00">9</text>
</g>
<!-- 10 -->
<g id="node11" class="node">
<title>10</title>
<polygon fill="lightgrey" stroke="black" points="421.5,-175.045 395.5,-175.045 395.5,-157.045 421.5,-157.045 421.5,-175.045"/>
<text text-anchor="middle" x="408.5" y="-162.945" font-family="Times,serif" font-size="9.00">10</text>
</g>
<!-- 28 -->
<g id="node29" class="node">
<title>28</title>
<ellipse fill="lightblue" stroke="lightblue" cx="430.5" cy="-91.8614" rx="18.2703" ry="18.2703"/>
<text text-anchor="middle" x="430.5" y="-88.7614" font-family="Times,serif" font-size="9.00">28</text>
</g>
<!-- 10&#45;&gt;28 -->
<g id="edge7" class="edge">
<title>10&#45;&gt;28</title>
<path fill="none" stroke="green" stroke-width="0.429651" d="M411.198,-156.949C413.977,-147.576 418.448,-132.502 422.387,-119.22"/>
<polygon fill="green" stroke="green" stroke-width="0.429651" points="425.771,-120.118 425.258,-109.536 419.06,-118.128 425.771,-120.118"/>
</g>
<!-- 11 -->
<g id="node12" class="node">
<title>11</title>
<polygon fill="lightgrey" stroke="black" points="509.5,-175.045 483.5,-175.045 483.5,-157.045 509.5,-157.045 509.5,-175.045"/>
<text text-anchor="middle" x="496.5" y="-162.945" font-family="Times,serif" font-size="9.00">11</text>
</g>
<!-- 12 -->
<g id="node13" class="node">
<title>12</title>
<polygon fill="lightgrey" stroke="black" points="465.5,-175.045 439.5,-175.045 439.5,-157.045 465.5,-157.045 465.5,-175.045"/>
<text text-anchor="middle" x="452.5" y="-162.945" font-family="Times,serif" font-size="9.00">12</text>
</g>
<!-- 12&#45;&gt;28 -->
<g id="edge4" class="edge">
<title>12&#45;&gt;28</title>
<path fill="none" stroke="green" stroke-width="0.189892" stroke-dasharray="1,5" d="M449.802,-156.949C447.023,-147.576 442.552,-132.502 438.613,-119.22"/>
<polygon fill="green" stroke="green" stroke-width="0.189892" points="441.94,-118.128 435.742,-109.536 435.229,-120.118 441.94,-118.128"/>
</g>
<!-- 13 -->
<g id="node14" class="node">
<title>13</title>
<polygon fill="lightgrey" stroke="black" points="553.5,-175.045 527.5,-175.045 527.5,-157.045 553.5,-157.045 553.5,-175.045"/>
<text text-anchor="middle" x="540.5" y="-162.945" font-family="Times,serif" font-size="9.00">13</text>
</g>
<!-- 14 -->
<g id="node15" class="node">
<title>14</title>
<polygon fill="lightgrey" stroke="black" points="597.5,-175.045 571.5,-175.045 571.5,-157.045 597.5,-157.045 597.5,-175.045"/>
<text text-anchor="middle" x="584.5" y="-162.945" font-family="Times,serif" font-size="9.00">14</text>
</g>
<!-- 15 -->
<g id="node16" class="node">
<title>15</title>
<polygon fill="lightgrey" stroke="black" points="641.5,-175.045 615.5,-175.045 615.5,-157.045 641.5,-157.045 641.5,-175.045"/>
<text text-anchor="middle" x="628.5" y="-162.945" font-family="Times,serif" font-size="9.00">15</text>
</g>
<!-- 16 -->
<g id="node17" class="node">
<title>16</title>
<polygon fill="lightgrey" stroke="black" points="685.5,-175.045 659.5,-175.045 659.5,-157.045 685.5,-157.045 685.5,-175.045"/>
<text text-anchor="middle" x="672.5" y="-162.945" font-family="Times,serif" font-size="9.00">16</text>
</g>
<!-- 26 -->
<g id="node27" class="node">
<title>26</title>
<ellipse fill="lightblue" stroke="lightblue" cx="672.5" cy="-91.8614" rx="18.2703" ry="18.2703"/>
<text text-anchor="middle" x="672.5" y="-88.7614" font-family="Times,serif" font-size="9.00">26</text>
</g>
<!-- 16&#45;&gt;26 -->
<g id="edge1" class="edge">
<title>16&#45;&gt;26</title>
<path fill="none" stroke="green" stroke-width="0.298747" d="M672.5,-156.949C672.5,-147.941 672.5,-133.668 672.5,-120.78"/>
<polygon fill="green" stroke="green" stroke-width="0.298747" points="676,-120.426 672.5,-110.426 669,-120.426 676,-120.426"/>
</g>
<!-- 17 -->
<g id="node18" class="node">
<title>17</title>
<polygon fill="lightgrey" stroke="black" points="729.5,-175.045 703.5,-175.045 703.5,-157.045 729.5,-157.045 729.5,-175.045"/>
<text text-anchor="middle" x="716.5" y="-162.945" font-family="Times,serif" font-size="9.00">17</text>
</g>
<!-- 18 -->
<g id="node19" class="node">
<title>18</title>
<polygon fill="lightgrey" stroke="black" points="773.5,-175.045 747.5,-175.045 747.5,-157.045 773.5,-157.045 773.5,-175.045"/>
<text text-anchor="middle" x="760.5" y="-162.945" font-family="Times,serif" font-size="9.00">18</text>
</g>
<!-- 19 -->
<g id="node20" class="node">
<title>19</title>
<polygon fill="lightgrey" stroke="black" points="817.5,-175.045 791.5,-175.045 791.5,-157.045 817.5,-157.045 817.5,-175.045"/>
<text text-anchor="middle" x="804.5" y="-162.945" font-family="Times,serif" font-size="9.00">19</text>
</g>
<!-- 29 -->
<g id="node30" class="node">
<title>29</title>
<ellipse fill="lightblue" stroke="lightblue" cx="803.5" cy="-18.3848" rx="18.2703" ry="18.2703"/>
<text text-anchor="middle" x="803.5" y="-15.2848" font-family="Times,serif" font-size="9.00">29</text>
</g>
<!-- 19&#45;&gt;29 -->
<g id="edge2" class="edge">
<title>19&#45;&gt;29</title>
<path fill="none" stroke="red" stroke-width="0.26013" stroke-dasharray="1,5" d="M803.392,-156.705C802.155,-145.761 800.23,-127.071 799.5,-110.953 798.732,-94.0001 798.877,-89.7287 799.5,-72.7696 799.81,-64.3212 800.391,-55.1496 801.015,-46.7872"/>
<polygon fill="red" stroke="red" stroke-width="0.26013" points="804.51,-46.9886 801.813,-36.7429 797.532,-46.4345 804.51,-46.9886"/>
</g>
<!-- 32 -->
<g id="node33" class="node">
<title>32</title>
<ellipse fill="none" stroke="black" cx="827.5" cy="-91.8614" rx="19.1842" ry="19.1842"/>
<text text-anchor="middle" x="827.5" y="-88.7614" font-family="Times,serif" font-size="9.00">32</text>
</g>
<!-- 19&#45;&gt;32 -->
<g id="edge3" class="edge">
<title>19&#45;&gt;32</title>
<path fill="none" stroke="green" stroke-width="0.386759" d="M807.32,-156.949C810.188,-147.7 814.777,-132.898 818.855,-119.745"/>
<polygon fill="green" stroke="green" stroke-width="0.386759" points="822.218,-120.716 821.837,-110.128 815.532,-118.643 822.218,-120.716"/>
</g>
<!-- 20 -->
<g id="node21" class="node">
<title>20</title>
<polygon fill="lightgrey" stroke="black" points="861.5,-175.045 835.5,-175.045 835.5,-157.045 861.5,-157.045 861.5,-175.045"/>
<text text-anchor="middle" x="848.5" y="-162.945" font-family="Times,serif" font-size="9.00">20</text>
</g>
<!-- 21 -->
<g id="node22" class="node">
<title>21</title>
<polygon fill="lightgrey" stroke="black" points="905.5,-175.045 879.5,-175.045 879.5,-157.045 905.5,-157.045 905.5,-175.045"/>
<text text-anchor="middle" x="892.5" y="-162.945" font-family="Times,serif" font-size="9.00">21</text>
</g>
<!-- 22 -->
<g id="node23" class="node">
<title>22</title>
<polygon fill="lightgrey" stroke="black" points="949.5,-175.045 923.5,-175.045 923.5,-157.045 949.5,-157.045 949.5,-175.045"/>
<text text-anchor="middle" x="936.5" y="-162.945" font-family="Times,serif" font-size="9.00">22</text>
</g>
<!-- 23 -->
<g id="node24" class="node">
<title>23</title>
<polygon fill="lightgrey" stroke="black" points="993.5,-175.045 967.5,-175.045 967.5,-157.045 993.5,-157.045 993.5,-175.045"/>
<text text-anchor="middle" x="980.5" y="-162.945" font-family="Times,serif" font-size="9.00">23</text>
</g>
<!-- 24 -->
<g id="node25" class="node">
<title>24</title>
<ellipse fill="lightblue" stroke="lightblue" cx="1029.5" cy="-166.045" rx="18.2703" ry="18.2703"/>
<text text-anchor="middle" x="1029.5" y="-162.945" font-family="Times,serif" font-size="9.00">24</text>
</g>
<!-- 25 -->
<g id="node26" class="node">
<title>25</title>
<ellipse fill="lightblue" stroke="lightblue" cx="1084.5" cy="-166.045" rx="18.2703" ry="18.2703"/>
<text text-anchor="middle" x="1084.5" y="-162.945" font-family="Times,serif" font-size="9.00">25</text>
</g>
<!-- 27 -->
<g id="node28" class="node">
<title>27</title>
<ellipse fill="lightblue" stroke="lightblue" cx="1139.5" cy="-166.045" rx="18.2703" ry="18.2703"/>
<text text-anchor="middle" x="1139.5" y="-162.945" font-family="Times,serif" font-size="9.00">27</text>
</g>
<!-- 31 -->
<g id="node32" class="node">
<title>31</title>
<ellipse fill="lightblue" stroke="lightblue" cx="1194.5" cy="-166.045" rx="19.1842" ry="19.1842"/>
<text text-anchor="middle" x="1194.5" y="-162.945" font-family="Times,serif" font-size="9.00">31</text>
</g>
<!-- 32&#45;&gt;29 -->
<g id="edge5" class="edge">
<title>32&#45;&gt;29</title>
<path fill="none" stroke="green" stroke-width="0.777243" d="M821.567,-73.6987C818.815,-65.2723 815.485,-55.0766 812.437,-45.7459"/>
<polygon fill="green" stroke="green" stroke-width="0.777243" points="815.714,-44.5041 809.282,-36.0851 809.059,-46.6776 815.714,-44.5041"/>
</g>
</g>
</svg>
