<?xml version="1.0" encoding="UTF-8" standalone="no"?>
<!DOCTYPE svg PUBLIC "-//W3C//DTD SVG 1.1//EN"
 "http://www.w3.org/Graphics/SVG/1.1/DTD/svg11.dtd">
<!-- Generated by graphviz version 2.39.20160104.1625 (20160104.1625)
 -->
<!-- Title: %3 Pages: 1 -->
<svg width="1013pt" height="317pt"
 viewBox="0.00 0.00 1013.38 317.08" xmlns="http://www.w3.org/2000/svg" xmlns:xlink="http://www.w3.org/1999/xlink">
<g id="graph0" class="graph" transform="scale(1 1) rotate(0) translate(4 313.078)">
<title>%3</title>
<polygon fill="white" stroke="transparent" points="-4,4 -4,-313.078 1009.38,-313.078 1009.38,4 -4,4"/>
<!-- 0 -->
<g id="node1" class="node">
<title>0</title>
<polygon fill="lightgrey" stroke="black" points="51.8848,-172.924 30.8848,-172.924 30.8848,-154.924 51.8848,-154.924 51.8848,-172.924"/>
<text text-anchor="middle" x="41.3848" y="-160.824" font-family="Times,serif" font-size="9.00">0</text>
</g>
<!-- 22 -->
<g id="node23" class="node">
<title>22</title>
<ellipse fill="lightblue" stroke="lightblue" cx="182.385" cy="-18.3848" rx="18.2703" ry="18.2703"/>
<text text-anchor="middle" x="182.385" y="-15.2848" font-family="Times,serif" font-size="9.00">22</text>
</g>
<!-- 0&#45;&gt;22 -->
<g id="edge2" class="edge">
<title>0&#45;&gt;22</title>
<path fill="none" stroke="red" stroke-width="0.502511" d="M44.1272,-154.875C49.8529,-137.232 64.5587,-97.7789 88.3848,-72.7696 107.272,-52.9439 134.984,-38.1094 155.428,-28.9837"/>
<polygon fill="red" stroke="red" stroke-width="0.502511" points="156.995,-32.12 164.81,-24.9656 154.239,-25.6853 156.995,-32.12"/>
</g>
<!-- 27 -->
<g id="node28" class="node">
<title>27</title>
<ellipse fill="none" stroke="black" cx="18.3848" cy="-91.1543" rx="18.2703" ry="18.2703"/>
<text text-anchor="middle" x="18.3848" y="-88.0543" font-family="Times,serif" font-size="9.00">27</text>
</g>
<!-- 0&#45;&gt;27 -->
<g id="edge9" class="edge">
<title>0&#45;&gt;27</title>
<path fill="none" stroke="red" stroke-width="0.884676" d="M38.4718,-154.708C35.6104,-145.654 31.1011,-131.387 27.0793,-118.663"/>
<polygon fill="red" stroke="red" stroke-width="0.884676" points="30.3503,-117.398 23.9993,-108.918 23.6758,-119.508 30.3503,-117.398"/>
</g>
<!-- 1 -->
<g id="node2" class="node">
<title>1</title>
<polygon fill="lightgrey" stroke="black" points="797.885,-245.693 776.885,-245.693 776.885,-227.693 797.885,-227.693 797.885,-245.693"/>
<text text-anchor="middle" x="787.385" y="-233.593" font-family="Times,serif" font-size="9.00">1</text>
</g>
<!-- 24 -->
<g id="node25" class="node">
<title>24</title>
<ellipse fill="lightblue" stroke="lightblue" cx="460.385" cy="-18.3848" rx="18.2703" ry="18.2703"/>
<text text-anchor="middle" x="460.385" y="-15.2848" font-family="Times,serif" font-size="9.00">24</text>
</g>
<!-- 1&#45;&gt;24 -->
<g id="edge3" class="edge">
<title>1&#45;&gt;24</title>
<path fill="none" stroke="red" stroke-width="0.240586" d="M785.052,-227.616C780.415,-210.587 768.944,-173.087 751.385,-145.539 727.428,-107.955 720.927,-95.1513 682.385,-72.7696 619.616,-36.3195 533.206,-24.1925 488.986,-20.2391"/>
<polygon fill="red" stroke="red" stroke-width="0.240586" points="489.196,-16.7447 478.945,-19.4188 488.626,-23.7215 489.196,-16.7447"/>
</g>
<!-- 25 -->
<g id="node26" class="node">
<title>25</title>
<ellipse fill="none" stroke="black" cx="660.385" cy="-163.924" rx="18.2703" ry="18.2703"/>
<text text-anchor="middle" x="660.385" y="-160.824" font-family="Times,serif" font-size="9.00">25</text>
</g>
<!-- 1&#45;&gt;25 -->
<g id="edge24" class="edge">
<title>1&#45;&gt;25</title>
<path fill="none" stroke="red" stroke-width="0.237782" d="M778.542,-227.426C775.235,-224.279 771.322,-220.906 767.385,-218.309 734.838,-196.84 721.407,-201.354 687.385,-182.309 686.271,-181.685 685.145,-181.03 684.017,-180.352"/>
<polygon fill="red" stroke="red" stroke-width="0.237782" points="685.818,-177.349 675.509,-174.902 682.042,-183.243 685.818,-177.349"/>
</g>
<!-- 2 -->
<g id="node3" class="node">
<title>2</title>
<polygon fill="lightgrey" stroke="black" points="565.885,-245.693 544.885,-245.693 544.885,-227.693 565.885,-227.693 565.885,-245.693"/>
<text text-anchor="middle" x="555.385" y="-233.593" font-family="Times,serif" font-size="9.00">2</text>
</g>
<!-- 2&#45;&gt;22 -->
<g id="edge25" class="edge">
<title>2&#45;&gt;22</title>
<path fill="none" stroke="red" stroke-width="0.339883" d="M544.786,-227.862C512.779,-201.511 413.63,-122.211 321.385,-72.7696 284.363,-52.9269 238.497,-36.4084 209.829,-26.9598"/>
<polygon fill="red" stroke="red" stroke-width="0.339883" points="210.686,-23.5582 200.094,-23.8055 208.528,-30.2174 210.686,-23.5582"/>
</g>
<!-- 2&#45;&gt;25 -->
<g id="edge33" class="edge">
<title>2&#45;&gt;25</title>
<path fill="none" stroke="red" stroke-width="0.622617" d="M566.226,-229.18C582.713,-217.754 614.497,-195.726 636.549,-180.443"/>
<polygon fill="red" stroke="red" stroke-width="0.622617" points="638.819,-183.128 645.045,-174.555 634.832,-177.375 638.819,-183.128"/>
</g>
<!-- 3 -->
<g id="node4" class="node">
<title>3</title>
<polygon fill="lightgrey" stroke="black" points="749.385,-309.078 727.385,-309.078 727.385,-291.078 749.385,-291.078 749.385,-309.078"/>
<text text-anchor="middle" x="738.385" y="-296.978" font-family="Times,serif" font-size="9.00">3</text>
</g>
<!-- 4 -->
<g id="node5" class="node">
<title>4</title>
<polygon fill="lightgrey" stroke="black" points="273.385,-245.693 251.385,-245.693 251.385,-227.693 273.385,-227.693 273.385,-245.693"/>
<text text-anchor="middle" x="262.385" y="-233.593" font-family="Times,serif" font-size="9.00">4</text>
</g>
<!-- 23 -->
<g id="node24" class="node">
<title>23</title>
<ellipse fill="lightblue" stroke="lightblue" cx="262.385" cy="-163.924" rx="18.2703" ry="18.2703"/>
<text text-anchor="middle" x="262.385" y="-160.824" font-family="Times,serif" font-size="9.00">23</text>
</g>
<!-- 4&#45;&gt;23 -->
<g id="edge31" class="edge">
<title>4&#45;&gt;23</title>
<path fill="none" stroke="green" stroke-width="0.999921" d="M262.385,-227.477C262.385,-218.693 262.385,-205 262.385,-192.57"/>
<polygon fill="green" stroke="green" stroke-width="0.999921" points="265.885,-192.562 262.385,-182.562 258.885,-192.562 265.885,-192.562"/>
</g>
<!-- 5 -->
<g id="node6" class="node">
<title>5</title>
<polygon fill="lightgrey" stroke="black" points="148.885,-245.693 127.885,-245.693 127.885,-227.693 148.885,-227.693 148.885,-245.693"/>
<text text-anchor="middle" x="138.385" y="-233.593" font-family="Times,serif" font-size="9.00">5</text>
</g>
<!-- 5&#45;&gt;22 -->
<g id="edge34" class="edge">
<title>5&#45;&gt;22</title>
<path fill="none" stroke="green" stroke-width="0.675905" d="M134.84,-227.331C125.639,-201.485 103.271,-127.437 126.385,-72.7696 132.989,-57.1507 146.515,-43.8076 158.619,-34.2469"/>
<polygon fill="green" stroke="green" stroke-width="0.675905" points="160.741,-37.0313 166.67,-28.2508 156.559,-31.4174 160.741,-37.0313"/>
</g>
<!-- 5&#45;&gt;23 -->
<g id="edge18" class="edge">
<title>5&#45;&gt;23</title>
<path fill="none" stroke="red" stroke-width="0.438108" d="M148.957,-230.489C168.446,-219.052 210.515,-194.363 237.581,-178.48"/>
<polygon fill="red" stroke="red" stroke-width="0.438108" points="239.614,-181.345 246.467,-173.265 236.071,-175.308 239.614,-181.345"/>
</g>
<!-- 6 -->
<g id="node7" class="node">
<title>6</title>
<polygon fill="lightgrey" stroke="black" points="470.885,-245.693 449.885,-245.693 449.885,-227.693 470.885,-227.693 470.885,-245.693"/>
<text text-anchor="middle" x="460.385" y="-233.593" font-family="Times,serif" font-size="9.00">6</text>
</g>
<!-- 20 -->
<g id="node21" class="node">
<title>20</title>
<ellipse fill="lightblue" stroke="lightblue" cx="637.385" cy="-91.1543" rx="18.2703" ry="18.2703"/>
<text text-anchor="middle" x="637.385" y="-88.0543" font-family="Times,serif" font-size="9.00">20</text>
</g>
<!-- 6&#45;&gt;20 -->
<g id="edge30" class="edge">
<title>6&#45;&gt;20</title>
<path fill="none" stroke="green" stroke-width="0.536022" d="M471.164,-234.789C495.31,-230.023 554.433,-215.499 590.385,-182.309 609.187,-164.951 621.691,-138.353 629.043,-118.361"/>
<polygon fill="green" stroke="green" stroke-width="0.536022" points="632.364,-119.465 632.333,-108.87 625.75,-117.172 632.364,-119.465"/>
</g>
<!-- 6&#45;&gt;23 -->
<g id="edge13" class="edge">
<title>6&#45;&gt;23</title>
<path fill="none" stroke="red" stroke-width="0.2204" stroke-dasharray="1,5" d="M449.777,-231.779C441.342,-227.937 429.202,-222.555 418.385,-218.309 374.008,-200.891 321.495,-183.165 290.118,-172.874"/>
<polygon fill="red" stroke="red" stroke-width="0.2204" points="290.922,-169.454 280.329,-169.68 288.75,-176.109 290.922,-169.454"/>
</g>
<!-- 6&#45;&gt;24 -->
<g id="edge14" class="edge">
<title>6&#45;&gt;24</title>
<path fill="none" stroke="red" stroke-width="0.450769" d="M460.385,-227.591C460.385,-196.993 460.385,-96.974 460.385,-47.1398"/>
<polygon fill="red" stroke="red" stroke-width="0.450769" points="463.885,-47.0278 460.385,-37.0279 456.885,-47.0279 463.885,-47.0278"/>
</g>
<!-- 7 -->
<g id="node8" class="node">
<title>7</title>
<polygon fill="lightgrey" stroke="black" points="789.385,-309.078 767.385,-309.078 767.385,-291.078 789.385,-291.078 789.385,-309.078"/>
<text text-anchor="middle" x="778.385" y="-296.978" font-family="Times,serif" font-size="9.00">7</text>
</g>
<!-- 8 -->
<g id="node9" class="node">
<title>8</title>
<polygon fill="lightgrey" stroke="black" points="547.885,-172.924 526.885,-172.924 526.885,-154.924 547.885,-154.924 547.885,-172.924"/>
<text text-anchor="middle" x="537.385" y="-160.824" font-family="Times,serif" font-size="9.00">8</text>
</g>
<!-- 8&#45;&gt;24 -->
<g id="edge22" class="edge">
<title>8&#45;&gt;24</title>
<path fill="none" stroke="green" stroke-width="1.77918" stroke-dasharray="1,5" d="M539.429,-154.72C542.754,-137.482 547.623,-99.6451 533.385,-72.7696 523.304,-53.7407 503.273,-39.5612 486.741,-30.4598"/>
<polygon fill="green" stroke="green" stroke-width="1.77918" points="488.003,-27.1723 477.513,-25.6895 484.789,-33.3907 488.003,-27.1723"/>
</g>
<!-- 26 -->
<g id="node27" class="node">
<title>26</title>
<ellipse fill="none" stroke="black" cx="506.385" cy="-91.1543" rx="18.2703" ry="18.2703"/>
<text text-anchor="middle" x="506.385" y="-88.0543" font-family="Times,serif" font-size="9.00">26</text>
</g>
<!-- 8&#45;&gt;26 -->
<g id="edge28" class="edge">
<title>8&#45;&gt;26</title>
<path fill="none" stroke="green" stroke-width="0.472682" d="M533.459,-154.708C529.512,-145.443 523.239,-130.718 517.725,-117.774"/>
<polygon fill="green" stroke="green" stroke-width="0.472682" points="520.846,-116.17 513.707,-108.342 514.406,-118.914 520.846,-116.17"/>
</g>
<!-- 9 -->
<g id="node10" class="node">
<title>9</title>
<polygon fill="lightgrey" stroke="black" points="828.885,-309.078 807.885,-309.078 807.885,-291.078 828.885,-291.078 828.885,-309.078"/>
<text text-anchor="middle" x="818.385" y="-296.978" font-family="Times,serif" font-size="9.00">9</text>
</g>
<!-- 10 -->
<g id="node11" class="node">
<title>10</title>
<polygon fill="lightgrey" stroke="black" points="347.385,-245.693 321.385,-245.693 321.385,-227.693 347.385,-227.693 347.385,-245.693"/>
<text text-anchor="middle" x="334.385" y="-233.593" font-family="Times,serif" font-size="9.00">10</text>
</g>
<!-- 10&#45;&gt;23 -->
<g id="edge15" class="edge">
<title>10&#45;&gt;23</title>
<path fill="none" stroke="green" stroke-width="0.430539" d="M325.266,-227.477C314.602,-216.699 296.627,-198.532 282.62,-184.375"/>
<polygon fill="green" stroke="green" stroke-width="0.430539" points="284.839,-181.642 275.318,-176.995 279.863,-186.566 284.839,-181.642"/>
</g>
<!-- 10&#45;&gt;24 -->
<g id="edge11" class="edge">
<title>10&#45;&gt;24</title>
<path fill="none" stroke="red" stroke-width="0.564553" stroke-dasharray="1,5" d="M339.638,-227.591C357.759,-196.195 418.063,-91.7121 445.978,-43.3469"/>
<polygon fill="red" stroke="red" stroke-width="0.564553" points="449.139,-44.8709 451.107,-34.4604 443.076,-41.3717 449.139,-44.8709"/>
</g>
<!-- 11 -->
<g id="node12" class="node">
<title>11</title>
<polygon fill="lightgrey" stroke="black" points="873.385,-309.078 847.385,-309.078 847.385,-291.078 873.385,-291.078 873.385,-309.078"/>
<text text-anchor="middle" x="860.385" y="-296.978" font-family="Times,serif" font-size="9.00">11</text>
</g>
<!-- 12 -->
<g id="node13" class="node">
<title>12</title>
<polygon fill="lightgrey" stroke="black" points="409.385,-245.693 383.385,-245.693 383.385,-227.693 409.385,-227.693 409.385,-245.693"/>
<text text-anchor="middle" x="396.385" y="-233.593" font-family="Times,serif" font-size="9.00">12</text>
</g>
<!-- 12&#45;&gt;20 -->
<g id="edge12" class="edge">
<title>12&#45;&gt;20</title>
<path fill="none" stroke="green" stroke-width="0.350155" stroke-dasharray="1,5" d="M409.734,-230.727C418.391,-226.955 429.957,-222.096 440.385,-218.309 491.124,-199.882 511.014,-211.558 556.385,-182.309 560.235,-179.827 595.91,-139.028 618.613,-112.862"/>
<polygon fill="green" stroke="green" stroke-width="0.350155" points="621.288,-115.119 625.192,-105.27 615.998,-110.535 621.288,-115.119"/>
</g>
<!-- 21 -->
<g id="node22" class="node">
<title>21</title>
<ellipse fill="lightblue" stroke="lightblue" cx="262.385" cy="-91.1543" rx="18.2703" ry="18.2703"/>
<text text-anchor="middle" x="262.385" y="-88.0543" font-family="Times,serif" font-size="9.00">21</text>
</g>
<!-- 12&#45;&gt;21 -->
<g id="edge1" class="edge">
<title>12&#45;&gt;21</title>
<path fill="none" stroke="green" stroke-width="1.55751" d="M388.002,-227.589C366.98,-204.757 311.578,-144.584 281.867,-112.314"/>
<polygon fill="green" stroke="green" stroke-width="1.55751" points="284.251,-109.736 274.903,-104.75 279.101,-114.478 284.251,-109.736"/>
</g>
<!-- 12&#45;&gt;22 -->
<g id="edge19" class="edge">
<title>12&#45;&gt;22</title>
<path fill="none" stroke="red" stroke-width="1.09643" d="M392.707,-227.568C381.334,-200.395 344.17,-119.038 289.385,-72.7696 265.393,-52.5076 232.569,-37.2548 209.625,-28.1351"/>
<polygon fill="red" stroke="red" stroke-width="1.09643" points="210.739,-24.8136 200.149,-24.493 208.227,-31.3476 210.739,-24.8136"/>
</g>
<!-- 12&#45;&gt;23 -->
<g id="edge36" class="edge">
<title>12&#45;&gt;23</title>
<path fill="none" stroke="green" stroke-width="0.205092" d="M383.109,-229.786C363.576,-219.585 325.987,-199.806 294.385,-182.309 291.997,-180.987 289.518,-179.596 287.045,-178.195"/>
<polygon fill="green" stroke="green" stroke-width="0.205092" points="288.699,-175.11 278.28,-173.188 285.227,-181.188 288.699,-175.11"/>
</g>
<!-- 12&#45;&gt;24 -->
<g id="edge35" class="edge">
<title>12&#45;&gt;24</title>
<path fill="none" stroke="green" stroke-width="0.172289" d="M399.053,-227.591C408.109,-196.702 437.903,-95.0708 452.366,-45.7357"/>
<polygon fill="green" stroke="green" stroke-width="0.172289" points="455.752,-46.627 455.207,-36.0462 449.035,-44.6577 455.752,-46.627"/>
</g>
<!-- 12&#45;&gt;25 -->
<g id="edge8" class="edge">
<title>12&#45;&gt;25</title>
<path fill="none" stroke="green" stroke-width="0.293783" d="M409.654,-230.493C418.278,-226.628 429.839,-221.753 440.385,-218.309 505.557,-197.024 523.892,-199.018 590.385,-182.309 604.424,-178.781 620.003,-174.705 632.893,-171.289"/>
<polygon fill="green" stroke="green" stroke-width="0.293783" points="633.81,-174.667 642.574,-168.714 632.01,-167.902 633.81,-174.667"/>
</g>
<!-- 13 -->
<g id="node14" class="node">
<title>13</title>
<polygon fill="lightgrey" stroke="black" points="917.385,-309.078 891.385,-309.078 891.385,-291.078 917.385,-291.078 917.385,-309.078"/>
<text text-anchor="middle" x="904.385" y="-296.978" font-family="Times,serif" font-size="9.00">13</text>
</g>
<!-- 14 -->
<g id="node15" class="node">
<title>14</title>
<polygon fill="lightgrey" stroke="black" points="722.385,-172.924 696.385,-172.924 696.385,-154.924 722.385,-154.924 722.385,-172.924"/>
<text text-anchor="middle" x="709.385" y="-160.824" font-family="Times,serif" font-size="9.00">14</text>
</g>
<!-- 14&#45;&gt;20 -->
<g id="edge16" class="edge">
<title>14&#45;&gt;20</title>
<path fill="none" stroke="green" stroke-width="0.191596" d="M700.266,-154.708C689.602,-143.93 671.627,-125.763 657.62,-111.606"/>
<polygon fill="green" stroke="green" stroke-width="0.191596" points="659.839,-108.873 650.318,-104.226 654.863,-113.796 659.839,-108.873"/>
</g>
<!-- 15 -->
<g id="node16" class="node">
<title>15</title>
<polygon fill="lightgrey" stroke="black" points="709.385,-309.078 683.385,-309.078 683.385,-291.078 709.385,-291.078 709.385,-309.078"/>
<text text-anchor="middle" x="696.385" y="-296.978" font-family="Times,serif" font-size="9.00">15</text>
</g>
<!-- 15&#45;&gt;24 -->
<g id="edge23" class="edge">
<title>15&#45;&gt;24</title>
<path fill="none" stroke="red" stroke-width="0.140357" stroke-dasharray="1,5" d="M709.41,-294.74C712.36,-293.533 715.48,-292.26 718.385,-291.078 757.909,-275 783.532,-290.457 807.385,-255.078 857.79,-180.317 794.715,-120.766 718.385,-72.7696 680.171,-48.7407 547.707,-29.457 488.896,-21.8688"/>
<polygon fill="red" stroke="red" stroke-width="0.140357" points="489.172,-18.3759 478.811,-20.5895 488.291,-25.3202 489.172,-18.3759"/>
</g>
<!-- 15&#45;&gt;25 -->
<g id="edge27" class="edge">
<title>15&#45;&gt;25</title>
<path fill="none" stroke="green" stroke-width="0.861324" stroke-dasharray="1,5" d="M689.287,-291.02C682.898,-282.331 673.848,-268.572 669.385,-255.078 662.706,-234.885 660.549,-210.91 660.013,-192.617"/>
<polygon fill="green" stroke="green" stroke-width="0.861324" points="663.512,-192.521 659.862,-182.575 656.512,-192.626 663.512,-192.521"/>
</g>
<!-- 28 -->
<g id="node29" class="node">
<title>28</title>
<ellipse fill="none" stroke="black" cx="696.385" cy="-236.693" rx="18.2703" ry="18.2703"/>
<text text-anchor="middle" x="696.385" y="-233.593" font-family="Times,serif" font-size="9.00">28</text>
</g>
<!-- 15&#45;&gt;28 -->
<g id="edge29" class="edge">
<title>15&#45;&gt;28</title>
<path fill="none" stroke="red" stroke-width="0.285465" d="M696.385,-290.997C696.385,-284.232 696.385,-274.599 696.385,-265.32"/>
<polygon fill="red" stroke="red" stroke-width="0.285465" points="699.885,-265.165 696.385,-255.165 692.885,-265.165 699.885,-265.165"/>
</g>
<!-- 16 -->
<g id="node17" class="node">
<title>16</title>
<polygon fill="lightgrey" stroke="black" points="961.385,-309.078 935.385,-309.078 935.385,-291.078 961.385,-291.078 961.385,-309.078"/>
<text text-anchor="middle" x="948.385" y="-296.978" font-family="Times,serif" font-size="9.00">16</text>
</g>
<!-- 17 -->
<g id="node18" class="node">
<title>17</title>
<polygon fill="lightgrey" stroke="black" points="758.385,-245.693 732.385,-245.693 732.385,-227.693 758.385,-227.693 758.385,-245.693"/>
<text text-anchor="middle" x="745.385" y="-233.593" font-family="Times,serif" font-size="9.00">17</text>
</g>
<!-- 17&#45;&gt;20 -->
<g id="edge10" class="edge">
<title>17&#45;&gt;20</title>
<path fill="none" stroke="green" stroke-width="0.479847" stroke-dasharray="1,5" d="M746.426,-227.485C747.922,-209.907 748.816,-171.054 731.385,-145.539 715.593,-122.423 686.497,-107.826 664.842,-99.643"/>
<polygon fill="green" stroke="green" stroke-width="0.479847" points="665.791,-96.2661 655.196,-96.2291 663.456,-102.865 665.791,-96.2661"/>
</g>
<!-- 17&#45;&gt;25 -->
<g id="edge40" class="edge">
<title>17&#45;&gt;25</title>
<path fill="none" stroke="red" stroke-width="0.412065" d="M734.619,-227.477C721.49,-216.237 698.972,-196.959 682.171,-182.576"/>
<polygon fill="red" stroke="red" stroke-width="0.412065" points="684.322,-179.809 674.449,-175.965 679.769,-185.127 684.322,-179.809"/>
</g>
<!-- 18 -->
<g id="node19" class="node">
<title>18</title>
<polygon fill="lightgrey" stroke="black" points="210.385,-245.693 184.385,-245.693 184.385,-227.693 210.385,-227.693 210.385,-245.693"/>
<text text-anchor="middle" x="197.385" y="-233.593" font-family="Times,serif" font-size="9.00">18</text>
</g>
<!-- 18&#45;&gt;20 -->
<g id="edge38" class="edge">
<title>18&#45;&gt;20</title>
<path fill="none" stroke="red" stroke-width="0.32455" d="M198.219,-227.649C200.469,-208.916 208.455,-165.927 235.385,-145.539 288.566,-105.276 467.406,-119.349 533.385,-109.539 559.022,-105.727 588.057,-100.52 608.92,-96.6197"/>
<polygon fill="red" stroke="red" stroke-width="0.32455" points="609.846,-100.007 619.024,-94.7138 608.548,-93.1281 609.846,-100.007"/>
</g>
<!-- 18&#45;&gt;21 -->
<g id="edge17" class="edge">
<title>18&#45;&gt;21</title>
<path fill="none" stroke="red" stroke-width="0.108331" d="M195.712,-227.602C193.028,-210.549 189.296,-173.011 202.385,-145.539 210.049,-129.452 224.833,-115.963 237.807,-106.443"/>
<polygon fill="red" stroke="red" stroke-width="0.108331" points="240.158,-109.072 246.39,-100.503 236.175,-103.316 240.158,-109.072"/>
</g>
<!-- 18&#45;&gt;23 -->
<g id="edge21" class="edge">
<title>18&#45;&gt;23</title>
<path fill="none" stroke="green" stroke-width="1.04567" d="M205.617,-227.477C214.984,-216.991 230.598,-199.51 243.083,-185.533"/>
<polygon fill="green" stroke="green" stroke-width="1.04567" points="245.95,-187.578 250.001,-177.788 240.729,-182.914 245.95,-187.578"/>
</g>
<!-- 18&#45;&gt;24 -->
<g id="edge6" class="edge">
<title>18&#45;&gt;24</title>
<path fill="none" stroke="green" stroke-width="0.112701" d="M194.657,-227.688C190.073,-211.089 182.097,-174.7 190.385,-145.539 200.781,-108.961 204.593,-95.0823 235.385,-72.7696 266.819,-49.9917 378.946,-30.6205 432.075,-22.4862"/>
<polygon fill="green" stroke="green" stroke-width="0.112701" points="432.802,-25.9163 442.17,-20.9676 431.76,-18.9942 432.802,-25.9163"/>
</g>
<!-- 19 -->
<g id="node20" class="node">
<title>19</title>
<polygon fill="lightgrey" stroke="black" points="1005.38,-309.078 979.385,-309.078 979.385,-291.078 1005.38,-291.078 1005.38,-309.078"/>
<text text-anchor="middle" x="992.385" y="-296.978" font-family="Times,serif" font-size="9.00">19</text>
</g>
<!-- 20&#45;&gt;20 -->
<g id="edge7" class="edge">
<title>20&#45;&gt;20</title>
<path fill="none" stroke="red" stroke-width="0.230875" stroke-dasharray="1,5" d="M651.577,-102.911C662.564,-107.308 673.77,-103.389 673.77,-91.1543 673.77,-82.7432 668.473,-78.2625 661.592,-77.7121"/>
<polygon fill="red" stroke="red" stroke-width="0.230875" points="660.857,-74.2866 651.577,-79.3979 662.019,-81.1895 660.857,-74.2866"/>
</g>
<!-- 21&#45;&gt;22 -->
<g id="edge26" class="edge">
<title>21&#45;&gt;22</title>
<path fill="none" stroke="green" stroke-width="0.537142" d="M248.45,-78.4788C236.061,-67.2094 217.763,-50.5652 203.563,-37.6492"/>
<polygon fill="green" stroke="green" stroke-width="0.537142" points="205.913,-35.0548 196.16,-30.915 201.202,-40.233 205.913,-35.0548"/>
</g>
<!-- 21&#45;&gt;24 -->
<g id="edge39" class="edge">
<title>21&#45;&gt;24</title>
<path fill="none" stroke="green" stroke-width="0.21501" stroke-dasharray="1,5" d="M279.956,-84.6965C314.668,-71.9391 392.232,-43.4324 433.445,-28.2859"/>
<polygon fill="green" stroke="green" stroke-width="0.21501" points="434.674,-31.563 442.853,-24.8281 432.259,-24.9927 434.674,-31.563"/>
</g>
<!-- 23&#45;&gt;21 -->
<g id="edge32" class="edge">
<title>23&#45;&gt;21</title>
<path fill="none" stroke="green" stroke-width="0.310955" d="M262.385,-145.184C262.385,-137.4 262.385,-128.194 262.385,-119.608"/>
<polygon fill="green" stroke="green" stroke-width="0.310955" points="265.885,-119.579 262.385,-109.579 258.885,-119.579 265.885,-119.579"/>
</g>
<!-- 25&#45;&gt;20 -->
<g id="edge4" class="edge">
<title>25&#45;&gt;20</title>
<path fill="none" stroke="red" stroke-width="0.627881" d="M654.817,-146.308C652.181,-137.968 648.972,-127.816 646.03,-118.506"/>
<polygon fill="red" stroke="red" stroke-width="0.627881" points="649.332,-117.34 642.981,-108.86 642.657,-119.45 649.332,-117.34"/>
</g>
<!-- 26&#45;&gt;24 -->
<g id="edge5" class="edge">
<title>26&#45;&gt;24</title>
<path fill="none" stroke="red" stroke-width="0.159958" d="M496.403,-75.3644C490.376,-65.8286 482.569,-53.4786 475.765,-42.7153"/>
<polygon fill="red" stroke="red" stroke-width="0.159958" points="478.648,-40.7265 470.347,-34.1439 472.731,-44.4668 478.648,-40.7265"/>
</g>
<!-- 27&#45;&gt;22 -->
<g id="edge20" class="edge">
<title>27&#45;&gt;22</title>
<path fill="none" stroke="green" stroke-width="0.34218" d="M34.1142,-81.5726C39.2271,-78.606 44.9778,-75.4225 50.3848,-72.7696 85.9,-55.3438 128.441,-38.5066 155.441,-28.2978"/>
<polygon fill="green" stroke="green" stroke-width="0.34218" points="156.845,-31.5092 164.981,-24.7223 154.389,-24.9544 156.845,-31.5092"/>
</g>
<!-- 28&#45;&gt;25 -->
<g id="edge37" class="edge">
<title>28&#45;&gt;25</title>
<path fill="none" stroke="red" stroke-width="0.446701" d="M688.216,-220.181C683.783,-211.22 678.201,-199.938 673.203,-189.835"/>
<polygon fill="red" stroke="red" stroke-width="0.446701" points="676.217,-188.034 668.646,-180.623 669.943,-191.138 676.217,-188.034"/>
</g>
</g>
</svg>
