<?xml version="1.0" encoding="UTF-8" standalone="no"?>
<!DOCTYPE svg PUBLIC "-//W3C//DTD SVG 1.1//EN"
 "http://www.w3.org/Graphics/SVG/1.1/DTD/svg11.dtd">
<!-- Generated by graphviz version 2.39.20160104.1625 (20160104.1625)
 -->
<!-- Title: %3 Pages: 1 -->
<svg width="951pt" height="190pt"
 viewBox="0.00 0.00 950.88 190.31" xmlns="http://www.w3.org/2000/svg" xmlns:xlink="http://www.w3.org/1999/xlink">
<g id="graph0" class="graph" transform="scale(1 1) rotate(0) translate(4 186.309)">
<title>%3</title>
<polygon fill="white" stroke="transparent" points="-4,4 -4,-186.309 946.885,-186.309 946.885,4 -4,4"/>
<!-- 0 -->
<g id="node1" class="node">
<title>0</title>
<polygon fill="lightgrey" stroke="black" points="21,-172.924 0,-172.924 0,-154.924 21,-154.924 21,-172.924"/>
<text text-anchor="middle" x="10.5" y="-160.824" font-family="Times,serif" font-size="9.00">0</text>
</g>
<!-- 1 -->
<g id="node2" class="node">
<title>1</title>
<polygon fill="lightgrey" stroke="black" points="60,-172.924 39,-172.924 39,-154.924 60,-154.924 60,-172.924"/>
<text text-anchor="middle" x="49.5" y="-160.824" font-family="Times,serif" font-size="9.00">1</text>
</g>
<!-- 2 -->
<g id="node3" class="node">
<title>2</title>
<polygon fill="lightgrey" stroke="black" points="99,-172.924 78,-172.924 78,-154.924 99,-154.924 99,-172.924"/>
<text text-anchor="middle" x="88.5" y="-160.824" font-family="Times,serif" font-size="9.00">2</text>
</g>
<!-- 3 -->
<g id="node4" class="node">
<title>3</title>
<polygon fill="lightgrey" stroke="black" points="139.5,-172.924 117.5,-172.924 117.5,-154.924 139.5,-154.924 139.5,-172.924"/>
<text text-anchor="middle" x="128.5" y="-160.824" font-family="Times,serif" font-size="9.00">3</text>
</g>
<!-- 4 -->
<g id="node5" class="node">
<title>4</title>
<polygon fill="lightgrey" stroke="black" points="179.5,-172.924 157.5,-172.924 157.5,-154.924 179.5,-154.924 179.5,-172.924"/>
<text text-anchor="middle" x="168.5" y="-160.824" font-family="Times,serif" font-size="9.00">4</text>
</g>
<!-- 23 -->
<g id="node24" class="node">
<title>23</title>
<ellipse fill="lightblue" stroke="lightblue" cx="293.5" cy="-91.1543" rx="18.2703" ry="18.2703"/>
<text text-anchor="middle" x="293.5" y="-88.0543" font-family="Times,serif" font-size="9.00">23</text>
</g>
<!-- 4&#45;&gt;23 -->
<g id="edge8" class="edge">
<title>4&#45;&gt;23</title>
<path fill="none" stroke="green" stroke-width="1.86354" d="M179.593,-157.466C199.476,-145.891 241.629,-121.351 268.706,-105.588"/>
<polygon fill="green" stroke="green" stroke-width="1.86354" points="270.712,-108.47 277.593,-100.415 267.19,-102.421 270.712,-108.47"/>
</g>
<!-- 25 -->
<g id="node26" class="node">
<title>25</title>
<ellipse fill="lightblue" stroke="lightblue" cx="208.5" cy="-18.3848" rx="18.2703" ry="18.2703"/>
<text text-anchor="middle" x="208.5" y="-15.2848" font-family="Times,serif" font-size="9.00">25</text>
</g>
<!-- 4&#45;&gt;25 -->
<g id="edge9" class="edge">
<title>4&#45;&gt;25</title>
<path fill="none" stroke="green" stroke-width="1.22046" d="M163.05,-154.748C153.783,-137.872 137.106,-101.049 149.5,-72.7696 156.588,-56.5971 171.12,-43.1073 183.988,-33.6081"/>
<polygon fill="green" stroke="green" stroke-width="1.22046" points="186.3,-36.2636 192.518,-27.6854 182.308,-30.5136 186.3,-36.2636"/>
</g>
<!-- 5 -->
<g id="node6" class="node">
<title>5</title>
<polygon fill="lightgrey" stroke="black" points="362,-172.924 341,-172.924 341,-154.924 362,-154.924 362,-172.924"/>
<text text-anchor="middle" x="351.5" y="-160.824" font-family="Times,serif" font-size="9.00">5</text>
</g>
<!-- 24 -->
<g id="node25" class="node">
<title>24</title>
<ellipse fill="lightblue" stroke="lightblue" cx="348.5" cy="-91.1543" rx="18.2703" ry="18.2703"/>
<text text-anchor="middle" x="348.5" y="-88.0543" font-family="Times,serif" font-size="9.00">24</text>
</g>
<!-- 5&#45;&gt;24 -->
<g id="edge6" class="edge">
<title>5&#45;&gt;24</title>
<path fill="none" stroke="green" stroke-width="0.592325" d="M351.12,-154.708C350.758,-145.923 350.193,-132.23 349.681,-119.801"/>
<polygon fill="green" stroke="green" stroke-width="0.592325" points="353.177,-119.64 349.268,-109.792 346.183,-119.928 353.177,-119.64"/>
</g>
<!-- 28 -->
<g id="node29" class="node">
<title>28</title>
<ellipse fill="lightblue" stroke="lightblue" cx="403.5" cy="-91.1543" rx="18.2703" ry="18.2703"/>
<text text-anchor="middle" x="403.5" y="-88.0543" font-family="Times,serif" font-size="9.00">28</text>
</g>
<!-- 5&#45;&gt;28 -->
<g id="edge12" class="edge">
<title>5&#45;&gt;28</title>
<path fill="none" stroke="green" stroke-width="1.7494" stroke-dasharray="1,5" d="M358.086,-154.708C365.215,-144.731 376.868,-128.423 386.585,-114.825"/>
<polygon fill="green" stroke="green" stroke-width="1.7494" points="389.657,-116.546 392.624,-106.375 383.962,-112.476 389.657,-116.546"/>
</g>
<!-- 6 -->
<g id="node7" class="node">
<title>6</title>
<polygon fill="lightgrey" stroke="black" points="452,-172.924 431,-172.924 431,-154.924 452,-154.924 452,-172.924"/>
<text text-anchor="middle" x="441.5" y="-160.824" font-family="Times,serif" font-size="9.00">6</text>
</g>
<!-- 7 -->
<g id="node8" class="node">
<title>7</title>
<polygon fill="lightgrey" stroke="black" points="492.5,-172.924 470.5,-172.924 470.5,-154.924 492.5,-154.924 492.5,-172.924"/>
<text text-anchor="middle" x="481.5" y="-160.824" font-family="Times,serif" font-size="9.00">7</text>
</g>
<!-- 22 -->
<g id="node23" class="node">
<title>22</title>
<ellipse fill="lightblue" stroke="lightblue" cx="481.5" cy="-91.1543" rx="18.2703" ry="18.2703"/>
<text text-anchor="middle" x="481.5" y="-88.0543" font-family="Times,serif" font-size="9.00">22</text>
</g>
<!-- 7&#45;&gt;22 -->
<g id="edge11" class="edge">
<title>7&#45;&gt;22</title>
<path fill="none" stroke="red" stroke-width="0.507649" stroke-dasharray="1,5" d="M481.5,-154.708C481.5,-145.923 481.5,-132.23 481.5,-119.801"/>
<polygon fill="red" stroke="red" stroke-width="0.507649" points="485,-119.792 481.5,-109.792 478,-119.792 485,-119.792"/>
</g>
<!-- 8 -->
<g id="node9" class="node">
<title>8</title>
<polygon fill="lightgrey" stroke="black" points="180,-100.154 159,-100.154 159,-82.1543 180,-82.1543 180,-100.154"/>
<text text-anchor="middle" x="169.5" y="-88.0543" font-family="Times,serif" font-size="9.00">8</text>
</g>
<!-- 8&#45;&gt;25 -->
<g id="edge2" class="edge">
<title>8&#45;&gt;25</title>
<path fill="none" stroke="green" stroke-width="1.29319" d="M174.439,-81.938C179.552,-72.3978 187.768,-57.0677 194.85,-43.8543"/>
<polygon fill="green" stroke="green" stroke-width="1.29319" points="198.106,-45.1873 199.745,-34.7199 191.937,-41.8806 198.106,-45.1873"/>
</g>
<!-- 9 -->
<g id="node10" class="node">
<title>9</title>
<polygon fill="lightgrey" stroke="black" points="219,-100.154 198,-100.154 198,-82.1543 219,-82.1543 219,-100.154"/>
<text text-anchor="middle" x="208.5" y="-88.0543" font-family="Times,serif" font-size="9.00">9</text>
</g>
<!-- 9&#45;&gt;25 -->
<g id="edge13" class="edge">
<title>9&#45;&gt;25</title>
<path fill="none" stroke="green" stroke-width="0.376395" d="M208.5,-81.938C208.5,-73.1537 208.5,-59.4608 208.5,-47.0311"/>
<polygon fill="green" stroke="green" stroke-width="0.376395" points="212,-47.0228 208.5,-37.0229 205,-47.0229 212,-47.0228"/>
</g>
<!-- 10 -->
<g id="node11" class="node">
<title>10</title>
<polygon fill="lightgrey" stroke="black" points="536.5,-172.924 510.5,-172.924 510.5,-154.924 536.5,-154.924 536.5,-172.924"/>
<text text-anchor="middle" x="523.5" y="-160.824" font-family="Times,serif" font-size="9.00">10</text>
</g>
<!-- 11 -->
<g id="node12" class="node">
<title>11</title>
<polygon fill="lightgrey" stroke="black" points="580.5,-172.924 554.5,-172.924 554.5,-154.924 580.5,-154.924 580.5,-172.924"/>
<text text-anchor="middle" x="567.5" y="-160.824" font-family="Times,serif" font-size="9.00">11</text>
</g>
<!-- 12 -->
<g id="node13" class="node">
<title>12</title>
<polygon fill="lightgrey" stroke="black" points="261.5,-172.924 235.5,-172.924 235.5,-154.924 261.5,-154.924 261.5,-172.924"/>
<text text-anchor="middle" x="248.5" y="-160.824" font-family="Times,serif" font-size="9.00">12</text>
</g>
<!-- 12&#45;&gt;23 -->
<g id="edge4" class="edge">
<title>12&#45;&gt;23</title>
<path fill="none" stroke="green" stroke-width="1.0425" d="M254.199,-154.708C260.233,-144.95 270.012,-129.137 278.305,-115.726"/>
<polygon fill="green" stroke="green" stroke-width="1.0425" points="281.462,-117.275 283.745,-106.929 275.509,-113.593 281.462,-117.275"/>
</g>
<!-- 12&#45;&gt;25 -->
<g id="edge5" class="edge">
<title>12&#45;&gt;25</title>
<path fill="none" stroke="green" stroke-width="0.913567" d="M246.918,-154.764C243.967,-138.217 237.131,-102.318 228.5,-72.7696 225.864,-63.7468 222.488,-54.0654 219.264,-45.4082"/>
<polygon fill="green" stroke="green" stroke-width="0.913567" points="222.438,-43.9101 215.601,-35.8167 215.899,-46.4074 222.438,-43.9101"/>
</g>
<!-- 13 -->
<g id="node14" class="node">
<title>13</title>
<polygon fill="lightgrey" stroke="black" points="624.5,-172.924 598.5,-172.924 598.5,-154.924 624.5,-154.924 624.5,-172.924"/>
<text text-anchor="middle" x="611.5" y="-160.824" font-family="Times,serif" font-size="9.00">13</text>
</g>
<!-- 14 -->
<g id="node15" class="node">
<title>14</title>
<polygon fill="lightgrey" stroke="black" points="668.5,-172.924 642.5,-172.924 642.5,-154.924 668.5,-154.924 668.5,-172.924"/>
<text text-anchor="middle" x="655.5" y="-160.824" font-family="Times,serif" font-size="9.00">14</text>
</g>
<!-- 15 -->
<g id="node16" class="node">
<title>15</title>
<polygon fill="lightgrey" stroke="black" points="712.5,-172.924 686.5,-172.924 686.5,-154.924 712.5,-154.924 712.5,-172.924"/>
<text text-anchor="middle" x="699.5" y="-160.824" font-family="Times,serif" font-size="9.00">15</text>
</g>
<!-- 16 -->
<g id="node17" class="node">
<title>16</title>
<polygon fill="lightgrey" stroke="black" points="756.5,-172.924 730.5,-172.924 730.5,-154.924 756.5,-154.924 756.5,-172.924"/>
<text text-anchor="middle" x="743.5" y="-160.824" font-family="Times,serif" font-size="9.00">16</text>
</g>
<!-- 17 -->
<g id="node18" class="node">
<title>17</title>
<polygon fill="lightgrey" stroke="black" points="800.5,-172.924 774.5,-172.924 774.5,-154.924 800.5,-154.924 800.5,-172.924"/>
<text text-anchor="middle" x="787.5" y="-160.824" font-family="Times,serif" font-size="9.00">17</text>
</g>
<!-- 18 -->
<g id="node19" class="node">
<title>18</title>
<polygon fill="lightgrey" stroke="black" points="306.5,-172.924 280.5,-172.924 280.5,-154.924 306.5,-154.924 306.5,-172.924"/>
<text text-anchor="middle" x="293.5" y="-160.824" font-family="Times,serif" font-size="9.00">18</text>
</g>
<!-- 18&#45;&gt;23 -->
<g id="edge1" class="edge">
<title>18&#45;&gt;23</title>
<path fill="none" stroke="green" stroke-width="0.39382" d="M293.5,-154.708C293.5,-145.923 293.5,-132.23 293.5,-119.801"/>
<polygon fill="green" stroke="green" stroke-width="0.39382" points="297,-119.792 293.5,-109.792 290,-119.792 297,-119.792"/>
</g>
<!-- 19 -->
<g id="node20" class="node">
<title>19</title>
<polygon fill="lightgrey" stroke="black" points="412.5,-172.924 386.5,-172.924 386.5,-154.924 412.5,-154.924 412.5,-172.924"/>
<text text-anchor="middle" x="399.5" y="-160.824" font-family="Times,serif" font-size="9.00">19</text>
</g>
<!-- 19&#45;&gt;24 -->
<g id="edge7" class="edge">
<title>19&#45;&gt;24</title>
<path fill="none" stroke="red" stroke-width="0.43342" stroke-dasharray="1,5" d="M393.041,-154.708C386.049,-144.731 374.62,-128.423 365.09,-114.825"/>
<polygon fill="red" stroke="red" stroke-width="0.43342" points="367.772,-112.555 359.167,-106.375 362.04,-116.572 367.772,-112.555"/>
</g>
<!-- 19&#45;&gt;28 -->
<g id="edge3" class="edge">
<title>19&#45;&gt;28</title>
<path fill="none" stroke="green" stroke-width="0.351422" stroke-dasharray="1,5" d="M400.007,-154.708C400.489,-145.923 401.242,-132.23 401.925,-119.801"/>
<polygon fill="green" stroke="green" stroke-width="0.351422" points="405.421,-119.969 402.476,-109.792 398.432,-119.585 405.421,-119.969"/>
</g>
<!-- 20 -->
<g id="node21" class="node">
<title>20</title>
<polygon fill="lightgrey" stroke="black" points="844.5,-172.924 818.5,-172.924 818.5,-154.924 844.5,-154.924 844.5,-172.924"/>
<text text-anchor="middle" x="831.5" y="-160.824" font-family="Times,serif" font-size="9.00">20</text>
</g>
<!-- 21 -->
<g id="node22" class="node">
<title>21</title>
<polygon fill="lightgrey" stroke="black" points="888.5,-172.924 862.5,-172.924 862.5,-154.924 888.5,-154.924 888.5,-172.924"/>
<text text-anchor="middle" x="875.5" y="-160.824" font-family="Times,serif" font-size="9.00">21</text>
</g>
<!-- 23&#45;&gt;25 -->
<g id="edge14" class="edge">
<title>23&#45;&gt;25</title>
<path fill="none" stroke="red" stroke-width="0.561053" d="M279.464,-79.1379C266.176,-67.7616 246.016,-50.5031 230.576,-37.2842"/>
<polygon fill="red" stroke="red" stroke-width="0.561053" points="232.43,-34.2637 222.557,-30.419 227.877,-39.5812 232.43,-34.2637"/>
</g>
<!-- 27 -->
<g id="node28" class="node">
<title>27</title>
<ellipse fill="lightblue" stroke="lightblue" cx="293.5" cy="-18.3848" rx="18.2703" ry="18.2703"/>
<text text-anchor="middle" x="293.5" y="-15.2848" font-family="Times,serif" font-size="9.00">27</text>
</g>
<!-- 23&#45;&gt;27 -->
<g id="edge10" class="edge">
<title>23&#45;&gt;27</title>
<path fill="none" stroke="red" stroke-width="0.490178" d="M293.5,-72.4144C293.5,-64.6303 293.5,-55.4246 293.5,-46.8383"/>
<polygon fill="red" stroke="red" stroke-width="0.490178" points="297,-46.8093 293.5,-36.8093 290,-46.8094 297,-46.8093"/>
</g>
<!-- 26 -->
<g id="node27" class="node">
<title>26</title>
<ellipse fill="lightblue" stroke="lightblue" cx="924.5" cy="-163.924" rx="18.2703" ry="18.2703"/>
<text text-anchor="middle" x="924.5" y="-160.824" font-family="Times,serif" font-size="9.00">26</text>
</g>
</g>
</svg>
